M48
; DRILL file {KiCad 9.0.0} date 2025-03-20T15:52:29+0100
; FORMAT={-:-/ absolute / metric / decimal}
; #@! TF.CreationDate,2025-03-20T15:52:29+01:00
; #@! TF.GenerationSoftware,Kicad,Pcbnew,9.0.0
; #@! TF.FileFunction,Plated,1,4,PTH
FMAT,2
METRIC
; #@! TA.AperFunction,Plated,PTH,ViaDrill
T1C0.300
; #@! TA.AperFunction,Plated,PTH,ComponentDrill
T2C0.500
; #@! TA.AperFunction,Plated,PTH,ComponentDrill
T3C0.950
; #@! TA.AperFunction,Plated,PTH,ComponentDrill
T4C1.000
; #@! TA.AperFunction,Plated,PTH,ComponentDrill
T5C3.200
%
G90
G05
T1
X96.16Y-129.1
X96.94Y-135.46
X97.09Y-126.13
X97.28Y-138.83
X97.84Y-140.8
X99.72Y-141.61
X100.04Y-137.21
X101.09Y-146.05
X102.11Y-147.75
X102.88Y-131.85
X102.91Y-130.12
X103.35Y-151.28
X103.37Y-140.8
X104.3Y-148.02
X105.16Y-135.31
X105.23Y-138.05
X105.38Y-130.37
X105.49Y-126.45
X105.5Y-131.92
X107.425Y-138.8
X107.97Y-131.84
X108.02Y-130.13
X109.42Y-148.7
X109.54Y-127.5
X109.82Y-140.8
X109.87Y-135.76
X110.49Y-130.57
X110.94Y-143.1
X112.11Y-147.78
X113.02Y-147.74
X113.04Y-128.04
X113.06Y-132.3
X114.02Y-147.75
X114.11Y-153.33
X114.2Y-135.62
X115.35Y-140.8
X115.57Y-136.76
X115.78Y-154.09
X116.54Y-139.45
X116.92Y-127.71
X117.01Y-126.46
X117.99Y-144.64
X118.56Y-133.43
X119.04Y-129.15
X119.17Y-145.2
X119.52Y-138.17
X120.75Y-151.26
X121.07Y-135.54
X121.339Y-125.725
X121.84Y-140.8
X124.42Y-147.71
X124.785Y-130.391
X124.995Y-131.09
X125.1Y-147.7
X125.53Y-153.96
X125.54Y-142.34
X125.81Y-138.27
X126.0Y-147.7
X126.18Y-149.21
X126.79Y-126.33
X126.87Y-130.29
X126.87Y-132.37
X127.36Y-140.8
X127.96Y-153.93
X129.43Y-147.89
X129.47Y-132.06
X129.59Y-130.51
X129.68Y-126.16
X131.11Y-149.12
X131.834Y-129.664
X132.22Y-136.4
X133.13Y-148.19
X133.84Y-140.8
X135.04Y-144.45
X135.62Y-136.82
X135.95Y-125.13
X136.26Y-147.81
X137.2Y-147.8
X138.2Y-147.8
X138.25Y-135.69
X138.31Y-143.1
X139.28Y-138.88
X139.36Y-140.8
X140.267Y-148.387
X140.92Y-127.56
X142.38Y-152.41
X142.49Y-147.43
X142.51Y-135.48
X142.95Y-126.49
X143.48Y-130.27
X144.64Y-152.77
X144.83Y-142.91
X145.541Y-125.859
X145.86Y-140.8
X146.04Y-138.67
X146.74Y-149.14
X148.27Y-154.19
X148.523Y-136.612
X148.61Y-143.05
X148.94Y-141.15
X149.521Y-147.679
X150.0Y-125.3
X150.2Y-147.7
X150.71Y-138.84
X150.795Y-126.33
X150.85Y-130.4
X151.37Y-140.8
X153.43Y-130.91
X154.24Y-143.1
X155.35Y-154.0
X155.58Y-137.07
X155.79Y-126.06
X156.24Y-130.36
X156.27Y-148.27
X157.85Y-140.8
X159.87Y-138.46
X161.07Y-146.04
X161.16Y-125.61
X161.51Y-144.01
X162.15Y-135.64
X162.7Y-147.0
X163.37Y-140.8
X163.84Y-136.15
X164.85Y-127.71
X165.12Y-132.16
X165.16Y-126.47
T2
X96.26Y-151.1
X96.963Y-149.403
X96.963Y-152.797
X98.66Y-148.7
X98.66Y-153.5
X100.357Y-149.403
X100.357Y-152.797
X101.06Y-151.1
X160.21Y-151.1
X160.913Y-149.403
X160.913Y-152.797
X162.61Y-148.7
X162.61Y-153.5
X164.307Y-149.403
X164.307Y-152.797
X165.01Y-151.1
T3
X105.21Y-150.8
X107.71Y-150.8
X110.21Y-150.8
X112.71Y-150.8
X115.21Y-150.8
X117.71Y-150.8
X123.91Y-150.8
X126.41Y-150.8
X128.91Y-150.8
X131.41Y-150.8
X133.91Y-150.8
X136.41Y-150.8
X142.61Y-150.8
X145.11Y-150.8
X147.61Y-150.8
X150.11Y-150.8
X152.61Y-150.8
X155.11Y-150.8
T4
X99.0Y-129.1
X99.0Y-133.0
X101.54Y-129.1
X101.54Y-133.0
X104.08Y-129.1
X104.08Y-133.0
X106.62Y-129.1
X106.62Y-133.0
X109.16Y-129.1
X109.16Y-133.0
X111.7Y-129.1
X111.7Y-133.0
X114.24Y-129.1
X114.24Y-133.0
X122.98Y-129.1
X122.98Y-133.0
X125.52Y-129.1
X125.52Y-133.0
X128.06Y-129.1
X128.06Y-133.0
X130.6Y-129.1
X130.6Y-133.0
X133.14Y-129.1
X133.14Y-133.0
X135.68Y-129.1
X135.68Y-133.0
X138.22Y-129.1
X138.22Y-133.0
X146.92Y-133.0
X146.985Y-129.1
X149.46Y-133.0
X149.525Y-129.1
X152.0Y-133.0
X152.065Y-129.1
X154.54Y-133.0
X154.605Y-129.1
X157.08Y-133.0
X157.145Y-129.1
X159.62Y-133.0
X159.685Y-129.1
X162.16Y-133.0
X162.225Y-129.1
T5
X98.66Y-151.1
X162.61Y-151.1
M30
