%TF.GenerationSoftware,KiCad,Pcbnew,9.0.0*%
%TF.CreationDate,2025-03-20T15:52:25+01:00*%
%TF.ProjectId,PCB_secondaire,5043425f-7365-4636-9f6e-64616972652e,rev?*%
%TF.SameCoordinates,Original*%
%TF.FileFunction,Copper,L1,Top*%
%TF.FilePolarity,Positive*%
%FSLAX46Y46*%
G04 Gerber Fmt 4.6, Leading zero omitted, Abs format (unit mm)*
G04 Created by KiCad (PCBNEW 9.0.0) date 2025-03-20 15:52:25*
%MOMM*%
%LPD*%
G01*
G04 APERTURE LIST*
G04 Aperture macros list*
%AMRoundRect*
0 Rectangle with rounded corners*
0 $1 Rounding radius*
0 $2 $3 $4 $5 $6 $7 $8 $9 X,Y pos of 4 corners*
0 Add a 4 corners polygon primitive as box body*
4,1,4,$2,$3,$4,$5,$6,$7,$8,$9,$2,$3,0*
0 Add four circle primitives for the rounded corners*
1,1,$1+$1,$2,$3*
1,1,$1+$1,$4,$5*
1,1,$1+$1,$6,$7*
1,1,$1+$1,$8,$9*
0 Add four rect primitives between the rounded corners*
20,1,$1+$1,$2,$3,$4,$5,0*
20,1,$1+$1,$4,$5,$6,$7,0*
20,1,$1+$1,$6,$7,$8,$9,0*
20,1,$1+$1,$8,$9,$2,$3,0*%
G04 Aperture macros list end*
%TA.AperFunction,SMDPad,CuDef*%
%ADD10RoundRect,0.135000X-0.135000X-0.185000X0.135000X-0.185000X0.135000X0.185000X-0.135000X0.185000X0*%
%TD*%
%TA.AperFunction,SMDPad,CuDef*%
%ADD11R,1.550000X1.300000*%
%TD*%
%TA.AperFunction,ComponentPad*%
%ADD12R,1.700000X1.700000*%
%TD*%
%TA.AperFunction,ComponentPad*%
%ADD13O,1.700000X1.700000*%
%TD*%
%TA.AperFunction,ComponentPad*%
%ADD14C,0.800000*%
%TD*%
%TA.AperFunction,ComponentPad*%
%ADD15C,6.400000*%
%TD*%
%TA.AperFunction,SMDPad,CuDef*%
%ADD16RoundRect,0.140000X-0.140000X-0.170000X0.140000X-0.170000X0.140000X0.170000X-0.140000X0.170000X0*%
%TD*%
%TA.AperFunction,SMDPad,CuDef*%
%ADD17RoundRect,0.225000X-0.250000X0.225000X-0.250000X-0.225000X0.250000X-0.225000X0.250000X0.225000X0*%
%TD*%
%TA.AperFunction,ComponentPad*%
%ADD18RoundRect,0.250000X-0.600000X-0.725000X0.600000X-0.725000X0.600000X0.725000X-0.600000X0.725000X0*%
%TD*%
%TA.AperFunction,ComponentPad*%
%ADD19O,1.700000X1.950000*%
%TD*%
%TA.AperFunction,SMDPad,CuDef*%
%ADD20RoundRect,0.225000X0.225000X0.250000X-0.225000X0.250000X-0.225000X-0.250000X0.225000X-0.250000X0*%
%TD*%
%TA.AperFunction,ViaPad*%
%ADD21C,0.450000*%
%TD*%
%TA.AperFunction,Conductor*%
%ADD22C,0.200000*%
%TD*%
G04 APERTURE END LIST*
D10*
%TO.P,R2,1*%
%TO.N,+3.3V*%
X102110000Y-147000000D03*
%TO.P,R2,2*%
%TO.N,Net-(SW1-A)*%
X103130000Y-147000000D03*
%TD*%
D11*
%TO.P,SW1,1,A*%
%TO.N,Net-(SW1-A)*%
X104585000Y-145300000D03*
X96635000Y-145300000D03*
%TO.P,SW1,2,B*%
%TO.N,GND*%
X104585000Y-140800000D03*
X96635000Y-140800000D03*
%TD*%
D10*
%TO.P,R4,1*%
%TO.N,+3.3V*%
X114020000Y-147000000D03*
%TO.P,R4,2*%
%TO.N,Net-(SW2-A)*%
X115040000Y-147000000D03*
%TD*%
D12*
%TO.P,J9,1,Pin_1*%
%TO.N,/SPI_CS_6*%
X146920000Y-133000000D03*
D13*
%TO.P,J9,2,Pin_2*%
%TO.N,/SPI_D{slash}C*%
X149460000Y-133000000D03*
%TO.P,J9,3,Pin_3*%
%TO.N,/SPI_RES*%
X152000000Y-133000000D03*
%TO.P,J9,4,Pin_4*%
%TO.N,/SPI_MOSI*%
X154540000Y-133000000D03*
%TO.P,J9,5,Pin_5*%
%TO.N,/SPI_SCK*%
X157080000Y-133000000D03*
%TO.P,J9,6,Pin_6*%
%TO.N,+3.3V*%
X159620000Y-133000000D03*
%TO.P,J9,7,Pin_7*%
%TO.N,GND*%
X162160000Y-133000000D03*
%TD*%
D11*
%TO.P,SW3,1,A*%
%TO.N,Net-(SW3-A)*%
X128585000Y-145300000D03*
X120635000Y-145300000D03*
%TO.P,SW3,2,B*%
%TO.N,GND*%
X128585000Y-140800000D03*
X120635000Y-140800000D03*
%TD*%
D14*
%TO.P,H101,1,1*%
%TO.N,GND*%
X96260000Y-151100000D03*
X96962944Y-149402944D03*
X96962944Y-152797056D03*
X98660000Y-148700000D03*
D15*
X98660000Y-151100000D03*
D14*
X98660000Y-153500000D03*
X100357056Y-149402944D03*
X100357056Y-152797056D03*
X101060000Y-151100000D03*
%TD*%
D10*
%TO.P,R3,1*%
%TO.N,Net-(SW2-A)*%
X110060000Y-147000000D03*
%TO.P,R3,2*%
%TO.N,BTN_2*%
X111080000Y-147000000D03*
%TD*%
D14*
%TO.P,H102,1,1*%
%TO.N,GND*%
X160210000Y-151100000D03*
X160912944Y-149402944D03*
X160912944Y-152797056D03*
X162610000Y-148700000D03*
D15*
X162610000Y-151100000D03*
D14*
X162610000Y-153500000D03*
X164307056Y-149402944D03*
X164307056Y-152797056D03*
X165010000Y-151100000D03*
%TD*%
D10*
%TO.P,R12,1*%
%TO.N,+3.3V*%
X163590000Y-147000000D03*
%TO.P,R12,2*%
%TO.N,Net-(SW6-A)*%
X164610000Y-147000000D03*
%TD*%
D12*
%TO.P,J4,1,Pin_1*%
%TO.N,/SPI_CS_4*%
X122980000Y-129100000D03*
D13*
%TO.P,J4,2,Pin_2*%
%TO.N,/SPI_D{slash}C*%
X125520000Y-129100000D03*
%TO.P,J4,3,Pin_3*%
%TO.N,/SPI_RES*%
X128060000Y-129100000D03*
%TO.P,J4,4,Pin_4*%
%TO.N,/SPI_MOSI*%
X130600000Y-129100000D03*
%TO.P,J4,5,Pin_5*%
%TO.N,/SPI_SCK*%
X133140000Y-129100000D03*
%TO.P,J4,6,Pin_6*%
%TO.N,+3.3V*%
X135680000Y-129100000D03*
%TO.P,J4,7,Pin_7*%
%TO.N,GND*%
X138220000Y-129100000D03*
%TD*%
D16*
%TO.P,C6,1*%
%TO.N,BTN_6*%
X160100000Y-147000000D03*
%TO.P,C6,2*%
%TO.N,GND*%
X161060000Y-147000000D03*
%TD*%
D17*
%TO.P,C9,1*%
%TO.N,GND*%
X164860000Y-128705000D03*
%TO.P,C9,2*%
%TO.N,+3.3V*%
X164860000Y-130255000D03*
%TD*%
D11*
%TO.P,SW6,1,A*%
%TO.N,Net-(SW6-A)*%
X164585000Y-145300000D03*
X156635000Y-145300000D03*
%TO.P,SW6,2,B*%
%TO.N,GND*%
X164585000Y-140800000D03*
X156635000Y-140800000D03*
%TD*%
D18*
%TO.P,J7,1,Pin_1*%
%TO.N,/SPI_D{slash}C*%
X105210000Y-150800000D03*
D19*
%TO.P,J7,2,Pin_2*%
%TO.N,/SPI_RES*%
X107710000Y-150800000D03*
%TO.P,J7,3,Pin_3*%
%TO.N,/SPI_MOSI*%
X110210000Y-150800000D03*
%TO.P,J7,4,Pin_4*%
%TO.N,/SPI_SCK*%
X112710000Y-150800000D03*
%TO.P,J7,5,Pin_5*%
%TO.N,+3.3V*%
X115210000Y-150800000D03*
%TO.P,J7,6,Pin_6*%
%TO.N,GND*%
X117710000Y-150800000D03*
%TD*%
D16*
%TO.P,C5,1*%
%TO.N,BTN_5*%
X148190000Y-146900000D03*
%TO.P,C5,2*%
%TO.N,GND*%
X149150000Y-146900000D03*
%TD*%
D10*
%TO.P,R5,1*%
%TO.N,Net-(SW3-A)*%
X122140000Y-146900000D03*
%TO.P,R5,2*%
%TO.N,BTN_3*%
X123160000Y-146900000D03*
%TD*%
D20*
%TO.P,C11,1*%
%TO.N,GND*%
X137230000Y-135690000D03*
%TO.P,C11,2*%
%TO.N,+3.3V*%
X135680000Y-135690000D03*
%TD*%
D11*
%TO.P,SW4,1,A*%
%TO.N,Net-(SW4-A)*%
X140585000Y-145300000D03*
X132635000Y-145300000D03*
%TO.P,SW4,2,B*%
%TO.N,GND*%
X140585000Y-140800000D03*
X132635000Y-140800000D03*
%TD*%
D16*
%TO.P,C1,1*%
%TO.N,BTN_1*%
X100130000Y-147000000D03*
%TO.P,C1,2*%
%TO.N,GND*%
X101090000Y-147000000D03*
%TD*%
D11*
%TO.P,SW5,1,A*%
%TO.N,Net-(SW5-A)*%
X152585000Y-145300000D03*
X144635000Y-145300000D03*
%TO.P,SW5,2,B*%
%TO.N,GND*%
X152585000Y-140800000D03*
X144635000Y-140800000D03*
%TD*%
D16*
%TO.P,C4,1*%
%TO.N,BTN_4*%
X136200000Y-147000000D03*
%TO.P,C4,2*%
%TO.N,GND*%
X137160000Y-147000000D03*
%TD*%
%TO.P,C3,1*%
%TO.N,BTN_3*%
X124140000Y-146900000D03*
%TO.P,C3,2*%
%TO.N,GND*%
X125100000Y-146900000D03*
%TD*%
D20*
%TO.P,C12,1*%
%TO.N,GND*%
X161195000Y-135650000D03*
%TO.P,C12,2*%
%TO.N,+3.3V*%
X159645000Y-135650000D03*
%TD*%
D10*
%TO.P,R7,1*%
%TO.N,Net-(SW4-A)*%
X134200000Y-147000000D03*
%TO.P,R7,2*%
%TO.N,BTN_4*%
X135220000Y-147000000D03*
%TD*%
D16*
%TO.P,C2,1*%
%TO.N,BTN_2*%
X112070000Y-147000000D03*
%TO.P,C2,2*%
%TO.N,GND*%
X113030000Y-147000000D03*
%TD*%
D10*
%TO.P,R6,1*%
%TO.N,+3.3V*%
X126040000Y-146900000D03*
%TO.P,R6,2*%
%TO.N,Net-(SW3-A)*%
X127060000Y-146900000D03*
%TD*%
%TO.P,R9,1*%
%TO.N,Net-(SW5-A)*%
X146190000Y-146900000D03*
%TO.P,R9,2*%
%TO.N,BTN_5*%
X147210000Y-146900000D03*
%TD*%
D12*
%TO.P,J3,1,Pin_1*%
%TO.N,/SPI_CS_2*%
X99000000Y-129100000D03*
D13*
%TO.P,J3,2,Pin_2*%
%TO.N,/SPI_D{slash}C*%
X101540000Y-129100000D03*
%TO.P,J3,3,Pin_3*%
%TO.N,/SPI_RES*%
X104080000Y-129100000D03*
%TO.P,J3,4,Pin_4*%
%TO.N,/SPI_MOSI*%
X106620000Y-129100000D03*
%TO.P,J3,5,Pin_5*%
%TO.N,/SPI_SCK*%
X109160000Y-129100000D03*
%TO.P,J3,6,Pin_6*%
%TO.N,+3.3V*%
X111700000Y-129100000D03*
%TO.P,J3,7,Pin_7*%
%TO.N,GND*%
X114240000Y-129100000D03*
%TD*%
D17*
%TO.P,C10,1*%
%TO.N,GND*%
X116920000Y-128655000D03*
%TO.P,C10,2*%
%TO.N,+3.3V*%
X116920000Y-130205000D03*
%TD*%
D12*
%TO.P,J6,1,Pin_1*%
%TO.N,/SPI_CS_3*%
X122980000Y-133000000D03*
D13*
%TO.P,J6,2,Pin_2*%
%TO.N,/SPI_D{slash}C*%
X125520000Y-133000000D03*
%TO.P,J6,3,Pin_3*%
%TO.N,/SPI_RES*%
X128060000Y-133000000D03*
%TO.P,J6,4,Pin_4*%
%TO.N,/SPI_MOSI*%
X130600000Y-133000000D03*
%TO.P,J6,5,Pin_5*%
%TO.N,/SPI_SCK*%
X133140000Y-133000000D03*
%TO.P,J6,6,Pin_6*%
%TO.N,+3.3V*%
X135680000Y-133000000D03*
%TO.P,J6,7,Pin_7*%
%TO.N,GND*%
X138220000Y-133000000D03*
%TD*%
D11*
%TO.P,SW2,1,A*%
%TO.N,Net-(SW2-A)*%
X116560000Y-145300000D03*
X108610000Y-145300000D03*
%TO.P,SW2,2,B*%
%TO.N,GND*%
X116560000Y-140800000D03*
X108610000Y-140800000D03*
%TD*%
D17*
%TO.P,C8,1*%
%TO.N,GND*%
X140910000Y-128555000D03*
%TO.P,C8,2*%
%TO.N,+3.3V*%
X140910000Y-130105000D03*
%TD*%
D12*
%TO.P,J1,1,Pin_1*%
%TO.N,/SPI_CS_1*%
X99000000Y-133000000D03*
D13*
%TO.P,J1,2,Pin_2*%
%TO.N,/SPI_D{slash}C*%
X101540000Y-133000000D03*
%TO.P,J1,3,Pin_3*%
%TO.N,/SPI_RES*%
X104080000Y-133000000D03*
%TO.P,J1,4,Pin_4*%
%TO.N,/SPI_MOSI*%
X106620000Y-133000000D03*
%TO.P,J1,5,Pin_5*%
%TO.N,/SPI_SCK*%
X109160000Y-133000000D03*
%TO.P,J1,6,Pin_6*%
%TO.N,+3.3V*%
X111700000Y-133000000D03*
%TO.P,J1,7,Pin_7*%
%TO.N,GND*%
X114240000Y-133000000D03*
%TD*%
D18*
%TO.P,J8,1,Pin_1*%
%TO.N,/SPI_CS_1*%
X123910000Y-150800000D03*
D19*
%TO.P,J8,2,Pin_2*%
%TO.N,/SPI_CS_2*%
X126410000Y-150800000D03*
%TO.P,J8,3,Pin_3*%
%TO.N,/SPI_CS_3*%
X128910000Y-150800000D03*
%TO.P,J8,4,Pin_4*%
%TO.N,/SPI_CS_4*%
X131410000Y-150800000D03*
%TO.P,J8,5,Pin_5*%
%TO.N,/SPI_CS_5*%
X133910000Y-150800000D03*
%TO.P,J8,6,Pin_6*%
%TO.N,/SPI_CS_6*%
X136410000Y-150800000D03*
%TD*%
D10*
%TO.P,R1,1*%
%TO.N,Net-(SW1-A)*%
X98110000Y-147000000D03*
%TO.P,R1,2*%
%TO.N,BTN_1*%
X99130000Y-147000000D03*
%TD*%
D18*
%TO.P,J2,1,Pin_1*%
%TO.N,BTN_1*%
X142610000Y-150800000D03*
D19*
%TO.P,J2,2,Pin_2*%
%TO.N,BTN_2*%
X145110000Y-150800000D03*
%TO.P,J2,3,Pin_3*%
%TO.N,BTN_3*%
X147610000Y-150800000D03*
%TO.P,J2,4,Pin_4*%
%TO.N,BTN_4*%
X150110000Y-150800000D03*
%TO.P,J2,5,Pin_5*%
%TO.N,BTN_5*%
X152610000Y-150800000D03*
%TO.P,J2,6,Pin_6*%
%TO.N,BTN_6*%
X155110000Y-150800000D03*
%TD*%
D10*
%TO.P,R8,1*%
%TO.N,+3.3V*%
X138150000Y-147000000D03*
%TO.P,R8,2*%
%TO.N,Net-(SW4-A)*%
X139170000Y-147000000D03*
%TD*%
D12*
%TO.P,J5,1,Pin_1*%
%TO.N,/SPI_CS_5*%
X146985000Y-129100000D03*
D13*
%TO.P,J5,2,Pin_2*%
%TO.N,/SPI_D{slash}C*%
X149525000Y-129100000D03*
%TO.P,J5,3,Pin_3*%
%TO.N,/SPI_RES*%
X152065000Y-129100000D03*
%TO.P,J5,4,Pin_4*%
%TO.N,/SPI_MOSI*%
X154605000Y-129100000D03*
%TO.P,J5,5,Pin_5*%
%TO.N,/SPI_SCK*%
X157145000Y-129100000D03*
%TO.P,J5,6,Pin_6*%
%TO.N,+3.3V*%
X159685000Y-129100000D03*
%TO.P,J5,7,Pin_7*%
%TO.N,GND*%
X162225000Y-129100000D03*
%TD*%
D10*
%TO.P,R11,1*%
%TO.N,Net-(SW6-A)*%
X158090000Y-147000000D03*
%TO.P,R11,2*%
%TO.N,BTN_6*%
X159110000Y-147000000D03*
%TD*%
%TO.P,R10,1*%
%TO.N,+3.3V*%
X150200000Y-146900000D03*
%TO.P,R10,2*%
%TO.N,Net-(SW5-A)*%
X151220000Y-146900000D03*
%TD*%
D20*
%TO.P,C7,1*%
%TO.N,GND*%
X113225000Y-135640000D03*
%TO.P,C7,2*%
%TO.N,+3.3V*%
X111675000Y-135640000D03*
%TD*%
D21*
%TO.N,GND*%
X120750000Y-151260000D03*
X149521232Y-147678768D03*
X102880000Y-131850000D03*
X163840000Y-136150000D03*
X156270000Y-148270000D03*
X116540000Y-139450000D03*
X117990000Y-144640000D03*
X101090000Y-146050000D03*
X162150000Y-135640000D03*
X119170000Y-145200000D03*
X155580000Y-137070000D03*
X133130000Y-148190000D03*
X139280000Y-138880000D03*
X96940000Y-135460000D03*
X121840000Y-140800000D03*
X135040000Y-144450000D03*
X105490000Y-126450000D03*
X126870000Y-132370000D03*
X161070000Y-146040000D03*
X115570000Y-136760000D03*
X116920000Y-127710000D03*
X161510000Y-144010000D03*
X96160000Y-129100000D03*
X105160000Y-135310000D03*
X121070000Y-135540000D03*
X139360000Y-140800000D03*
X125100000Y-147700000D03*
X146040000Y-138670000D03*
X109420000Y-148700000D03*
X118560000Y-133430000D03*
X165160000Y-126470000D03*
X142380000Y-152410000D03*
X105380000Y-130370000D03*
X129430000Y-147890000D03*
X109870000Y-135760000D03*
X148270000Y-154190000D03*
X97090000Y-126130000D03*
X125530000Y-153960000D03*
X126180000Y-149210000D03*
X148610000Y-143050000D03*
X97280000Y-138830000D03*
X113060000Y-132300000D03*
X131833768Y-129663768D03*
X115780000Y-154090000D03*
X164850000Y-127710000D03*
X110940000Y-143100000D03*
X113020000Y-147740000D03*
X129680000Y-126160000D03*
X102910000Y-130120000D03*
X154240000Y-143100000D03*
X138310000Y-143100000D03*
X155350000Y-154000000D03*
X110490000Y-130570000D03*
X137200000Y-147800000D03*
X165120000Y-132160000D03*
X148523218Y-136611724D03*
X161160000Y-125610000D03*
X104300000Y-148020000D03*
X109540000Y-127500000D03*
X103370000Y-140800000D03*
X131110000Y-149120000D03*
X143480000Y-130270000D03*
X142510000Y-135480000D03*
X150710000Y-138840000D03*
X99720000Y-141610000D03*
X103350000Y-151280000D03*
X119520000Y-138170000D03*
X142950000Y-126490000D03*
X151370000Y-140800000D03*
X142490000Y-147430000D03*
X135620000Y-136820000D03*
X153430000Y-130910000D03*
X109820000Y-140800000D03*
X126790000Y-126330000D03*
X125810000Y-138270000D03*
X146740000Y-149140000D03*
X119040000Y-129150000D03*
X129590000Y-130510000D03*
X115350000Y-140800000D03*
X157850000Y-140800000D03*
X117010000Y-126460000D03*
X129470000Y-132060000D03*
X144640000Y-152770000D03*
X144830000Y-142910000D03*
X105230000Y-138050000D03*
X124785000Y-130391168D03*
X163370000Y-140800000D03*
X125540000Y-142340000D03*
X159870000Y-138460000D03*
X107970000Y-131840000D03*
X150850000Y-130400000D03*
X108020000Y-130130000D03*
X133840000Y-140800000D03*
X140920000Y-127560000D03*
X105500000Y-131920000D03*
X138250000Y-135690000D03*
X155790000Y-126060000D03*
X145860000Y-140800000D03*
X126870000Y-130290000D03*
X150795000Y-126330000D03*
X113040000Y-128040000D03*
X148940000Y-141150000D03*
X127360000Y-140800000D03*
X132220000Y-136400000D03*
X135950000Y-125130000D03*
X100040000Y-137210000D03*
X97840000Y-140800000D03*
X114200000Y-135620000D03*
X156240000Y-130360000D03*
%TO.N,BTN_2*%
X114110000Y-153330000D03*
X112110000Y-147780000D03*
%TO.N,BTN_3*%
X127960000Y-153930000D03*
X124420000Y-147710000D03*
%TO.N,BTN_4*%
X136260000Y-147810000D03*
X140267232Y-148387232D03*
%TO.N,+3.3V*%
X138200000Y-147800000D03*
X114020000Y-147750000D03*
X126000000Y-147700000D03*
X150200000Y-147700000D03*
X102110000Y-147750000D03*
X162700000Y-147000000D03*
%TO.N,/SPI_CS_1*%
X107425000Y-138800000D03*
%TO.N,/SPI_SCK*%
X150000000Y-125300000D03*
X124995000Y-131090000D03*
%TO.N,/SPI_RES*%
X145541268Y-125858732D03*
X121338768Y-125725000D03*
%TD*%
D22*
%TO.N,BTN_1*%
X101798744Y-148251256D02*
X101800000Y-148250000D01*
X99130000Y-147000000D02*
X100130000Y-147000000D01*
X101800000Y-148250000D02*
X102630000Y-149080000D01*
X100306778Y-147433878D02*
X100306778Y-147176778D01*
X140840000Y-152570000D02*
X142610000Y-150800000D01*
X102630000Y-149080000D02*
X102630000Y-151530000D01*
X103670000Y-152570000D02*
X140840000Y-152570000D01*
X100306778Y-147176778D02*
X100130000Y-147000000D01*
X100306778Y-147433878D02*
X101124156Y-148251256D01*
X101124156Y-148251256D02*
X101798744Y-148251256D01*
X102630000Y-151530000D02*
X103670000Y-152570000D01*
%TO.N,GND*%
X120635000Y-140800000D02*
X121840000Y-140800000D01*
X161060000Y-147000000D02*
X161060000Y-146050000D01*
X162140000Y-135650000D02*
X162150000Y-135640000D01*
X140910000Y-127570000D02*
X140920000Y-127560000D01*
X104585000Y-140800000D02*
X103370000Y-140800000D01*
X113020000Y-147740000D02*
X113030000Y-147730000D01*
X96635000Y-140800000D02*
X97840000Y-140800000D01*
X164860000Y-127720000D02*
X164850000Y-127710000D01*
X152585000Y-140800000D02*
X151370000Y-140800000D01*
X116560000Y-140800000D02*
X115350000Y-140800000D01*
X114180000Y-135640000D02*
X114200000Y-135620000D01*
X149150000Y-146900000D02*
X149150000Y-147307536D01*
X161195000Y-135650000D02*
X162140000Y-135650000D01*
X128585000Y-140800000D02*
X127360000Y-140800000D01*
X164585000Y-140800000D02*
X163370000Y-140800000D01*
X113225000Y-135640000D02*
X114180000Y-135640000D01*
X164860000Y-128705000D02*
X164860000Y-127720000D01*
X132635000Y-140800000D02*
X133840000Y-140800000D01*
X144635000Y-140800000D02*
X145860000Y-140800000D01*
X161060000Y-146050000D02*
X161070000Y-146040000D01*
X101090000Y-147000000D02*
X101090000Y-146050000D01*
X113030000Y-147730000D02*
X113030000Y-147000000D01*
X108610000Y-140800000D02*
X109820000Y-140800000D01*
X137160000Y-147000000D02*
X137160000Y-147760000D01*
X137230000Y-135690000D02*
X138250000Y-135690000D01*
X125100000Y-146900000D02*
X125100000Y-147700000D01*
X156635000Y-140800000D02*
X157850000Y-140800000D01*
X140910000Y-128555000D02*
X140910000Y-127570000D01*
X116920000Y-128655000D02*
X116920000Y-127710000D01*
X137160000Y-147760000D02*
X137200000Y-147800000D01*
X149150000Y-147307536D02*
X149521232Y-147678768D01*
X140585000Y-140800000D02*
X139360000Y-140800000D01*
%TO.N,BTN_2*%
X112110000Y-147040000D02*
X112070000Y-147000000D01*
X142580000Y-153330000D02*
X114110000Y-153330000D01*
X112110000Y-147780000D02*
X112110000Y-147040000D01*
X145110000Y-150800000D02*
X142580000Y-153330000D01*
X112070000Y-147000000D02*
X111080000Y-147000000D01*
%TO.N,BTN_3*%
X123160000Y-146900000D02*
X124140000Y-146900000D01*
X124420000Y-147180000D02*
X124140000Y-146900000D01*
X147610000Y-150800000D02*
X144480000Y-153930000D01*
X144480000Y-153930000D02*
X127960000Y-153930000D01*
X124420000Y-147710000D02*
X124420000Y-147180000D01*
%TO.N,BTN_4*%
X136260000Y-147060000D02*
X136200000Y-147000000D01*
X136200000Y-147000000D02*
X135220000Y-147000000D01*
X147697232Y-148387232D02*
X140267232Y-148387232D01*
X136260000Y-147810000D02*
X136260000Y-147060000D01*
X150110000Y-150800000D02*
X147697232Y-148387232D01*
%TO.N,BTN_5*%
X148190000Y-147090000D02*
X148190000Y-146900000D01*
X151900000Y-150800000D02*
X148190000Y-147090000D01*
X147210000Y-146900000D02*
X148190000Y-146900000D01*
X152610000Y-150800000D02*
X151900000Y-150800000D01*
%TO.N,BTN_6*%
X159110000Y-147000000D02*
X155310000Y-150800000D01*
X155310000Y-150800000D02*
X155110000Y-150800000D01*
X159110000Y-147000000D02*
X160100000Y-147000000D01*
%TO.N,+3.3V*%
X138150000Y-147000000D02*
X138150000Y-147750000D01*
X160840000Y-130255000D02*
X159685000Y-129100000D01*
X163590000Y-147000000D02*
X162700000Y-147000000D01*
X135680000Y-129100000D02*
X136831000Y-130251000D01*
X159645000Y-133025000D02*
X159620000Y-133000000D01*
X114020000Y-147000000D02*
X114020000Y-147750000D01*
X140764000Y-130251000D02*
X140910000Y-130105000D01*
X135680000Y-135690000D02*
X135680000Y-133000000D01*
X136831000Y-130251000D02*
X140764000Y-130251000D01*
X150200000Y-146900000D02*
X150200000Y-147700000D01*
X111700000Y-135615000D02*
X111675000Y-135640000D01*
X138150000Y-147750000D02*
X138200000Y-147800000D01*
X111700000Y-133000000D02*
X111700000Y-135615000D01*
X159645000Y-135650000D02*
X159645000Y-133025000D01*
X116920000Y-130205000D02*
X116874000Y-130251000D01*
X112851000Y-130251000D02*
X111700000Y-129100000D01*
X164860000Y-130255000D02*
X160840000Y-130255000D01*
X116874000Y-130251000D02*
X112851000Y-130251000D01*
X102110000Y-147750000D02*
X102110000Y-147000000D01*
X126040000Y-146900000D02*
X126040000Y-147660000D01*
X126040000Y-147660000D02*
X126000000Y-147700000D01*
%TO.N,/SPI_CS_1*%
X123910000Y-150800000D02*
X122600000Y-150800000D01*
X118580000Y-140180000D02*
X117200000Y-138800000D01*
X122600000Y-150800000D02*
X118580000Y-146780000D01*
X118580000Y-146780000D02*
X118580000Y-140180000D01*
X117200000Y-138800000D02*
X107425000Y-138800000D01*
%TO.N,/SPI_SCK*%
X133140000Y-129100000D02*
X133140000Y-133000000D01*
X109160000Y-133000000D02*
X111070000Y-131090000D01*
X111070000Y-131090000D02*
X124995000Y-131090000D01*
X157080000Y-129165000D02*
X157145000Y-129100000D01*
X153345000Y-125300000D02*
X157145000Y-129100000D01*
X157145000Y-132935000D02*
X157080000Y-133000000D01*
X157145000Y-129100000D02*
X157145000Y-132935000D01*
X150000000Y-125300000D02*
X153345000Y-125300000D01*
X109160000Y-133000000D02*
X109160000Y-129100000D01*
%TO.N,/SPI_D{slash}C*%
X106199000Y-149811000D02*
X106199000Y-149523900D01*
X145026000Y-124601000D02*
X149525000Y-129100000D01*
X149460000Y-129165000D02*
X149525000Y-129100000D01*
X105210000Y-150800000D02*
X106199000Y-149811000D01*
X130019000Y-124601000D02*
X145026000Y-124601000D01*
X125520000Y-129100000D02*
X125520000Y-133000000D01*
X105440000Y-125200000D02*
X101540000Y-129100000D01*
X149460000Y-133000000D02*
X149460000Y-129165000D01*
X121620000Y-125200000D02*
X105440000Y-125200000D01*
X149525000Y-132935000D02*
X149460000Y-133000000D01*
X101540000Y-129100000D02*
X101540000Y-133000000D01*
X106199000Y-149523900D02*
X106199000Y-137659000D01*
X125520000Y-129100000D02*
X121620000Y-125200000D01*
X106199000Y-137659000D02*
X101540000Y-133000000D01*
X125520000Y-129100000D02*
X130019000Y-124601000D01*
%TO.N,/SPI_MOSI*%
X130600000Y-133000000D02*
X130600000Y-129100000D01*
X106620000Y-133000000D02*
X106620000Y-129100000D01*
X154605000Y-132935000D02*
X154540000Y-133000000D01*
X154605000Y-129100000D02*
X154605000Y-132935000D01*
%TO.N,/SPI_RES*%
X104080000Y-129100000D02*
X107455000Y-125725000D01*
X131460000Y-125700000D02*
X145382536Y-125700000D01*
X107710000Y-150800000D02*
X106900000Y-149990000D01*
X145382536Y-125700000D02*
X145541268Y-125858732D01*
X152065000Y-132935000D02*
X152000000Y-133000000D01*
X106900000Y-135820000D02*
X104080000Y-133000000D01*
X104080000Y-133000000D02*
X104080000Y-129100000D01*
X107455000Y-125725000D02*
X121338768Y-125725000D01*
X128060000Y-129100000D02*
X131460000Y-125700000D01*
X106900000Y-149990000D02*
X106900000Y-135820000D01*
X152065000Y-129100000D02*
X152065000Y-132935000D01*
X128060000Y-129100000D02*
X128060000Y-133000000D01*
%TO.N,/SPI_CS_5*%
X130940000Y-147830000D02*
X130940000Y-139500000D01*
X133910000Y-150800000D02*
X130940000Y-147830000D01*
X130940000Y-139500000D02*
X132410000Y-138030000D01*
X138055000Y-138030000D02*
X146985000Y-129100000D01*
X132410000Y-138030000D02*
X138055000Y-138030000D01*
%TO.N,/SPI_CS_3*%
X130170000Y-149540000D02*
X130170000Y-139400000D01*
X130170000Y-139400000D02*
X123770000Y-133000000D01*
X128910000Y-150800000D02*
X130170000Y-149540000D01*
X123770000Y-133000000D02*
X122980000Y-133000000D01*
%TO.N,/SPI_CS_6*%
X136410000Y-150800000D02*
X137112000Y-150800000D01*
X137112000Y-150800000D02*
X142770000Y-145142000D01*
X146920000Y-135000000D02*
X146920000Y-133000000D01*
X142770000Y-139150000D02*
X146920000Y-135000000D01*
X142770000Y-145142000D02*
X142770000Y-139150000D01*
%TO.N,Net-(SW1-A)*%
X104585000Y-145300000D02*
X96635000Y-145300000D01*
X98110000Y-146775000D02*
X96635000Y-145300000D01*
X103130000Y-146755000D02*
X104585000Y-145300000D01*
X98110000Y-147000000D02*
X98110000Y-146775000D01*
X103130000Y-147000000D02*
X103130000Y-146755000D01*
%TO.N,Net-(SW2-A)*%
X115040000Y-147000000D02*
X115040000Y-146820000D01*
X110060000Y-147000000D02*
X110060000Y-146750000D01*
X115040000Y-146820000D02*
X116560000Y-145300000D01*
X108610000Y-145300000D02*
X116560000Y-145300000D01*
X110060000Y-146750000D02*
X108610000Y-145300000D01*
%TO.N,Net-(SW3-A)*%
X127060000Y-146825000D02*
X128585000Y-145300000D01*
X127060000Y-146900000D02*
X127060000Y-146825000D01*
X120635000Y-145395000D02*
X122140000Y-146900000D01*
X120635000Y-145300000D02*
X128585000Y-145300000D01*
X120635000Y-145300000D02*
X120635000Y-145395000D01*
%TO.N,Net-(SW4-A)*%
X134200000Y-147000000D02*
X132635000Y-145435000D01*
X132635000Y-145300000D02*
X140585000Y-145300000D01*
X132635000Y-145435000D02*
X132635000Y-145300000D01*
X139170000Y-147000000D02*
X139170000Y-146715000D01*
X139170000Y-146715000D02*
X140585000Y-145300000D01*
%TO.N,Net-(SW5-A)*%
X151220000Y-146665000D02*
X152585000Y-145300000D01*
X146190000Y-146900000D02*
X146190000Y-146855000D01*
X146190000Y-146855000D02*
X144635000Y-145300000D01*
X151220000Y-146900000D02*
X151220000Y-146665000D01*
X144635000Y-145300000D02*
X152585000Y-145300000D01*
%TO.N,Net-(SW6-A)*%
X156635000Y-145300000D02*
X164585000Y-145300000D01*
X164585000Y-145300000D02*
X164585000Y-146975000D01*
X158090000Y-146755000D02*
X156635000Y-145300000D01*
X164585000Y-146975000D02*
X164610000Y-147000000D01*
X158090000Y-147000000D02*
X158090000Y-146755000D01*
%TD*%
%TA.AperFunction,Conductor*%
%TO.N,GND*%
G36*
X101448319Y-153534766D02*
G01*
X101448320Y-153534765D01*
X101635447Y-153306750D01*
X101635457Y-153306736D01*
X101837418Y-153004480D01*
X101837429Y-153004462D01*
X102008790Y-152683869D01*
X102008792Y-152683864D01*
X102147913Y-152347997D01*
X102192791Y-152200054D01*
X102231089Y-152141615D01*
X102294901Y-152113159D01*
X102363968Y-152123719D01*
X102399133Y-152148368D01*
X103185139Y-152934374D01*
X103185149Y-152934385D01*
X103189479Y-152938715D01*
X103189480Y-152938716D01*
X103301284Y-153050520D01*
X103383895Y-153098215D01*
X103383896Y-153098216D01*
X103438209Y-153129574D01*
X103438210Y-153129574D01*
X103438215Y-153129577D01*
X103590943Y-153170500D01*
X103749057Y-153170500D01*
X113260500Y-153170500D01*
X113327539Y-153190185D01*
X113373294Y-153242989D01*
X113384500Y-153294500D01*
X113384500Y-153401455D01*
X113384500Y-153401457D01*
X113384499Y-153401457D01*
X113412379Y-153541614D01*
X113412381Y-153541620D01*
X113467069Y-153673650D01*
X113467074Y-153673659D01*
X113546467Y-153792478D01*
X113546470Y-153792482D01*
X113647517Y-153893529D01*
X113647521Y-153893532D01*
X113766340Y-153972925D01*
X113766346Y-153972928D01*
X113766347Y-153972929D01*
X113898380Y-154027619D01*
X113898384Y-154027619D01*
X113898385Y-154027620D01*
X114038542Y-154055500D01*
X114038545Y-154055500D01*
X114181457Y-154055500D01*
X114275751Y-154036742D01*
X114321620Y-154027619D01*
X114453653Y-153972929D01*
X114485876Y-153951397D01*
X114552554Y-153930520D01*
X114554767Y-153930500D01*
X127118622Y-153930500D01*
X127185661Y-153950185D01*
X127231416Y-154002989D01*
X127240239Y-154030308D01*
X127262379Y-154141614D01*
X127262381Y-154141620D01*
X127317069Y-154273650D01*
X127317074Y-154273659D01*
X127396466Y-154392477D01*
X127400045Y-154396838D01*
X127427356Y-154461149D01*
X127415562Y-154530016D01*
X127368409Y-154581575D01*
X127304189Y-154599500D01*
X100456946Y-154599500D01*
X100389907Y-154579815D01*
X100344152Y-154527011D01*
X100334208Y-154457853D01*
X100363233Y-154394297D01*
X100398493Y-154366142D01*
X100564462Y-154277429D01*
X100564480Y-154277418D01*
X100866736Y-154075457D01*
X100866750Y-154075447D01*
X101094765Y-153888320D01*
X101094766Y-153888319D01*
X99600698Y-152394251D01*
X99702330Y-152320412D01*
X99880412Y-152142330D01*
X99954251Y-152040698D01*
X101448319Y-153534766D01*
G37*
%TD.AperFunction*%
%TA.AperFunction,Conductor*%
G36*
X159673388Y-147744623D02*
G01*
X159703605Y-147762494D01*
X159703608Y-147762494D01*
X159703610Y-147762496D01*
X159859002Y-147807642D01*
X159859005Y-147807642D01*
X159859007Y-147807643D01*
X159895310Y-147810500D01*
X159895318Y-147810500D01*
X160304682Y-147810500D01*
X160304690Y-147810500D01*
X160340993Y-147807643D01*
X160340995Y-147807642D01*
X160340997Y-147807642D01*
X160412968Y-147786732D01*
X160496395Y-147762494D01*
X160517369Y-147750089D01*
X160530367Y-147746791D01*
X160541388Y-147739148D01*
X160563568Y-147738366D01*
X160585088Y-147732906D01*
X160599342Y-147737106D01*
X160611214Y-147736688D01*
X160643815Y-147750210D01*
X160643948Y-147750289D01*
X160691534Y-147801449D01*
X160703906Y-147870215D01*
X160677137Y-147934753D01*
X160649514Y-147960002D01*
X160403258Y-148124545D01*
X160403254Y-148124548D01*
X160175233Y-148311679D01*
X160175233Y-148311680D01*
X161669301Y-149805748D01*
X161567670Y-149879588D01*
X161389588Y-150057670D01*
X161315748Y-150159301D01*
X159821680Y-148665233D01*
X159821679Y-148665233D01*
X159634548Y-148893254D01*
X159634545Y-148893258D01*
X159432581Y-149195519D01*
X159432570Y-149195537D01*
X159261209Y-149516130D01*
X159261207Y-149516135D01*
X159122086Y-149852002D01*
X159016553Y-150199898D01*
X159016550Y-150199909D01*
X158945632Y-150556443D01*
X158910000Y-150918234D01*
X158910000Y-151281765D01*
X158945632Y-151643556D01*
X159016550Y-152000090D01*
X159016553Y-152000101D01*
X159122086Y-152347997D01*
X159261207Y-152683864D01*
X159261209Y-152683869D01*
X159432570Y-153004462D01*
X159432581Y-153004480D01*
X159634551Y-153306750D01*
X159821678Y-153534765D01*
X159821679Y-153534766D01*
X161315747Y-152040697D01*
X161389588Y-152142330D01*
X161567670Y-152320412D01*
X161669301Y-152394251D01*
X160175232Y-153888319D01*
X160175233Y-153888320D01*
X160403249Y-154075448D01*
X160705519Y-154277418D01*
X160705537Y-154277429D01*
X160871507Y-154366142D01*
X160921352Y-154415104D01*
X160936812Y-154483242D01*
X160912980Y-154548922D01*
X160857423Y-154591290D01*
X160813054Y-154599500D01*
X144959098Y-154599500D01*
X144937852Y-154593261D01*
X144915766Y-154591682D01*
X144904982Y-154583609D01*
X144892059Y-154579815D01*
X144877560Y-154563082D01*
X144859832Y-154549812D01*
X144855123Y-154537189D01*
X144846304Y-154527011D01*
X144843152Y-154505095D01*
X144835414Y-154484348D01*
X144838277Y-154471185D01*
X144836360Y-154457853D01*
X144845558Y-154437710D01*
X144850265Y-154416075D01*
X144863534Y-154398348D01*
X144865385Y-154394297D01*
X144871401Y-154387834D01*
X144960520Y-154298716D01*
X144960521Y-154298713D01*
X147031133Y-152228100D01*
X147092454Y-152194617D01*
X147157126Y-152197851D01*
X147293757Y-152242246D01*
X147503713Y-152275500D01*
X147503714Y-152275500D01*
X147716286Y-152275500D01*
X147716287Y-152275500D01*
X147926243Y-152242246D01*
X148128412Y-152176557D01*
X148317816Y-152080051D01*
X148427874Y-152000090D01*
X148489786Y-151955109D01*
X148489788Y-151955106D01*
X148489792Y-151955104D01*
X148640104Y-151804792D01*
X148759683Y-151640204D01*
X148815011Y-151597540D01*
X148884624Y-151591561D01*
X148946420Y-151624166D01*
X148960313Y-151640199D01*
X149015203Y-151715749D01*
X149079896Y-151804792D01*
X149230213Y-151955109D01*
X149402179Y-152080048D01*
X149402181Y-152080049D01*
X149402184Y-152080051D01*
X149591588Y-152176557D01*
X149793757Y-152242246D01*
X150003713Y-152275500D01*
X150003714Y-152275500D01*
X150216286Y-152275500D01*
X150216287Y-152275500D01*
X150426243Y-152242246D01*
X150628412Y-152176557D01*
X150817816Y-152080051D01*
X150927874Y-152000090D01*
X150989786Y-151955109D01*
X150989788Y-151955106D01*
X150989792Y-151955104D01*
X151140104Y-151804792D01*
X151259683Y-151640204D01*
X151315011Y-151597540D01*
X151384624Y-151591561D01*
X151446420Y-151624166D01*
X151460313Y-151640199D01*
X151515203Y-151715749D01*
X151579896Y-151804792D01*
X151730213Y-151955109D01*
X151902179Y-152080048D01*
X151902181Y-152080049D01*
X151902184Y-152080051D01*
X152091588Y-152176557D01*
X152293757Y-152242246D01*
X152503713Y-152275500D01*
X152503714Y-152275500D01*
X152716286Y-152275500D01*
X152716287Y-152275500D01*
X152926243Y-152242246D01*
X153128412Y-152176557D01*
X153317816Y-152080051D01*
X153427874Y-152000090D01*
X153489786Y-151955109D01*
X153489788Y-151955106D01*
X153489792Y-151955104D01*
X153640104Y-151804792D01*
X153759683Y-151640204D01*
X153815011Y-151597540D01*
X153884624Y-151591561D01*
X153946420Y-151624166D01*
X153960313Y-151640199D01*
X154015203Y-151715749D01*
X154079896Y-151804792D01*
X154230213Y-151955109D01*
X154402179Y-152080048D01*
X154402181Y-152080049D01*
X154402184Y-152080051D01*
X154591588Y-152176557D01*
X154793757Y-152242246D01*
X155003713Y-152275500D01*
X155003714Y-152275500D01*
X155216286Y-152275500D01*
X155216287Y-152275500D01*
X155426243Y-152242246D01*
X155628412Y-152176557D01*
X155817816Y-152080051D01*
X155927874Y-152000090D01*
X155989786Y-151955109D01*
X155989788Y-151955106D01*
X155989792Y-151955104D01*
X156140104Y-151804792D01*
X156140106Y-151804788D01*
X156140109Y-151804786D01*
X156265048Y-151632820D01*
X156265047Y-151632820D01*
X156265051Y-151632816D01*
X156361557Y-151443412D01*
X156427246Y-151241243D01*
X156460500Y-151031287D01*
X156460500Y-150568713D01*
X156460500Y-150568711D01*
X156460118Y-150563860D01*
X156461720Y-150563733D01*
X156469761Y-150501432D01*
X156495604Y-150463629D01*
X159102417Y-147856818D01*
X159163740Y-147823333D01*
X159190098Y-147820499D01*
X159309168Y-147820499D01*
X159309180Y-147820499D01*
X159345204Y-147817665D01*
X159499393Y-147772869D01*
X159547150Y-147744625D01*
X159614871Y-147727442D01*
X159673388Y-147744623D01*
G37*
%TD.AperFunction*%
%TA.AperFunction,Conductor*%
G36*
X144657126Y-152197851D02*
G01*
X144793757Y-152242246D01*
X145003713Y-152275500D01*
X145003718Y-152275500D01*
X145006401Y-152275925D01*
X145069535Y-152305854D01*
X145106467Y-152365165D01*
X145105469Y-152435028D01*
X145074684Y-152486079D01*
X144267584Y-153293181D01*
X144206261Y-153326666D01*
X144179903Y-153329500D01*
X143729097Y-153329500D01*
X143662058Y-153309815D01*
X143616303Y-153257011D01*
X143606359Y-153187853D01*
X143635384Y-153124297D01*
X143641416Y-153117819D01*
X143824861Y-152934374D01*
X144531133Y-152228100D01*
X144592454Y-152194617D01*
X144657126Y-152197851D01*
G37*
%TD.AperFunction*%
%TA.AperFunction,Conductor*%
G36*
X142552942Y-152295184D02*
G01*
X142598697Y-152347988D01*
X142608641Y-152417146D01*
X142579616Y-152480702D01*
X142573584Y-152487180D01*
X142367584Y-152693181D01*
X142306261Y-152726666D01*
X142279903Y-152729500D01*
X141829097Y-152729500D01*
X141762058Y-152709815D01*
X141716303Y-152657011D01*
X141706359Y-152587853D01*
X141735384Y-152524297D01*
X141741416Y-152517819D01*
X141947416Y-152311818D01*
X142008739Y-152278333D01*
X142035097Y-152275499D01*
X142485903Y-152275499D01*
X142552942Y-152295184D01*
G37*
%TD.AperFunction*%
%TA.AperFunction,Conductor*%
G36*
X114877939Y-145920185D02*
G01*
X114923694Y-145972989D01*
X114933638Y-146042147D01*
X114904613Y-146105703D01*
X114898580Y-146112182D01*
X114860616Y-146150145D01*
X114807532Y-146181539D01*
X114650610Y-146227129D01*
X114650604Y-146227132D01*
X114593119Y-146261128D01*
X114525395Y-146278309D01*
X114466881Y-146261128D01*
X114409395Y-146227132D01*
X114409388Y-146227129D01*
X114255208Y-146182335D01*
X114255202Y-146182334D01*
X114219181Y-146179500D01*
X113820830Y-146179500D01*
X113820808Y-146179501D01*
X113784794Y-146182335D01*
X113630611Y-146227129D01*
X113630607Y-146227130D01*
X113582358Y-146255665D01*
X113514633Y-146272846D01*
X113456116Y-146255663D01*
X113426198Y-146237969D01*
X113426190Y-146237966D01*
X113280001Y-146195493D01*
X113280000Y-146195494D01*
X113280000Y-146601925D01*
X113275076Y-146636520D01*
X113252336Y-146714789D01*
X113252334Y-146714802D01*
X113249500Y-146750811D01*
X113249500Y-146750819D01*
X113249500Y-146994977D01*
X113249501Y-147000000D01*
X113249501Y-147249193D01*
X113251217Y-147270993D01*
X113252335Y-147285204D01*
X113268078Y-147339393D01*
X113275076Y-147363478D01*
X113280000Y-147398073D01*
X113280000Y-147819131D01*
X113296957Y-147841850D01*
X113302331Y-147860828D01*
X113322379Y-147961614D01*
X113322381Y-147961620D01*
X113377069Y-148093650D01*
X113377074Y-148093659D01*
X113456467Y-148212478D01*
X113456470Y-148212482D01*
X113557517Y-148313529D01*
X113557521Y-148313532D01*
X113676340Y-148392925D01*
X113676349Y-148392930D01*
X113687672Y-148397620D01*
X113808380Y-148447619D01*
X113808384Y-148447619D01*
X113808385Y-148447620D01*
X113948542Y-148475500D01*
X113948545Y-148475500D01*
X114091457Y-148475500D01*
X114204945Y-148452925D01*
X114231620Y-148447619D01*
X114363653Y-148392929D01*
X114482479Y-148313532D01*
X114583532Y-148212479D01*
X114662929Y-148093653D01*
X114717619Y-147961620D01*
X114725836Y-147920306D01*
X114758219Y-147858399D01*
X114818934Y-147823823D01*
X114847444Y-147820499D01*
X115239180Y-147820499D01*
X115275204Y-147817665D01*
X115429393Y-147772869D01*
X115567598Y-147691135D01*
X115681135Y-147577598D01*
X115762869Y-147439393D01*
X115807665Y-147285204D01*
X115810500Y-147249181D01*
X115810499Y-146950095D01*
X115830183Y-146883057D01*
X115846813Y-146862420D01*
X116222416Y-146486818D01*
X116283739Y-146453333D01*
X116310097Y-146450499D01*
X117382871Y-146450499D01*
X117382872Y-146450499D01*
X117442483Y-146444091D01*
X117577331Y-146393796D01*
X117692546Y-146307546D01*
X117756235Y-146222468D01*
X117812167Y-146180599D01*
X117881859Y-146175615D01*
X117943182Y-146209100D01*
X117976666Y-146270423D01*
X117979500Y-146296781D01*
X117979500Y-146693330D01*
X117979499Y-146693348D01*
X117979499Y-146859054D01*
X117979498Y-146859054D01*
X118020423Y-147011786D01*
X118033084Y-147033714D01*
X118033085Y-147033716D01*
X118099477Y-147148712D01*
X118099481Y-147148717D01*
X118218349Y-147267585D01*
X118218354Y-147267589D01*
X122231284Y-151280520D01*
X122231286Y-151280521D01*
X122231290Y-151280524D01*
X122295481Y-151317584D01*
X122368216Y-151359577D01*
X122467598Y-151386207D01*
X122527255Y-151422570D01*
X122557784Y-151485417D01*
X122559501Y-151505980D01*
X122559501Y-151575018D01*
X122570000Y-151677796D01*
X122570001Y-151677799D01*
X122612648Y-151806496D01*
X122615050Y-151876324D01*
X122579318Y-151936366D01*
X122516798Y-151967559D01*
X122494942Y-151969500D01*
X118863182Y-151969500D01*
X118796143Y-151949815D01*
X118750388Y-151897011D01*
X118740444Y-151827853D01*
X118762864Y-151772615D01*
X118864620Y-151632557D01*
X118961095Y-151443217D01*
X119026757Y-151241130D01*
X119026757Y-151241127D01*
X119057030Y-151050000D01*
X118114146Y-151050000D01*
X118152630Y-150983343D01*
X118185000Y-150862535D01*
X118185000Y-150737465D01*
X118152630Y-150616657D01*
X118114146Y-150550000D01*
X119057030Y-150550000D01*
X119026757Y-150358872D01*
X119026757Y-150358869D01*
X118961095Y-150156782D01*
X118864620Y-149967442D01*
X118739727Y-149795540D01*
X118739723Y-149795535D01*
X118589464Y-149645276D01*
X118589459Y-149645272D01*
X118417557Y-149520379D01*
X118228215Y-149423903D01*
X118026124Y-149358241D01*
X117960000Y-149347768D01*
X117960000Y-150395854D01*
X117893343Y-150357370D01*
X117772535Y-150325000D01*
X117647465Y-150325000D01*
X117526657Y-150357370D01*
X117460000Y-150395854D01*
X117460000Y-149347768D01*
X117459999Y-149347768D01*
X117393875Y-149358241D01*
X117191784Y-149423903D01*
X117002442Y-149520379D01*
X116830540Y-149645272D01*
X116830535Y-149645276D01*
X116680276Y-149795535D01*
X116680272Y-149795540D01*
X116560627Y-149960218D01*
X116505297Y-150002884D01*
X116435684Y-150008863D01*
X116373889Y-149976257D01*
X116359991Y-149960218D01*
X116240109Y-149795214D01*
X116240105Y-149795209D01*
X116089786Y-149644890D01*
X115917820Y-149519951D01*
X115728414Y-149423444D01*
X115728413Y-149423443D01*
X115728412Y-149423443D01*
X115526243Y-149357754D01*
X115526241Y-149357753D01*
X115526240Y-149357753D01*
X115364957Y-149332208D01*
X115316287Y-149324500D01*
X115103713Y-149324500D01*
X115055042Y-149332208D01*
X114893760Y-149357753D01*
X114691585Y-149423444D01*
X114502179Y-149519951D01*
X114330213Y-149644890D01*
X114179894Y-149795209D01*
X114179890Y-149795214D01*
X114060318Y-149959793D01*
X114004989Y-150002459D01*
X113935375Y-150008438D01*
X113873580Y-149975833D01*
X113859682Y-149959793D01*
X113740109Y-149795214D01*
X113740105Y-149795209D01*
X113589786Y-149644890D01*
X113417820Y-149519951D01*
X113228414Y-149423444D01*
X113228413Y-149423443D01*
X113228412Y-149423443D01*
X113026243Y-149357754D01*
X113026241Y-149357753D01*
X113026240Y-149357753D01*
X112864957Y-149332208D01*
X112816287Y-149324500D01*
X112603713Y-149324500D01*
X112555042Y-149332208D01*
X112393760Y-149357753D01*
X112191585Y-149423444D01*
X112002179Y-149519951D01*
X111830213Y-149644890D01*
X111679894Y-149795209D01*
X111679890Y-149795214D01*
X111560318Y-149959793D01*
X111504989Y-150002459D01*
X111435375Y-150008438D01*
X111373580Y-149975833D01*
X111359682Y-149959793D01*
X111240109Y-149795214D01*
X111240105Y-149795209D01*
X111089786Y-149644890D01*
X110917820Y-149519951D01*
X110728414Y-149423444D01*
X110728413Y-149423443D01*
X110728412Y-149423443D01*
X110526243Y-149357754D01*
X110526241Y-149357753D01*
X110526240Y-149357753D01*
X110364957Y-149332208D01*
X110316287Y-149324500D01*
X110103713Y-149324500D01*
X110055042Y-149332208D01*
X109893760Y-149357753D01*
X109691585Y-149423444D01*
X109502179Y-149519951D01*
X109330213Y-149644890D01*
X109179894Y-149795209D01*
X109179890Y-149795214D01*
X109060318Y-149959793D01*
X109004989Y-150002459D01*
X108935375Y-150008438D01*
X108873580Y-149975833D01*
X108859682Y-149959793D01*
X108740109Y-149795214D01*
X108740105Y-149795209D01*
X108589786Y-149644890D01*
X108417820Y-149519951D01*
X108228414Y-149423444D01*
X108228413Y-149423443D01*
X108228412Y-149423443D01*
X108026243Y-149357754D01*
X108026241Y-149357753D01*
X108026240Y-149357753D01*
X107864957Y-149332208D01*
X107816287Y-149324500D01*
X107624500Y-149324500D01*
X107557461Y-149304815D01*
X107511706Y-149252011D01*
X107500500Y-149200500D01*
X107500500Y-146538012D01*
X107520185Y-146470973D01*
X107572989Y-146425218D01*
X107642147Y-146415274D01*
X107667828Y-146421828D01*
X107727517Y-146444091D01*
X107787127Y-146450500D01*
X108859901Y-146450499D01*
X108926940Y-146470183D01*
X108947582Y-146486818D01*
X109253181Y-146792416D01*
X109286666Y-146853739D01*
X109289500Y-146880097D01*
X109289500Y-147249169D01*
X109289501Y-147249191D01*
X109292335Y-147285205D01*
X109337129Y-147439388D01*
X109337131Y-147439393D01*
X109418863Y-147577595D01*
X109418869Y-147577603D01*
X109532396Y-147691130D01*
X109532400Y-147691133D01*
X109532402Y-147691135D01*
X109670607Y-147772869D01*
X109689421Y-147778335D01*
X109824791Y-147817664D01*
X109824794Y-147817664D01*
X109824796Y-147817665D01*
X109860819Y-147820500D01*
X110259180Y-147820499D01*
X110295204Y-147817665D01*
X110449393Y-147772869D01*
X110506882Y-147738869D01*
X110574602Y-147721688D01*
X110633117Y-147738869D01*
X110690607Y-147772869D01*
X110690610Y-147772869D01*
X110690612Y-147772871D01*
X110844791Y-147817664D01*
X110844794Y-147817664D01*
X110844796Y-147817665D01*
X110880819Y-147820500D01*
X111276578Y-147820499D01*
X111343617Y-147840183D01*
X111389372Y-147892987D01*
X111398195Y-147920307D01*
X111412379Y-147991614D01*
X111412381Y-147991620D01*
X111467069Y-148123650D01*
X111467074Y-148123659D01*
X111546467Y-148242478D01*
X111546470Y-148242482D01*
X111647517Y-148343529D01*
X111647521Y-148343532D01*
X111766340Y-148422925D01*
X111766346Y-148422928D01*
X111766347Y-148422929D01*
X111898380Y-148477619D01*
X111898384Y-148477619D01*
X111898385Y-148477620D01*
X112038542Y-148505500D01*
X112038545Y-148505500D01*
X112181457Y-148505500D01*
X112277028Y-148486489D01*
X112321620Y-148477619D01*
X112453653Y-148422929D01*
X112572479Y-148343532D01*
X112673532Y-148242479D01*
X112752929Y-148123653D01*
X112807619Y-147991620D01*
X112821804Y-147920307D01*
X112835500Y-147851457D01*
X112835500Y-147708542D01*
X112807620Y-147568385D01*
X112807619Y-147568384D01*
X112807619Y-147568380D01*
X112794630Y-147537024D01*
X112787162Y-147467556D01*
X112799760Y-147433711D01*
X112799396Y-147433554D01*
X112802423Y-147426557D01*
X112802467Y-147426439D01*
X112802494Y-147426395D01*
X112847643Y-147270993D01*
X112850500Y-147234690D01*
X112850500Y-146765310D01*
X112847643Y-146729007D01*
X112847367Y-146728058D01*
X112802495Y-146573608D01*
X112802492Y-146573600D01*
X112797266Y-146564763D01*
X112780000Y-146501645D01*
X112780000Y-146195494D01*
X112779998Y-146195493D01*
X112633809Y-146237965D01*
X112633806Y-146237967D01*
X112613608Y-146249912D01*
X112545884Y-146267092D01*
X112487370Y-146249910D01*
X112466397Y-146237507D01*
X112466390Y-146237504D01*
X112310997Y-146192357D01*
X112310991Y-146192356D01*
X112274697Y-146189500D01*
X112274690Y-146189500D01*
X111865310Y-146189500D01*
X111865302Y-146189500D01*
X111829008Y-146192356D01*
X111829002Y-146192357D01*
X111673606Y-146237504D01*
X111643388Y-146255375D01*
X111575664Y-146272555D01*
X111517150Y-146255374D01*
X111469392Y-146227130D01*
X111469388Y-146227129D01*
X111315208Y-146182335D01*
X111315202Y-146182334D01*
X111279181Y-146179500D01*
X110880830Y-146179500D01*
X110880808Y-146179501D01*
X110844794Y-146182335D01*
X110690611Y-146227129D01*
X110690604Y-146227132D01*
X110633119Y-146261128D01*
X110627520Y-146262548D01*
X110623212Y-146266397D01*
X110594029Y-146271044D01*
X110565395Y-146278309D01*
X110558431Y-146276713D01*
X110554212Y-146277386D01*
X110539888Y-146272466D01*
X110520201Y-146267956D01*
X110513330Y-146264943D01*
X110449393Y-146227131D01*
X110383349Y-146207943D01*
X110375925Y-146204688D01*
X110361961Y-146192953D01*
X110338043Y-146178808D01*
X110271416Y-146112181D01*
X110237931Y-146050858D01*
X110242915Y-145981166D01*
X110284787Y-145925233D01*
X110350251Y-145900816D01*
X110359097Y-145900500D01*
X114810900Y-145900500D01*
X114877939Y-145920185D01*
G37*
%TD.AperFunction*%
%TA.AperFunction,Conductor*%
G36*
X147464174Y-149007417D02*
G01*
X147484816Y-149024051D01*
X147574685Y-149113920D01*
X147608170Y-149175243D01*
X147603186Y-149244935D01*
X147561314Y-149300868D01*
X147506402Y-149324074D01*
X147293760Y-149357753D01*
X147091585Y-149423444D01*
X146902179Y-149519951D01*
X146730213Y-149644890D01*
X146579894Y-149795209D01*
X146579890Y-149795214D01*
X146460318Y-149959793D01*
X146404989Y-150002459D01*
X146335375Y-150008438D01*
X146273580Y-149975833D01*
X146259682Y-149959793D01*
X146140109Y-149795214D01*
X146140105Y-149795209D01*
X145989786Y-149644890D01*
X145817820Y-149519951D01*
X145628414Y-149423444D01*
X145628413Y-149423443D01*
X145628412Y-149423443D01*
X145426243Y-149357754D01*
X145426241Y-149357753D01*
X145426240Y-149357753D01*
X145264957Y-149332208D01*
X145216287Y-149324500D01*
X145003713Y-149324500D01*
X144955042Y-149332208D01*
X144793760Y-149357753D01*
X144591585Y-149423444D01*
X144402179Y-149519951D01*
X144230215Y-149644889D01*
X144091398Y-149783706D01*
X144030075Y-149817190D01*
X143960383Y-149812206D01*
X143904450Y-149770334D01*
X143898178Y-149761120D01*
X143802712Y-149606344D01*
X143678657Y-149482289D01*
X143678656Y-149482288D01*
X143564767Y-149412041D01*
X143529336Y-149390187D01*
X143529331Y-149390185D01*
X143527862Y-149389698D01*
X143362797Y-149335001D01*
X143362795Y-149335000D01*
X143260010Y-149324500D01*
X141959998Y-149324500D01*
X141959981Y-149324501D01*
X141857203Y-149335000D01*
X141857200Y-149335001D01*
X141690668Y-149390185D01*
X141690663Y-149390187D01*
X141541342Y-149482289D01*
X141417289Y-149606342D01*
X141325187Y-149755663D01*
X141325185Y-149755668D01*
X141306450Y-149812206D01*
X141270001Y-149922203D01*
X141270001Y-149922204D01*
X141270000Y-149922204D01*
X141259500Y-150024983D01*
X141259500Y-151249902D01*
X141239815Y-151316941D01*
X141223181Y-151337583D01*
X140627584Y-151933181D01*
X140566261Y-151966666D01*
X140539903Y-151969500D01*
X137563801Y-151969500D01*
X137496762Y-151949815D01*
X137451007Y-151897011D01*
X137441063Y-151827853D01*
X137463482Y-151772615D01*
X137505932Y-151714187D01*
X137565051Y-151632816D01*
X137661557Y-151443412D01*
X137727246Y-151241243D01*
X137727265Y-151241127D01*
X137736931Y-151180095D01*
X137759947Y-151034777D01*
X137789875Y-150971645D01*
X137794721Y-150966513D01*
X139736223Y-149025010D01*
X139797544Y-148991527D01*
X139867236Y-148996511D01*
X139892793Y-149009591D01*
X139923572Y-149030157D01*
X139923578Y-149030160D01*
X139923579Y-149030161D01*
X140055612Y-149084851D01*
X140055616Y-149084851D01*
X140055617Y-149084852D01*
X140195774Y-149112732D01*
X140195777Y-149112732D01*
X140338689Y-149112732D01*
X140432983Y-149093974D01*
X140478852Y-149084851D01*
X140610885Y-149030161D01*
X140643108Y-149008629D01*
X140709786Y-148987752D01*
X140711999Y-148987732D01*
X147397135Y-148987732D01*
X147464174Y-149007417D01*
G37*
%TD.AperFunction*%
%TA.AperFunction,Conductor*%
G36*
X105530005Y-146457167D02*
G01*
X105581142Y-146504778D01*
X105598500Y-146568051D01*
X105598500Y-149200500D01*
X105578815Y-149267539D01*
X105526011Y-149313294D01*
X105474500Y-149324500D01*
X104559998Y-149324500D01*
X104559980Y-149324501D01*
X104457203Y-149335000D01*
X104457200Y-149335001D01*
X104290668Y-149390185D01*
X104290663Y-149390187D01*
X104141342Y-149482289D01*
X104017289Y-149606342D01*
X103925187Y-149755663D01*
X103925185Y-149755668D01*
X103906450Y-149812206D01*
X103870001Y-149922203D01*
X103870001Y-149922204D01*
X103870000Y-149922204D01*
X103859500Y-150024983D01*
X103859500Y-151575001D01*
X103859501Y-151575019D01*
X103862224Y-151601668D01*
X103849454Y-151670361D01*
X103801573Y-151721245D01*
X103733783Y-151738165D01*
X103667607Y-151715749D01*
X103651185Y-151701950D01*
X103266819Y-151317584D01*
X103233334Y-151256261D01*
X103230500Y-151229903D01*
X103230500Y-149000946D01*
X103230500Y-149000943D01*
X103214037Y-148939500D01*
X103189577Y-148848215D01*
X103160639Y-148798095D01*
X103110520Y-148711284D01*
X102998716Y-148599480D01*
X102998715Y-148599479D01*
X102994385Y-148595149D01*
X102994374Y-148595139D01*
X102720729Y-148321494D01*
X102687244Y-148260171D01*
X102692228Y-148190479D01*
X102705309Y-148164921D01*
X102706942Y-148162478D01*
X102752929Y-148093653D01*
X102807619Y-147961620D01*
X102815836Y-147920306D01*
X102848219Y-147858399D01*
X102908934Y-147823823D01*
X102937444Y-147820499D01*
X103329180Y-147820499D01*
X103365204Y-147817665D01*
X103519393Y-147772869D01*
X103657598Y-147691135D01*
X103771135Y-147577598D01*
X103852869Y-147439393D01*
X103897665Y-147285204D01*
X103900500Y-147249181D01*
X103900499Y-146885096D01*
X103920183Y-146818058D01*
X103936814Y-146797420D01*
X104247416Y-146486817D01*
X104308739Y-146453333D01*
X104335097Y-146450499D01*
X105407871Y-146450499D01*
X105407872Y-146450499D01*
X105461247Y-146444761D01*
X105530005Y-146457167D01*
G37*
%TD.AperFunction*%
%TA.AperFunction,Conductor*%
G36*
X105012731Y-124506771D02*
G01*
X105034934Y-124508404D01*
X105045604Y-124516424D01*
X105058411Y-124520185D01*
X105072987Y-124537007D01*
X105090785Y-124550385D01*
X105095425Y-124562901D01*
X105104166Y-124572989D01*
X105107334Y-124595024D01*
X105115073Y-124615898D01*
X105112210Y-124628934D01*
X105114110Y-124642147D01*
X105104861Y-124662397D01*
X105100087Y-124684141D01*
X105086951Y-124701616D01*
X105085085Y-124705703D01*
X105080951Y-124709598D01*
X105078880Y-124712354D01*
X105072335Y-124718873D01*
X105071284Y-124719480D01*
X104959480Y-124831284D01*
X104959478Y-124831286D01*
X104959305Y-124831459D01*
X102024522Y-127766241D01*
X101963199Y-127799726D01*
X101898523Y-127796491D01*
X101856245Y-127782754D01*
X101716272Y-127760584D01*
X101646287Y-127749500D01*
X101433713Y-127749500D01*
X101385042Y-127757208D01*
X101223760Y-127782753D01*
X101021585Y-127848444D01*
X100832179Y-127944951D01*
X100660215Y-128069889D01*
X100546673Y-128183431D01*
X100485350Y-128216915D01*
X100415658Y-128211931D01*
X100359725Y-128170059D01*
X100342810Y-128139082D01*
X100293797Y-128007671D01*
X100293793Y-128007664D01*
X100207547Y-127892455D01*
X100207544Y-127892452D01*
X100092335Y-127806206D01*
X100092328Y-127806202D01*
X99957482Y-127755908D01*
X99957483Y-127755908D01*
X99897883Y-127749501D01*
X99897881Y-127749500D01*
X99897873Y-127749500D01*
X99897864Y-127749500D01*
X98102129Y-127749500D01*
X98102123Y-127749501D01*
X98042516Y-127755908D01*
X97907671Y-127806202D01*
X97907664Y-127806206D01*
X97792455Y-127892452D01*
X97792452Y-127892455D01*
X97706206Y-128007664D01*
X97706202Y-128007671D01*
X97655908Y-128142517D01*
X97649501Y-128202116D01*
X97649500Y-128202135D01*
X97649500Y-129997870D01*
X97649501Y-129997876D01*
X97655908Y-130057483D01*
X97706202Y-130192328D01*
X97706206Y-130192335D01*
X97792452Y-130307544D01*
X97792455Y-130307547D01*
X97907664Y-130393793D01*
X97907671Y-130393797D01*
X98042517Y-130444091D01*
X98042516Y-130444091D01*
X98049444Y-130444835D01*
X98102127Y-130450500D01*
X99897872Y-130450499D01*
X99957483Y-130444091D01*
X100092331Y-130393796D01*
X100207546Y-130307546D01*
X100293796Y-130192331D01*
X100342810Y-130060916D01*
X100384681Y-130004984D01*
X100450145Y-129980566D01*
X100518418Y-129995417D01*
X100546673Y-130016569D01*
X100660213Y-130130109D01*
X100832184Y-130255051D01*
X100832184Y-130255052D01*
X100871793Y-130275233D01*
X100922590Y-130323206D01*
X100939500Y-130385718D01*
X100939500Y-131714281D01*
X100919815Y-131781320D01*
X100871795Y-131824765D01*
X100832185Y-131844947D01*
X100832184Y-131844948D01*
X100660215Y-131969889D01*
X100546673Y-132083431D01*
X100485350Y-132116915D01*
X100415658Y-132111931D01*
X100359725Y-132070059D01*
X100342810Y-132039082D01*
X100293797Y-131907671D01*
X100293793Y-131907664D01*
X100207547Y-131792455D01*
X100207544Y-131792452D01*
X100092335Y-131706206D01*
X100092328Y-131706202D01*
X99957482Y-131655908D01*
X99957483Y-131655908D01*
X99897883Y-131649501D01*
X99897881Y-131649500D01*
X99897873Y-131649500D01*
X99897864Y-131649500D01*
X98102129Y-131649500D01*
X98102123Y-131649501D01*
X98042516Y-131655908D01*
X97907671Y-131706202D01*
X97907664Y-131706206D01*
X97792455Y-131792452D01*
X97792452Y-131792455D01*
X97706206Y-131907664D01*
X97706202Y-131907671D01*
X97655908Y-132042517D01*
X97649501Y-132102116D01*
X97649500Y-132102135D01*
X97649500Y-133897870D01*
X97649501Y-133897876D01*
X97655908Y-133957483D01*
X97706202Y-134092328D01*
X97706206Y-134092335D01*
X97792452Y-134207544D01*
X97792455Y-134207547D01*
X97907664Y-134293793D01*
X97907671Y-134293797D01*
X98042517Y-134344091D01*
X98042516Y-134344091D01*
X98049444Y-134344835D01*
X98102127Y-134350500D01*
X99897872Y-134350499D01*
X99957483Y-134344091D01*
X100092331Y-134293796D01*
X100207546Y-134207546D01*
X100293796Y-134092331D01*
X100342810Y-133960916D01*
X100384681Y-133904984D01*
X100450145Y-133880566D01*
X100518418Y-133895417D01*
X100546673Y-133916569D01*
X100660213Y-134030109D01*
X100832179Y-134155048D01*
X100832181Y-134155049D01*
X100832184Y-134155051D01*
X101021588Y-134251557D01*
X101223757Y-134317246D01*
X101433713Y-134350500D01*
X101433714Y-134350500D01*
X101646286Y-134350500D01*
X101646287Y-134350500D01*
X101856243Y-134317246D01*
X101898523Y-134303507D01*
X101968362Y-134301511D01*
X102024522Y-134333757D01*
X105562181Y-137871416D01*
X105595666Y-137932739D01*
X105598500Y-137959097D01*
X105598500Y-139532453D01*
X105578815Y-139599492D01*
X105526011Y-139645247D01*
X105461245Y-139655742D01*
X105407846Y-139650001D01*
X105407828Y-139650000D01*
X104835000Y-139650000D01*
X104835000Y-141950000D01*
X105407828Y-141950000D01*
X105407841Y-141949999D01*
X105461243Y-141944257D01*
X105530002Y-141956661D01*
X105581141Y-142004271D01*
X105598500Y-142067546D01*
X105598500Y-144031949D01*
X105578815Y-144098988D01*
X105526011Y-144144743D01*
X105461247Y-144155238D01*
X105407873Y-144149500D01*
X105407864Y-144149500D01*
X103762129Y-144149500D01*
X103762123Y-144149501D01*
X103702516Y-144155908D01*
X103567671Y-144206202D01*
X103567664Y-144206206D01*
X103452455Y-144292452D01*
X103452452Y-144292455D01*
X103366206Y-144407664D01*
X103366202Y-144407671D01*
X103320500Y-144530207D01*
X103315909Y-144542517D01*
X103310937Y-144588757D01*
X103284201Y-144653306D01*
X103226809Y-144693154D01*
X103187649Y-144699500D01*
X98032351Y-144699500D01*
X97965312Y-144679815D01*
X97919557Y-144627011D01*
X97909061Y-144588752D01*
X97904091Y-144542516D01*
X97853797Y-144407671D01*
X97853793Y-144407664D01*
X97767547Y-144292455D01*
X97767544Y-144292452D01*
X97652335Y-144206206D01*
X97652328Y-144206202D01*
X97517482Y-144155908D01*
X97517483Y-144155908D01*
X97457883Y-144149501D01*
X97457881Y-144149500D01*
X97457873Y-144149500D01*
X97457864Y-144149500D01*
X95812129Y-144149500D01*
X95812123Y-144149501D01*
X95752516Y-144155908D01*
X95617671Y-144206202D01*
X95617664Y-144206206D01*
X95502455Y-144292452D01*
X95502452Y-144292455D01*
X95416206Y-144407664D01*
X95416202Y-144407671D01*
X95365908Y-144542517D01*
X95359501Y-144602116D01*
X95359501Y-144602123D01*
X95359500Y-144602135D01*
X95359500Y-145997870D01*
X95359501Y-145997876D01*
X95365908Y-146057483D01*
X95416202Y-146192328D01*
X95416206Y-146192335D01*
X95502452Y-146307544D01*
X95502455Y-146307547D01*
X95617664Y-146393793D01*
X95617671Y-146393797D01*
X95752517Y-146444091D01*
X95752516Y-146444091D01*
X95758749Y-146444761D01*
X95812127Y-146450500D01*
X96884902Y-146450499D01*
X96951941Y-146470183D01*
X96972583Y-146486818D01*
X97303181Y-146817416D01*
X97336666Y-146878739D01*
X97339500Y-146905097D01*
X97339500Y-147249169D01*
X97339501Y-147249191D01*
X97342335Y-147285205D01*
X97387129Y-147439388D01*
X97387131Y-147439393D01*
X97401319Y-147463383D01*
X97418502Y-147531106D01*
X97396342Y-147597369D01*
X97342040Y-147641065D01*
X97076135Y-147751207D01*
X97076130Y-147751209D01*
X96755537Y-147922570D01*
X96755519Y-147922581D01*
X96453258Y-148124545D01*
X96453254Y-148124548D01*
X96225233Y-148311679D01*
X96225233Y-148311680D01*
X97719301Y-149805748D01*
X97617670Y-149879588D01*
X97439588Y-150057670D01*
X97365748Y-150159301D01*
X95871680Y-148665233D01*
X95871679Y-148665233D01*
X95684548Y-148893254D01*
X95684545Y-148893258D01*
X95482581Y-149195519D01*
X95482570Y-149195537D01*
X95343858Y-149455049D01*
X95294896Y-149504894D01*
X95226758Y-149520354D01*
X95161078Y-149496522D01*
X95118709Y-149440964D01*
X95110500Y-149396596D01*
X95110500Y-141497844D01*
X95360000Y-141497844D01*
X95366401Y-141557372D01*
X95366403Y-141557379D01*
X95416645Y-141692086D01*
X95416649Y-141692093D01*
X95502809Y-141807187D01*
X95502812Y-141807190D01*
X95617906Y-141893350D01*
X95617913Y-141893354D01*
X95752620Y-141943596D01*
X95752627Y-141943598D01*
X95812155Y-141949999D01*
X95812172Y-141950000D01*
X96385000Y-141950000D01*
X96885000Y-141950000D01*
X97457828Y-141950000D01*
X97457844Y-141949999D01*
X97517372Y-141943598D01*
X97517379Y-141943596D01*
X97652086Y-141893354D01*
X97652093Y-141893350D01*
X97767187Y-141807190D01*
X97767190Y-141807187D01*
X97853350Y-141692093D01*
X97853354Y-141692086D01*
X97903596Y-141557379D01*
X97903598Y-141557372D01*
X97909999Y-141497844D01*
X103310000Y-141497844D01*
X103316401Y-141557372D01*
X103316403Y-141557379D01*
X103366645Y-141692086D01*
X103366649Y-141692093D01*
X103452809Y-141807187D01*
X103452812Y-141807190D01*
X103567906Y-141893350D01*
X103567913Y-141893354D01*
X103702620Y-141943596D01*
X103702627Y-141943598D01*
X103762155Y-141949999D01*
X103762172Y-141950000D01*
X104335000Y-141950000D01*
X104335000Y-141050000D01*
X103310000Y-141050000D01*
X103310000Y-141497844D01*
X97909999Y-141497844D01*
X97910000Y-141497827D01*
X97910000Y-141050000D01*
X96885000Y-141050000D01*
X96885000Y-141950000D01*
X96385000Y-141950000D01*
X96385000Y-141050000D01*
X95360000Y-141050000D01*
X95360000Y-141497844D01*
X95110500Y-141497844D01*
X95110500Y-140102155D01*
X95360000Y-140102155D01*
X95360000Y-140550000D01*
X96385000Y-140550000D01*
X96885000Y-140550000D01*
X97910000Y-140550000D01*
X97910000Y-140102172D01*
X97909999Y-140102155D01*
X103310000Y-140102155D01*
X103310000Y-140550000D01*
X104335000Y-140550000D01*
X104335000Y-139650000D01*
X103762155Y-139650000D01*
X103702627Y-139656401D01*
X103702620Y-139656403D01*
X103567913Y-139706645D01*
X103567906Y-139706649D01*
X103452812Y-139792809D01*
X103452809Y-139792812D01*
X103366649Y-139907906D01*
X103366645Y-139907913D01*
X103316403Y-140042620D01*
X103316401Y-140042627D01*
X103310000Y-140102155D01*
X97909999Y-140102155D01*
X97903598Y-140042627D01*
X97903596Y-140042620D01*
X97853354Y-139907913D01*
X97853350Y-139907906D01*
X97767190Y-139792812D01*
X97767187Y-139792809D01*
X97652093Y-139706649D01*
X97652086Y-139706645D01*
X97517379Y-139656403D01*
X97517372Y-139656401D01*
X97457844Y-139650000D01*
X96885000Y-139650000D01*
X96885000Y-140550000D01*
X96385000Y-140550000D01*
X96385000Y-139650000D01*
X95812155Y-139650000D01*
X95752627Y-139656401D01*
X95752620Y-139656403D01*
X95617913Y-139706645D01*
X95617906Y-139706649D01*
X95502812Y-139792809D01*
X95502809Y-139792812D01*
X95416649Y-139907906D01*
X95416645Y-139907913D01*
X95366403Y-140042620D01*
X95366401Y-140042627D01*
X95360000Y-140102155D01*
X95110500Y-140102155D01*
X95110500Y-131173849D01*
X95110730Y-131170257D01*
X95110501Y-131099578D01*
X95110500Y-131099176D01*
X95110500Y-131028112D01*
X95110258Y-131024535D01*
X95100512Y-128003185D01*
X95100659Y-127996740D01*
X95117052Y-127663064D01*
X95118245Y-127650960D01*
X95123558Y-127615144D01*
X95166850Y-127323292D01*
X95169218Y-127311385D01*
X95249710Y-126990043D01*
X95253240Y-126978411D01*
X95364835Y-126666525D01*
X95369476Y-126655318D01*
X95511124Y-126355828D01*
X95516840Y-126345136D01*
X95687145Y-126060998D01*
X95693888Y-126050905D01*
X95891232Y-125784818D01*
X95898935Y-125775433D01*
X96121405Y-125529975D01*
X96129975Y-125521405D01*
X96375433Y-125298935D01*
X96384818Y-125291232D01*
X96650905Y-125093888D01*
X96660998Y-125087145D01*
X96945136Y-124916840D01*
X96955828Y-124911124D01*
X97255318Y-124769476D01*
X97266525Y-124764835D01*
X97578412Y-124653239D01*
X97590043Y-124649710D01*
X97911385Y-124569218D01*
X97923296Y-124566849D01*
X98250962Y-124518244D01*
X98263068Y-124517052D01*
X98596967Y-124500648D01*
X98603051Y-124500500D01*
X98665892Y-124500500D01*
X104991372Y-124500500D01*
X105012731Y-124506771D01*
G37*
%TD.AperFunction*%
%TA.AperFunction,Conductor*%
G36*
X162603032Y-124500648D02*
G01*
X162936929Y-124517052D01*
X162949037Y-124518245D01*
X162962116Y-124520185D01*
X163276699Y-124566849D01*
X163288617Y-124569219D01*
X163609951Y-124649709D01*
X163621588Y-124653240D01*
X163707951Y-124684141D01*
X163933467Y-124764832D01*
X163944688Y-124769479D01*
X164244163Y-124911120D01*
X164254871Y-124916844D01*
X164538988Y-125087137D01*
X164549103Y-125093895D01*
X164730653Y-125228542D01*
X164815170Y-125291224D01*
X164824576Y-125298944D01*
X165070013Y-125521395D01*
X165078604Y-125529986D01*
X165181623Y-125643650D01*
X165301055Y-125775423D01*
X165308775Y-125784829D01*
X165506102Y-126050893D01*
X165512862Y-126061011D01*
X165671390Y-126325500D01*
X165683148Y-126345116D01*
X165688883Y-126355844D01*
X165796902Y-126584232D01*
X165830514Y-126655297D01*
X165835170Y-126666540D01*
X165946759Y-126978411D01*
X165950292Y-126990055D01*
X166030777Y-127311369D01*
X166033151Y-127323305D01*
X166081754Y-127650962D01*
X166082947Y-127663071D01*
X166099351Y-127996969D01*
X166099499Y-128002643D01*
X166099500Y-128002945D01*
X166099500Y-128065892D01*
X166099711Y-128066680D01*
X166099740Y-128075434D01*
X166099739Y-128075436D01*
X166099740Y-128075445D01*
X166104003Y-129396781D01*
X166109265Y-131028112D01*
X166109499Y-131100455D01*
X166109500Y-131100855D01*
X166109500Y-149303053D01*
X166089815Y-149370092D01*
X166037011Y-149415847D01*
X165967853Y-149425791D01*
X165904297Y-149396766D01*
X165876142Y-149361507D01*
X165787424Y-149195529D01*
X165787418Y-149195519D01*
X165585448Y-148893249D01*
X165398320Y-148665233D01*
X165398319Y-148665232D01*
X163904251Y-150159301D01*
X163830412Y-150057670D01*
X163652330Y-149879588D01*
X163550698Y-149805748D01*
X165044766Y-148311679D01*
X165044765Y-148311678D01*
X164816748Y-148124549D01*
X164816743Y-148124545D01*
X164701586Y-148047601D01*
X164656780Y-147993989D01*
X164648073Y-147924664D01*
X164678227Y-147861637D01*
X164737670Y-147824917D01*
X164770475Y-147820499D01*
X164809180Y-147820499D01*
X164845204Y-147817665D01*
X164999393Y-147772869D01*
X165137598Y-147691135D01*
X165251135Y-147577598D01*
X165332869Y-147439393D01*
X165377665Y-147285204D01*
X165380500Y-147249181D01*
X165380499Y-146750820D01*
X165377665Y-146714796D01*
X165352741Y-146629007D01*
X165345396Y-146603724D01*
X165345595Y-146533854D01*
X165383537Y-146475184D01*
X165447176Y-146446341D01*
X165451214Y-146445839D01*
X165467483Y-146444091D01*
X165602331Y-146393796D01*
X165717546Y-146307546D01*
X165803796Y-146192331D01*
X165854091Y-146057483D01*
X165860500Y-145997873D01*
X165860499Y-144602128D01*
X165854091Y-144542517D01*
X165829723Y-144477184D01*
X165803797Y-144407671D01*
X165803793Y-144407664D01*
X165717547Y-144292455D01*
X165717544Y-144292452D01*
X165602335Y-144206206D01*
X165602328Y-144206202D01*
X165467482Y-144155908D01*
X165467483Y-144155908D01*
X165407883Y-144149501D01*
X165407881Y-144149500D01*
X165407873Y-144149500D01*
X165407864Y-144149500D01*
X163762129Y-144149500D01*
X163762123Y-144149501D01*
X163702516Y-144155908D01*
X163567671Y-144206202D01*
X163567664Y-144206206D01*
X163452455Y-144292452D01*
X163452452Y-144292455D01*
X163366206Y-144407664D01*
X163366202Y-144407671D01*
X163320500Y-144530207D01*
X163315909Y-144542517D01*
X163310937Y-144588757D01*
X163284201Y-144653306D01*
X163226809Y-144693154D01*
X163187649Y-144699500D01*
X158032351Y-144699500D01*
X157965312Y-144679815D01*
X157919557Y-144627011D01*
X157909061Y-144588752D01*
X157904091Y-144542516D01*
X157853797Y-144407671D01*
X157853793Y-144407664D01*
X157767547Y-144292455D01*
X157767544Y-144292452D01*
X157652335Y-144206206D01*
X157652328Y-144206202D01*
X157517482Y-144155908D01*
X157517483Y-144155908D01*
X157457883Y-144149501D01*
X157457881Y-144149500D01*
X157457873Y-144149500D01*
X157457864Y-144149500D01*
X155812129Y-144149500D01*
X155812123Y-144149501D01*
X155752516Y-144155908D01*
X155617671Y-144206202D01*
X155617664Y-144206206D01*
X155502455Y-144292452D01*
X155502452Y-144292455D01*
X155416206Y-144407664D01*
X155416202Y-144407671D01*
X155365908Y-144542517D01*
X155359501Y-144602116D01*
X155359501Y-144602123D01*
X155359500Y-144602135D01*
X155359500Y-145997870D01*
X155359501Y-145997876D01*
X155365908Y-146057483D01*
X155416202Y-146192328D01*
X155416206Y-146192335D01*
X155502452Y-146307544D01*
X155502455Y-146307547D01*
X155617664Y-146393793D01*
X155617671Y-146393797D01*
X155752517Y-146444091D01*
X155752516Y-146444091D01*
X155758749Y-146444761D01*
X155812127Y-146450500D01*
X156884901Y-146450499D01*
X156951940Y-146470183D01*
X156972582Y-146486818D01*
X157283181Y-146797416D01*
X157316666Y-146858739D01*
X157319500Y-146885097D01*
X157319500Y-147249169D01*
X157319501Y-147249191D01*
X157322335Y-147285205D01*
X157367129Y-147439388D01*
X157367131Y-147439393D01*
X157448863Y-147577595D01*
X157448869Y-147577603D01*
X157478333Y-147607067D01*
X157511818Y-147668390D01*
X157506834Y-147738082D01*
X157478333Y-147782429D01*
X155830510Y-149430253D01*
X155769187Y-149463738D01*
X155699495Y-149458754D01*
X155686535Y-149453057D01*
X155628417Y-149423445D01*
X155628414Y-149423444D01*
X155628412Y-149423443D01*
X155426243Y-149357754D01*
X155426241Y-149357753D01*
X155426240Y-149357753D01*
X155264957Y-149332208D01*
X155216287Y-149324500D01*
X155003713Y-149324500D01*
X154955042Y-149332208D01*
X154793760Y-149357753D01*
X154591585Y-149423444D01*
X154402179Y-149519951D01*
X154230213Y-149644890D01*
X154079894Y-149795209D01*
X154079890Y-149795214D01*
X153960318Y-149959793D01*
X153904989Y-150002459D01*
X153835375Y-150008438D01*
X153773580Y-149975833D01*
X153759682Y-149959793D01*
X153640109Y-149795214D01*
X153640105Y-149795209D01*
X153489786Y-149644890D01*
X153317820Y-149519951D01*
X153128414Y-149423444D01*
X153128413Y-149423443D01*
X153128412Y-149423443D01*
X152926243Y-149357754D01*
X152926241Y-149357753D01*
X152926240Y-149357753D01*
X152764957Y-149332208D01*
X152716287Y-149324500D01*
X152503713Y-149324500D01*
X152455042Y-149332208D01*
X152293760Y-149357753D01*
X152091585Y-149423444D01*
X151902179Y-149519951D01*
X151737072Y-149639908D01*
X151671265Y-149663388D01*
X151603212Y-149647562D01*
X151576506Y-149627271D01*
X150497047Y-148547812D01*
X150463562Y-148486489D01*
X150468546Y-148416797D01*
X150510418Y-148360864D01*
X150537276Y-148345570D01*
X150543653Y-148342929D01*
X150662479Y-148263532D01*
X150763532Y-148162479D01*
X150842929Y-148043653D01*
X150897619Y-147911620D01*
X150915782Y-147820305D01*
X150948166Y-147758397D01*
X151008882Y-147723823D01*
X151037390Y-147720499D01*
X151419180Y-147720499D01*
X151455204Y-147717665D01*
X151609393Y-147672869D01*
X151747598Y-147591135D01*
X151861135Y-147477598D01*
X151942869Y-147339393D01*
X151975851Y-147225865D01*
X151987664Y-147185208D01*
X151987664Y-147185206D01*
X151987665Y-147185204D01*
X151990500Y-147149181D01*
X151990499Y-146795096D01*
X152010183Y-146728058D01*
X152026814Y-146707420D01*
X152247416Y-146486817D01*
X152308739Y-146453333D01*
X152335097Y-146450499D01*
X153407871Y-146450499D01*
X153407872Y-146450499D01*
X153467483Y-146444091D01*
X153602331Y-146393796D01*
X153717546Y-146307546D01*
X153803796Y-146192331D01*
X153854091Y-146057483D01*
X153860500Y-145997873D01*
X153860499Y-144602128D01*
X153854091Y-144542517D01*
X153829723Y-144477184D01*
X153803797Y-144407671D01*
X153803793Y-144407664D01*
X153717547Y-144292455D01*
X153717544Y-144292452D01*
X153602335Y-144206206D01*
X153602328Y-144206202D01*
X153467482Y-144155908D01*
X153467483Y-144155908D01*
X153407883Y-144149501D01*
X153407881Y-144149500D01*
X153407873Y-144149500D01*
X153407864Y-144149500D01*
X151762129Y-144149500D01*
X151762123Y-144149501D01*
X151702516Y-144155908D01*
X151567671Y-144206202D01*
X151567664Y-144206206D01*
X151452455Y-144292452D01*
X151452452Y-144292455D01*
X151366206Y-144407664D01*
X151366202Y-144407671D01*
X151320500Y-144530207D01*
X151315909Y-144542517D01*
X151310937Y-144588757D01*
X151284201Y-144653306D01*
X151226809Y-144693154D01*
X151187649Y-144699500D01*
X146032351Y-144699500D01*
X145965312Y-144679815D01*
X145919557Y-144627011D01*
X145909061Y-144588752D01*
X145904091Y-144542516D01*
X145853797Y-144407671D01*
X145853793Y-144407664D01*
X145767547Y-144292455D01*
X145767544Y-144292452D01*
X145652335Y-144206206D01*
X145652328Y-144206202D01*
X145517482Y-144155908D01*
X145517483Y-144155908D01*
X145457883Y-144149501D01*
X145457881Y-144149500D01*
X145457873Y-144149500D01*
X145457864Y-144149500D01*
X143812129Y-144149500D01*
X143812123Y-144149501D01*
X143752516Y-144155908D01*
X143617671Y-144206202D01*
X143617668Y-144206204D01*
X143568811Y-144242779D01*
X143503347Y-144267196D01*
X143435074Y-144252344D01*
X143385668Y-144202939D01*
X143370500Y-144143512D01*
X143370500Y-141955863D01*
X143390185Y-141888824D01*
X143442989Y-141843069D01*
X143512147Y-141833125D01*
X143568812Y-141856597D01*
X143617910Y-141893352D01*
X143617913Y-141893354D01*
X143752620Y-141943596D01*
X143752627Y-141943598D01*
X143812155Y-141949999D01*
X143812172Y-141950000D01*
X144385000Y-141950000D01*
X144885000Y-141950000D01*
X145457828Y-141950000D01*
X145457844Y-141949999D01*
X145517372Y-141943598D01*
X145517379Y-141943596D01*
X145652086Y-141893354D01*
X145652093Y-141893350D01*
X145767187Y-141807190D01*
X145767190Y-141807187D01*
X145853350Y-141692093D01*
X145853354Y-141692086D01*
X145903596Y-141557379D01*
X145903598Y-141557372D01*
X145909999Y-141497844D01*
X151310000Y-141497844D01*
X151316401Y-141557372D01*
X151316403Y-141557379D01*
X151366645Y-141692086D01*
X151366649Y-141692093D01*
X151452809Y-141807187D01*
X151452812Y-141807190D01*
X151567906Y-141893350D01*
X151567913Y-141893354D01*
X151702620Y-141943596D01*
X151702627Y-141943598D01*
X151762155Y-141949999D01*
X151762172Y-141950000D01*
X152335000Y-141950000D01*
X152835000Y-141950000D01*
X153407828Y-141950000D01*
X153407844Y-141949999D01*
X153467372Y-141943598D01*
X153467379Y-141943596D01*
X153602086Y-141893354D01*
X153602093Y-141893350D01*
X153717187Y-141807190D01*
X153717190Y-141807187D01*
X153803350Y-141692093D01*
X153803354Y-141692086D01*
X153853596Y-141557379D01*
X153853598Y-141557372D01*
X153859999Y-141497844D01*
X155360000Y-141497844D01*
X155366401Y-141557372D01*
X155366403Y-141557379D01*
X155416645Y-141692086D01*
X155416649Y-141692093D01*
X155502809Y-141807187D01*
X155502812Y-141807190D01*
X155617906Y-141893350D01*
X155617913Y-141893354D01*
X155752620Y-141943596D01*
X155752627Y-141943598D01*
X155812155Y-141949999D01*
X155812172Y-141950000D01*
X156385000Y-141950000D01*
X156885000Y-141950000D01*
X157457828Y-141950000D01*
X157457844Y-141949999D01*
X157517372Y-141943598D01*
X157517379Y-141943596D01*
X157652086Y-141893354D01*
X157652093Y-141893350D01*
X157767187Y-141807190D01*
X157767190Y-141807187D01*
X157853350Y-141692093D01*
X157853354Y-141692086D01*
X157903596Y-141557379D01*
X157903598Y-141557372D01*
X157909999Y-141497844D01*
X163310000Y-141497844D01*
X163316401Y-141557372D01*
X163316403Y-141557379D01*
X163366645Y-141692086D01*
X163366649Y-141692093D01*
X163452809Y-141807187D01*
X163452812Y-141807190D01*
X163567906Y-141893350D01*
X163567913Y-141893354D01*
X163702620Y-141943596D01*
X163702627Y-141943598D01*
X163762155Y-141949999D01*
X163762172Y-141950000D01*
X164335000Y-141950000D01*
X164835000Y-141950000D01*
X165407828Y-141950000D01*
X165407844Y-141949999D01*
X165467372Y-141943598D01*
X165467379Y-141943596D01*
X165602086Y-141893354D01*
X165602093Y-141893350D01*
X165717187Y-141807190D01*
X165717190Y-141807187D01*
X165803350Y-141692093D01*
X165803354Y-141692086D01*
X165853596Y-141557379D01*
X165853598Y-141557372D01*
X165859999Y-141497844D01*
X165860000Y-141497827D01*
X165860000Y-141050000D01*
X164835000Y-141050000D01*
X164835000Y-141950000D01*
X164335000Y-141950000D01*
X164335000Y-141050000D01*
X163310000Y-141050000D01*
X163310000Y-141497844D01*
X157909999Y-141497844D01*
X157910000Y-141497827D01*
X157910000Y-141050000D01*
X156885000Y-141050000D01*
X156885000Y-141950000D01*
X156385000Y-141950000D01*
X156385000Y-141050000D01*
X155360000Y-141050000D01*
X155360000Y-141497844D01*
X153859999Y-141497844D01*
X153860000Y-141497827D01*
X153860000Y-141050000D01*
X152835000Y-141050000D01*
X152835000Y-141950000D01*
X152335000Y-141950000D01*
X152335000Y-141050000D01*
X151310000Y-141050000D01*
X151310000Y-141497844D01*
X145909999Y-141497844D01*
X145910000Y-141497827D01*
X145910000Y-141050000D01*
X144885000Y-141050000D01*
X144885000Y-141950000D01*
X144385000Y-141950000D01*
X144385000Y-140550000D01*
X144885000Y-140550000D01*
X145910000Y-140550000D01*
X145910000Y-140102172D01*
X145909999Y-140102155D01*
X151310000Y-140102155D01*
X151310000Y-140550000D01*
X152335000Y-140550000D01*
X152835000Y-140550000D01*
X153860000Y-140550000D01*
X153860000Y-140102172D01*
X153859999Y-140102155D01*
X155360000Y-140102155D01*
X155360000Y-140550000D01*
X156385000Y-140550000D01*
X156885000Y-140550000D01*
X157910000Y-140550000D01*
X157910000Y-140102172D01*
X157909999Y-140102155D01*
X163310000Y-140102155D01*
X163310000Y-140550000D01*
X164335000Y-140550000D01*
X164835000Y-140550000D01*
X165860000Y-140550000D01*
X165860000Y-140102172D01*
X165859999Y-140102155D01*
X165853598Y-140042627D01*
X165853596Y-140042620D01*
X165803354Y-139907913D01*
X165803350Y-139907906D01*
X165717190Y-139792812D01*
X165717187Y-139792809D01*
X165602093Y-139706649D01*
X165602086Y-139706645D01*
X165467379Y-139656403D01*
X165467372Y-139656401D01*
X165407844Y-139650000D01*
X164835000Y-139650000D01*
X164835000Y-140550000D01*
X164335000Y-140550000D01*
X164335000Y-139650000D01*
X163762155Y-139650000D01*
X163702627Y-139656401D01*
X163702620Y-139656403D01*
X163567913Y-139706645D01*
X163567906Y-139706649D01*
X163452812Y-139792809D01*
X163452809Y-139792812D01*
X163366649Y-139907906D01*
X163366645Y-139907913D01*
X163316403Y-140042620D01*
X163316401Y-140042627D01*
X163310000Y-140102155D01*
X157909999Y-140102155D01*
X157903598Y-140042627D01*
X157903596Y-140042620D01*
X157853354Y-139907913D01*
X157853350Y-139907906D01*
X157767190Y-139792812D01*
X157767187Y-139792809D01*
X157652093Y-139706649D01*
X157652086Y-139706645D01*
X157517379Y-139656403D01*
X157517372Y-139656401D01*
X157457844Y-139650000D01*
X156885000Y-139650000D01*
X156885000Y-140550000D01*
X156385000Y-140550000D01*
X156385000Y-139650000D01*
X155812155Y-139650000D01*
X155752627Y-139656401D01*
X155752620Y-139656403D01*
X155617913Y-139706645D01*
X155617906Y-139706649D01*
X155502812Y-139792809D01*
X155502809Y-139792812D01*
X155416649Y-139907906D01*
X155416645Y-139907913D01*
X155366403Y-140042620D01*
X155366401Y-140042627D01*
X155360000Y-140102155D01*
X153859999Y-140102155D01*
X153853598Y-140042627D01*
X153853596Y-140042620D01*
X153803354Y-139907913D01*
X153803350Y-139907906D01*
X153717190Y-139792812D01*
X153717187Y-139792809D01*
X153602093Y-139706649D01*
X153602086Y-139706645D01*
X153467379Y-139656403D01*
X153467372Y-139656401D01*
X153407844Y-139650000D01*
X152835000Y-139650000D01*
X152835000Y-140550000D01*
X152335000Y-140550000D01*
X152335000Y-139650000D01*
X151762155Y-139650000D01*
X151702627Y-139656401D01*
X151702620Y-139656403D01*
X151567913Y-139706645D01*
X151567906Y-139706649D01*
X151452812Y-139792809D01*
X151452809Y-139792812D01*
X151366649Y-139907906D01*
X151366645Y-139907913D01*
X151316403Y-140042620D01*
X151316401Y-140042627D01*
X151310000Y-140102155D01*
X145909999Y-140102155D01*
X145903598Y-140042627D01*
X145903596Y-140042620D01*
X145853354Y-139907913D01*
X145853350Y-139907906D01*
X145767190Y-139792812D01*
X145767187Y-139792809D01*
X145652093Y-139706649D01*
X145652086Y-139706645D01*
X145517379Y-139656403D01*
X145517372Y-139656401D01*
X145457844Y-139650000D01*
X144885000Y-139650000D01*
X144885000Y-140550000D01*
X144385000Y-140550000D01*
X144385000Y-139650000D01*
X143812155Y-139650000D01*
X143752627Y-139656401D01*
X143752620Y-139656403D01*
X143617913Y-139706645D01*
X143617910Y-139706647D01*
X143568811Y-139743403D01*
X143556188Y-139748110D01*
X143546011Y-139756930D01*
X143524094Y-139760081D01*
X143503346Y-139767820D01*
X143490185Y-139764957D01*
X143476853Y-139766874D01*
X143456709Y-139757674D01*
X143435073Y-139752968D01*
X143425549Y-139743444D01*
X143413297Y-139737849D01*
X143401324Y-139719219D01*
X143385668Y-139703563D01*
X143381981Y-139689121D01*
X143375523Y-139679071D01*
X143370500Y-139644136D01*
X143370500Y-139450096D01*
X143390185Y-139383057D01*
X143406814Y-139362420D01*
X147278506Y-135490727D01*
X147278511Y-135490724D01*
X147288714Y-135480520D01*
X147288716Y-135480520D01*
X147400520Y-135368716D01*
X147417399Y-135339480D01*
X147456772Y-135271285D01*
X147456773Y-135271283D01*
X147479574Y-135231790D01*
X147479573Y-135231790D01*
X147479577Y-135231785D01*
X147520500Y-135079058D01*
X147520500Y-134920943D01*
X147520500Y-134474499D01*
X147540185Y-134407460D01*
X147592989Y-134361705D01*
X147644500Y-134350499D01*
X147817871Y-134350499D01*
X147817872Y-134350499D01*
X147877483Y-134344091D01*
X148012331Y-134293796D01*
X148127546Y-134207546D01*
X148213796Y-134092331D01*
X148262810Y-133960916D01*
X148304681Y-133904984D01*
X148370145Y-133880566D01*
X148438418Y-133895417D01*
X148466673Y-133916569D01*
X148580213Y-134030109D01*
X148752179Y-134155048D01*
X148752181Y-134155049D01*
X148752184Y-134155051D01*
X148941588Y-134251557D01*
X149143757Y-134317246D01*
X149353713Y-134350500D01*
X149353714Y-134350500D01*
X149566286Y-134350500D01*
X149566287Y-134350500D01*
X149776243Y-134317246D01*
X149978412Y-134251557D01*
X150167816Y-134155051D01*
X150254138Y-134092335D01*
X150339786Y-134030109D01*
X150339788Y-134030106D01*
X150339792Y-134030104D01*
X150490104Y-133879792D01*
X150490106Y-133879788D01*
X150490109Y-133879786D01*
X150615048Y-133707820D01*
X150615047Y-133707820D01*
X150615051Y-133707816D01*
X150619514Y-133699054D01*
X150667488Y-133648259D01*
X150735308Y-133631463D01*
X150801444Y-133653999D01*
X150840486Y-133699056D01*
X150844951Y-133707820D01*
X150969890Y-133879786D01*
X151120213Y-134030109D01*
X151292179Y-134155048D01*
X151292181Y-134155049D01*
X151292184Y-134155051D01*
X151481588Y-134251557D01*
X151683757Y-134317246D01*
X151893713Y-134350500D01*
X151893714Y-134350500D01*
X152106286Y-134350500D01*
X152106287Y-134350500D01*
X152316243Y-134317246D01*
X152518412Y-134251557D01*
X152707816Y-134155051D01*
X152794138Y-134092335D01*
X152879786Y-134030109D01*
X152879788Y-134030106D01*
X152879792Y-134030104D01*
X153030104Y-133879792D01*
X153030106Y-133879788D01*
X153030109Y-133879786D01*
X153155048Y-133707820D01*
X153155047Y-133707820D01*
X153155051Y-133707816D01*
X153159514Y-133699054D01*
X153207488Y-133648259D01*
X153275308Y-133631463D01*
X153341444Y-133653999D01*
X153380486Y-133699056D01*
X153384951Y-133707820D01*
X153509890Y-133879786D01*
X153660213Y-134030109D01*
X153832179Y-134155048D01*
X153832181Y-134155049D01*
X153832184Y-134155051D01*
X154021588Y-134251557D01*
X154223757Y-134317246D01*
X154433713Y-134350500D01*
X154433714Y-134350500D01*
X154646286Y-134350500D01*
X154646287Y-134350500D01*
X154856243Y-134317246D01*
X155058412Y-134251557D01*
X155247816Y-134155051D01*
X155334138Y-134092335D01*
X155419786Y-134030109D01*
X155419788Y-134030106D01*
X155419792Y-134030104D01*
X155570104Y-133879792D01*
X155570106Y-133879788D01*
X155570109Y-133879786D01*
X155695048Y-133707820D01*
X155695047Y-133707820D01*
X155695051Y-133707816D01*
X155699514Y-133699054D01*
X155747488Y-133648259D01*
X155815308Y-133631463D01*
X155881444Y-133653999D01*
X155920486Y-133699056D01*
X155924951Y-133707820D01*
X156049890Y-133879786D01*
X156200213Y-134030109D01*
X156372179Y-134155048D01*
X156372181Y-134155049D01*
X156372184Y-134155051D01*
X156561588Y-134251557D01*
X156763757Y-134317246D01*
X156973713Y-134350500D01*
X156973714Y-134350500D01*
X157186286Y-134350500D01*
X157186287Y-134350500D01*
X157396243Y-134317246D01*
X157598412Y-134251557D01*
X157787816Y-134155051D01*
X157874138Y-134092335D01*
X157959786Y-134030109D01*
X157959788Y-134030106D01*
X157959792Y-134030104D01*
X158110104Y-133879792D01*
X158110106Y-133879788D01*
X158110109Y-133879786D01*
X158235048Y-133707820D01*
X158235047Y-133707820D01*
X158235051Y-133707816D01*
X158239514Y-133699054D01*
X158287488Y-133648259D01*
X158355308Y-133631463D01*
X158421444Y-133653999D01*
X158460486Y-133699056D01*
X158464951Y-133707820D01*
X158589890Y-133879786D01*
X158740213Y-134030109D01*
X158912182Y-134155050D01*
X158912184Y-134155051D01*
X158976794Y-134187971D01*
X159027590Y-134235945D01*
X159044500Y-134298456D01*
X159044500Y-134709995D01*
X159024815Y-134777034D01*
X158985600Y-134815532D01*
X158966954Y-134827033D01*
X158847029Y-134946959D01*
X158758001Y-135091294D01*
X158757996Y-135091305D01*
X158704651Y-135252290D01*
X158694500Y-135351647D01*
X158694500Y-135948337D01*
X158694501Y-135948355D01*
X158704650Y-136047707D01*
X158704651Y-136047710D01*
X158757996Y-136208694D01*
X158758001Y-136208705D01*
X158847029Y-136353040D01*
X158847032Y-136353044D01*
X158966955Y-136472967D01*
X158966959Y-136472970D01*
X159111294Y-136561998D01*
X159111297Y-136561999D01*
X159111303Y-136562003D01*
X159272292Y-136615349D01*
X159371655Y-136625500D01*
X159918344Y-136625499D01*
X159918352Y-136625498D01*
X159918355Y-136625498D01*
X159972760Y-136619940D01*
X160017708Y-136615349D01*
X160178697Y-136562003D01*
X160323044Y-136472968D01*
X160332668Y-136463343D01*
X160393987Y-136429856D01*
X160463679Y-136434835D01*
X160508034Y-136463339D01*
X160517267Y-136472572D01*
X160517271Y-136472575D01*
X160661507Y-136561542D01*
X160661518Y-136561547D01*
X160822393Y-136614855D01*
X160921683Y-136624999D01*
X161445000Y-136624999D01*
X161468308Y-136624999D01*
X161468322Y-136624998D01*
X161567607Y-136614855D01*
X161728481Y-136561547D01*
X161728492Y-136561542D01*
X161872728Y-136472575D01*
X161872732Y-136472572D01*
X161992572Y-136352732D01*
X161992575Y-136352728D01*
X162081542Y-136208492D01*
X162081547Y-136208481D01*
X162134855Y-136047606D01*
X162144999Y-135948322D01*
X162145000Y-135948309D01*
X162145000Y-135900000D01*
X161445000Y-135900000D01*
X161445000Y-136624999D01*
X160921683Y-136624999D01*
X160945000Y-136624998D01*
X160945000Y-135400000D01*
X161445000Y-135400000D01*
X162144999Y-135400000D01*
X162144999Y-135351692D01*
X162144998Y-135351677D01*
X162134855Y-135252392D01*
X162081547Y-135091518D01*
X162081542Y-135091507D01*
X161992575Y-134947271D01*
X161992572Y-134947267D01*
X161872732Y-134827427D01*
X161872728Y-134827424D01*
X161728492Y-134738457D01*
X161728481Y-134738452D01*
X161567606Y-134685144D01*
X161468322Y-134675000D01*
X161445000Y-134675000D01*
X161445000Y-135400000D01*
X160945000Y-135400000D01*
X160945000Y-134674999D01*
X160921693Y-134675000D01*
X160921674Y-134675001D01*
X160822392Y-134685144D01*
X160661518Y-134738452D01*
X160661507Y-134738457D01*
X160517271Y-134827424D01*
X160517264Y-134827430D01*
X160508028Y-134836665D01*
X160507384Y-134837016D01*
X160507026Y-134837656D01*
X160476752Y-134853740D01*
X160446703Y-134870146D01*
X160445972Y-134870093D01*
X160445324Y-134870438D01*
X160411164Y-134867601D01*
X160377011Y-134865157D01*
X160376180Y-134864697D01*
X160375694Y-134864657D01*
X160373338Y-134863124D01*
X160344913Y-134847389D01*
X160338435Y-134842423D01*
X160323044Y-134827032D01*
X160299054Y-134812234D01*
X160294060Y-134808406D01*
X160277003Y-134785071D01*
X160257677Y-134763582D01*
X160256043Y-134756394D01*
X160252830Y-134751998D01*
X160252034Y-134738752D01*
X160245500Y-134709995D01*
X160245500Y-134272980D01*
X160265185Y-134205941D01*
X160313208Y-134162494D01*
X160327818Y-134155050D01*
X160499786Y-134030109D01*
X160499788Y-134030106D01*
X160499792Y-134030104D01*
X160650104Y-133879792D01*
X160650106Y-133879788D01*
X160650109Y-133879786D01*
X160775048Y-133707820D01*
X160775051Y-133707816D01*
X160779793Y-133698508D01*
X160827763Y-133647711D01*
X160895583Y-133630911D01*
X160961719Y-133653445D01*
X161000763Y-133698500D01*
X161005377Y-133707555D01*
X161130272Y-133879459D01*
X161130276Y-133879464D01*
X161280535Y-134029723D01*
X161280540Y-134029727D01*
X161452442Y-134154620D01*
X161641782Y-134251095D01*
X161843871Y-134316757D01*
X161910000Y-134327231D01*
X161910000Y-133433012D01*
X161967007Y-133465925D01*
X162094174Y-133500000D01*
X162225826Y-133500000D01*
X162352993Y-133465925D01*
X162410000Y-133433012D01*
X162410000Y-134327230D01*
X162476126Y-134316757D01*
X162476129Y-134316757D01*
X162678217Y-134251095D01*
X162867557Y-134154620D01*
X163039459Y-134029727D01*
X163039464Y-134029723D01*
X163189723Y-133879464D01*
X163189727Y-133879459D01*
X163314620Y-133707557D01*
X163411095Y-133518217D01*
X163476757Y-133316129D01*
X163476757Y-133316126D01*
X163487231Y-133250000D01*
X162593012Y-133250000D01*
X162625925Y-133192993D01*
X162660000Y-133065826D01*
X162660000Y-132934174D01*
X162625925Y-132807007D01*
X162593012Y-132750000D01*
X163487231Y-132750000D01*
X163476757Y-132683873D01*
X163476757Y-132683870D01*
X163411095Y-132481782D01*
X163314620Y-132292442D01*
X163189727Y-132120540D01*
X163189723Y-132120535D01*
X163039464Y-131970276D01*
X163039459Y-131970272D01*
X162867557Y-131845379D01*
X162678215Y-131748903D01*
X162476124Y-131683241D01*
X162410000Y-131672768D01*
X162410000Y-132566988D01*
X162352993Y-132534075D01*
X162225826Y-132500000D01*
X162094174Y-132500000D01*
X161967007Y-132534075D01*
X161910000Y-132566988D01*
X161910000Y-131672768D01*
X161909999Y-131672768D01*
X161843875Y-131683241D01*
X161641784Y-131748903D01*
X161452442Y-131845379D01*
X161280540Y-131970272D01*
X161280535Y-131970276D01*
X161130276Y-132120535D01*
X161130272Y-132120540D01*
X161005378Y-132292443D01*
X161000762Y-132301502D01*
X160952784Y-132352295D01*
X160884963Y-132369087D01*
X160818829Y-132346546D01*
X160779794Y-132301493D01*
X160775051Y-132292184D01*
X160775049Y-132292181D01*
X160775048Y-132292179D01*
X160650109Y-132120213D01*
X160499786Y-131969890D01*
X160327820Y-131844951D01*
X160138414Y-131748444D01*
X160138413Y-131748443D01*
X160138412Y-131748443D01*
X159936243Y-131682754D01*
X159936241Y-131682753D01*
X159936240Y-131682753D01*
X159774957Y-131657208D01*
X159726287Y-131649500D01*
X159513713Y-131649500D01*
X159465042Y-131657208D01*
X159303760Y-131682753D01*
X159101585Y-131748444D01*
X158912179Y-131844951D01*
X158740213Y-131969890D01*
X158589890Y-132120213D01*
X158464949Y-132292182D01*
X158460484Y-132300946D01*
X158412509Y-132351742D01*
X158344688Y-132368536D01*
X158278553Y-132345998D01*
X158239516Y-132300946D01*
X158235050Y-132292182D01*
X158110109Y-132120213D01*
X157959790Y-131969894D01*
X157959785Y-131969890D01*
X157796615Y-131851341D01*
X157753949Y-131796012D01*
X157745500Y-131751023D01*
X157745500Y-130385718D01*
X157765185Y-130318679D01*
X157813207Y-130275233D01*
X157852815Y-130255052D01*
X157852815Y-130255051D01*
X157852816Y-130255051D01*
X157944193Y-130188661D01*
X158024786Y-130130109D01*
X158024788Y-130130106D01*
X158024792Y-130130104D01*
X158175104Y-129979792D01*
X158175106Y-129979788D01*
X158175109Y-129979786D01*
X158300048Y-129807820D01*
X158300047Y-129807820D01*
X158300051Y-129807816D01*
X158304514Y-129799054D01*
X158352488Y-129748259D01*
X158420308Y-129731463D01*
X158486444Y-129753999D01*
X158525486Y-129799056D01*
X158529951Y-129807820D01*
X158654890Y-129979786D01*
X158805213Y-130130109D01*
X158977179Y-130255048D01*
X158977181Y-130255049D01*
X158977184Y-130255051D01*
X159166588Y-130351557D01*
X159368757Y-130417246D01*
X159578713Y-130450500D01*
X159578714Y-130450500D01*
X159791286Y-130450500D01*
X159791287Y-130450500D01*
X160001243Y-130417246D01*
X160043523Y-130403507D01*
X160113362Y-130401511D01*
X160169521Y-130433756D01*
X160471284Y-130735520D01*
X160471286Y-130735521D01*
X160471290Y-130735524D01*
X160563385Y-130788694D01*
X160608216Y-130814577D01*
X160760943Y-130855501D01*
X160760945Y-130855501D01*
X160926654Y-130855501D01*
X160926670Y-130855500D01*
X163919996Y-130855500D01*
X163987035Y-130875185D01*
X164025535Y-130914404D01*
X164037031Y-130933043D01*
X164156955Y-131052967D01*
X164156959Y-131052970D01*
X164301294Y-131141998D01*
X164301297Y-131141999D01*
X164301303Y-131142003D01*
X164462292Y-131195349D01*
X164561655Y-131205500D01*
X165158344Y-131205499D01*
X165158352Y-131205498D01*
X165158355Y-131205498D01*
X165212760Y-131199940D01*
X165257708Y-131195349D01*
X165418697Y-131142003D01*
X165563044Y-131052968D01*
X165682968Y-130933044D01*
X165772003Y-130788697D01*
X165825349Y-130627708D01*
X165835500Y-130528345D01*
X165835499Y-129981656D01*
X165825349Y-129882292D01*
X165772003Y-129721303D01*
X165771999Y-129721297D01*
X165771998Y-129721294D01*
X165682970Y-129576959D01*
X165682967Y-129576955D01*
X165673339Y-129567327D01*
X165639854Y-129506004D01*
X165644838Y-129436312D01*
X165673345Y-129391959D01*
X165682573Y-129382731D01*
X165771542Y-129238492D01*
X165771547Y-129238481D01*
X165824855Y-129077606D01*
X165834999Y-128978322D01*
X165835000Y-128978309D01*
X165835000Y-128955000D01*
X163885001Y-128955000D01*
X163885001Y-128978322D01*
X163895144Y-129077607D01*
X163948452Y-129238481D01*
X163948457Y-129238492D01*
X164037424Y-129382728D01*
X164037427Y-129382732D01*
X164046660Y-129391965D01*
X164047012Y-129392611D01*
X164047656Y-129392972D01*
X164063738Y-129423241D01*
X164080145Y-129453288D01*
X164080092Y-129454022D01*
X164080438Y-129454673D01*
X164077606Y-129488780D01*
X164075161Y-129522980D01*
X164074698Y-129523815D01*
X164074658Y-129524304D01*
X164073120Y-129526667D01*
X164057391Y-129555085D01*
X164052425Y-129561562D01*
X164037032Y-129576956D01*
X164022231Y-129600951D01*
X164018408Y-129605939D01*
X163995076Y-129622992D01*
X163973588Y-129642321D01*
X163966396Y-129643955D01*
X163962000Y-129647169D01*
X163948755Y-129647964D01*
X163919996Y-129654500D01*
X163634977Y-129654500D01*
X163567938Y-129634815D01*
X163522183Y-129582011D01*
X163512239Y-129512853D01*
X163517046Y-129492182D01*
X163541757Y-129416129D01*
X163541757Y-129416126D01*
X163552231Y-129350000D01*
X162658012Y-129350000D01*
X162690925Y-129292993D01*
X162725000Y-129165826D01*
X162725000Y-129034174D01*
X162690925Y-128907007D01*
X162658012Y-128850000D01*
X163552231Y-128850000D01*
X163541757Y-128783873D01*
X163541757Y-128783870D01*
X163476095Y-128581782D01*
X163426692Y-128484823D01*
X163426691Y-128484819D01*
X163399613Y-128431677D01*
X163885000Y-128431677D01*
X163885000Y-128455000D01*
X164610000Y-128455000D01*
X165110000Y-128455000D01*
X165834999Y-128455000D01*
X165834999Y-128431692D01*
X165834998Y-128431677D01*
X165824855Y-128332392D01*
X165771547Y-128171518D01*
X165771542Y-128171507D01*
X165682575Y-128027271D01*
X165682572Y-128027267D01*
X165562732Y-127907427D01*
X165562728Y-127907424D01*
X165418492Y-127818457D01*
X165418481Y-127818452D01*
X165257606Y-127765144D01*
X165158322Y-127755000D01*
X165110000Y-127755000D01*
X165110000Y-128455000D01*
X164610000Y-128455000D01*
X164610000Y-127755000D01*
X164609999Y-127754999D01*
X164561693Y-127755000D01*
X164561675Y-127755001D01*
X164462392Y-127765144D01*
X164301518Y-127818452D01*
X164301507Y-127818457D01*
X164157271Y-127907424D01*
X164157267Y-127907427D01*
X164037427Y-128027267D01*
X164037424Y-128027271D01*
X163948457Y-128171507D01*
X163948452Y-128171518D01*
X163895144Y-128332393D01*
X163885000Y-128431677D01*
X163399613Y-128431677D01*
X163379624Y-128392447D01*
X163379623Y-128392446D01*
X163254727Y-128220540D01*
X163254723Y-128220535D01*
X163104464Y-128070276D01*
X163104459Y-128070272D01*
X162932557Y-127945379D01*
X162743215Y-127848903D01*
X162541124Y-127783241D01*
X162475000Y-127772768D01*
X162475000Y-128666988D01*
X162417993Y-128634075D01*
X162290826Y-128600000D01*
X162159174Y-128600000D01*
X162032007Y-128634075D01*
X161975000Y-128666988D01*
X161975000Y-127772768D01*
X161974999Y-127772768D01*
X161908875Y-127783241D01*
X161706784Y-127848903D01*
X161517442Y-127945379D01*
X161345540Y-128070272D01*
X161345535Y-128070276D01*
X161195276Y-128220535D01*
X161195272Y-128220540D01*
X161070378Y-128392443D01*
X161065762Y-128401502D01*
X161017784Y-128452295D01*
X160949963Y-128469087D01*
X160883829Y-128446546D01*
X160844794Y-128401493D01*
X160840051Y-128392184D01*
X160840049Y-128392181D01*
X160840048Y-128392179D01*
X160715109Y-128220213D01*
X160564786Y-128069890D01*
X160392820Y-127944951D01*
X160203414Y-127848444D01*
X160203413Y-127848443D01*
X160203412Y-127848443D01*
X160001243Y-127782754D01*
X160001241Y-127782753D01*
X160001240Y-127782753D01*
X159839957Y-127757208D01*
X159791287Y-127749500D01*
X159578713Y-127749500D01*
X159530042Y-127757208D01*
X159368760Y-127782753D01*
X159166585Y-127848444D01*
X158977179Y-127944951D01*
X158805213Y-128069890D01*
X158654890Y-128220213D01*
X158529949Y-128392182D01*
X158525484Y-128400946D01*
X158477509Y-128451742D01*
X158409688Y-128468536D01*
X158343553Y-128445998D01*
X158304516Y-128400946D01*
X158300050Y-128392182D01*
X158175109Y-128220213D01*
X158024786Y-128069890D01*
X157852820Y-127944951D01*
X157663414Y-127848444D01*
X157663413Y-127848443D01*
X157663412Y-127848443D01*
X157461243Y-127782754D01*
X157461241Y-127782753D01*
X157461240Y-127782753D01*
X157299957Y-127757208D01*
X157251287Y-127749500D01*
X157038713Y-127749500D01*
X157010006Y-127754046D01*
X156828757Y-127782753D01*
X156786473Y-127796492D01*
X156716632Y-127798486D01*
X156660476Y-127766241D01*
X153832590Y-124938355D01*
X153832588Y-124938352D01*
X153713717Y-124819481D01*
X153713716Y-124819480D01*
X153622616Y-124766884D01*
X153576785Y-124740423D01*
X153572172Y-124739186D01*
X153561217Y-124733165D01*
X153541191Y-124713026D01*
X153519090Y-124695214D01*
X153516882Y-124688580D01*
X153511951Y-124683621D01*
X153505992Y-124655855D01*
X153497029Y-124628919D01*
X153498758Y-124622144D01*
X153497291Y-124615306D01*
X153507289Y-124588727D01*
X153514312Y-124561220D01*
X153519429Y-124556455D01*
X153521892Y-124549911D01*
X153544670Y-124532959D01*
X153565452Y-124513613D01*
X153573090Y-124511808D01*
X153577943Y-124508197D01*
X153592650Y-124507186D01*
X153620950Y-124500500D01*
X162534108Y-124500500D01*
X162596949Y-124500500D01*
X162603032Y-124500648D01*
G37*
%TD.AperFunction*%
%TA.AperFunction,Conductor*%
G36*
X119385703Y-146152786D02*
G01*
X119413332Y-146187072D01*
X119416205Y-146192333D01*
X119502452Y-146307544D01*
X119502455Y-146307547D01*
X119617664Y-146393793D01*
X119617671Y-146393797D01*
X119752517Y-146444091D01*
X119752516Y-146444091D01*
X119758749Y-146444761D01*
X119812127Y-146450500D01*
X120789902Y-146450499D01*
X120856941Y-146470183D01*
X120877583Y-146486818D01*
X121333181Y-146942416D01*
X121366666Y-147003739D01*
X121369500Y-147030096D01*
X121369500Y-147149168D01*
X121369501Y-147149192D01*
X121372335Y-147185205D01*
X121417129Y-147339388D01*
X121417131Y-147339393D01*
X121498863Y-147477595D01*
X121498869Y-147477603D01*
X121612396Y-147591130D01*
X121612400Y-147591133D01*
X121612402Y-147591135D01*
X121750607Y-147672869D01*
X121750614Y-147672871D01*
X121904791Y-147717664D01*
X121904794Y-147717664D01*
X121904796Y-147717665D01*
X121940819Y-147720500D01*
X122339180Y-147720499D01*
X122375204Y-147717665D01*
X122529393Y-147672869D01*
X122586882Y-147638869D01*
X122654602Y-147621688D01*
X122713117Y-147638869D01*
X122770607Y-147672869D01*
X122770610Y-147672869D01*
X122770612Y-147672871D01*
X122924791Y-147717664D01*
X122924794Y-147717664D01*
X122924796Y-147717665D01*
X122960819Y-147720500D01*
X123359180Y-147720499D01*
X123395204Y-147717665D01*
X123536702Y-147676556D01*
X123606570Y-147676755D01*
X123665240Y-147714697D01*
X123692833Y-147775575D01*
X123693311Y-147775480D01*
X123693718Y-147777528D01*
X123694084Y-147778335D01*
X123694393Y-147780922D01*
X123722379Y-147921614D01*
X123722381Y-147921620D01*
X123777069Y-148053650D01*
X123777074Y-148053659D01*
X123856467Y-148172478D01*
X123856470Y-148172482D01*
X123957517Y-148273529D01*
X123957521Y-148273532D01*
X124076340Y-148352925D01*
X124076346Y-148352928D01*
X124076347Y-148352929D01*
X124208380Y-148407619D01*
X124208384Y-148407619D01*
X124208385Y-148407620D01*
X124348542Y-148435500D01*
X124348545Y-148435500D01*
X124491457Y-148435500D01*
X124585751Y-148416742D01*
X124631620Y-148407619D01*
X124763653Y-148352929D01*
X124882479Y-148273532D01*
X124983532Y-148172479D01*
X125062929Y-148053653D01*
X125067071Y-148043653D01*
X125097510Y-147970168D01*
X125141351Y-147915764D01*
X125207645Y-147893699D01*
X125275344Y-147910978D01*
X125322955Y-147962115D01*
X125326632Y-147970167D01*
X125357069Y-148043650D01*
X125357074Y-148043659D01*
X125436467Y-148162478D01*
X125436470Y-148162482D01*
X125537517Y-148263529D01*
X125537521Y-148263532D01*
X125656340Y-148342925D01*
X125656349Y-148342930D01*
X125662713Y-148345566D01*
X125788380Y-148397619D01*
X125788384Y-148397619D01*
X125788385Y-148397620D01*
X125928542Y-148425500D01*
X125928545Y-148425500D01*
X126071457Y-148425500D01*
X126165751Y-148406742D01*
X126211620Y-148397619D01*
X126343653Y-148342929D01*
X126462479Y-148263532D01*
X126563532Y-148162479D01*
X126642929Y-148043653D01*
X126697619Y-147911620D01*
X126716068Y-147818871D01*
X126748453Y-147756961D01*
X126809168Y-147722387D01*
X126847413Y-147719445D01*
X126848082Y-147719497D01*
X126860819Y-147720500D01*
X127259180Y-147720499D01*
X127295204Y-147717665D01*
X127449393Y-147672869D01*
X127587598Y-147591135D01*
X127701135Y-147477598D01*
X127782869Y-147339393D01*
X127815851Y-147225865D01*
X127827664Y-147185208D01*
X127827664Y-147185206D01*
X127827665Y-147185204D01*
X127830500Y-147149181D01*
X127830499Y-146955096D01*
X127850183Y-146888057D01*
X127866813Y-146867420D01*
X128247416Y-146486818D01*
X128308739Y-146453333D01*
X128335097Y-146450499D01*
X129407871Y-146450499D01*
X129407872Y-146450499D01*
X129407874Y-146450498D01*
X129407884Y-146450498D01*
X129422535Y-146448922D01*
X129432243Y-146447879D01*
X129501002Y-146460283D01*
X129552141Y-146507893D01*
X129569500Y-146571168D01*
X129569500Y-149239901D01*
X129560855Y-149269341D01*
X129554332Y-149299328D01*
X129550577Y-149304343D01*
X129549815Y-149306940D01*
X129533181Y-149327582D01*
X129488867Y-149371896D01*
X129427544Y-149405381D01*
X129362868Y-149402146D01*
X129226240Y-149357753D01*
X129064957Y-149332208D01*
X129016287Y-149324500D01*
X128803713Y-149324500D01*
X128755042Y-149332208D01*
X128593760Y-149357753D01*
X128391585Y-149423444D01*
X128202179Y-149519951D01*
X128030213Y-149644890D01*
X127879894Y-149795209D01*
X127879890Y-149795214D01*
X127760318Y-149959793D01*
X127704989Y-150002459D01*
X127635375Y-150008438D01*
X127573580Y-149975833D01*
X127559682Y-149959793D01*
X127440109Y-149795214D01*
X127440105Y-149795209D01*
X127289786Y-149644890D01*
X127117820Y-149519951D01*
X126928414Y-149423444D01*
X126928413Y-149423443D01*
X126928412Y-149423443D01*
X126726243Y-149357754D01*
X126726241Y-149357753D01*
X126726240Y-149357753D01*
X126564957Y-149332208D01*
X126516287Y-149324500D01*
X126303713Y-149324500D01*
X126255042Y-149332208D01*
X126093760Y-149357753D01*
X125891585Y-149423444D01*
X125702179Y-149519951D01*
X125530215Y-149644889D01*
X125391398Y-149783706D01*
X125330075Y-149817190D01*
X125260383Y-149812206D01*
X125204450Y-149770334D01*
X125198178Y-149761120D01*
X125102712Y-149606344D01*
X124978657Y-149482289D01*
X124978656Y-149482288D01*
X124864767Y-149412041D01*
X124829336Y-149390187D01*
X124829331Y-149390185D01*
X124827862Y-149389698D01*
X124662797Y-149335001D01*
X124662795Y-149335000D01*
X124560010Y-149324500D01*
X123259998Y-149324500D01*
X123259981Y-149324501D01*
X123157203Y-149335000D01*
X123157200Y-149335001D01*
X122990668Y-149390185D01*
X122990663Y-149390187D01*
X122841342Y-149482289D01*
X122717288Y-149606343D01*
X122717285Y-149606347D01*
X122623475Y-149758437D01*
X122571527Y-149805162D01*
X122502565Y-149816383D01*
X122438483Y-149788540D01*
X122430256Y-149781021D01*
X120861717Y-148212482D01*
X119216819Y-146567583D01*
X119183334Y-146506260D01*
X119180500Y-146479902D01*
X119180500Y-146246499D01*
X119200185Y-146179460D01*
X119252989Y-146133705D01*
X119322147Y-146123761D01*
X119385703Y-146152786D01*
G37*
%TD.AperFunction*%
%TA.AperFunction,Conductor*%
G36*
X138902941Y-145920185D02*
G01*
X138948696Y-145972989D01*
X138958640Y-146042147D01*
X138929615Y-146105703D01*
X138923592Y-146112172D01*
X138882978Y-146152786D01*
X138842623Y-146193141D01*
X138841218Y-146193971D01*
X138840504Y-146195209D01*
X138811753Y-146215679D01*
X138801068Y-146221186D01*
X138780607Y-146227131D01*
X138720028Y-146262956D01*
X138716811Y-146264615D01*
X138685897Y-146270570D01*
X138655395Y-146278309D01*
X138651863Y-146277127D01*
X138648203Y-146277833D01*
X138596881Y-146261128D01*
X138539395Y-146227132D01*
X138539388Y-146227129D01*
X138385208Y-146182335D01*
X138385202Y-146182334D01*
X138349181Y-146179500D01*
X137950830Y-146179500D01*
X137950808Y-146179501D01*
X137914794Y-146182335D01*
X137760611Y-146227129D01*
X137760607Y-146227130D01*
X137712358Y-146255665D01*
X137644633Y-146272846D01*
X137586116Y-146255663D01*
X137556198Y-146237969D01*
X137556190Y-146237966D01*
X137410001Y-146195493D01*
X137410000Y-146195494D01*
X137410000Y-146601925D01*
X137405076Y-146636520D01*
X137382336Y-146714789D01*
X137382334Y-146714802D01*
X137379500Y-146750811D01*
X137379500Y-146750819D01*
X137379500Y-146994977D01*
X137379501Y-147000000D01*
X137379501Y-147249193D01*
X137381217Y-147270993D01*
X137382335Y-147285204D01*
X137398078Y-147339393D01*
X137405076Y-147363478D01*
X137410000Y-147398073D01*
X137410000Y-147804504D01*
X137432253Y-147821213D01*
X137474045Y-147877207D01*
X137479418Y-147896182D01*
X137502379Y-148011614D01*
X137502381Y-148011620D01*
X137557069Y-148143650D01*
X137557074Y-148143659D01*
X137636467Y-148262478D01*
X137636470Y-148262482D01*
X137737517Y-148363529D01*
X137737521Y-148363532D01*
X137856340Y-148442925D01*
X137856349Y-148442930D01*
X137867672Y-148447620D01*
X137988380Y-148497619D01*
X137988384Y-148497619D01*
X137988385Y-148497620D01*
X138128542Y-148525500D01*
X138237902Y-148525500D01*
X138304941Y-148545185D01*
X138350696Y-148597989D01*
X138360640Y-148667147D01*
X138331615Y-148730703D01*
X138325583Y-148737181D01*
X137438859Y-149623904D01*
X137377536Y-149657389D01*
X137307844Y-149652405D01*
X137278293Y-149636541D01*
X137117819Y-149519951D01*
X137117818Y-149519950D01*
X137117816Y-149519949D01*
X136928412Y-149423443D01*
X136726243Y-149357754D01*
X136726241Y-149357753D01*
X136726240Y-149357753D01*
X136564957Y-149332208D01*
X136516287Y-149324500D01*
X136303713Y-149324500D01*
X136255042Y-149332208D01*
X136093760Y-149357753D01*
X135891585Y-149423444D01*
X135702179Y-149519951D01*
X135530213Y-149644890D01*
X135379894Y-149795209D01*
X135379890Y-149795214D01*
X135260318Y-149959793D01*
X135204989Y-150002459D01*
X135135375Y-150008438D01*
X135073580Y-149975833D01*
X135059682Y-149959793D01*
X134940109Y-149795214D01*
X134940105Y-149795209D01*
X134789786Y-149644890D01*
X134617820Y-149519951D01*
X134428414Y-149423444D01*
X134428413Y-149423443D01*
X134428412Y-149423443D01*
X134226243Y-149357754D01*
X134226241Y-149357753D01*
X134226240Y-149357753D01*
X134064957Y-149332208D01*
X134016287Y-149324500D01*
X133803713Y-149324500D01*
X133755042Y-149332208D01*
X133593760Y-149357753D01*
X133593757Y-149357754D01*
X133457129Y-149402147D01*
X133387290Y-149404142D01*
X133331132Y-149371897D01*
X131576819Y-147617584D01*
X131543334Y-147556261D01*
X131540500Y-147529903D01*
X131540500Y-146543607D01*
X131560185Y-146476568D01*
X131612989Y-146430813D01*
X131682147Y-146420869D01*
X131707833Y-146427425D01*
X131752517Y-146444091D01*
X131752516Y-146444091D01*
X131758749Y-146444761D01*
X131812127Y-146450500D01*
X132749902Y-146450499D01*
X132816941Y-146470183D01*
X132837583Y-146486818D01*
X133393181Y-147042416D01*
X133426666Y-147103739D01*
X133429500Y-147130096D01*
X133429500Y-147249168D01*
X133429501Y-147249192D01*
X133432335Y-147285205D01*
X133477129Y-147439388D01*
X133477131Y-147439393D01*
X133558863Y-147577595D01*
X133558869Y-147577603D01*
X133672396Y-147691130D01*
X133672400Y-147691133D01*
X133672402Y-147691135D01*
X133810607Y-147772869D01*
X133829421Y-147778335D01*
X133964791Y-147817664D01*
X133964794Y-147817664D01*
X133964796Y-147817665D01*
X134000819Y-147820500D01*
X134399180Y-147820499D01*
X134435204Y-147817665D01*
X134589393Y-147772869D01*
X134646882Y-147738869D01*
X134714602Y-147721688D01*
X134773117Y-147738869D01*
X134830607Y-147772869D01*
X134830610Y-147772869D01*
X134830612Y-147772871D01*
X134984791Y-147817664D01*
X134984794Y-147817664D01*
X134984796Y-147817665D01*
X135020819Y-147820500D01*
X135419180Y-147820499D01*
X135420610Y-147820499D01*
X135487649Y-147840183D01*
X135533404Y-147892987D01*
X135542227Y-147920306D01*
X135562379Y-148021615D01*
X135562381Y-148021620D01*
X135617069Y-148153650D01*
X135617074Y-148153659D01*
X135696467Y-148272478D01*
X135696470Y-148272482D01*
X135797517Y-148373529D01*
X135797521Y-148373532D01*
X135916340Y-148452925D01*
X135916346Y-148452928D01*
X135916347Y-148452929D01*
X136048380Y-148507619D01*
X136048384Y-148507619D01*
X136048385Y-148507620D01*
X136188542Y-148535500D01*
X136188545Y-148535500D01*
X136331457Y-148535500D01*
X136460982Y-148509735D01*
X136471620Y-148507619D01*
X136603653Y-148452929D01*
X136722479Y-148373532D01*
X136823532Y-148272479D01*
X136902929Y-148153653D01*
X136957619Y-148021620D01*
X136967854Y-147970167D01*
X136985500Y-147881457D01*
X136985500Y-147738542D01*
X136957620Y-147598385D01*
X136957619Y-147598384D01*
X136957619Y-147598380D01*
X136929025Y-147529351D01*
X136921557Y-147459883D01*
X136929788Y-147432646D01*
X136932486Y-147426406D01*
X136932494Y-147426395D01*
X136977643Y-147270993D01*
X136980500Y-147234690D01*
X136980500Y-146765310D01*
X136977643Y-146729007D01*
X136977367Y-146728058D01*
X136932495Y-146573608D01*
X136932492Y-146573600D01*
X136927266Y-146564763D01*
X136910000Y-146501645D01*
X136910000Y-146195494D01*
X136909998Y-146195493D01*
X136763809Y-146237965D01*
X136763806Y-146237967D01*
X136743608Y-146249912D01*
X136675884Y-146267092D01*
X136617370Y-146249910D01*
X136596397Y-146237507D01*
X136596390Y-146237504D01*
X136440997Y-146192357D01*
X136440991Y-146192356D01*
X136404697Y-146189500D01*
X136404690Y-146189500D01*
X135995310Y-146189500D01*
X135995302Y-146189500D01*
X135959008Y-146192356D01*
X135959002Y-146192357D01*
X135803606Y-146237504D01*
X135778388Y-146252418D01*
X135710663Y-146269598D01*
X135652151Y-146252417D01*
X135609395Y-146227132D01*
X135609388Y-146227129D01*
X135455208Y-146182335D01*
X135455202Y-146182334D01*
X135419181Y-146179500D01*
X135020830Y-146179500D01*
X135020808Y-146179501D01*
X134984794Y-146182335D01*
X134830611Y-146227129D01*
X134830604Y-146227132D01*
X134773119Y-146261128D01*
X134705395Y-146278309D01*
X134646881Y-146261128D01*
X134589395Y-146227132D01*
X134589388Y-146227129D01*
X134435208Y-146182335D01*
X134435202Y-146182334D01*
X134399188Y-146179500D01*
X134399181Y-146179500D01*
X134280097Y-146179500D01*
X134250656Y-146170855D01*
X134220670Y-146164332D01*
X134215654Y-146160577D01*
X134213058Y-146159815D01*
X134192416Y-146143181D01*
X134161416Y-146112181D01*
X134127931Y-146050858D01*
X134132915Y-145981166D01*
X134174787Y-145925233D01*
X134240251Y-145900816D01*
X134249097Y-145900500D01*
X138835902Y-145900500D01*
X138902941Y-145920185D01*
G37*
%TD.AperFunction*%
%TA.AperFunction,Conductor*%
G36*
X130975703Y-148715384D02*
G01*
X130982181Y-148721416D01*
X131374685Y-149113920D01*
X131408170Y-149175243D01*
X131403186Y-149244935D01*
X131361314Y-149300868D01*
X131306402Y-149324074D01*
X131093760Y-149357753D01*
X131093759Y-149357753D01*
X130932818Y-149410046D01*
X130862977Y-149412041D01*
X130803144Y-149375960D01*
X130772316Y-149313259D01*
X130770500Y-149292115D01*
X130770500Y-148809097D01*
X130790185Y-148742058D01*
X130842989Y-148696303D01*
X130912147Y-148686359D01*
X130975703Y-148715384D01*
G37*
%TD.AperFunction*%
%TA.AperFunction,Conductor*%
G36*
X143245994Y-145582566D02*
G01*
X143278831Y-145584914D01*
X143278834Y-145584916D01*
X143278840Y-145584917D01*
X143307687Y-145606514D01*
X143334765Y-145626784D01*
X143334766Y-145626788D01*
X143334771Y-145626792D01*
X143348474Y-145663537D01*
X143359184Y-145692248D01*
X143359184Y-145692254D01*
X143359185Y-145692257D01*
X143359184Y-145692259D01*
X143359500Y-145701097D01*
X143359500Y-145997869D01*
X143359501Y-145997876D01*
X143365908Y-146057483D01*
X143416202Y-146192328D01*
X143416206Y-146192335D01*
X143502452Y-146307544D01*
X143502455Y-146307547D01*
X143617664Y-146393793D01*
X143617671Y-146393797D01*
X143752517Y-146444091D01*
X143752516Y-146444091D01*
X143758749Y-146444761D01*
X143812127Y-146450500D01*
X144884902Y-146450499D01*
X144951941Y-146470183D01*
X144972583Y-146486818D01*
X145383181Y-146897416D01*
X145416666Y-146958739D01*
X145419500Y-146985096D01*
X145419500Y-147149169D01*
X145419501Y-147149191D01*
X145422335Y-147185205D01*
X145467129Y-147339388D01*
X145467131Y-147339393D01*
X145548863Y-147477595D01*
X145548869Y-147477603D01*
X145646317Y-147575051D01*
X145679802Y-147636374D01*
X145674818Y-147706066D01*
X145632946Y-147761999D01*
X145567482Y-147786416D01*
X145558636Y-147786732D01*
X141273865Y-147786732D01*
X141206826Y-147767047D01*
X141161071Y-147714243D01*
X141151127Y-147645085D01*
X141180152Y-147581529D01*
X141186184Y-147575051D01*
X141660292Y-147100943D01*
X143138713Y-145622521D01*
X143138716Y-145622520D01*
X143147827Y-145613408D01*
X143179808Y-145595947D01*
X143209139Y-145579931D01*
X143209143Y-145579931D01*
X143209148Y-145579929D01*
X143245994Y-145582566D01*
G37*
%TD.AperFunction*%
%TA.AperFunction,Conductor*%
G36*
X102902941Y-145920185D02*
G01*
X102948696Y-145972989D01*
X102958640Y-146042147D01*
X102929615Y-146105703D01*
X102923592Y-146112171D01*
X102886604Y-146149160D01*
X102859002Y-146176762D01*
X102805916Y-146208156D01*
X102740611Y-146227128D01*
X102740606Y-146227131D01*
X102683119Y-146261128D01*
X102615395Y-146278309D01*
X102556881Y-146261128D01*
X102499395Y-146227132D01*
X102499388Y-146227129D01*
X102345208Y-146182335D01*
X102345202Y-146182334D01*
X102309181Y-146179500D01*
X101910830Y-146179500D01*
X101910808Y-146179501D01*
X101874794Y-146182335D01*
X101720611Y-146227129D01*
X101720601Y-146227133D01*
X101657356Y-146264535D01*
X101589631Y-146281716D01*
X101531117Y-146264534D01*
X101486197Y-146237969D01*
X101486190Y-146237965D01*
X101340001Y-146195493D01*
X101340000Y-146195494D01*
X101340000Y-146739591D01*
X101339999Y-146740045D01*
X101339981Y-146744694D01*
X101339500Y-146750819D01*
X101339500Y-146876385D01*
X101339500Y-146876454D01*
X101329582Y-146909781D01*
X101319817Y-146943039D01*
X101319638Y-146943193D01*
X101319571Y-146943421D01*
X101293165Y-146966132D01*
X101267013Y-146988794D01*
X101266752Y-146988850D01*
X101266600Y-146988982D01*
X101265333Y-146989159D01*
X101215501Y-147000000D01*
X101034500Y-147000000D01*
X100967461Y-146980315D01*
X100921706Y-146927511D01*
X100910500Y-146876000D01*
X100910500Y-146765317D01*
X100910499Y-146765302D01*
X100909359Y-146750820D01*
X100907643Y-146729007D01*
X100907367Y-146728058D01*
X100862495Y-146573608D01*
X100862492Y-146573600D01*
X100857266Y-146564763D01*
X100840000Y-146501645D01*
X100840000Y-146195494D01*
X100839998Y-146195493D01*
X100693809Y-146237965D01*
X100693806Y-146237967D01*
X100673608Y-146249912D01*
X100605884Y-146267092D01*
X100547370Y-146249910D01*
X100526397Y-146237507D01*
X100526390Y-146237504D01*
X100370997Y-146192357D01*
X100370991Y-146192356D01*
X100334697Y-146189500D01*
X100334690Y-146189500D01*
X99925310Y-146189500D01*
X99925302Y-146189500D01*
X99889008Y-146192356D01*
X99889002Y-146192357D01*
X99733605Y-146237505D01*
X99698389Y-146258331D01*
X99630664Y-146275512D01*
X99572150Y-146258331D01*
X99536936Y-146237506D01*
X99519393Y-146227131D01*
X99519392Y-146227130D01*
X99519391Y-146227130D01*
X99519388Y-146227129D01*
X99365208Y-146182335D01*
X99365202Y-146182334D01*
X99329181Y-146179500D01*
X98930830Y-146179500D01*
X98930808Y-146179501D01*
X98894794Y-146182335D01*
X98740611Y-146227129D01*
X98740604Y-146227132D01*
X98683119Y-146261128D01*
X98615395Y-146278309D01*
X98573012Y-146269148D01*
X98564653Y-146265725D01*
X98499393Y-146227131D01*
X98399576Y-146198131D01*
X98393499Y-146195643D01*
X98379031Y-146184080D01*
X98352806Y-146168571D01*
X98296416Y-146112181D01*
X98262931Y-146050858D01*
X98267915Y-145981166D01*
X98309787Y-145925233D01*
X98375251Y-145900816D01*
X98384097Y-145900500D01*
X102835902Y-145900500D01*
X102902941Y-145920185D01*
G37*
%TD.AperFunction*%
%TA.AperFunction,Conductor*%
G36*
X163220734Y-145910215D02*
G01*
X163253892Y-145919677D01*
X163254217Y-145920046D01*
X163254688Y-145920185D01*
X163277210Y-145946177D01*
X163300048Y-145972131D01*
X163300234Y-145972748D01*
X163300443Y-145972989D01*
X163301795Y-145977918D01*
X163310249Y-146005918D01*
X163310651Y-146008571D01*
X163315909Y-146057483D01*
X163319539Y-146067217D01*
X163321466Y-146079927D01*
X163312050Y-146149160D01*
X163266698Y-146202311D01*
X163233463Y-146217585D01*
X163200608Y-146227130D01*
X163200602Y-146227133D01*
X163060071Y-146310242D01*
X162992347Y-146327425D01*
X162949499Y-146318071D01*
X162911620Y-146302381D01*
X162911614Y-146302379D01*
X162771457Y-146274500D01*
X162771455Y-146274500D01*
X162628545Y-146274500D01*
X162628543Y-146274500D01*
X162488385Y-146302379D01*
X162488379Y-146302381D01*
X162356349Y-146357069D01*
X162356340Y-146357074D01*
X162237521Y-146436467D01*
X162237517Y-146436470D01*
X162136470Y-146537517D01*
X162136467Y-146537521D01*
X162057074Y-146656340D01*
X162057069Y-146656349D01*
X162050512Y-146672180D01*
X162006669Y-146726582D01*
X161940374Y-146748645D01*
X161872675Y-146731364D01*
X161825066Y-146680225D01*
X161816875Y-146659318D01*
X161792031Y-146573804D01*
X161709721Y-146434625D01*
X161709714Y-146434616D01*
X161595383Y-146320285D01*
X161595374Y-146320278D01*
X161456193Y-146237967D01*
X161456190Y-146237965D01*
X161310001Y-146195493D01*
X161310000Y-146195494D01*
X161310000Y-146876000D01*
X161307449Y-146884685D01*
X161308738Y-146893647D01*
X161297759Y-146917687D01*
X161290315Y-146943039D01*
X161283474Y-146948966D01*
X161279713Y-146957203D01*
X161257478Y-146971492D01*
X161237511Y-146988794D01*
X161226996Y-146991081D01*
X161220935Y-146994977D01*
X161186000Y-147000000D01*
X161004500Y-147000000D01*
X160937461Y-146980315D01*
X160891706Y-146927511D01*
X160880500Y-146876000D01*
X160880500Y-146765317D01*
X160880499Y-146765302D01*
X160879359Y-146750820D01*
X160877643Y-146729007D01*
X160877367Y-146728058D01*
X160832495Y-146573608D01*
X160832492Y-146573600D01*
X160827266Y-146564763D01*
X160810000Y-146501645D01*
X160810000Y-146195494D01*
X160809998Y-146195493D01*
X160663809Y-146237965D01*
X160663806Y-146237967D01*
X160643608Y-146249912D01*
X160575884Y-146267092D01*
X160517370Y-146249910D01*
X160496397Y-146237507D01*
X160496390Y-146237504D01*
X160340997Y-146192357D01*
X160340991Y-146192356D01*
X160304697Y-146189500D01*
X160304690Y-146189500D01*
X159895310Y-146189500D01*
X159895302Y-146189500D01*
X159859008Y-146192356D01*
X159859002Y-146192357D01*
X159703606Y-146237504D01*
X159673388Y-146255375D01*
X159605664Y-146272555D01*
X159547150Y-146255374D01*
X159499392Y-146227130D01*
X159499388Y-146227129D01*
X159345208Y-146182335D01*
X159345202Y-146182334D01*
X159309181Y-146179500D01*
X158910830Y-146179500D01*
X158910808Y-146179501D01*
X158874794Y-146182335D01*
X158720611Y-146227129D01*
X158720604Y-146227132D01*
X158663119Y-146261128D01*
X158595395Y-146278309D01*
X158536881Y-146261128D01*
X158479393Y-146227131D01*
X158479388Y-146227129D01*
X158414083Y-146208156D01*
X158360997Y-146176761D01*
X158296417Y-146112181D01*
X158262932Y-146050858D01*
X158267916Y-145981166D01*
X158309788Y-145925233D01*
X158375252Y-145900816D01*
X158384098Y-145900500D01*
X163187649Y-145900500D01*
X163220734Y-145910215D01*
G37*
%TD.AperFunction*%
%TA.AperFunction,Conductor*%
G36*
X148503418Y-129995417D02*
G01*
X148531673Y-130016569D01*
X148645208Y-130130104D01*
X148808387Y-130248659D01*
X148851051Y-130303987D01*
X148859500Y-130348976D01*
X148859500Y-131714281D01*
X148839815Y-131781320D01*
X148791795Y-131824765D01*
X148752185Y-131844947D01*
X148752184Y-131844948D01*
X148580215Y-131969889D01*
X148466673Y-132083431D01*
X148405350Y-132116915D01*
X148335658Y-132111931D01*
X148279725Y-132070059D01*
X148262810Y-132039082D01*
X148213797Y-131907671D01*
X148213793Y-131907664D01*
X148127547Y-131792455D01*
X148127544Y-131792452D01*
X148012335Y-131706206D01*
X148012328Y-131706202D01*
X147877482Y-131655908D01*
X147877483Y-131655908D01*
X147817883Y-131649501D01*
X147817881Y-131649500D01*
X147817873Y-131649500D01*
X147817864Y-131649500D01*
X146022129Y-131649500D01*
X146022123Y-131649501D01*
X145962516Y-131655908D01*
X145827671Y-131706202D01*
X145827664Y-131706206D01*
X145712455Y-131792452D01*
X145712452Y-131792455D01*
X145626206Y-131907664D01*
X145626202Y-131907671D01*
X145575908Y-132042517D01*
X145569501Y-132102116D01*
X145569500Y-132102135D01*
X145569500Y-133897870D01*
X145569501Y-133897876D01*
X145575908Y-133957483D01*
X145626202Y-134092328D01*
X145626206Y-134092335D01*
X145712452Y-134207544D01*
X145712455Y-134207547D01*
X145827664Y-134293793D01*
X145827671Y-134293797D01*
X145838412Y-134297803D01*
X145962517Y-134344091D01*
X146022127Y-134350500D01*
X146195500Y-134350499D01*
X146204185Y-134353049D01*
X146213147Y-134351761D01*
X146237184Y-134362738D01*
X146262539Y-134370183D01*
X146268467Y-134377025D01*
X146276703Y-134380786D01*
X146290989Y-134403017D01*
X146308294Y-134422987D01*
X146310581Y-134433502D01*
X146314477Y-134439564D01*
X146319500Y-134474499D01*
X146319500Y-134699902D01*
X146299815Y-134766941D01*
X146283181Y-134787583D01*
X142289481Y-138781282D01*
X142289479Y-138781285D01*
X142239361Y-138868094D01*
X142239359Y-138868096D01*
X142210425Y-138918209D01*
X142210424Y-138918210D01*
X142210423Y-138918215D01*
X142169499Y-139070943D01*
X142169499Y-139070945D01*
X142169499Y-139239046D01*
X142169500Y-139239059D01*
X142169500Y-144841902D01*
X142160855Y-144871342D01*
X142154332Y-144901329D01*
X142150577Y-144906344D01*
X142149815Y-144908941D01*
X142133181Y-144929583D01*
X142072180Y-144990584D01*
X142010857Y-145024069D01*
X141941165Y-145019085D01*
X141885232Y-144977213D01*
X141860815Y-144911749D01*
X141860499Y-144902903D01*
X141860499Y-144602129D01*
X141860498Y-144602123D01*
X141860497Y-144602116D01*
X141854091Y-144542517D01*
X141829723Y-144477184D01*
X141803797Y-144407671D01*
X141803793Y-144407664D01*
X141717547Y-144292455D01*
X141717544Y-144292452D01*
X141602335Y-144206206D01*
X141602328Y-144206202D01*
X141467482Y-144155908D01*
X141467483Y-144155908D01*
X141407883Y-144149501D01*
X141407881Y-144149500D01*
X141407873Y-144149500D01*
X141407864Y-144149500D01*
X139762129Y-144149500D01*
X139762123Y-144149501D01*
X139702516Y-144155908D01*
X139567671Y-144206202D01*
X139567664Y-144206206D01*
X139452455Y-144292452D01*
X139452452Y-144292455D01*
X139366206Y-144407664D01*
X139366202Y-144407671D01*
X139320500Y-144530207D01*
X139315909Y-144542517D01*
X139310937Y-144588757D01*
X139284201Y-144653306D01*
X139226809Y-144693154D01*
X139187649Y-144699500D01*
X134032351Y-144699500D01*
X133965312Y-144679815D01*
X133919557Y-144627011D01*
X133909061Y-144588752D01*
X133904091Y-144542516D01*
X133853797Y-144407671D01*
X133853793Y-144407664D01*
X133767547Y-144292455D01*
X133767544Y-144292452D01*
X133652335Y-144206206D01*
X133652328Y-144206202D01*
X133517482Y-144155908D01*
X133517483Y-144155908D01*
X133457883Y-144149501D01*
X133457881Y-144149500D01*
X133457873Y-144149500D01*
X133457864Y-144149500D01*
X131812129Y-144149500D01*
X131812123Y-144149501D01*
X131752517Y-144155908D01*
X131707831Y-144172575D01*
X131638140Y-144177558D01*
X131576817Y-144144072D01*
X131543333Y-144082748D01*
X131540500Y-144056392D01*
X131540500Y-142043074D01*
X131560185Y-141976035D01*
X131612989Y-141930280D01*
X131682147Y-141920336D01*
X131707834Y-141926892D01*
X131752623Y-141943597D01*
X131752627Y-141943598D01*
X131812155Y-141949999D01*
X131812172Y-141950000D01*
X132385000Y-141950000D01*
X132885000Y-141950000D01*
X133457828Y-141950000D01*
X133457844Y-141949999D01*
X133517372Y-141943598D01*
X133517379Y-141943596D01*
X133652086Y-141893354D01*
X133652093Y-141893350D01*
X133767187Y-141807190D01*
X133767190Y-141807187D01*
X133853350Y-141692093D01*
X133853354Y-141692086D01*
X133903596Y-141557379D01*
X133903598Y-141557372D01*
X133909999Y-141497844D01*
X139310000Y-141497844D01*
X139316401Y-141557372D01*
X139316403Y-141557379D01*
X139366645Y-141692086D01*
X139366649Y-141692093D01*
X139452809Y-141807187D01*
X139452812Y-141807190D01*
X139567906Y-141893350D01*
X139567913Y-141893354D01*
X139702620Y-141943596D01*
X139702627Y-141943598D01*
X139762155Y-141949999D01*
X139762172Y-141950000D01*
X140335000Y-141950000D01*
X140835000Y-141950000D01*
X141407828Y-141950000D01*
X141407844Y-141949999D01*
X141467372Y-141943598D01*
X141467379Y-141943596D01*
X141602086Y-141893354D01*
X141602093Y-141893350D01*
X141717187Y-141807190D01*
X141717190Y-141807187D01*
X141803350Y-141692093D01*
X141803354Y-141692086D01*
X141853596Y-141557379D01*
X141853598Y-141557372D01*
X141859999Y-141497844D01*
X141860000Y-141497827D01*
X141860000Y-141050000D01*
X140835000Y-141050000D01*
X140835000Y-141950000D01*
X140335000Y-141950000D01*
X140335000Y-141050000D01*
X139310000Y-141050000D01*
X139310000Y-141497844D01*
X133909999Y-141497844D01*
X133910000Y-141497827D01*
X133910000Y-141050000D01*
X132885000Y-141050000D01*
X132885000Y-141950000D01*
X132385000Y-141950000D01*
X132385000Y-140550000D01*
X132885000Y-140550000D01*
X133910000Y-140550000D01*
X133910000Y-140102172D01*
X133909999Y-140102155D01*
X139310000Y-140102155D01*
X139310000Y-140550000D01*
X140335000Y-140550000D01*
X140835000Y-140550000D01*
X141860000Y-140550000D01*
X141860000Y-140102172D01*
X141859999Y-140102155D01*
X141853598Y-140042627D01*
X141853596Y-140042620D01*
X141803354Y-139907913D01*
X141803350Y-139907906D01*
X141717190Y-139792812D01*
X141717187Y-139792809D01*
X141602093Y-139706649D01*
X141602086Y-139706645D01*
X141467379Y-139656403D01*
X141467372Y-139656401D01*
X141407844Y-139650000D01*
X140835000Y-139650000D01*
X140835000Y-140550000D01*
X140335000Y-140550000D01*
X140335000Y-139650000D01*
X139762155Y-139650000D01*
X139702627Y-139656401D01*
X139702620Y-139656403D01*
X139567913Y-139706645D01*
X139567906Y-139706649D01*
X139452812Y-139792809D01*
X139452809Y-139792812D01*
X139366649Y-139907906D01*
X139366645Y-139907913D01*
X139316403Y-140042620D01*
X139316401Y-140042627D01*
X139310000Y-140102155D01*
X133909999Y-140102155D01*
X133903598Y-140042627D01*
X133903596Y-140042620D01*
X133853354Y-139907913D01*
X133853350Y-139907906D01*
X133767190Y-139792812D01*
X133767187Y-139792809D01*
X133652093Y-139706649D01*
X133652086Y-139706645D01*
X133517379Y-139656403D01*
X133517372Y-139656401D01*
X133457844Y-139650000D01*
X132885000Y-139650000D01*
X132885000Y-140550000D01*
X132385000Y-140550000D01*
X132385000Y-139650000D01*
X131938597Y-139650000D01*
X131871558Y-139630315D01*
X131825803Y-139577511D01*
X131815859Y-139508353D01*
X131844884Y-139444797D01*
X131850916Y-139438319D01*
X132622416Y-138666819D01*
X132683739Y-138633334D01*
X132710097Y-138630500D01*
X137968331Y-138630500D01*
X137968347Y-138630501D01*
X137975943Y-138630501D01*
X138134054Y-138630501D01*
X138134057Y-138630501D01*
X138286785Y-138589577D01*
X138356200Y-138549500D01*
X138423716Y-138510520D01*
X138535520Y-138398716D01*
X138535520Y-138398714D01*
X138545724Y-138388511D01*
X138545728Y-138388506D01*
X146447416Y-130486818D01*
X146508739Y-130453333D01*
X146535097Y-130450499D01*
X147882871Y-130450499D01*
X147882872Y-130450499D01*
X147942483Y-130444091D01*
X148077331Y-130393796D01*
X148192546Y-130307546D01*
X148278796Y-130192331D01*
X148327810Y-130060916D01*
X148369681Y-130004984D01*
X148435145Y-129980566D01*
X148503418Y-129995417D01*
G37*
%TD.AperFunction*%
%TA.AperFunction,Conductor*%
G36*
X116966942Y-139420185D02*
G01*
X116987584Y-139436819D01*
X116989084Y-139438319D01*
X117022569Y-139499642D01*
X117017585Y-139569334D01*
X116975713Y-139625267D01*
X116910249Y-139649684D01*
X116901403Y-139650000D01*
X116810000Y-139650000D01*
X116810000Y-141950000D01*
X117382828Y-141950000D01*
X117382844Y-141949999D01*
X117442372Y-141943598D01*
X117442379Y-141943596D01*
X117577086Y-141893354D01*
X117577093Y-141893350D01*
X117692187Y-141807190D01*
X117692190Y-141807187D01*
X117756234Y-141721637D01*
X117812168Y-141679766D01*
X117881859Y-141674782D01*
X117943182Y-141708268D01*
X117976666Y-141769591D01*
X117979500Y-141795948D01*
X117979500Y-144303218D01*
X117959815Y-144370257D01*
X117907011Y-144416012D01*
X117837853Y-144425956D01*
X117774297Y-144396931D01*
X117756234Y-144377529D01*
X117692547Y-144292455D01*
X117692544Y-144292452D01*
X117577335Y-144206206D01*
X117577328Y-144206202D01*
X117442482Y-144155908D01*
X117442483Y-144155908D01*
X117382883Y-144149501D01*
X117382881Y-144149500D01*
X117382873Y-144149500D01*
X117382864Y-144149500D01*
X115737129Y-144149500D01*
X115737123Y-144149501D01*
X115677516Y-144155908D01*
X115542671Y-144206202D01*
X115542664Y-144206206D01*
X115427455Y-144292452D01*
X115427452Y-144292455D01*
X115341206Y-144407664D01*
X115341202Y-144407671D01*
X115295500Y-144530207D01*
X115290909Y-144542517D01*
X115285937Y-144588757D01*
X115259201Y-144653306D01*
X115201809Y-144693154D01*
X115162649Y-144699500D01*
X110007351Y-144699500D01*
X109940312Y-144679815D01*
X109894557Y-144627011D01*
X109884061Y-144588752D01*
X109879091Y-144542516D01*
X109828797Y-144407671D01*
X109828793Y-144407664D01*
X109742547Y-144292455D01*
X109742544Y-144292452D01*
X109627335Y-144206206D01*
X109627328Y-144206202D01*
X109492482Y-144155908D01*
X109492483Y-144155908D01*
X109432883Y-144149501D01*
X109432881Y-144149500D01*
X109432873Y-144149500D01*
X109432864Y-144149500D01*
X107787129Y-144149500D01*
X107787123Y-144149501D01*
X107727515Y-144155909D01*
X107667832Y-144178169D01*
X107598141Y-144183153D01*
X107536818Y-144149667D01*
X107503334Y-144088344D01*
X107500500Y-144061987D01*
X107500500Y-142037479D01*
X107520185Y-141970440D01*
X107572989Y-141924685D01*
X107642147Y-141914741D01*
X107667834Y-141921297D01*
X107727623Y-141943597D01*
X107727627Y-141943598D01*
X107787155Y-141949999D01*
X107787172Y-141950000D01*
X108360000Y-141950000D01*
X108860000Y-141950000D01*
X109432828Y-141950000D01*
X109432844Y-141949999D01*
X109492372Y-141943598D01*
X109492379Y-141943596D01*
X109627086Y-141893354D01*
X109627093Y-141893350D01*
X109742187Y-141807190D01*
X109742190Y-141807187D01*
X109828350Y-141692093D01*
X109828354Y-141692086D01*
X109878596Y-141557379D01*
X109878598Y-141557372D01*
X109884999Y-141497844D01*
X115285000Y-141497844D01*
X115291401Y-141557372D01*
X115291403Y-141557379D01*
X115341645Y-141692086D01*
X115341649Y-141692093D01*
X115427809Y-141807187D01*
X115427812Y-141807190D01*
X115542906Y-141893350D01*
X115542913Y-141893354D01*
X115677620Y-141943596D01*
X115677627Y-141943598D01*
X115737155Y-141949999D01*
X115737172Y-141950000D01*
X116310000Y-141950000D01*
X116310000Y-141050000D01*
X115285000Y-141050000D01*
X115285000Y-141497844D01*
X109884999Y-141497844D01*
X109885000Y-141497827D01*
X109885000Y-141050000D01*
X108860000Y-141050000D01*
X108860000Y-141950000D01*
X108360000Y-141950000D01*
X108360000Y-140550000D01*
X108860000Y-140550000D01*
X109885000Y-140550000D01*
X109885000Y-140102172D01*
X109884999Y-140102155D01*
X115285000Y-140102155D01*
X115285000Y-140550000D01*
X116310000Y-140550000D01*
X116310000Y-139650000D01*
X115737155Y-139650000D01*
X115677627Y-139656401D01*
X115677620Y-139656403D01*
X115542913Y-139706645D01*
X115542906Y-139706649D01*
X115427812Y-139792809D01*
X115427809Y-139792812D01*
X115341649Y-139907906D01*
X115341645Y-139907913D01*
X115291403Y-140042620D01*
X115291401Y-140042627D01*
X115285000Y-140102155D01*
X109884999Y-140102155D01*
X109878598Y-140042627D01*
X109878596Y-140042620D01*
X109828354Y-139907913D01*
X109828350Y-139907906D01*
X109742190Y-139792812D01*
X109742187Y-139792809D01*
X109627093Y-139706649D01*
X109627086Y-139706645D01*
X109492379Y-139656403D01*
X109492372Y-139656401D01*
X109432844Y-139650000D01*
X108860000Y-139650000D01*
X108860000Y-140550000D01*
X108360000Y-140550000D01*
X108360000Y-139650000D01*
X107867522Y-139650000D01*
X107835023Y-139640457D01*
X107802353Y-139631494D01*
X107801584Y-139630638D01*
X107800483Y-139630315D01*
X107778317Y-139604734D01*
X107755664Y-139579514D01*
X107755480Y-139578378D01*
X107754728Y-139577511D01*
X107749907Y-139543988D01*
X107744489Y-139510544D01*
X107744947Y-139509490D01*
X107744784Y-139508353D01*
X107758856Y-139477538D01*
X107772376Y-139446481D01*
X107773501Y-139445469D01*
X107773809Y-139444797D01*
X107798629Y-139422899D01*
X107800880Y-139421395D01*
X107867556Y-139400520D01*
X107869767Y-139400500D01*
X116899903Y-139400500D01*
X116966942Y-139420185D01*
G37*
%TD.AperFunction*%
%TA.AperFunction,Conductor*%
G36*
X121668093Y-131710185D02*
G01*
X121713848Y-131762989D01*
X121723792Y-131832147D01*
X121700321Y-131888811D01*
X121686204Y-131907668D01*
X121686202Y-131907671D01*
X121635908Y-132042517D01*
X121629501Y-132102116D01*
X121629500Y-132102135D01*
X121629500Y-133897870D01*
X121629501Y-133897876D01*
X121635908Y-133957483D01*
X121686202Y-134092328D01*
X121686206Y-134092335D01*
X121772452Y-134207544D01*
X121772455Y-134207547D01*
X121887664Y-134293793D01*
X121887671Y-134293797D01*
X122022517Y-134344091D01*
X122022516Y-134344091D01*
X122029444Y-134344835D01*
X122082127Y-134350500D01*
X123877872Y-134350499D01*
X123937483Y-134344091D01*
X124072331Y-134293796D01*
X124072336Y-134293791D01*
X124080109Y-134289548D01*
X124081519Y-134292130D01*
X124133081Y-134272881D01*
X124201358Y-134287712D01*
X124229646Y-134308881D01*
X129359084Y-139438319D01*
X129392569Y-139499642D01*
X129387585Y-139569334D01*
X129345713Y-139625267D01*
X129280249Y-139649684D01*
X129271403Y-139650000D01*
X128835000Y-139650000D01*
X128835000Y-141950000D01*
X129407828Y-141950000D01*
X129407836Y-141949999D01*
X129432241Y-141947375D01*
X129501001Y-141959778D01*
X129552140Y-142007387D01*
X129569500Y-142070664D01*
X129569500Y-144028831D01*
X129549815Y-144095870D01*
X129497011Y-144141625D01*
X129432247Y-144152120D01*
X129407873Y-144149500D01*
X129407865Y-144149500D01*
X127762129Y-144149500D01*
X127762123Y-144149501D01*
X127702516Y-144155908D01*
X127567671Y-144206202D01*
X127567664Y-144206206D01*
X127452455Y-144292452D01*
X127452452Y-144292455D01*
X127366206Y-144407664D01*
X127366202Y-144407671D01*
X127320500Y-144530207D01*
X127315909Y-144542517D01*
X127310937Y-144588757D01*
X127284201Y-144653306D01*
X127226809Y-144693154D01*
X127187649Y-144699500D01*
X122032351Y-144699500D01*
X121965312Y-144679815D01*
X121919557Y-144627011D01*
X121909061Y-144588752D01*
X121904091Y-144542516D01*
X121853797Y-144407671D01*
X121853793Y-144407664D01*
X121767547Y-144292455D01*
X121767544Y-144292452D01*
X121652335Y-144206206D01*
X121652328Y-144206202D01*
X121517482Y-144155908D01*
X121517483Y-144155908D01*
X121457883Y-144149501D01*
X121457881Y-144149500D01*
X121457873Y-144149500D01*
X121457864Y-144149500D01*
X119812129Y-144149500D01*
X119812123Y-144149501D01*
X119752516Y-144155908D01*
X119617671Y-144206202D01*
X119617664Y-144206206D01*
X119502455Y-144292452D01*
X119502452Y-144292455D01*
X119416202Y-144407669D01*
X119413330Y-144412930D01*
X119363923Y-144462334D01*
X119295650Y-144477184D01*
X119230186Y-144452765D01*
X119188317Y-144396830D01*
X119180500Y-144353500D01*
X119180500Y-141745446D01*
X119200185Y-141678407D01*
X119252989Y-141632652D01*
X119322147Y-141622708D01*
X119385703Y-141651733D01*
X119413332Y-141686018D01*
X119416649Y-141692093D01*
X119502809Y-141807187D01*
X119502812Y-141807190D01*
X119617906Y-141893350D01*
X119617913Y-141893354D01*
X119752620Y-141943596D01*
X119752627Y-141943598D01*
X119812155Y-141949999D01*
X119812172Y-141950000D01*
X120385000Y-141950000D01*
X120885000Y-141950000D01*
X121457828Y-141950000D01*
X121457844Y-141949999D01*
X121517372Y-141943598D01*
X121517379Y-141943596D01*
X121652086Y-141893354D01*
X121652093Y-141893350D01*
X121767187Y-141807190D01*
X121767190Y-141807187D01*
X121853350Y-141692093D01*
X121853354Y-141692086D01*
X121903596Y-141557379D01*
X121903598Y-141557372D01*
X121909999Y-141497844D01*
X127310000Y-141497844D01*
X127316401Y-141557372D01*
X127316403Y-141557379D01*
X127366645Y-141692086D01*
X127366649Y-141692093D01*
X127452809Y-141807187D01*
X127452812Y-141807190D01*
X127567906Y-141893350D01*
X127567913Y-141893354D01*
X127702620Y-141943596D01*
X127702627Y-141943598D01*
X127762155Y-141949999D01*
X127762172Y-141950000D01*
X128335000Y-141950000D01*
X128335000Y-141050000D01*
X127310000Y-141050000D01*
X127310000Y-141497844D01*
X121909999Y-141497844D01*
X121910000Y-141497827D01*
X121910000Y-141050000D01*
X120885000Y-141050000D01*
X120885000Y-141950000D01*
X120385000Y-141950000D01*
X120385000Y-140550000D01*
X120885000Y-140550000D01*
X121910000Y-140550000D01*
X121910000Y-140102172D01*
X121909999Y-140102155D01*
X127310000Y-140102155D01*
X127310000Y-140550000D01*
X128335000Y-140550000D01*
X128335000Y-139650000D01*
X127762155Y-139650000D01*
X127702627Y-139656401D01*
X127702620Y-139656403D01*
X127567913Y-139706645D01*
X127567906Y-139706649D01*
X127452812Y-139792809D01*
X127452809Y-139792812D01*
X127366649Y-139907906D01*
X127366645Y-139907913D01*
X127316403Y-140042620D01*
X127316401Y-140042627D01*
X127310000Y-140102155D01*
X121909999Y-140102155D01*
X121903598Y-140042627D01*
X121903596Y-140042620D01*
X121853354Y-139907913D01*
X121853350Y-139907906D01*
X121767190Y-139792812D01*
X121767187Y-139792809D01*
X121652093Y-139706649D01*
X121652086Y-139706645D01*
X121517379Y-139656403D01*
X121517372Y-139656401D01*
X121457844Y-139650000D01*
X120885000Y-139650000D01*
X120885000Y-140550000D01*
X120385000Y-140550000D01*
X120385000Y-139650000D01*
X119812155Y-139650000D01*
X119752627Y-139656401D01*
X119752620Y-139656403D01*
X119617913Y-139706645D01*
X119617906Y-139706649D01*
X119502812Y-139792809D01*
X119502809Y-139792812D01*
X119416649Y-139907906D01*
X119416646Y-139907911D01*
X119384684Y-139993606D01*
X119342812Y-140049539D01*
X119277348Y-140073956D01*
X119209075Y-140059104D01*
X119159670Y-140009699D01*
X119148729Y-139982371D01*
X119139577Y-139948216D01*
X119116304Y-139907906D01*
X119060524Y-139811290D01*
X119060518Y-139811282D01*
X117687590Y-138438355D01*
X117687588Y-138438352D01*
X117568717Y-138319481D01*
X117568716Y-138319480D01*
X117481904Y-138269360D01*
X117481904Y-138269359D01*
X117481900Y-138269358D01*
X117431785Y-138240423D01*
X117279057Y-138199499D01*
X117120943Y-138199499D01*
X117113347Y-138199499D01*
X117113331Y-138199500D01*
X107869767Y-138199500D01*
X107802728Y-138179815D01*
X107800876Y-138178602D01*
X107768651Y-138157069D01*
X107636618Y-138102380D01*
X107636616Y-138102379D01*
X107600307Y-138095157D01*
X107538397Y-138062771D01*
X107503823Y-138002055D01*
X107500500Y-137973540D01*
X107500500Y-135740945D01*
X107500500Y-135740943D01*
X107462869Y-135600500D01*
X107462869Y-135600499D01*
X107462869Y-135600498D01*
X107459579Y-135588220D01*
X107459578Y-135588217D01*
X107403784Y-135491579D01*
X107403783Y-135491578D01*
X107397399Y-135480520D01*
X107380520Y-135451284D01*
X107268716Y-135339480D01*
X107268713Y-135339478D01*
X106491416Y-134562181D01*
X106457931Y-134500858D01*
X106462915Y-134431166D01*
X106504787Y-134375233D01*
X106570251Y-134350816D01*
X106579097Y-134350500D01*
X106726286Y-134350500D01*
X106726287Y-134350500D01*
X106936243Y-134317246D01*
X107138412Y-134251557D01*
X107327816Y-134155051D01*
X107414138Y-134092335D01*
X107499786Y-134030109D01*
X107499788Y-134030106D01*
X107499792Y-134030104D01*
X107650104Y-133879792D01*
X107650106Y-133879788D01*
X107650109Y-133879786D01*
X107775048Y-133707820D01*
X107775047Y-133707820D01*
X107775051Y-133707816D01*
X107779514Y-133699054D01*
X107827488Y-133648259D01*
X107895308Y-133631463D01*
X107961444Y-133653999D01*
X108000486Y-133699056D01*
X108004951Y-133707820D01*
X108129890Y-133879786D01*
X108280213Y-134030109D01*
X108452179Y-134155048D01*
X108452181Y-134155049D01*
X108452184Y-134155051D01*
X108641588Y-134251557D01*
X108843757Y-134317246D01*
X109053713Y-134350500D01*
X109053714Y-134350500D01*
X109266286Y-134350500D01*
X109266287Y-134350500D01*
X109476243Y-134317246D01*
X109678412Y-134251557D01*
X109867816Y-134155051D01*
X109954138Y-134092335D01*
X110039786Y-134030109D01*
X110039788Y-134030106D01*
X110039792Y-134030104D01*
X110190104Y-133879792D01*
X110190106Y-133879788D01*
X110190109Y-133879786D01*
X110315048Y-133707820D01*
X110315047Y-133707820D01*
X110315051Y-133707816D01*
X110319514Y-133699054D01*
X110367488Y-133648259D01*
X110435308Y-133631463D01*
X110501444Y-133653999D01*
X110540486Y-133699056D01*
X110544951Y-133707820D01*
X110669890Y-133879786D01*
X110820213Y-134030109D01*
X110992184Y-134155051D01*
X110992184Y-134155052D01*
X111031793Y-134175233D01*
X111082590Y-134223206D01*
X111099500Y-134285718D01*
X111099500Y-134684574D01*
X111079815Y-134751613D01*
X111040598Y-134790112D01*
X110996957Y-134817030D01*
X110877029Y-134936959D01*
X110788001Y-135081294D01*
X110787996Y-135081305D01*
X110734651Y-135242290D01*
X110724500Y-135341647D01*
X110724500Y-135938337D01*
X110724501Y-135938355D01*
X110734650Y-136037707D01*
X110734651Y-136037710D01*
X110787996Y-136198694D01*
X110788001Y-136198705D01*
X110877029Y-136343040D01*
X110877032Y-136343044D01*
X110996955Y-136462967D01*
X110996959Y-136462970D01*
X111141294Y-136551998D01*
X111141297Y-136551999D01*
X111141303Y-136552003D01*
X111302292Y-136605349D01*
X111401655Y-136615500D01*
X111948344Y-136615499D01*
X111948352Y-136615498D01*
X111948355Y-136615498D01*
X112002760Y-136609940D01*
X112047708Y-136605349D01*
X112208697Y-136552003D01*
X112353044Y-136462968D01*
X112362668Y-136453343D01*
X112423987Y-136419856D01*
X112493679Y-136424835D01*
X112538034Y-136453339D01*
X112547267Y-136462572D01*
X112547271Y-136462575D01*
X112691507Y-136551542D01*
X112691518Y-136551547D01*
X112852393Y-136604855D01*
X112951683Y-136614999D01*
X113475000Y-136614999D01*
X113498308Y-136614999D01*
X113498322Y-136614998D01*
X113597607Y-136604855D01*
X113758481Y-136551547D01*
X113758492Y-136551542D01*
X113902728Y-136462575D01*
X113902732Y-136462572D01*
X114022572Y-136342732D01*
X114022575Y-136342728D01*
X114111542Y-136198492D01*
X114111547Y-136198481D01*
X114164855Y-136037606D01*
X114174999Y-135938322D01*
X114175000Y-135938309D01*
X114175000Y-135890000D01*
X113475000Y-135890000D01*
X113475000Y-136614999D01*
X112951683Y-136614999D01*
X112975000Y-136614998D01*
X112975000Y-135390000D01*
X113475000Y-135390000D01*
X114174999Y-135390000D01*
X114174999Y-135341692D01*
X114174998Y-135341677D01*
X114164855Y-135242392D01*
X114111547Y-135081518D01*
X114111542Y-135081507D01*
X114022575Y-134937271D01*
X114022572Y-134937267D01*
X113902732Y-134817427D01*
X113902728Y-134817424D01*
X113758492Y-134728457D01*
X113758481Y-134728452D01*
X113597606Y-134675144D01*
X113498322Y-134665000D01*
X113475000Y-134665000D01*
X113475000Y-135390000D01*
X112975000Y-135390000D01*
X112975000Y-134664999D01*
X112951693Y-134665000D01*
X112951674Y-134665001D01*
X112852392Y-134675144D01*
X112691518Y-134728452D01*
X112691507Y-134728457D01*
X112547271Y-134817424D01*
X112547264Y-134817430D01*
X112538028Y-134826665D01*
X112532675Y-134829587D01*
X112529254Y-134834637D01*
X112502366Y-134846134D01*
X112476703Y-134860146D01*
X112470619Y-134859710D01*
X112465011Y-134862109D01*
X112436175Y-134857244D01*
X112407011Y-134855157D01*
X112400593Y-134851242D01*
X112396115Y-134850487D01*
X112376846Y-134836758D01*
X112366896Y-134830689D01*
X112364729Y-134828717D01*
X112353044Y-134817032D01*
X112349456Y-134814819D01*
X112341043Y-134807163D01*
X112325016Y-134780840D01*
X112307213Y-134755697D01*
X112306271Y-134750050D01*
X112304709Y-134747485D01*
X112304853Y-134741550D01*
X112300500Y-134715452D01*
X112300500Y-134285718D01*
X112320185Y-134218679D01*
X112368207Y-134175233D01*
X112407815Y-134155052D01*
X112407815Y-134155051D01*
X112407816Y-134155051D01*
X112499193Y-134088661D01*
X112579786Y-134030109D01*
X112579788Y-134030106D01*
X112579792Y-134030104D01*
X112730104Y-133879792D01*
X112730106Y-133879788D01*
X112730109Y-133879786D01*
X112855048Y-133707820D01*
X112855051Y-133707816D01*
X112859793Y-133698508D01*
X112907763Y-133647711D01*
X112975583Y-133630911D01*
X113041719Y-133653445D01*
X113080763Y-133698500D01*
X113085377Y-133707555D01*
X113210272Y-133879459D01*
X113210276Y-133879464D01*
X113360535Y-134029723D01*
X113360540Y-134029727D01*
X113532442Y-134154620D01*
X113721782Y-134251095D01*
X113923871Y-134316757D01*
X113990000Y-134327231D01*
X113990000Y-133433012D01*
X114047007Y-133465925D01*
X114174174Y-133500000D01*
X114305826Y-133500000D01*
X114432993Y-133465925D01*
X114490000Y-133433012D01*
X114490000Y-134327230D01*
X114556126Y-134316757D01*
X114556129Y-134316757D01*
X114758217Y-134251095D01*
X114947557Y-134154620D01*
X115119459Y-134029727D01*
X115119464Y-134029723D01*
X115269723Y-133879464D01*
X115269727Y-133879459D01*
X115394620Y-133707557D01*
X115491095Y-133518217D01*
X115556757Y-133316129D01*
X115556757Y-133316126D01*
X115567231Y-133250000D01*
X114673012Y-133250000D01*
X114705925Y-133192993D01*
X114740000Y-133065826D01*
X114740000Y-132934174D01*
X114705925Y-132807007D01*
X114673012Y-132750000D01*
X115567231Y-132750000D01*
X115556757Y-132683873D01*
X115556757Y-132683870D01*
X115491095Y-132481782D01*
X115394620Y-132292442D01*
X115269727Y-132120540D01*
X115269723Y-132120535D01*
X115119464Y-131970276D01*
X115119459Y-131970272D01*
X115043133Y-131914818D01*
X115000467Y-131859488D01*
X114994488Y-131789875D01*
X115027094Y-131728080D01*
X115087932Y-131693723D01*
X115116018Y-131690500D01*
X121601054Y-131690500D01*
X121668093Y-131710185D01*
G37*
%TD.AperFunction*%
%TA.AperFunction,Conductor*%
G36*
X144935102Y-126309144D02*
G01*
X144965090Y-126315668D01*
X144970105Y-126319422D01*
X144972702Y-126320185D01*
X144993339Y-126336814D01*
X145078789Y-126422264D01*
X145078790Y-126422265D01*
X145197608Y-126501657D01*
X145197617Y-126501662D01*
X145227526Y-126514050D01*
X145329648Y-126556351D01*
X145329652Y-126556351D01*
X145329653Y-126556352D01*
X145469810Y-126584232D01*
X145469813Y-126584232D01*
X145612725Y-126584232D01*
X145707019Y-126565474D01*
X145752888Y-126556351D01*
X145884921Y-126501661D01*
X145915707Y-126481089D01*
X145982382Y-126460213D01*
X146049762Y-126478697D01*
X146072277Y-126496512D01*
X147113584Y-127537819D01*
X147147069Y-127599142D01*
X147142085Y-127668834D01*
X147100213Y-127724767D01*
X147034749Y-127749184D01*
X147025903Y-127749500D01*
X146087129Y-127749500D01*
X146087123Y-127749501D01*
X146027516Y-127755908D01*
X145892671Y-127806202D01*
X145892664Y-127806206D01*
X145777455Y-127892452D01*
X145777452Y-127892455D01*
X145691206Y-128007664D01*
X145691202Y-128007671D01*
X145640908Y-128142517D01*
X145634501Y-128202116D01*
X145634500Y-128202135D01*
X145634500Y-129549902D01*
X145614815Y-129616941D01*
X145598181Y-129637583D01*
X137842584Y-137393181D01*
X137781261Y-137426666D01*
X137754903Y-137429500D01*
X132496669Y-137429500D01*
X132496653Y-137429499D01*
X132489057Y-137429499D01*
X132330943Y-137429499D01*
X132223587Y-137458265D01*
X132178210Y-137470424D01*
X132178209Y-137470425D01*
X132128096Y-137499359D01*
X132128095Y-137499360D01*
X132084689Y-137524420D01*
X132041285Y-137549479D01*
X132041282Y-137549481D01*
X130692681Y-138898083D01*
X130631358Y-138931568D01*
X130561666Y-138926584D01*
X130517319Y-138898083D01*
X126048054Y-134428818D01*
X126014569Y-134367495D01*
X126019553Y-134297803D01*
X126061425Y-134241870D01*
X126079440Y-134230652D01*
X126227816Y-134155051D01*
X126314138Y-134092335D01*
X126399786Y-134030109D01*
X126399788Y-134030106D01*
X126399792Y-134030104D01*
X126550104Y-133879792D01*
X126550106Y-133879788D01*
X126550109Y-133879786D01*
X126675048Y-133707820D01*
X126675047Y-133707820D01*
X126675051Y-133707816D01*
X126679514Y-133699054D01*
X126727488Y-133648259D01*
X126795308Y-133631463D01*
X126861444Y-133653999D01*
X126900486Y-133699056D01*
X126904951Y-133707820D01*
X127029890Y-133879786D01*
X127180213Y-134030109D01*
X127352179Y-134155048D01*
X127352181Y-134155049D01*
X127352184Y-134155051D01*
X127541588Y-134251557D01*
X127743757Y-134317246D01*
X127953713Y-134350500D01*
X127953714Y-134350500D01*
X128166286Y-134350500D01*
X128166287Y-134350500D01*
X128376243Y-134317246D01*
X128578412Y-134251557D01*
X128767816Y-134155051D01*
X128854138Y-134092335D01*
X128939786Y-134030109D01*
X128939788Y-134030106D01*
X128939792Y-134030104D01*
X129090104Y-133879792D01*
X129090106Y-133879788D01*
X129090109Y-133879786D01*
X129215048Y-133707820D01*
X129215047Y-133707820D01*
X129215051Y-133707816D01*
X129219514Y-133699054D01*
X129267488Y-133648259D01*
X129335308Y-133631463D01*
X129401444Y-133653999D01*
X129440486Y-133699056D01*
X129444951Y-133707820D01*
X129569890Y-133879786D01*
X129720213Y-134030109D01*
X129892179Y-134155048D01*
X129892181Y-134155049D01*
X129892184Y-134155051D01*
X130081588Y-134251557D01*
X130283757Y-134317246D01*
X130493713Y-134350500D01*
X130493714Y-134350500D01*
X130706286Y-134350500D01*
X130706287Y-134350500D01*
X130916243Y-134317246D01*
X131118412Y-134251557D01*
X131307816Y-134155051D01*
X131394138Y-134092335D01*
X131479786Y-134030109D01*
X131479788Y-134030106D01*
X131479792Y-134030104D01*
X131630104Y-133879792D01*
X131630106Y-133879788D01*
X131630109Y-133879786D01*
X131755048Y-133707820D01*
X131755047Y-133707820D01*
X131755051Y-133707816D01*
X131759514Y-133699054D01*
X131807488Y-133648259D01*
X131875308Y-133631463D01*
X131941444Y-133653999D01*
X131980486Y-133699056D01*
X131984951Y-133707820D01*
X132109890Y-133879786D01*
X132260213Y-134030109D01*
X132432179Y-134155048D01*
X132432181Y-134155049D01*
X132432184Y-134155051D01*
X132621588Y-134251557D01*
X132823757Y-134317246D01*
X133033713Y-134350500D01*
X133033714Y-134350500D01*
X133246286Y-134350500D01*
X133246287Y-134350500D01*
X133456243Y-134317246D01*
X133658412Y-134251557D01*
X133847816Y-134155051D01*
X133934138Y-134092335D01*
X134019786Y-134030109D01*
X134019788Y-134030106D01*
X134019792Y-134030104D01*
X134170104Y-133879792D01*
X134170106Y-133879788D01*
X134170109Y-133879786D01*
X134295048Y-133707820D01*
X134295047Y-133707820D01*
X134295051Y-133707816D01*
X134299514Y-133699054D01*
X134347488Y-133648259D01*
X134415308Y-133631463D01*
X134481444Y-133653999D01*
X134520486Y-133699056D01*
X134524951Y-133707820D01*
X134649890Y-133879786D01*
X134800213Y-134030109D01*
X134972184Y-134155051D01*
X134972184Y-134155052D01*
X135011793Y-134175233D01*
X135062590Y-134223206D01*
X135079500Y-134285718D01*
X135079500Y-134749995D01*
X135059815Y-134817034D01*
X135020600Y-134855532D01*
X135001954Y-134867033D01*
X134882029Y-134986959D01*
X134793001Y-135131294D01*
X134792996Y-135131305D01*
X134739651Y-135292290D01*
X134729500Y-135391647D01*
X134729500Y-135988337D01*
X134729501Y-135988355D01*
X134739650Y-136087707D01*
X134739651Y-136087710D01*
X134792996Y-136248694D01*
X134793001Y-136248705D01*
X134882029Y-136393040D01*
X134882032Y-136393044D01*
X135001955Y-136512967D01*
X135001959Y-136512970D01*
X135146294Y-136601998D01*
X135146297Y-136601999D01*
X135146303Y-136602003D01*
X135307292Y-136655349D01*
X135406655Y-136665500D01*
X135953344Y-136665499D01*
X135953352Y-136665498D01*
X135953355Y-136665498D01*
X136007760Y-136659940D01*
X136052708Y-136655349D01*
X136213697Y-136602003D01*
X136358044Y-136512968D01*
X136367668Y-136503343D01*
X136428987Y-136469856D01*
X136498679Y-136474835D01*
X136543034Y-136503339D01*
X136552267Y-136512572D01*
X136552271Y-136512575D01*
X136696507Y-136601542D01*
X136696518Y-136601547D01*
X136857393Y-136654855D01*
X136956683Y-136664999D01*
X137480000Y-136664999D01*
X137503308Y-136664999D01*
X137503322Y-136664998D01*
X137602607Y-136654855D01*
X137763481Y-136601547D01*
X137763492Y-136601542D01*
X137907728Y-136512575D01*
X137907732Y-136512572D01*
X138027572Y-136392732D01*
X138027575Y-136392728D01*
X138116542Y-136248492D01*
X138116547Y-136248481D01*
X138169855Y-136087606D01*
X138179999Y-135988322D01*
X138180000Y-135988309D01*
X138180000Y-135940000D01*
X137480000Y-135940000D01*
X137480000Y-136664999D01*
X136956683Y-136664999D01*
X136980000Y-136664998D01*
X136980000Y-135440000D01*
X137480000Y-135440000D01*
X138179999Y-135440000D01*
X138179999Y-135391692D01*
X138179998Y-135391677D01*
X138169855Y-135292392D01*
X138116547Y-135131518D01*
X138116542Y-135131507D01*
X138027575Y-134987271D01*
X138027572Y-134987267D01*
X137907732Y-134867427D01*
X137907728Y-134867424D01*
X137763492Y-134778457D01*
X137763481Y-134778452D01*
X137602606Y-134725144D01*
X137503322Y-134715000D01*
X137480000Y-134715000D01*
X137480000Y-135440000D01*
X136980000Y-135440000D01*
X136980000Y-134714999D01*
X136956693Y-134715000D01*
X136956674Y-134715001D01*
X136857392Y-134725144D01*
X136696518Y-134778452D01*
X136696507Y-134778457D01*
X136552271Y-134867424D01*
X136552264Y-134867430D01*
X136543028Y-134876665D01*
X136542384Y-134877016D01*
X136542026Y-134877656D01*
X136511752Y-134893740D01*
X136481703Y-134910146D01*
X136480972Y-134910093D01*
X136480324Y-134910438D01*
X136446164Y-134907601D01*
X136412011Y-134905157D01*
X136411180Y-134904697D01*
X136410694Y-134904657D01*
X136408338Y-134903124D01*
X136379913Y-134887389D01*
X136373435Y-134882423D01*
X136358044Y-134867032D01*
X136334054Y-134852234D01*
X136329060Y-134848406D01*
X136312003Y-134825071D01*
X136292677Y-134803582D01*
X136291043Y-134796394D01*
X136287830Y-134791998D01*
X136287034Y-134778752D01*
X136280500Y-134749995D01*
X136280500Y-134285718D01*
X136300185Y-134218679D01*
X136348207Y-134175233D01*
X136387815Y-134155052D01*
X136387815Y-134155051D01*
X136387816Y-134155051D01*
X136479193Y-134088661D01*
X136559786Y-134030109D01*
X136559788Y-134030106D01*
X136559792Y-134030104D01*
X136710104Y-133879792D01*
X136710106Y-133879788D01*
X136710109Y-133879786D01*
X136835048Y-133707820D01*
X136835051Y-133707816D01*
X136839793Y-133698508D01*
X136887763Y-133647711D01*
X136955583Y-133630911D01*
X137021719Y-133653445D01*
X137060763Y-133698500D01*
X137065377Y-133707555D01*
X137190272Y-133879459D01*
X137190276Y-133879464D01*
X137340535Y-134029723D01*
X137340540Y-134029727D01*
X137512442Y-134154620D01*
X137701782Y-134251095D01*
X137903871Y-134316757D01*
X137970000Y-134327231D01*
X137970000Y-133433012D01*
X138027007Y-133465925D01*
X138154174Y-133500000D01*
X138285826Y-133500000D01*
X138412993Y-133465925D01*
X138470000Y-133433012D01*
X138470000Y-134327230D01*
X138536126Y-134316757D01*
X138536129Y-134316757D01*
X138738217Y-134251095D01*
X138927557Y-134154620D01*
X139099459Y-134029727D01*
X139099464Y-134029723D01*
X139249723Y-133879464D01*
X139249727Y-133879459D01*
X139374620Y-133707557D01*
X139471095Y-133518217D01*
X139536757Y-133316129D01*
X139536757Y-133316126D01*
X139547231Y-133250000D01*
X138653012Y-133250000D01*
X138685925Y-133192993D01*
X138720000Y-133065826D01*
X138720000Y-132934174D01*
X138685925Y-132807007D01*
X138653012Y-132750000D01*
X139547231Y-132750000D01*
X139536757Y-132683873D01*
X139536757Y-132683870D01*
X139471095Y-132481782D01*
X139374620Y-132292442D01*
X139249727Y-132120540D01*
X139249723Y-132120535D01*
X139099464Y-131970276D01*
X139099459Y-131970272D01*
X138927557Y-131845379D01*
X138738215Y-131748903D01*
X138536124Y-131683241D01*
X138470000Y-131672768D01*
X138470000Y-132566988D01*
X138412993Y-132534075D01*
X138285826Y-132500000D01*
X138154174Y-132500000D01*
X138027007Y-132534075D01*
X137970000Y-132566988D01*
X137970000Y-131672768D01*
X137969999Y-131672768D01*
X137903875Y-131683241D01*
X137701784Y-131748903D01*
X137512442Y-131845379D01*
X137340540Y-131970272D01*
X137340535Y-131970276D01*
X137190276Y-132120535D01*
X137190272Y-132120540D01*
X137065378Y-132292443D01*
X137060762Y-132301502D01*
X137012784Y-132352295D01*
X136944963Y-132369087D01*
X136878829Y-132346546D01*
X136839794Y-132301493D01*
X136835051Y-132292184D01*
X136835049Y-132292181D01*
X136835048Y-132292179D01*
X136710109Y-132120213D01*
X136559786Y-131969890D01*
X136387820Y-131844951D01*
X136198414Y-131748444D01*
X136198413Y-131748443D01*
X136198412Y-131748443D01*
X135996243Y-131682754D01*
X135996241Y-131682753D01*
X135996240Y-131682753D01*
X135834957Y-131657208D01*
X135786287Y-131649500D01*
X135573713Y-131649500D01*
X135525042Y-131657208D01*
X135363760Y-131682753D01*
X135161585Y-131748444D01*
X134972179Y-131844951D01*
X134800213Y-131969890D01*
X134649890Y-132120213D01*
X134524949Y-132292182D01*
X134520484Y-132300946D01*
X134472509Y-132351742D01*
X134404688Y-132368536D01*
X134338553Y-132345998D01*
X134299516Y-132300946D01*
X134295050Y-132292182D01*
X134170109Y-132120213D01*
X134019786Y-131969890D01*
X133847815Y-131844948D01*
X133847814Y-131844947D01*
X133808205Y-131824765D01*
X133757409Y-131776791D01*
X133740500Y-131714281D01*
X133740500Y-130385718D01*
X133760185Y-130318679D01*
X133808207Y-130275233D01*
X133847815Y-130255052D01*
X133847815Y-130255051D01*
X133847816Y-130255051D01*
X133939193Y-130188661D01*
X134019786Y-130130109D01*
X134019788Y-130130106D01*
X134019792Y-130130104D01*
X134170104Y-129979792D01*
X134170106Y-129979788D01*
X134170109Y-129979786D01*
X134295048Y-129807820D01*
X134295047Y-129807820D01*
X134295051Y-129807816D01*
X134299514Y-129799054D01*
X134347488Y-129748259D01*
X134415308Y-129731463D01*
X134481444Y-129753999D01*
X134520486Y-129799056D01*
X134524951Y-129807820D01*
X134649890Y-129979786D01*
X134800213Y-130130109D01*
X134972179Y-130255048D01*
X134972181Y-130255049D01*
X134972184Y-130255051D01*
X135161588Y-130351557D01*
X135363757Y-130417246D01*
X135573713Y-130450500D01*
X135573714Y-130450500D01*
X135786286Y-130450500D01*
X135786287Y-130450500D01*
X135996243Y-130417246D01*
X136038523Y-130403507D01*
X136108362Y-130401511D01*
X136164522Y-130433757D01*
X136346139Y-130615374D01*
X136346149Y-130615385D01*
X136350479Y-130619715D01*
X136350480Y-130619716D01*
X136462284Y-130731520D01*
X136549095Y-130781639D01*
X136549097Y-130781641D01*
X136587151Y-130803611D01*
X136599215Y-130810577D01*
X136751943Y-130851501D01*
X136751946Y-130851501D01*
X136917654Y-130851501D01*
X136917670Y-130851500D01*
X140104126Y-130851500D01*
X140171165Y-130871185D01*
X140191807Y-130887819D01*
X140206955Y-130902967D01*
X140206959Y-130902970D01*
X140351294Y-130991998D01*
X140351297Y-130991999D01*
X140351303Y-130992003D01*
X140512292Y-131045349D01*
X140611655Y-131055500D01*
X141208344Y-131055499D01*
X141208352Y-131055498D01*
X141208355Y-131055498D01*
X141262760Y-131049940D01*
X141307708Y-131045349D01*
X141468697Y-130992003D01*
X141613044Y-130902968D01*
X141732968Y-130783044D01*
X141822003Y-130638697D01*
X141875349Y-130477708D01*
X141885500Y-130378345D01*
X141885499Y-129831656D01*
X141875349Y-129732292D01*
X141822003Y-129571303D01*
X141821999Y-129571297D01*
X141821998Y-129571294D01*
X141732970Y-129426959D01*
X141732967Y-129426955D01*
X141723339Y-129417327D01*
X141689854Y-129356004D01*
X141694838Y-129286312D01*
X141723345Y-129241959D01*
X141732573Y-129232731D01*
X141821542Y-129088492D01*
X141821547Y-129088481D01*
X141874855Y-128927606D01*
X141884999Y-128828322D01*
X141885000Y-128828309D01*
X141885000Y-128805000D01*
X139935001Y-128805000D01*
X139935001Y-128828322D01*
X139945144Y-128927607D01*
X139998452Y-129088481D01*
X139998457Y-129088492D01*
X140087424Y-129232728D01*
X140087427Y-129232732D01*
X140096660Y-129241965D01*
X140130145Y-129303288D01*
X140125161Y-129372980D01*
X140113233Y-129396781D01*
X140106045Y-129407942D01*
X140087032Y-129426956D01*
X139997997Y-129571303D01*
X139994974Y-129580423D01*
X139986467Y-129593635D01*
X139971445Y-129606627D01*
X139960140Y-129622954D01*
X139945562Y-129629013D01*
X139933621Y-129639342D01*
X139913960Y-129642150D01*
X139895623Y-129649773D01*
X139882213Y-129650500D01*
X139631277Y-129650500D01*
X139564238Y-129630815D01*
X139518483Y-129578011D01*
X139508539Y-129508853D01*
X139513346Y-129488182D01*
X139536757Y-129416129D01*
X139536757Y-129416126D01*
X139547231Y-129350000D01*
X138653012Y-129350000D01*
X138685925Y-129292993D01*
X138720000Y-129165826D01*
X138720000Y-129034174D01*
X138685925Y-128907007D01*
X138653012Y-128850000D01*
X139547231Y-128850000D01*
X139536757Y-128783873D01*
X139536757Y-128783870D01*
X139471095Y-128581782D01*
X139374623Y-128392446D01*
X139344811Y-128351413D01*
X139344810Y-128351410D01*
X139294146Y-128281677D01*
X139935000Y-128281677D01*
X139935000Y-128305000D01*
X140660000Y-128305000D01*
X141160000Y-128305000D01*
X141884999Y-128305000D01*
X141884999Y-128281692D01*
X141884998Y-128281677D01*
X141874855Y-128182392D01*
X141821547Y-128021518D01*
X141821542Y-128021507D01*
X141732575Y-127877271D01*
X141732572Y-127877267D01*
X141612732Y-127757427D01*
X141612728Y-127757424D01*
X141468492Y-127668457D01*
X141468481Y-127668452D01*
X141307606Y-127615144D01*
X141208322Y-127605000D01*
X141160000Y-127605000D01*
X141160000Y-128305000D01*
X140660000Y-128305000D01*
X140660000Y-127605000D01*
X140659999Y-127604999D01*
X140611693Y-127605000D01*
X140611675Y-127605001D01*
X140512392Y-127615144D01*
X140351518Y-127668452D01*
X140351507Y-127668457D01*
X140207271Y-127757424D01*
X140207267Y-127757427D01*
X140087427Y-127877267D01*
X140087424Y-127877271D01*
X139998457Y-128021507D01*
X139998452Y-128021518D01*
X139945144Y-128182393D01*
X139935000Y-128281677D01*
X139294146Y-128281677D01*
X139249727Y-128220540D01*
X139249723Y-128220535D01*
X139099464Y-128070276D01*
X139099459Y-128070272D01*
X138927557Y-127945379D01*
X138738215Y-127848903D01*
X138536124Y-127783241D01*
X138470000Y-127772768D01*
X138470000Y-128666988D01*
X138412993Y-128634075D01*
X138285826Y-128600000D01*
X138154174Y-128600000D01*
X138027007Y-128634075D01*
X137970000Y-128666988D01*
X137970000Y-127772768D01*
X137969999Y-127772768D01*
X137903875Y-127783241D01*
X137701784Y-127848903D01*
X137512442Y-127945379D01*
X137340540Y-128070272D01*
X137340535Y-128070276D01*
X137190276Y-128220535D01*
X137190272Y-128220540D01*
X137065378Y-128392443D01*
X137060762Y-128401502D01*
X137012784Y-128452295D01*
X136944963Y-128469087D01*
X136878829Y-128446546D01*
X136839794Y-128401493D01*
X136835051Y-128392184D01*
X136835049Y-128392181D01*
X136835048Y-128392179D01*
X136710109Y-128220213D01*
X136559786Y-128069890D01*
X136387820Y-127944951D01*
X136198414Y-127848444D01*
X136198413Y-127848443D01*
X136198412Y-127848443D01*
X135996243Y-127782754D01*
X135996241Y-127782753D01*
X135996240Y-127782753D01*
X135834957Y-127757208D01*
X135786287Y-127749500D01*
X135573713Y-127749500D01*
X135525042Y-127757208D01*
X135363760Y-127782753D01*
X135161585Y-127848444D01*
X134972179Y-127944951D01*
X134800213Y-128069890D01*
X134649890Y-128220213D01*
X134524949Y-128392182D01*
X134520484Y-128400946D01*
X134472509Y-128451742D01*
X134404688Y-128468536D01*
X134338553Y-128445998D01*
X134299516Y-128400946D01*
X134295050Y-128392182D01*
X134170109Y-128220213D01*
X134019786Y-128069890D01*
X133847820Y-127944951D01*
X133658414Y-127848444D01*
X133658413Y-127848443D01*
X133658412Y-127848443D01*
X133456243Y-127782754D01*
X133456241Y-127782753D01*
X133456240Y-127782753D01*
X133294957Y-127757208D01*
X133246287Y-127749500D01*
X133033713Y-127749500D01*
X132985042Y-127757208D01*
X132823760Y-127782753D01*
X132621585Y-127848444D01*
X132432179Y-127944951D01*
X132260213Y-128069890D01*
X132109890Y-128220213D01*
X131984949Y-128392182D01*
X131980484Y-128400946D01*
X131932509Y-128451742D01*
X131864688Y-128468536D01*
X131798553Y-128445998D01*
X131759516Y-128400946D01*
X131755050Y-128392182D01*
X131630109Y-128220213D01*
X131479786Y-128069890D01*
X131307820Y-127944951D01*
X131118414Y-127848444D01*
X131118413Y-127848443D01*
X131118412Y-127848443D01*
X130916243Y-127782754D01*
X130916241Y-127782753D01*
X130916240Y-127782753D01*
X130754957Y-127757208D01*
X130706287Y-127749500D01*
X130559096Y-127749500D01*
X130492057Y-127729815D01*
X130446302Y-127677011D01*
X130436358Y-127607853D01*
X130465383Y-127544297D01*
X130471415Y-127537819D01*
X130984250Y-127024985D01*
X131672416Y-126336819D01*
X131733739Y-126303334D01*
X131760097Y-126300500D01*
X144905663Y-126300500D01*
X144935102Y-126309144D01*
G37*
%TD.AperFunction*%
%TA.AperFunction,Conductor*%
G36*
X104564522Y-134333757D02*
G01*
X106263181Y-136032416D01*
X106296666Y-136093739D01*
X106299500Y-136120097D01*
X106299500Y-136610903D01*
X106279815Y-136677942D01*
X106227011Y-136723697D01*
X106157853Y-136733641D01*
X106094297Y-136704616D01*
X106087819Y-136698584D01*
X103951416Y-134562181D01*
X103917931Y-134500858D01*
X103922915Y-134431166D01*
X103964787Y-134375233D01*
X104030251Y-134350816D01*
X104039097Y-134350500D01*
X104186286Y-134350500D01*
X104186287Y-134350500D01*
X104396243Y-134317246D01*
X104438523Y-134303507D01*
X104508362Y-134301511D01*
X104564522Y-134333757D01*
G37*
%TD.AperFunction*%
%TA.AperFunction,Conductor*%
G36*
X113394238Y-131699384D02*
G01*
X113424957Y-131706528D01*
X113427508Y-131709153D01*
X113431021Y-131710185D01*
X113451664Y-131734008D01*
X113473652Y-131756633D01*
X113474379Y-131760223D01*
X113476776Y-131762989D01*
X113481263Y-131794200D01*
X113487527Y-131825112D01*
X113486198Y-131828523D01*
X113486720Y-131832147D01*
X113473618Y-131860834D01*
X113462178Y-131890220D01*
X113458619Y-131893677D01*
X113457695Y-131895703D01*
X113436867Y-131914818D01*
X113360540Y-131970272D01*
X113360535Y-131970276D01*
X113210276Y-132120535D01*
X113210272Y-132120540D01*
X113085378Y-132292443D01*
X113080762Y-132301502D01*
X113032784Y-132352295D01*
X112964963Y-132369087D01*
X112898829Y-132346546D01*
X112859794Y-132301493D01*
X112855051Y-132292184D01*
X112855049Y-132292181D01*
X112855048Y-132292179D01*
X112730109Y-132120213D01*
X112579792Y-131969896D01*
X112503984Y-131914819D01*
X112461318Y-131859489D01*
X112455339Y-131789876D01*
X112487944Y-131728080D01*
X112548783Y-131693723D01*
X112576869Y-131690500D01*
X113363982Y-131690500D01*
X113394238Y-131699384D01*
G37*
%TD.AperFunction*%
%TA.AperFunction,Conductor*%
G36*
X102881444Y-129753999D02*
G01*
X102920486Y-129799056D01*
X102924951Y-129807820D01*
X103049890Y-129979786D01*
X103200213Y-130130109D01*
X103372184Y-130255051D01*
X103372184Y-130255052D01*
X103411793Y-130275233D01*
X103462590Y-130323206D01*
X103479500Y-130385718D01*
X103479500Y-131714281D01*
X103459815Y-131781320D01*
X103411795Y-131824765D01*
X103372185Y-131844947D01*
X103372184Y-131844948D01*
X103200213Y-131969890D01*
X103049890Y-132120213D01*
X102924949Y-132292182D01*
X102920484Y-132300946D01*
X102872509Y-132351742D01*
X102804688Y-132368536D01*
X102738553Y-132345998D01*
X102699516Y-132300946D01*
X102695050Y-132292182D01*
X102570109Y-132120213D01*
X102419786Y-131969890D01*
X102247815Y-131844948D01*
X102247814Y-131844947D01*
X102208205Y-131824765D01*
X102157409Y-131776791D01*
X102140500Y-131714281D01*
X102140500Y-130385718D01*
X102160185Y-130318679D01*
X102208207Y-130275233D01*
X102247815Y-130255052D01*
X102247815Y-130255051D01*
X102247816Y-130255051D01*
X102339193Y-130188661D01*
X102419786Y-130130109D01*
X102419788Y-130130106D01*
X102419792Y-130130104D01*
X102570104Y-129979792D01*
X102570106Y-129979788D01*
X102570109Y-129979786D01*
X102695048Y-129807820D01*
X102695047Y-129807820D01*
X102695051Y-129807816D01*
X102699514Y-129799054D01*
X102747488Y-129748259D01*
X102815308Y-129731463D01*
X102881444Y-129753999D01*
G37*
%TD.AperFunction*%
%TA.AperFunction,Conductor*%
G36*
X105421444Y-129753999D02*
G01*
X105460486Y-129799056D01*
X105464951Y-129807820D01*
X105589890Y-129979786D01*
X105740213Y-130130109D01*
X105912184Y-130255051D01*
X105912184Y-130255052D01*
X105951793Y-130275233D01*
X106002590Y-130323206D01*
X106019500Y-130385718D01*
X106019500Y-131714281D01*
X105999815Y-131781320D01*
X105951795Y-131824765D01*
X105912185Y-131844947D01*
X105912184Y-131844948D01*
X105740213Y-131969890D01*
X105589890Y-132120213D01*
X105464949Y-132292182D01*
X105460484Y-132300946D01*
X105412509Y-132351742D01*
X105344688Y-132368536D01*
X105278553Y-132345998D01*
X105239516Y-132300946D01*
X105235050Y-132292182D01*
X105110109Y-132120213D01*
X104959786Y-131969890D01*
X104787815Y-131844948D01*
X104787814Y-131844947D01*
X104748205Y-131824765D01*
X104697409Y-131776791D01*
X104680500Y-131714281D01*
X104680500Y-130385718D01*
X104700185Y-130318679D01*
X104748207Y-130275233D01*
X104787815Y-130255052D01*
X104787815Y-130255051D01*
X104787816Y-130255051D01*
X104879193Y-130188661D01*
X104959786Y-130130109D01*
X104959788Y-130130106D01*
X104959792Y-130130104D01*
X105110104Y-129979792D01*
X105110106Y-129979788D01*
X105110109Y-129979786D01*
X105235048Y-129807820D01*
X105235047Y-129807820D01*
X105235051Y-129807816D01*
X105239514Y-129799054D01*
X105287488Y-129748259D01*
X105355308Y-129731463D01*
X105421444Y-129753999D01*
G37*
%TD.AperFunction*%
%TA.AperFunction,Conductor*%
G36*
X107961444Y-129753999D02*
G01*
X108000486Y-129799056D01*
X108004951Y-129807820D01*
X108129890Y-129979786D01*
X108280213Y-130130109D01*
X108452184Y-130255051D01*
X108452184Y-130255052D01*
X108491793Y-130275233D01*
X108542590Y-130323206D01*
X108559500Y-130385718D01*
X108559500Y-131714281D01*
X108539815Y-131781320D01*
X108491795Y-131824765D01*
X108452185Y-131844947D01*
X108452184Y-131844948D01*
X108280213Y-131969890D01*
X108129890Y-132120213D01*
X108004949Y-132292182D01*
X108000484Y-132300946D01*
X107952509Y-132351742D01*
X107884688Y-132368536D01*
X107818553Y-132345998D01*
X107779516Y-132300946D01*
X107775050Y-132292182D01*
X107650109Y-132120213D01*
X107499786Y-131969890D01*
X107327815Y-131844948D01*
X107327814Y-131844947D01*
X107288205Y-131824765D01*
X107237409Y-131776791D01*
X107220500Y-131714281D01*
X107220500Y-130385718D01*
X107240185Y-130318679D01*
X107288207Y-130275233D01*
X107327815Y-130255052D01*
X107327815Y-130255051D01*
X107327816Y-130255051D01*
X107419193Y-130188661D01*
X107499786Y-130130109D01*
X107499788Y-130130106D01*
X107499792Y-130130104D01*
X107650104Y-129979792D01*
X107650106Y-129979788D01*
X107650109Y-129979786D01*
X107775048Y-129807820D01*
X107775047Y-129807820D01*
X107775051Y-129807816D01*
X107779514Y-129799054D01*
X107827488Y-129748259D01*
X107895308Y-129731463D01*
X107961444Y-129753999D01*
G37*
%TD.AperFunction*%
%TA.AperFunction,Conductor*%
G36*
X126861444Y-129753999D02*
G01*
X126900486Y-129799056D01*
X126904951Y-129807820D01*
X127029890Y-129979786D01*
X127180213Y-130130109D01*
X127352184Y-130255051D01*
X127352184Y-130255052D01*
X127391793Y-130275233D01*
X127442590Y-130323206D01*
X127459500Y-130385718D01*
X127459500Y-131714281D01*
X127439815Y-131781320D01*
X127391795Y-131824765D01*
X127352185Y-131844947D01*
X127352184Y-131844948D01*
X127180213Y-131969890D01*
X127029890Y-132120213D01*
X126904949Y-132292182D01*
X126900484Y-132300946D01*
X126852509Y-132351742D01*
X126784688Y-132368536D01*
X126718553Y-132345998D01*
X126679516Y-132300946D01*
X126675050Y-132292182D01*
X126550109Y-132120213D01*
X126399786Y-131969890D01*
X126227815Y-131844948D01*
X126227814Y-131844947D01*
X126188205Y-131824765D01*
X126137409Y-131776791D01*
X126120500Y-131714281D01*
X126120500Y-130385718D01*
X126140185Y-130318679D01*
X126188207Y-130275233D01*
X126227815Y-130255052D01*
X126227815Y-130255051D01*
X126227816Y-130255051D01*
X126319193Y-130188661D01*
X126399786Y-130130109D01*
X126399788Y-130130106D01*
X126399792Y-130130104D01*
X126550104Y-129979792D01*
X126550106Y-129979788D01*
X126550109Y-129979786D01*
X126675048Y-129807820D01*
X126675047Y-129807820D01*
X126675051Y-129807816D01*
X126679514Y-129799054D01*
X126727488Y-129748259D01*
X126795308Y-129731463D01*
X126861444Y-129753999D01*
G37*
%TD.AperFunction*%
%TA.AperFunction,Conductor*%
G36*
X129401444Y-129753999D02*
G01*
X129440486Y-129799056D01*
X129444951Y-129807820D01*
X129569890Y-129979786D01*
X129720213Y-130130109D01*
X129892184Y-130255051D01*
X129892184Y-130255052D01*
X129931793Y-130275233D01*
X129982590Y-130323206D01*
X129999500Y-130385718D01*
X129999500Y-131714281D01*
X129979815Y-131781320D01*
X129931795Y-131824765D01*
X129892185Y-131844947D01*
X129892184Y-131844948D01*
X129720213Y-131969890D01*
X129569890Y-132120213D01*
X129444949Y-132292182D01*
X129440484Y-132300946D01*
X129392509Y-132351742D01*
X129324688Y-132368536D01*
X129258553Y-132345998D01*
X129219516Y-132300946D01*
X129215050Y-132292182D01*
X129090109Y-132120213D01*
X128939786Y-131969890D01*
X128767815Y-131844948D01*
X128767814Y-131844947D01*
X128728205Y-131824765D01*
X128677409Y-131776791D01*
X128660500Y-131714281D01*
X128660500Y-130385718D01*
X128680185Y-130318679D01*
X128728207Y-130275233D01*
X128767815Y-130255052D01*
X128767815Y-130255051D01*
X128767816Y-130255051D01*
X128859193Y-130188661D01*
X128939786Y-130130109D01*
X128939788Y-130130106D01*
X128939792Y-130130104D01*
X129090104Y-129979792D01*
X129090106Y-129979788D01*
X129090109Y-129979786D01*
X129215048Y-129807820D01*
X129215047Y-129807820D01*
X129215051Y-129807816D01*
X129219514Y-129799054D01*
X129267488Y-129748259D01*
X129335308Y-129731463D01*
X129401444Y-129753999D01*
G37*
%TD.AperFunction*%
%TA.AperFunction,Conductor*%
G36*
X131941444Y-129753999D02*
G01*
X131980486Y-129799056D01*
X131984951Y-129807820D01*
X132109890Y-129979786D01*
X132260213Y-130130109D01*
X132432184Y-130255051D01*
X132432184Y-130255052D01*
X132471793Y-130275233D01*
X132522590Y-130323206D01*
X132539500Y-130385718D01*
X132539500Y-131714281D01*
X132519815Y-131781320D01*
X132471795Y-131824765D01*
X132432185Y-131844947D01*
X132432184Y-131844948D01*
X132260213Y-131969890D01*
X132109890Y-132120213D01*
X131984949Y-132292182D01*
X131980484Y-132300946D01*
X131932509Y-132351742D01*
X131864688Y-132368536D01*
X131798553Y-132345998D01*
X131759516Y-132300946D01*
X131755050Y-132292182D01*
X131630109Y-132120213D01*
X131479786Y-131969890D01*
X131307815Y-131844948D01*
X131307814Y-131844947D01*
X131268205Y-131824765D01*
X131217409Y-131776791D01*
X131200500Y-131714281D01*
X131200500Y-130385718D01*
X131220185Y-130318679D01*
X131268207Y-130275233D01*
X131307815Y-130255052D01*
X131307815Y-130255051D01*
X131307816Y-130255051D01*
X131399193Y-130188661D01*
X131479786Y-130130109D01*
X131479788Y-130130106D01*
X131479792Y-130130104D01*
X131630104Y-129979792D01*
X131630106Y-129979788D01*
X131630109Y-129979786D01*
X131755048Y-129807820D01*
X131755047Y-129807820D01*
X131755051Y-129807816D01*
X131759514Y-129799054D01*
X131807488Y-129748259D01*
X131875308Y-129731463D01*
X131941444Y-129753999D01*
G37*
%TD.AperFunction*%
%TA.AperFunction,Conductor*%
G36*
X150866444Y-129753999D02*
G01*
X150905486Y-129799056D01*
X150909951Y-129807820D01*
X151034890Y-129979786D01*
X151185213Y-130130109D01*
X151357184Y-130255051D01*
X151357184Y-130255052D01*
X151396793Y-130275233D01*
X151447590Y-130323206D01*
X151464500Y-130385718D01*
X151464500Y-131681161D01*
X151444815Y-131748200D01*
X151396796Y-131791645D01*
X151292182Y-131844949D01*
X151120213Y-131969890D01*
X150969890Y-132120213D01*
X150844949Y-132292182D01*
X150840484Y-132300946D01*
X150792509Y-132351742D01*
X150724688Y-132368536D01*
X150658553Y-132345998D01*
X150619516Y-132300946D01*
X150615050Y-132292182D01*
X150490109Y-132120213D01*
X150339786Y-131969890D01*
X150167815Y-131844948D01*
X150167814Y-131844947D01*
X150128205Y-131824765D01*
X150077409Y-131776791D01*
X150060500Y-131714281D01*
X150060500Y-130418837D01*
X150080185Y-130351798D01*
X150128206Y-130308352D01*
X150136773Y-130303987D01*
X150232816Y-130255051D01*
X150319138Y-130192335D01*
X150404786Y-130130109D01*
X150404788Y-130130106D01*
X150404792Y-130130104D01*
X150555104Y-129979792D01*
X150555106Y-129979788D01*
X150555109Y-129979786D01*
X150680048Y-129807820D01*
X150680047Y-129807820D01*
X150680051Y-129807816D01*
X150684514Y-129799054D01*
X150732488Y-129748259D01*
X150800308Y-129731463D01*
X150866444Y-129753999D01*
G37*
%TD.AperFunction*%
%TA.AperFunction,Conductor*%
G36*
X153406444Y-129753999D02*
G01*
X153445486Y-129799056D01*
X153449951Y-129807820D01*
X153574890Y-129979786D01*
X153725213Y-130130109D01*
X153897184Y-130255051D01*
X153897184Y-130255052D01*
X153936793Y-130275233D01*
X153987590Y-130323206D01*
X154004500Y-130385718D01*
X154004500Y-131681161D01*
X153984815Y-131748200D01*
X153936796Y-131791645D01*
X153832182Y-131844949D01*
X153660213Y-131969890D01*
X153509890Y-132120213D01*
X153384949Y-132292182D01*
X153380484Y-132300946D01*
X153332509Y-132351742D01*
X153264688Y-132368536D01*
X153198553Y-132345998D01*
X153159516Y-132300946D01*
X153155050Y-132292182D01*
X153030109Y-132120213D01*
X152879790Y-131969894D01*
X152879785Y-131969890D01*
X152716615Y-131851341D01*
X152673949Y-131796012D01*
X152665500Y-131751023D01*
X152665500Y-130385718D01*
X152685185Y-130318679D01*
X152733207Y-130275233D01*
X152772815Y-130255052D01*
X152772815Y-130255051D01*
X152772816Y-130255051D01*
X152864193Y-130188661D01*
X152944786Y-130130109D01*
X152944788Y-130130106D01*
X152944792Y-130130104D01*
X153095104Y-129979792D01*
X153095106Y-129979788D01*
X153095109Y-129979786D01*
X153220048Y-129807820D01*
X153220047Y-129807820D01*
X153220051Y-129807816D01*
X153224514Y-129799054D01*
X153272488Y-129748259D01*
X153340308Y-129731463D01*
X153406444Y-129753999D01*
G37*
%TD.AperFunction*%
%TA.AperFunction,Conductor*%
G36*
X155946444Y-129753999D02*
G01*
X155985486Y-129799056D01*
X155989951Y-129807820D01*
X156114890Y-129979786D01*
X156265213Y-130130109D01*
X156437184Y-130255051D01*
X156437184Y-130255052D01*
X156476793Y-130275233D01*
X156527590Y-130323206D01*
X156544500Y-130385718D01*
X156544500Y-131681161D01*
X156524815Y-131748200D01*
X156476796Y-131791645D01*
X156372182Y-131844949D01*
X156200213Y-131969890D01*
X156049890Y-132120213D01*
X155924949Y-132292182D01*
X155920484Y-132300946D01*
X155872509Y-132351742D01*
X155804688Y-132368536D01*
X155738553Y-132345998D01*
X155699516Y-132300946D01*
X155695050Y-132292182D01*
X155570109Y-132120213D01*
X155419790Y-131969894D01*
X155419785Y-131969890D01*
X155256615Y-131851341D01*
X155213949Y-131796012D01*
X155205500Y-131751023D01*
X155205500Y-130385718D01*
X155225185Y-130318679D01*
X155273207Y-130275233D01*
X155312815Y-130255052D01*
X155312815Y-130255051D01*
X155312816Y-130255051D01*
X155404193Y-130188661D01*
X155484786Y-130130109D01*
X155484788Y-130130106D01*
X155484792Y-130130104D01*
X155635104Y-129979792D01*
X155635106Y-129979788D01*
X155635109Y-129979786D01*
X155760048Y-129807820D01*
X155760047Y-129807820D01*
X155760051Y-129807816D01*
X155764514Y-129799054D01*
X155812488Y-129748259D01*
X155880308Y-129731463D01*
X155946444Y-129753999D01*
G37*
%TD.AperFunction*%
%TA.AperFunction,Conductor*%
G36*
X110501444Y-129753999D02*
G01*
X110540486Y-129799056D01*
X110544951Y-129807820D01*
X110669890Y-129979786D01*
X110820213Y-130130109D01*
X110992181Y-130255050D01*
X111005481Y-130261826D01*
X111020318Y-130275838D01*
X111038092Y-130285870D01*
X111045203Y-130299340D01*
X111056278Y-130309799D01*
X111061184Y-130329608D01*
X111070713Y-130347657D01*
X111069413Y-130362834D01*
X111073075Y-130377620D01*
X111066492Y-130396937D01*
X111064751Y-130417272D01*
X111055451Y-130429337D01*
X111050539Y-130443755D01*
X111034557Y-130456447D01*
X111022099Y-130472612D01*
X111002322Y-130482048D01*
X110995825Y-130487208D01*
X110990888Y-130489091D01*
X110986144Y-130490784D01*
X110838215Y-130530423D01*
X110788095Y-130559360D01*
X110778368Y-130564975D01*
X110778367Y-130564976D01*
X110701285Y-130609479D01*
X110701282Y-130609481D01*
X109972181Y-131338583D01*
X109910858Y-131372068D01*
X109841166Y-131367084D01*
X109785233Y-131325212D01*
X109760816Y-131259748D01*
X109760500Y-131250902D01*
X109760500Y-130385718D01*
X109780185Y-130318679D01*
X109828207Y-130275233D01*
X109867815Y-130255052D01*
X109867815Y-130255051D01*
X109867816Y-130255051D01*
X109959193Y-130188661D01*
X110039786Y-130130109D01*
X110039788Y-130130106D01*
X110039792Y-130130104D01*
X110190104Y-129979792D01*
X110190106Y-129979788D01*
X110190109Y-129979786D01*
X110315048Y-129807820D01*
X110315047Y-129807820D01*
X110315051Y-129807816D01*
X110319514Y-129799054D01*
X110367488Y-129748259D01*
X110435308Y-129731463D01*
X110501444Y-129753999D01*
G37*
%TD.AperFunction*%
%TA.AperFunction,Conductor*%
G36*
X121885487Y-126319423D02*
G01*
X121908003Y-126337238D01*
X123108584Y-127537819D01*
X123142069Y-127599142D01*
X123137085Y-127668834D01*
X123095213Y-127724767D01*
X123029749Y-127749184D01*
X123020903Y-127749500D01*
X122082129Y-127749500D01*
X122082123Y-127749501D01*
X122022516Y-127755908D01*
X121887671Y-127806202D01*
X121887664Y-127806206D01*
X121772455Y-127892452D01*
X121772452Y-127892455D01*
X121686206Y-128007664D01*
X121686202Y-128007671D01*
X121635908Y-128142517D01*
X121629501Y-128202116D01*
X121629500Y-128202135D01*
X121629500Y-129997870D01*
X121629501Y-129997876D01*
X121635908Y-130057483D01*
X121686202Y-130192328D01*
X121686204Y-130192331D01*
X121760209Y-130291189D01*
X121784627Y-130356653D01*
X121769776Y-130424926D01*
X121720371Y-130474332D01*
X121660943Y-130489500D01*
X118019500Y-130489500D01*
X117952461Y-130469815D01*
X117906706Y-130417011D01*
X117895500Y-130365500D01*
X117895499Y-129931662D01*
X117895498Y-129931644D01*
X117885349Y-129832292D01*
X117885348Y-129832289D01*
X117877240Y-129807820D01*
X117832003Y-129671303D01*
X117831999Y-129671297D01*
X117831998Y-129671294D01*
X117742970Y-129526959D01*
X117742967Y-129526955D01*
X117733339Y-129517327D01*
X117699854Y-129456004D01*
X117704838Y-129386312D01*
X117733345Y-129341959D01*
X117742573Y-129332731D01*
X117831542Y-129188492D01*
X117831547Y-129188481D01*
X117884855Y-129027606D01*
X117894999Y-128928322D01*
X117895000Y-128928309D01*
X117895000Y-128905000D01*
X115945001Y-128905000D01*
X115945001Y-128928322D01*
X115955144Y-129027607D01*
X116008452Y-129188481D01*
X116008457Y-129188492D01*
X116097424Y-129332728D01*
X116097427Y-129332732D01*
X116106660Y-129341965D01*
X116140145Y-129403288D01*
X116135161Y-129472980D01*
X116120781Y-129500443D01*
X116114469Y-129509518D01*
X116097032Y-129526956D01*
X116055371Y-129594498D01*
X116053425Y-129597297D01*
X116028755Y-129617146D01*
X116005214Y-129638321D01*
X116001346Y-129639199D01*
X115998989Y-129641097D01*
X115987693Y-129642302D01*
X115951623Y-129650500D01*
X115651277Y-129650500D01*
X115584238Y-129630815D01*
X115538483Y-129578011D01*
X115528539Y-129508853D01*
X115533346Y-129488182D01*
X115556757Y-129416129D01*
X115556757Y-129416126D01*
X115567231Y-129350000D01*
X114673012Y-129350000D01*
X114705925Y-129292993D01*
X114740000Y-129165826D01*
X114740000Y-129034174D01*
X114705925Y-128907007D01*
X114673012Y-128850000D01*
X115567231Y-128850000D01*
X115556757Y-128783873D01*
X115556757Y-128783870D01*
X115491095Y-128581782D01*
X115416215Y-128434823D01*
X115394620Y-128392442D01*
X115386799Y-128381677D01*
X115945000Y-128381677D01*
X115945000Y-128405000D01*
X116670000Y-128405000D01*
X117170000Y-128405000D01*
X117894999Y-128405000D01*
X117894999Y-128381692D01*
X117894998Y-128381677D01*
X117884855Y-128282392D01*
X117831547Y-128121518D01*
X117831542Y-128121507D01*
X117742575Y-127977271D01*
X117742572Y-127977267D01*
X117622732Y-127857427D01*
X117622728Y-127857424D01*
X117478492Y-127768457D01*
X117478481Y-127768452D01*
X117317606Y-127715144D01*
X117218322Y-127705000D01*
X117170000Y-127705000D01*
X117170000Y-128405000D01*
X116670000Y-128405000D01*
X116670000Y-127705000D01*
X116669999Y-127704999D01*
X116621693Y-127705000D01*
X116621675Y-127705001D01*
X116522392Y-127715144D01*
X116361518Y-127768452D01*
X116361507Y-127768457D01*
X116217271Y-127857424D01*
X116217267Y-127857427D01*
X116097427Y-127977267D01*
X116097424Y-127977271D01*
X116008457Y-128121507D01*
X116008452Y-128121518D01*
X115955144Y-128282393D01*
X115945000Y-128381677D01*
X115386799Y-128381677D01*
X115269727Y-128220540D01*
X115269723Y-128220535D01*
X115119464Y-128070276D01*
X115119459Y-128070272D01*
X114947557Y-127945379D01*
X114758215Y-127848903D01*
X114556124Y-127783241D01*
X114490000Y-127772768D01*
X114490000Y-128666988D01*
X114432993Y-128634075D01*
X114305826Y-128600000D01*
X114174174Y-128600000D01*
X114047007Y-128634075D01*
X113990000Y-128666988D01*
X113990000Y-127772768D01*
X113989999Y-127772768D01*
X113923875Y-127783241D01*
X113721784Y-127848903D01*
X113532442Y-127945379D01*
X113360540Y-128070272D01*
X113360535Y-128070276D01*
X113210276Y-128220535D01*
X113210272Y-128220540D01*
X113085378Y-128392443D01*
X113080762Y-128401502D01*
X113032784Y-128452295D01*
X112964963Y-128469087D01*
X112898829Y-128446546D01*
X112859794Y-128401493D01*
X112855051Y-128392184D01*
X112855049Y-128392181D01*
X112855048Y-128392179D01*
X112730109Y-128220213D01*
X112579786Y-128069890D01*
X112407820Y-127944951D01*
X112218414Y-127848444D01*
X112218413Y-127848443D01*
X112218412Y-127848443D01*
X112016243Y-127782754D01*
X112016241Y-127782753D01*
X112016240Y-127782753D01*
X111854957Y-127757208D01*
X111806287Y-127749500D01*
X111593713Y-127749500D01*
X111545042Y-127757208D01*
X111383760Y-127782753D01*
X111181585Y-127848444D01*
X110992179Y-127944951D01*
X110820213Y-128069890D01*
X110669890Y-128220213D01*
X110544949Y-128392182D01*
X110540484Y-128400946D01*
X110492509Y-128451742D01*
X110424688Y-128468536D01*
X110358553Y-128445998D01*
X110319516Y-128400946D01*
X110315050Y-128392182D01*
X110190109Y-128220213D01*
X110039786Y-128069890D01*
X109867820Y-127944951D01*
X109678414Y-127848444D01*
X109678413Y-127848443D01*
X109678412Y-127848443D01*
X109476243Y-127782754D01*
X109476241Y-127782753D01*
X109476240Y-127782753D01*
X109314957Y-127757208D01*
X109266287Y-127749500D01*
X109053713Y-127749500D01*
X109005042Y-127757208D01*
X108843760Y-127782753D01*
X108641585Y-127848444D01*
X108452179Y-127944951D01*
X108280213Y-128069890D01*
X108129890Y-128220213D01*
X108004949Y-128392182D01*
X108000484Y-128400946D01*
X107952509Y-128451742D01*
X107884688Y-128468536D01*
X107818553Y-128445998D01*
X107779516Y-128400946D01*
X107775050Y-128392182D01*
X107650109Y-128220213D01*
X107499786Y-128069890D01*
X107327820Y-127944951D01*
X107138414Y-127848444D01*
X107138413Y-127848443D01*
X107138412Y-127848443D01*
X106936243Y-127782754D01*
X106936241Y-127782753D01*
X106936240Y-127782753D01*
X106774957Y-127757208D01*
X106726287Y-127749500D01*
X106579097Y-127749500D01*
X106512058Y-127729815D01*
X106466303Y-127677011D01*
X106456359Y-127607853D01*
X106485384Y-127544297D01*
X106491416Y-127537819D01*
X107004251Y-127024985D01*
X107667417Y-126361819D01*
X107728740Y-126328334D01*
X107755098Y-126325500D01*
X120894001Y-126325500D01*
X120961040Y-126345185D01*
X120962892Y-126346398D01*
X120995116Y-126367930D01*
X121061131Y-126395274D01*
X121127148Y-126422619D01*
X121127152Y-126422619D01*
X121127153Y-126422620D01*
X121267310Y-126450500D01*
X121267313Y-126450500D01*
X121410225Y-126450500D01*
X121504519Y-126431742D01*
X121550388Y-126422619D01*
X121682421Y-126367929D01*
X121751431Y-126321817D01*
X121818107Y-126300939D01*
X121885487Y-126319423D01*
G37*
%TD.AperFunction*%
%TA.AperFunction,Conductor*%
G36*
X124498418Y-129995417D02*
G01*
X124526673Y-130016569D01*
X124640213Y-130130109D01*
X124742978Y-130204771D01*
X124744829Y-130207171D01*
X124747633Y-130208324D01*
X124766024Y-130234657D01*
X124785644Y-130260100D01*
X124785903Y-130263121D01*
X124787639Y-130265606D01*
X124788873Y-130297706D01*
X124791623Y-130329714D01*
X124790208Y-130332394D01*
X124790325Y-130335424D01*
X124774012Y-130363090D01*
X124759018Y-130391509D01*
X124755912Y-130393789D01*
X124754838Y-130395611D01*
X124743295Y-130403051D01*
X124725903Y-130415820D01*
X124721795Y-130417890D01*
X124651347Y-130447071D01*
X124612812Y-130472818D01*
X124606043Y-130476231D01*
X124578833Y-130481217D01*
X124552446Y-130489480D01*
X124550233Y-130489500D01*
X124299057Y-130489500D01*
X124232018Y-130469815D01*
X124186263Y-130417011D01*
X124176319Y-130347853D01*
X124199790Y-130291189D01*
X124273796Y-130192331D01*
X124322810Y-130060916D01*
X124364681Y-130004984D01*
X124430145Y-129980566D01*
X124498418Y-129995417D01*
G37*
%TD.AperFunction*%
%TA.AperFunction,Conductor*%
G36*
X149548937Y-124520185D02*
G01*
X149594692Y-124572989D01*
X149604636Y-124642147D01*
X149575611Y-124705703D01*
X149550790Y-124727602D01*
X149537517Y-124736470D01*
X149436470Y-124837517D01*
X149436467Y-124837521D01*
X149357074Y-124956340D01*
X149357069Y-124956349D01*
X149302381Y-125088379D01*
X149302379Y-125088385D01*
X149274500Y-125228542D01*
X149274500Y-125228545D01*
X149274500Y-125371455D01*
X149274500Y-125371457D01*
X149274499Y-125371457D01*
X149302379Y-125511614D01*
X149302381Y-125511620D01*
X149357069Y-125643650D01*
X149357074Y-125643659D01*
X149436467Y-125762478D01*
X149436470Y-125762482D01*
X149537517Y-125863529D01*
X149537521Y-125863532D01*
X149656340Y-125942925D01*
X149656346Y-125942928D01*
X149656347Y-125942929D01*
X149788380Y-125997619D01*
X149788384Y-125997619D01*
X149788385Y-125997620D01*
X149928542Y-126025500D01*
X149928545Y-126025500D01*
X150071457Y-126025500D01*
X150170980Y-126005703D01*
X150211620Y-125997619D01*
X150343653Y-125942929D01*
X150375876Y-125921397D01*
X150442554Y-125900520D01*
X150444767Y-125900500D01*
X153044903Y-125900500D01*
X153111942Y-125920185D01*
X153132584Y-125936819D01*
X154733583Y-127537819D01*
X154767068Y-127599142D01*
X154762084Y-127668834D01*
X154720212Y-127724767D01*
X154654748Y-127749184D01*
X154645902Y-127749500D01*
X154498713Y-127749500D01*
X154450042Y-127757208D01*
X154288760Y-127782753D01*
X154086585Y-127848444D01*
X153897179Y-127944951D01*
X153725213Y-128069890D01*
X153574890Y-128220213D01*
X153449949Y-128392182D01*
X153445484Y-128400946D01*
X153397509Y-128451742D01*
X153329688Y-128468536D01*
X153263553Y-128445998D01*
X153224516Y-128400946D01*
X153220050Y-128392182D01*
X153095109Y-128220213D01*
X152944786Y-128069890D01*
X152772820Y-127944951D01*
X152583414Y-127848444D01*
X152583413Y-127848443D01*
X152583412Y-127848443D01*
X152381243Y-127782754D01*
X152381241Y-127782753D01*
X152381240Y-127782753D01*
X152219957Y-127757208D01*
X152171287Y-127749500D01*
X151958713Y-127749500D01*
X151910042Y-127757208D01*
X151748760Y-127782753D01*
X151546585Y-127848444D01*
X151357179Y-127944951D01*
X151185213Y-128069890D01*
X151034890Y-128220213D01*
X150909949Y-128392182D01*
X150905484Y-128400946D01*
X150857509Y-128451742D01*
X150789688Y-128468536D01*
X150723553Y-128445998D01*
X150684516Y-128400946D01*
X150680050Y-128392182D01*
X150555109Y-128220213D01*
X150404786Y-128069890D01*
X150232820Y-127944951D01*
X150043414Y-127848444D01*
X150043413Y-127848443D01*
X150043412Y-127848443D01*
X149841243Y-127782754D01*
X149841241Y-127782753D01*
X149841240Y-127782753D01*
X149679957Y-127757208D01*
X149631287Y-127749500D01*
X149418713Y-127749500D01*
X149390006Y-127754046D01*
X149208757Y-127782753D01*
X149166473Y-127796492D01*
X149096632Y-127798486D01*
X149040476Y-127766241D01*
X145986416Y-124712181D01*
X145952931Y-124650858D01*
X145957915Y-124581166D01*
X145999787Y-124525233D01*
X146065251Y-124500816D01*
X146074097Y-124500500D01*
X149481898Y-124500500D01*
X149548937Y-124520185D01*
G37*
%TD.AperFunction*%
%TA.AperFunction,Conductor*%
G36*
X106297941Y-125820185D02*
G01*
X106343696Y-125872989D01*
X106353640Y-125942147D01*
X106324615Y-126005703D01*
X106318583Y-126012181D01*
X104564522Y-127766241D01*
X104503199Y-127799726D01*
X104438523Y-127796491D01*
X104396245Y-127782754D01*
X104256272Y-127760584D01*
X104186287Y-127749500D01*
X104039096Y-127749500D01*
X103972057Y-127729815D01*
X103926302Y-127677011D01*
X103916358Y-127607853D01*
X103945383Y-127544297D01*
X103951415Y-127537819D01*
X105652416Y-125836819D01*
X105713739Y-125803334D01*
X105740097Y-125800500D01*
X106230902Y-125800500D01*
X106297941Y-125820185D01*
G37*
%TD.AperFunction*%
%TA.AperFunction,Conductor*%
G36*
X129037942Y-124520185D02*
G01*
X129083697Y-124572989D01*
X129093641Y-124642147D01*
X129064616Y-124705703D01*
X129058584Y-124712181D01*
X126004522Y-127766241D01*
X125943199Y-127799726D01*
X125878523Y-127796491D01*
X125836245Y-127782754D01*
X125696272Y-127760584D01*
X125626287Y-127749500D01*
X125413713Y-127749500D01*
X125385006Y-127754046D01*
X125203757Y-127782753D01*
X125161473Y-127796492D01*
X125091632Y-127798486D01*
X125035476Y-127766241D01*
X122107753Y-124838518D01*
X122100521Y-124831286D01*
X122100520Y-124831284D01*
X121988716Y-124719480D01*
X121987661Y-124718871D01*
X121981110Y-124712344D01*
X121968003Y-124688446D01*
X121951933Y-124666431D01*
X121951447Y-124658260D01*
X121947511Y-124651083D01*
X121949404Y-124623892D01*
X121947788Y-124596684D01*
X121951797Y-124589547D01*
X121952366Y-124581382D01*
X121968658Y-124559534D01*
X121982009Y-124535769D01*
X121989241Y-124531932D01*
X121994134Y-124525371D01*
X122019649Y-124515800D01*
X122043731Y-124503025D01*
X122057406Y-124501638D01*
X122059553Y-124500833D01*
X122061405Y-124501232D01*
X122068628Y-124500500D01*
X128970903Y-124500500D01*
X129037942Y-124520185D01*
G37*
%TD.AperFunction*%
%TA.AperFunction,Conductor*%
G36*
X130876941Y-125221185D02*
G01*
X130922696Y-125273989D01*
X130932640Y-125343147D01*
X130903615Y-125406703D01*
X130897583Y-125413181D01*
X128544522Y-127766241D01*
X128483199Y-127799726D01*
X128418523Y-127796491D01*
X128376245Y-127782754D01*
X128236272Y-127760584D01*
X128166287Y-127749500D01*
X128019096Y-127749500D01*
X127952057Y-127729815D01*
X127906302Y-127677011D01*
X127896358Y-127607853D01*
X127925383Y-127544297D01*
X127931415Y-127537819D01*
X128967572Y-126501663D01*
X130231416Y-125237819D01*
X130292739Y-125204334D01*
X130319097Y-125201500D01*
X130809902Y-125201500D01*
X130876941Y-125221185D01*
G37*
%TD.AperFunction*%
%TD*%
M02*
