%TF.GenerationSoftware,KiCad,Pcbnew,9.0.0*%
%TF.CreationDate,2025-03-20T15:50:57+01:00*%
%TF.ProjectId,PCB_Aquarium2,5043425f-4171-4756-9172-69756d322e6b,rev?*%
%TF.SameCoordinates,Original*%
%TF.FileFunction,Legend,Top*%
%TF.FilePolarity,Positive*%
%FSLAX46Y46*%
G04 Gerber Fmt 4.6, Leading zero omitted, Abs format (unit mm)*
G04 Created by KiCad (PCBNEW 9.0.0) date 2025-03-20 15:50:57*
%MOMM*%
%LPD*%
G01*
G04 APERTURE LIST*
%ADD10C,0.250000*%
%ADD11C,0.150000*%
%ADD12C,0.125000*%
%ADD13C,0.120000*%
%ADD14C,0.100000*%
G04 APERTURE END LIST*
D10*
X182304675Y-109690288D02*
X183304675Y-109356955D01*
X183304675Y-109356955D02*
X182304675Y-109023622D01*
X183304675Y-108690288D02*
X182638008Y-108690288D01*
X182304675Y-108690288D02*
X182352294Y-108737907D01*
X182352294Y-108737907D02*
X182399913Y-108690288D01*
X182399913Y-108690288D02*
X182352294Y-108642669D01*
X182352294Y-108642669D02*
X182304675Y-108690288D01*
X182304675Y-108690288D02*
X182399913Y-108690288D01*
X182638008Y-108214098D02*
X183304675Y-108214098D01*
X182733246Y-108214098D02*
X182685627Y-108166479D01*
X182685627Y-108166479D02*
X182638008Y-108071241D01*
X182638008Y-108071241D02*
X182638008Y-107928384D01*
X182638008Y-107928384D02*
X182685627Y-107833146D01*
X182685627Y-107833146D02*
X182780865Y-107785527D01*
X182780865Y-107785527D02*
X183304675Y-107785527D01*
X183257056Y-106880765D02*
X183304675Y-106976003D01*
X183304675Y-106976003D02*
X183304675Y-107166479D01*
X183304675Y-107166479D02*
X183257056Y-107261717D01*
X183257056Y-107261717D02*
X183209436Y-107309336D01*
X183209436Y-107309336D02*
X183114198Y-107356955D01*
X183114198Y-107356955D02*
X182828484Y-107356955D01*
X182828484Y-107356955D02*
X182733246Y-107309336D01*
X182733246Y-107309336D02*
X182685627Y-107261717D01*
X182685627Y-107261717D02*
X182638008Y-107166479D01*
X182638008Y-107166479D02*
X182638008Y-106976003D01*
X182638008Y-106976003D02*
X182685627Y-106880765D01*
X183257056Y-106071241D02*
X183304675Y-106166479D01*
X183304675Y-106166479D02*
X183304675Y-106356955D01*
X183304675Y-106356955D02*
X183257056Y-106452193D01*
X183257056Y-106452193D02*
X183161817Y-106499812D01*
X183161817Y-106499812D02*
X182780865Y-106499812D01*
X182780865Y-106499812D02*
X182685627Y-106452193D01*
X182685627Y-106452193D02*
X182638008Y-106356955D01*
X182638008Y-106356955D02*
X182638008Y-106166479D01*
X182638008Y-106166479D02*
X182685627Y-106071241D01*
X182685627Y-106071241D02*
X182780865Y-106023622D01*
X182780865Y-106023622D02*
X182876103Y-106023622D01*
X182876103Y-106023622D02*
X182971341Y-106499812D01*
X182638008Y-105595050D02*
X183304675Y-105595050D01*
X182733246Y-105595050D02*
X182685627Y-105547431D01*
X182685627Y-105547431D02*
X182638008Y-105452193D01*
X182638008Y-105452193D02*
X182638008Y-105309336D01*
X182638008Y-105309336D02*
X182685627Y-105214098D01*
X182685627Y-105214098D02*
X182780865Y-105166479D01*
X182780865Y-105166479D02*
X183304675Y-105166479D01*
X182638008Y-104833145D02*
X182638008Y-104452193D01*
X182304675Y-104690288D02*
X183161817Y-104690288D01*
X183161817Y-104690288D02*
X183257056Y-104642669D01*
X183257056Y-104642669D02*
X183304675Y-104547431D01*
X183304675Y-104547431D02*
X183304675Y-104452193D01*
X184390809Y-109214098D02*
X184390809Y-109547431D01*
X184914619Y-109547431D02*
X183914619Y-109547431D01*
X183914619Y-109547431D02*
X183914619Y-109071241D01*
X184390809Y-108690288D02*
X184390809Y-108356955D01*
X184914619Y-108214098D02*
X184914619Y-108690288D01*
X184914619Y-108690288D02*
X183914619Y-108690288D01*
X183914619Y-108690288D02*
X183914619Y-108214098D01*
X184914619Y-107214098D02*
X184438428Y-107547431D01*
X184914619Y-107785526D02*
X183914619Y-107785526D01*
X183914619Y-107785526D02*
X183914619Y-107404574D01*
X183914619Y-107404574D02*
X183962238Y-107309336D01*
X183962238Y-107309336D02*
X184009857Y-107261717D01*
X184009857Y-107261717D02*
X184105095Y-107214098D01*
X184105095Y-107214098D02*
X184247952Y-107214098D01*
X184247952Y-107214098D02*
X184343190Y-107261717D01*
X184343190Y-107261717D02*
X184390809Y-107309336D01*
X184390809Y-107309336D02*
X184438428Y-107404574D01*
X184438428Y-107404574D02*
X184438428Y-107785526D01*
X184914619Y-106785526D02*
X183914619Y-106785526D01*
X183914619Y-106785526D02*
X184914619Y-106214098D01*
X184914619Y-106214098D02*
X183914619Y-106214098D01*
X184628904Y-105785526D02*
X184628904Y-105309336D01*
X184914619Y-105880764D02*
X183914619Y-105547431D01*
X183914619Y-105547431D02*
X184914619Y-105214098D01*
X184914619Y-104880764D02*
X183914619Y-104880764D01*
X183914619Y-104880764D02*
X184914619Y-104309336D01*
X184914619Y-104309336D02*
X183914619Y-104309336D01*
X184914619Y-103833145D02*
X183914619Y-103833145D01*
X183914619Y-103833145D02*
X183914619Y-103595050D01*
X183914619Y-103595050D02*
X183962238Y-103452193D01*
X183962238Y-103452193D02*
X184057476Y-103356955D01*
X184057476Y-103356955D02*
X184152714Y-103309336D01*
X184152714Y-103309336D02*
X184343190Y-103261717D01*
X184343190Y-103261717D02*
X184486047Y-103261717D01*
X184486047Y-103261717D02*
X184676523Y-103309336D01*
X184676523Y-103309336D02*
X184771761Y-103356955D01*
X184771761Y-103356955D02*
X184867000Y-103452193D01*
X184867000Y-103452193D02*
X184914619Y-103595050D01*
X184914619Y-103595050D02*
X184914619Y-103833145D01*
X184390809Y-102833145D02*
X184390809Y-102499812D01*
X184914619Y-102356955D02*
X184914619Y-102833145D01*
X184914619Y-102833145D02*
X183914619Y-102833145D01*
X183914619Y-102833145D02*
X183914619Y-102356955D01*
X184867000Y-101976002D02*
X184914619Y-101833145D01*
X184914619Y-101833145D02*
X184914619Y-101595050D01*
X184914619Y-101595050D02*
X184867000Y-101499812D01*
X184867000Y-101499812D02*
X184819380Y-101452193D01*
X184819380Y-101452193D02*
X184724142Y-101404574D01*
X184724142Y-101404574D02*
X184628904Y-101404574D01*
X184628904Y-101404574D02*
X184533666Y-101452193D01*
X184533666Y-101452193D02*
X184486047Y-101499812D01*
X184486047Y-101499812D02*
X184438428Y-101595050D01*
X184438428Y-101595050D02*
X184390809Y-101785526D01*
X184390809Y-101785526D02*
X184343190Y-101880764D01*
X184343190Y-101880764D02*
X184295571Y-101928383D01*
X184295571Y-101928383D02*
X184200333Y-101976002D01*
X184200333Y-101976002D02*
X184105095Y-101976002D01*
X184105095Y-101976002D02*
X184009857Y-101928383D01*
X184009857Y-101928383D02*
X183962238Y-101880764D01*
X183962238Y-101880764D02*
X183914619Y-101785526D01*
X183914619Y-101785526D02*
X183914619Y-101547431D01*
X183914619Y-101547431D02*
X183962238Y-101404574D01*
D11*
G36*
X119715930Y-124867890D02*
G01*
X115123820Y-124867890D01*
X115123820Y-124287636D01*
X115474467Y-124287636D01*
X115474467Y-124316900D01*
X115485666Y-124343936D01*
X115506358Y-124364628D01*
X115533394Y-124375827D01*
X115548026Y-124377268D01*
X115853978Y-124377268D01*
X115853978Y-124683220D01*
X115855419Y-124697852D01*
X115866618Y-124724888D01*
X115887310Y-124745580D01*
X115914346Y-124756779D01*
X115943610Y-124756779D01*
X115970646Y-124745580D01*
X115991338Y-124724888D01*
X116002537Y-124697852D01*
X116003978Y-124683220D01*
X116003978Y-124377268D01*
X116309931Y-124377268D01*
X116324563Y-124375827D01*
X116351599Y-124364628D01*
X116372291Y-124343936D01*
X116383490Y-124316900D01*
X116383490Y-124287636D01*
X117084411Y-124287636D01*
X117084411Y-124316900D01*
X117095610Y-124343936D01*
X117116302Y-124364628D01*
X117143338Y-124375827D01*
X117157970Y-124377268D01*
X117463922Y-124377268D01*
X117463922Y-124683220D01*
X117465363Y-124697852D01*
X117476562Y-124724888D01*
X117497254Y-124745580D01*
X117524290Y-124756779D01*
X117553554Y-124756779D01*
X117580590Y-124745580D01*
X117601282Y-124724888D01*
X117612481Y-124697852D01*
X117613922Y-124683220D01*
X117613922Y-124377268D01*
X117919875Y-124377268D01*
X117934507Y-124375827D01*
X117961543Y-124364628D01*
X117982235Y-124343936D01*
X117993434Y-124316900D01*
X117993434Y-124287636D01*
X118694355Y-124287636D01*
X118694355Y-124316900D01*
X118705554Y-124343936D01*
X118726246Y-124364628D01*
X118753282Y-124375827D01*
X118767914Y-124377268D01*
X119073866Y-124377268D01*
X119073866Y-124683220D01*
X119075307Y-124697852D01*
X119086506Y-124724888D01*
X119107198Y-124745580D01*
X119134234Y-124756779D01*
X119163498Y-124756779D01*
X119190534Y-124745580D01*
X119211226Y-124724888D01*
X119222425Y-124697852D01*
X119223866Y-124683220D01*
X119223866Y-124377268D01*
X119529819Y-124377268D01*
X119544451Y-124375827D01*
X119571487Y-124364628D01*
X119592179Y-124343936D01*
X119603378Y-124316900D01*
X119603378Y-124287636D01*
X119592179Y-124260600D01*
X119571487Y-124239908D01*
X119544451Y-124228709D01*
X119529819Y-124227268D01*
X119223866Y-124227268D01*
X119223866Y-123921316D01*
X119222425Y-123906684D01*
X119211226Y-123879648D01*
X119190534Y-123858956D01*
X119163498Y-123847757D01*
X119134234Y-123847757D01*
X119107198Y-123858956D01*
X119086506Y-123879648D01*
X119075307Y-123906684D01*
X119073866Y-123921316D01*
X119073866Y-124227268D01*
X118767914Y-124227268D01*
X118753282Y-124228709D01*
X118726246Y-124239908D01*
X118705554Y-124260600D01*
X118694355Y-124287636D01*
X117993434Y-124287636D01*
X117982235Y-124260600D01*
X117961543Y-124239908D01*
X117934507Y-124228709D01*
X117919875Y-124227268D01*
X117613922Y-124227268D01*
X117613922Y-123921316D01*
X117612481Y-123906684D01*
X117601282Y-123879648D01*
X117580590Y-123858956D01*
X117553554Y-123847757D01*
X117524290Y-123847757D01*
X117497254Y-123858956D01*
X117476562Y-123879648D01*
X117465363Y-123906684D01*
X117463922Y-123921316D01*
X117463922Y-124227268D01*
X117157970Y-124227268D01*
X117143338Y-124228709D01*
X117116302Y-124239908D01*
X117095610Y-124260600D01*
X117084411Y-124287636D01*
X116383490Y-124287636D01*
X116372291Y-124260600D01*
X116351599Y-124239908D01*
X116324563Y-124228709D01*
X116309931Y-124227268D01*
X116003978Y-124227268D01*
X116003978Y-123921316D01*
X116002537Y-123906684D01*
X115991338Y-123879648D01*
X115970646Y-123858956D01*
X115943610Y-123847757D01*
X115914346Y-123847757D01*
X115887310Y-123858956D01*
X115866618Y-123879648D01*
X115855419Y-123906684D01*
X115853978Y-123921316D01*
X115853978Y-124227268D01*
X115548026Y-124227268D01*
X115533394Y-124228709D01*
X115506358Y-124239908D01*
X115485666Y-124260600D01*
X115474467Y-124287636D01*
X115123820Y-124287636D01*
X115123820Y-123207109D01*
X115234931Y-123207109D01*
X115236372Y-123214313D01*
X115236372Y-123221662D01*
X115239213Y-123228522D01*
X115240670Y-123235803D01*
X115244758Y-123241908D01*
X115247571Y-123248698D01*
X115252821Y-123253948D01*
X115256953Y-123260118D01*
X115268211Y-123269338D01*
X115268263Y-123269390D01*
X115268285Y-123269399D01*
X115268328Y-123269434D01*
X115405006Y-123360552D01*
X115486387Y-123441933D01*
X115528563Y-123526285D01*
X115536395Y-123538728D01*
X115558503Y-123557901D01*
X115586264Y-123567155D01*
X115615454Y-123565081D01*
X115641629Y-123551993D01*
X115660802Y-123529886D01*
X115670056Y-123502124D01*
X115667982Y-123472934D01*
X115662727Y-123459203D01*
X115615108Y-123363965D01*
X115611145Y-123357670D01*
X115610387Y-123355838D01*
X115608695Y-123353776D01*
X115607276Y-123351522D01*
X115605779Y-123350223D01*
X115601059Y-123344473D01*
X115538616Y-123282030D01*
X116234931Y-123282030D01*
X116234931Y-123492744D01*
X116236372Y-123507376D01*
X116247571Y-123534412D01*
X116268263Y-123555104D01*
X116295299Y-123566303D01*
X116324563Y-123566303D01*
X116351599Y-123555104D01*
X116372291Y-123534412D01*
X116383490Y-123507376D01*
X116384931Y-123492744D01*
X116384931Y-122968935D01*
X116844875Y-122968935D01*
X116844875Y-123445125D01*
X116845407Y-123450536D01*
X116845225Y-123452365D01*
X116845763Y-123454151D01*
X116846316Y-123459757D01*
X116850510Y-123469883D01*
X116853678Y-123480381D01*
X116856069Y-123483304D01*
X116857515Y-123486793D01*
X116865268Y-123494546D01*
X116872209Y-123503029D01*
X116875535Y-123504813D01*
X116878207Y-123507485D01*
X116888336Y-123511680D01*
X116897996Y-123516863D01*
X116903520Y-123517970D01*
X116905243Y-123518684D01*
X116907080Y-123518684D01*
X116912412Y-123519753D01*
X117388602Y-123567372D01*
X117403305Y-123567394D01*
X117406921Y-123566303D01*
X117410696Y-123566303D01*
X117420820Y-123562109D01*
X117431321Y-123558941D01*
X117434245Y-123556548D01*
X117437732Y-123555104D01*
X117445480Y-123547355D01*
X117453969Y-123540410D01*
X117455754Y-123537081D01*
X117458425Y-123534411D01*
X117462618Y-123524286D01*
X117467803Y-123514623D01*
X117468178Y-123510863D01*
X117469624Y-123507375D01*
X117469624Y-123496413D01*
X117470715Y-123485504D01*
X117469624Y-123481888D01*
X117469624Y-123478112D01*
X117465429Y-123467985D01*
X117462262Y-123457488D01*
X117459870Y-123454564D01*
X117458425Y-123451076D01*
X117449098Y-123439711D01*
X117410085Y-123400698D01*
X117375827Y-123332182D01*
X117375827Y-123129497D01*
X117410085Y-123060981D01*
X117440492Y-123030574D01*
X117509008Y-122996316D01*
X117711693Y-122996316D01*
X117780209Y-123030574D01*
X117810617Y-123060981D01*
X117844875Y-123129497D01*
X117844875Y-123332182D01*
X117810617Y-123400697D01*
X117771604Y-123439710D01*
X117762276Y-123451076D01*
X117751077Y-123478112D01*
X117751077Y-123507375D01*
X117762275Y-123534411D01*
X117782968Y-123555104D01*
X117810004Y-123566303D01*
X117839267Y-123566303D01*
X117866303Y-123555105D01*
X117877668Y-123545778D01*
X117925288Y-123498159D01*
X117930006Y-123492409D01*
X117931506Y-123491109D01*
X117932928Y-123488849D01*
X117934616Y-123486793D01*
X117935373Y-123484965D01*
X117939338Y-123478666D01*
X117986957Y-123383428D01*
X117992212Y-123369697D01*
X117992403Y-123367007D01*
X117993434Y-123364519D01*
X117994875Y-123349887D01*
X117994875Y-123111792D01*
X117993434Y-123097160D01*
X117992403Y-123094671D01*
X117992212Y-123091982D01*
X117986957Y-123078251D01*
X117939338Y-122983013D01*
X117935373Y-122976713D01*
X117934616Y-122974886D01*
X117932928Y-122972829D01*
X117931506Y-122970570D01*
X117930006Y-122969269D01*
X117925288Y-122963520D01*
X117883083Y-122921316D01*
X118454819Y-122921316D01*
X118454819Y-123540363D01*
X118456260Y-123554995D01*
X118467459Y-123582031D01*
X118488151Y-123602723D01*
X118515187Y-123613922D01*
X118544451Y-123613922D01*
X118571487Y-123602723D01*
X118592179Y-123582031D01*
X118603378Y-123554995D01*
X118604819Y-123540363D01*
X118604819Y-123086598D01*
X118861383Y-123311092D01*
X118867707Y-123315613D01*
X118869103Y-123317009D01*
X118870426Y-123317557D01*
X118873344Y-123319643D01*
X118884881Y-123323544D01*
X118896139Y-123328208D01*
X118898670Y-123328208D01*
X118901065Y-123329018D01*
X118913218Y-123328208D01*
X118925403Y-123328208D01*
X118927739Y-123327240D01*
X118930263Y-123327072D01*
X118941188Y-123321669D01*
X118952439Y-123317009D01*
X118954225Y-123315222D01*
X118956495Y-123314100D01*
X118964520Y-123304927D01*
X118973131Y-123296317D01*
X118974099Y-123293980D01*
X118975765Y-123292076D01*
X118979666Y-123280538D01*
X118984330Y-123269281D01*
X118984681Y-123265710D01*
X118985140Y-123264355D01*
X118985008Y-123262387D01*
X118985771Y-123254649D01*
X118985771Y-123129497D01*
X119020029Y-123060981D01*
X119050436Y-123030574D01*
X119118952Y-122996316D01*
X119321637Y-122996316D01*
X119390153Y-123030574D01*
X119420561Y-123060981D01*
X119454819Y-123129497D01*
X119454819Y-123379801D01*
X119420561Y-123448316D01*
X119381548Y-123487329D01*
X119372220Y-123498695D01*
X119361021Y-123525731D01*
X119361021Y-123554994D01*
X119372219Y-123582030D01*
X119392912Y-123602723D01*
X119419948Y-123613922D01*
X119449211Y-123613922D01*
X119476247Y-123602724D01*
X119487612Y-123593397D01*
X119535232Y-123545778D01*
X119539950Y-123540028D01*
X119541450Y-123538728D01*
X119542872Y-123536468D01*
X119544560Y-123534412D01*
X119545317Y-123532584D01*
X119549282Y-123526285D01*
X119596901Y-123431047D01*
X119602156Y-123417316D01*
X119602347Y-123414626D01*
X119603378Y-123412138D01*
X119604819Y-123397506D01*
X119604819Y-123111792D01*
X119603378Y-123097160D01*
X119602347Y-123094671D01*
X119602156Y-123091982D01*
X119596901Y-123078251D01*
X119549282Y-122983013D01*
X119545317Y-122976713D01*
X119544560Y-122974886D01*
X119542872Y-122972829D01*
X119541450Y-122970570D01*
X119539950Y-122969269D01*
X119535232Y-122963520D01*
X119487612Y-122915901D01*
X119481863Y-122911183D01*
X119480564Y-122909685D01*
X119478305Y-122908263D01*
X119476247Y-122906574D01*
X119474417Y-122905816D01*
X119468121Y-122901853D01*
X119372883Y-122854234D01*
X119359151Y-122848979D01*
X119356463Y-122848788D01*
X119353974Y-122847757D01*
X119339342Y-122846316D01*
X119101247Y-122846316D01*
X119086615Y-122847757D01*
X119084126Y-122848787D01*
X119081437Y-122848979D01*
X119067706Y-122854234D01*
X118972468Y-122901853D01*
X118966168Y-122905817D01*
X118964341Y-122906575D01*
X118962284Y-122908263D01*
X118960025Y-122909685D01*
X118958725Y-122911183D01*
X118952976Y-122915902D01*
X118905357Y-122963521D01*
X118900638Y-122969270D01*
X118899140Y-122970570D01*
X118897718Y-122972829D01*
X118896030Y-122974886D01*
X118895272Y-122976713D01*
X118891308Y-122983013D01*
X118843689Y-123078251D01*
X118838516Y-123091768D01*
X118579207Y-122864873D01*
X118572882Y-122860351D01*
X118571487Y-122858956D01*
X118570163Y-122858407D01*
X118567246Y-122856322D01*
X118555708Y-122852420D01*
X118544451Y-122847757D01*
X118541920Y-122847757D01*
X118539525Y-122846947D01*
X118527372Y-122847757D01*
X118515187Y-122847757D01*
X118512850Y-122848724D01*
X118510327Y-122848893D01*
X118499401Y-122854295D01*
X118488151Y-122858956D01*
X118486364Y-122860742D01*
X118484095Y-122861865D01*
X118476069Y-122871037D01*
X118467459Y-122879648D01*
X118466490Y-122881984D01*
X118464825Y-122883889D01*
X118460923Y-122895426D01*
X118456260Y-122906684D01*
X118455908Y-122910254D01*
X118455450Y-122911610D01*
X118455581Y-122913577D01*
X118454819Y-122921316D01*
X117883083Y-122921316D01*
X117877668Y-122915901D01*
X117871919Y-122911183D01*
X117870620Y-122909685D01*
X117868361Y-122908263D01*
X117866303Y-122906574D01*
X117864473Y-122905816D01*
X117858177Y-122901853D01*
X117762939Y-122854234D01*
X117749207Y-122848979D01*
X117746519Y-122848788D01*
X117744030Y-122847757D01*
X117729398Y-122846316D01*
X117491303Y-122846316D01*
X117476671Y-122847757D01*
X117474182Y-122848787D01*
X117471493Y-122848979D01*
X117457762Y-122854234D01*
X117362524Y-122901853D01*
X117356224Y-122905817D01*
X117354397Y-122906575D01*
X117352340Y-122908263D01*
X117350081Y-122909685D01*
X117348781Y-122911183D01*
X117343032Y-122915902D01*
X117295413Y-122963521D01*
X117290694Y-122969270D01*
X117289196Y-122970570D01*
X117287774Y-122972829D01*
X117286086Y-122974886D01*
X117285328Y-122976713D01*
X117281364Y-122983013D01*
X117233745Y-123078251D01*
X117228490Y-123091983D01*
X117228299Y-123094670D01*
X117227268Y-123097160D01*
X117225827Y-123111792D01*
X117225827Y-123349887D01*
X117227268Y-123364519D01*
X117228299Y-123367008D01*
X117228490Y-123369696D01*
X117233745Y-123383428D01*
X117243065Y-123402069D01*
X116994875Y-123377250D01*
X116994875Y-122968935D01*
X116993434Y-122954303D01*
X116982235Y-122927267D01*
X116961543Y-122906575D01*
X116934507Y-122895376D01*
X116905243Y-122895376D01*
X116878207Y-122906575D01*
X116857515Y-122927267D01*
X116846316Y-122954303D01*
X116844875Y-122968935D01*
X116384931Y-122968935D01*
X116384931Y-122921316D01*
X116383490Y-122906684D01*
X116372291Y-122879648D01*
X116351599Y-122858956D01*
X116324563Y-122847757D01*
X116295299Y-122847757D01*
X116268263Y-122858956D01*
X116247571Y-122879648D01*
X116236372Y-122906684D01*
X116234931Y-122921316D01*
X116234931Y-123132030D01*
X115309931Y-123132030D01*
X115309878Y-123132035D01*
X115309852Y-123132030D01*
X115309775Y-123132045D01*
X115295299Y-123133471D01*
X115288438Y-123136312D01*
X115281158Y-123137769D01*
X115275052Y-123141857D01*
X115268263Y-123144670D01*
X115263012Y-123149920D01*
X115256843Y-123154052D01*
X115252766Y-123160166D01*
X115247571Y-123165362D01*
X115244729Y-123172222D01*
X115240610Y-123178401D01*
X115239184Y-123185609D01*
X115236372Y-123192398D01*
X115236372Y-123199824D01*
X115234931Y-123207109D01*
X115123820Y-123207109D01*
X115123820Y-122159411D01*
X115234931Y-122159411D01*
X115234931Y-122397506D01*
X115236372Y-122412138D01*
X115237403Y-122414627D01*
X115237594Y-122417315D01*
X115242849Y-122431047D01*
X115290468Y-122526285D01*
X115294432Y-122532584D01*
X115295190Y-122534412D01*
X115296878Y-122536468D01*
X115298300Y-122538728D01*
X115299798Y-122540027D01*
X115304517Y-122545777D01*
X115352136Y-122593396D01*
X115363501Y-122602723D01*
X115390537Y-122613922D01*
X115419800Y-122613922D01*
X115446836Y-122602723D01*
X115467529Y-122582030D01*
X115478728Y-122554994D01*
X115478728Y-122525731D01*
X115467529Y-122498695D01*
X115458202Y-122487330D01*
X115419189Y-122448317D01*
X115384931Y-122379801D01*
X115384931Y-122177116D01*
X115419189Y-122108600D01*
X115449596Y-122078193D01*
X115518112Y-122043935D01*
X115583475Y-122043935D01*
X115697988Y-122082106D01*
X116256898Y-122641015D01*
X116268263Y-122650343D01*
X116287380Y-122658261D01*
X116295299Y-122661541D01*
X116295300Y-122661541D01*
X116324563Y-122661541D01*
X116351599Y-122650342D01*
X116372292Y-122629650D01*
X116383444Y-122602724D01*
X116383490Y-122602614D01*
X116384931Y-122587982D01*
X116384931Y-121968935D01*
X116384007Y-121959555D01*
X116845464Y-121959555D01*
X116847539Y-121988745D01*
X116860625Y-122014918D01*
X116882732Y-122034092D01*
X116896158Y-122040086D01*
X117682704Y-122302268D01*
X116896158Y-122564450D01*
X116882732Y-122570444D01*
X116860625Y-122589618D01*
X116847539Y-122615791D01*
X116845464Y-122644981D01*
X116854718Y-122672744D01*
X116873892Y-122694851D01*
X116900065Y-122707937D01*
X116929255Y-122710012D01*
X116943592Y-122706752D01*
X117629513Y-122478112D01*
X119361021Y-122478112D01*
X119361021Y-122507375D01*
X119372219Y-122534411D01*
X119372220Y-122534412D01*
X119381548Y-122545778D01*
X119429167Y-122593396D01*
X119440533Y-122602724D01*
X119467569Y-122613922D01*
X119496832Y-122613922D01*
X119523868Y-122602723D01*
X119535233Y-122593396D01*
X119582852Y-122545777D01*
X119592179Y-122534412D01*
X119603378Y-122507376D01*
X119603378Y-122478113D01*
X119595775Y-122459757D01*
X119592179Y-122451076D01*
X119582852Y-122439711D01*
X119535233Y-122392092D01*
X119523868Y-122382765D01*
X119523866Y-122382764D01*
X119496832Y-122371566D01*
X119467569Y-122371566D01*
X119440533Y-122382764D01*
X119429167Y-122392092D01*
X119381548Y-122439710D01*
X119372220Y-122451076D01*
X119372219Y-122451077D01*
X119368624Y-122459757D01*
X119361021Y-122478112D01*
X117629513Y-122478112D01*
X117943592Y-122373419D01*
X117957017Y-122367425D01*
X117961064Y-122363914D01*
X117965858Y-122361518D01*
X117972022Y-122354410D01*
X117979124Y-122348251D01*
X117981519Y-122343459D01*
X117985032Y-122339410D01*
X117988006Y-122330487D01*
X117992211Y-122322078D01*
X117992590Y-122316733D01*
X117994286Y-122311648D01*
X117993619Y-122302268D01*
X117994286Y-122292888D01*
X117992590Y-122287802D01*
X117992211Y-122282458D01*
X117988006Y-122274048D01*
X117985032Y-122265126D01*
X117981519Y-122261076D01*
X117979124Y-122256285D01*
X117972022Y-122250125D01*
X117965858Y-122243018D01*
X117961064Y-122240621D01*
X117957017Y-122237111D01*
X117943592Y-122231117D01*
X116943592Y-121897784D01*
X116929255Y-121894524D01*
X116900065Y-121896599D01*
X116873892Y-121909685D01*
X116854718Y-121931792D01*
X116845464Y-121959555D01*
X116384007Y-121959555D01*
X116383490Y-121954303D01*
X116372291Y-121927267D01*
X116351599Y-121906575D01*
X116324563Y-121895376D01*
X116295299Y-121895376D01*
X116268263Y-121906575D01*
X116247571Y-121927267D01*
X116236372Y-121954303D01*
X116234931Y-121968935D01*
X116234931Y-122406916D01*
X115791535Y-121963521D01*
X115780170Y-121954194D01*
X115777679Y-121953162D01*
X115775644Y-121951397D01*
X115762219Y-121945403D01*
X115619362Y-121897784D01*
X115612108Y-121896134D01*
X115610277Y-121895376D01*
X115607622Y-121895114D01*
X115605025Y-121894524D01*
X115603050Y-121894664D01*
X115595645Y-121893935D01*
X115500407Y-121893935D01*
X115485775Y-121895376D01*
X115483286Y-121896406D01*
X115480597Y-121896598D01*
X115466866Y-121901853D01*
X115371628Y-121949472D01*
X115365328Y-121953436D01*
X115363501Y-121954194D01*
X115361444Y-121955882D01*
X115359185Y-121957304D01*
X115357885Y-121958802D01*
X115352136Y-121963521D01*
X115304517Y-122011140D01*
X115299798Y-122016889D01*
X115298300Y-122018189D01*
X115296878Y-122020448D01*
X115295190Y-122022505D01*
X115294432Y-122024332D01*
X115290468Y-122030632D01*
X115242849Y-122125870D01*
X115237594Y-122139602D01*
X115237403Y-122142289D01*
X115236372Y-122144779D01*
X115234931Y-122159411D01*
X115123820Y-122159411D01*
X115123820Y-121007174D01*
X115235520Y-121007174D01*
X115237595Y-121036364D01*
X115250681Y-121062537D01*
X115272788Y-121081711D01*
X115286214Y-121087705D01*
X116072760Y-121349887D01*
X115286214Y-121612069D01*
X115272788Y-121618063D01*
X115250681Y-121637237D01*
X115237595Y-121663410D01*
X115235520Y-121692600D01*
X115244774Y-121720363D01*
X115263948Y-121742470D01*
X115290121Y-121755556D01*
X115319311Y-121757631D01*
X115333648Y-121754371D01*
X116118527Y-121492745D01*
X118454819Y-121492745D01*
X118454819Y-122111792D01*
X118456260Y-122126424D01*
X118467459Y-122153460D01*
X118488151Y-122174152D01*
X118515187Y-122185351D01*
X118544451Y-122185351D01*
X118571487Y-122174152D01*
X118592179Y-122153460D01*
X118603378Y-122126424D01*
X118604819Y-122111792D01*
X118604819Y-121658027D01*
X118861383Y-121882521D01*
X118867707Y-121887042D01*
X118869103Y-121888438D01*
X118870426Y-121888986D01*
X118873344Y-121891072D01*
X118884881Y-121894973D01*
X118896139Y-121899637D01*
X118898670Y-121899637D01*
X118901065Y-121900447D01*
X118913218Y-121899637D01*
X118925403Y-121899637D01*
X118927739Y-121898669D01*
X118930263Y-121898501D01*
X118941188Y-121893098D01*
X118952439Y-121888438D01*
X118954225Y-121886651D01*
X118956495Y-121885529D01*
X118964520Y-121876356D01*
X118973131Y-121867746D01*
X118974099Y-121865409D01*
X118975765Y-121863505D01*
X118979666Y-121851967D01*
X118984330Y-121840710D01*
X118984681Y-121837139D01*
X118985140Y-121835784D01*
X118985008Y-121833816D01*
X118985771Y-121826078D01*
X118985771Y-121700926D01*
X119020029Y-121632410D01*
X119050436Y-121602003D01*
X119118952Y-121567745D01*
X119321637Y-121567745D01*
X119390153Y-121602003D01*
X119420561Y-121632410D01*
X119454819Y-121700926D01*
X119454819Y-121951230D01*
X119420561Y-122019745D01*
X119381548Y-122058758D01*
X119372220Y-122070124D01*
X119361021Y-122097160D01*
X119361021Y-122126423D01*
X119372219Y-122153459D01*
X119392912Y-122174152D01*
X119419948Y-122185351D01*
X119449211Y-122185351D01*
X119476247Y-122174153D01*
X119487612Y-122164826D01*
X119535232Y-122117207D01*
X119539950Y-122111457D01*
X119541450Y-122110157D01*
X119542872Y-122107897D01*
X119544560Y-122105841D01*
X119545317Y-122104013D01*
X119549282Y-122097714D01*
X119596901Y-122002476D01*
X119602156Y-121988745D01*
X119602347Y-121986055D01*
X119603378Y-121983567D01*
X119604819Y-121968935D01*
X119604819Y-121683221D01*
X119603378Y-121668589D01*
X119602347Y-121666100D01*
X119602156Y-121663411D01*
X119596901Y-121649680D01*
X119549282Y-121554442D01*
X119545317Y-121548142D01*
X119544560Y-121546315D01*
X119542872Y-121544258D01*
X119541450Y-121541999D01*
X119539950Y-121540698D01*
X119535232Y-121534949D01*
X119487612Y-121487330D01*
X119481863Y-121482612D01*
X119480564Y-121481114D01*
X119478305Y-121479692D01*
X119476247Y-121478003D01*
X119474417Y-121477245D01*
X119468121Y-121473282D01*
X119372883Y-121425663D01*
X119359151Y-121420408D01*
X119356463Y-121420217D01*
X119353974Y-121419186D01*
X119339342Y-121417745D01*
X119101247Y-121417745D01*
X119086615Y-121419186D01*
X119084126Y-121420216D01*
X119081437Y-121420408D01*
X119067706Y-121425663D01*
X118972468Y-121473282D01*
X118966168Y-121477246D01*
X118964341Y-121478004D01*
X118962284Y-121479692D01*
X118960025Y-121481114D01*
X118958725Y-121482612D01*
X118952976Y-121487331D01*
X118905357Y-121534950D01*
X118900638Y-121540699D01*
X118899140Y-121541999D01*
X118897718Y-121544258D01*
X118896030Y-121546315D01*
X118895272Y-121548142D01*
X118891308Y-121554442D01*
X118843689Y-121649680D01*
X118838516Y-121663197D01*
X118579207Y-121436302D01*
X118572882Y-121431780D01*
X118571487Y-121430385D01*
X118570163Y-121429836D01*
X118567246Y-121427751D01*
X118555708Y-121423849D01*
X118544451Y-121419186D01*
X118541920Y-121419186D01*
X118539525Y-121418376D01*
X118527372Y-121419186D01*
X118515187Y-121419186D01*
X118512850Y-121420153D01*
X118510327Y-121420322D01*
X118499401Y-121425724D01*
X118488151Y-121430385D01*
X118486364Y-121432171D01*
X118484095Y-121433294D01*
X118476069Y-121442466D01*
X118467459Y-121451077D01*
X118466490Y-121453413D01*
X118464825Y-121455318D01*
X118460923Y-121466855D01*
X118456260Y-121478113D01*
X118455908Y-121481683D01*
X118455450Y-121483039D01*
X118455581Y-121485006D01*
X118454819Y-121492745D01*
X116118527Y-121492745D01*
X116333648Y-121421038D01*
X116347073Y-121415044D01*
X116351120Y-121411533D01*
X116355914Y-121409137D01*
X116362078Y-121402029D01*
X116369180Y-121395870D01*
X116371575Y-121391078D01*
X116375088Y-121387029D01*
X116378062Y-121378106D01*
X116382267Y-121369697D01*
X116382646Y-121364352D01*
X116384342Y-121359267D01*
X116383675Y-121349887D01*
X116384342Y-121340507D01*
X116382646Y-121335421D01*
X116382267Y-121330077D01*
X116378062Y-121321667D01*
X116375088Y-121312745D01*
X116371575Y-121308695D01*
X116369180Y-121303904D01*
X116362078Y-121297744D01*
X116355914Y-121290637D01*
X116351120Y-121288240D01*
X116347073Y-121284730D01*
X116333648Y-121278736D01*
X115333648Y-120945403D01*
X115319311Y-120942143D01*
X115290121Y-120944218D01*
X115263948Y-120957304D01*
X115244774Y-120979411D01*
X115235520Y-121007174D01*
X115123820Y-121007174D01*
X115123820Y-120530984D01*
X118455408Y-120530984D01*
X118457483Y-120560174D01*
X118470569Y-120586347D01*
X118492676Y-120605521D01*
X118506102Y-120611515D01*
X119292648Y-120873697D01*
X118506102Y-121135879D01*
X118492676Y-121141873D01*
X118470569Y-121161047D01*
X118457483Y-121187220D01*
X118455408Y-121216410D01*
X118464662Y-121244173D01*
X118483836Y-121266280D01*
X118510009Y-121279366D01*
X118539199Y-121281441D01*
X118553536Y-121278181D01*
X119553536Y-120944848D01*
X119566961Y-120938854D01*
X119571008Y-120935343D01*
X119575802Y-120932947D01*
X119581966Y-120925839D01*
X119589068Y-120919680D01*
X119591463Y-120914888D01*
X119594976Y-120910839D01*
X119597950Y-120901916D01*
X119602155Y-120893507D01*
X119602534Y-120888162D01*
X119604230Y-120883077D01*
X119603563Y-120873697D01*
X119604230Y-120864317D01*
X119602534Y-120859231D01*
X119602155Y-120853887D01*
X119597950Y-120845477D01*
X119594976Y-120836555D01*
X119591463Y-120832505D01*
X119589068Y-120827714D01*
X119581966Y-120821554D01*
X119575802Y-120814447D01*
X119571008Y-120812050D01*
X119566961Y-120808540D01*
X119553536Y-120802546D01*
X118553536Y-120469213D01*
X118539199Y-120465953D01*
X118510009Y-120468028D01*
X118483836Y-120481114D01*
X118464662Y-120503221D01*
X118455408Y-120530984D01*
X115123820Y-120530984D01*
X115123820Y-120354842D01*
X119715930Y-120354842D01*
X119715930Y-124867890D01*
G37*
D12*
X117754809Y-107874761D02*
X118111952Y-107874761D01*
X118111952Y-107874761D02*
X118183380Y-107898570D01*
X118183380Y-107898570D02*
X118231000Y-107946189D01*
X118231000Y-107946189D02*
X118254809Y-108017618D01*
X118254809Y-108017618D02*
X118254809Y-108065237D01*
X117754809Y-107684285D02*
X117754809Y-107374761D01*
X117754809Y-107374761D02*
X117945285Y-107541428D01*
X117945285Y-107541428D02*
X117945285Y-107469999D01*
X117945285Y-107469999D02*
X117969095Y-107422380D01*
X117969095Y-107422380D02*
X117992904Y-107398571D01*
X117992904Y-107398571D02*
X118040523Y-107374761D01*
X118040523Y-107374761D02*
X118159571Y-107374761D01*
X118159571Y-107374761D02*
X118207190Y-107398571D01*
X118207190Y-107398571D02*
X118231000Y-107422380D01*
X118231000Y-107422380D02*
X118254809Y-107469999D01*
X118254809Y-107469999D02*
X118254809Y-107612856D01*
X118254809Y-107612856D02*
X118231000Y-107660475D01*
X118231000Y-107660475D02*
X118207190Y-107684285D01*
X117969095Y-107089047D02*
X117945285Y-107136666D01*
X117945285Y-107136666D02*
X117921476Y-107160476D01*
X117921476Y-107160476D02*
X117873857Y-107184285D01*
X117873857Y-107184285D02*
X117850047Y-107184285D01*
X117850047Y-107184285D02*
X117802428Y-107160476D01*
X117802428Y-107160476D02*
X117778619Y-107136666D01*
X117778619Y-107136666D02*
X117754809Y-107089047D01*
X117754809Y-107089047D02*
X117754809Y-106993809D01*
X117754809Y-106993809D02*
X117778619Y-106946190D01*
X117778619Y-106946190D02*
X117802428Y-106922381D01*
X117802428Y-106922381D02*
X117850047Y-106898571D01*
X117850047Y-106898571D02*
X117873857Y-106898571D01*
X117873857Y-106898571D02*
X117921476Y-106922381D01*
X117921476Y-106922381D02*
X117945285Y-106946190D01*
X117945285Y-106946190D02*
X117969095Y-106993809D01*
X117969095Y-106993809D02*
X117969095Y-107089047D01*
X117969095Y-107089047D02*
X117992904Y-107136666D01*
X117992904Y-107136666D02*
X118016714Y-107160476D01*
X118016714Y-107160476D02*
X118064333Y-107184285D01*
X118064333Y-107184285D02*
X118159571Y-107184285D01*
X118159571Y-107184285D02*
X118207190Y-107160476D01*
X118207190Y-107160476D02*
X118231000Y-107136666D01*
X118231000Y-107136666D02*
X118254809Y-107089047D01*
X118254809Y-107089047D02*
X118254809Y-106993809D01*
X118254809Y-106993809D02*
X118231000Y-106946190D01*
X118231000Y-106946190D02*
X118207190Y-106922381D01*
X118207190Y-106922381D02*
X118159571Y-106898571D01*
X118159571Y-106898571D02*
X118064333Y-106898571D01*
X118064333Y-106898571D02*
X118016714Y-106922381D01*
X118016714Y-106922381D02*
X117992904Y-106946190D01*
X117992904Y-106946190D02*
X117969095Y-106993809D01*
X157076666Y-92347190D02*
X157052857Y-92371000D01*
X157052857Y-92371000D02*
X156981428Y-92394809D01*
X156981428Y-92394809D02*
X156933809Y-92394809D01*
X156933809Y-92394809D02*
X156862381Y-92371000D01*
X156862381Y-92371000D02*
X156814762Y-92323380D01*
X156814762Y-92323380D02*
X156790952Y-92275761D01*
X156790952Y-92275761D02*
X156767143Y-92180523D01*
X156767143Y-92180523D02*
X156767143Y-92109095D01*
X156767143Y-92109095D02*
X156790952Y-92013857D01*
X156790952Y-92013857D02*
X156814762Y-91966238D01*
X156814762Y-91966238D02*
X156862381Y-91918619D01*
X156862381Y-91918619D02*
X156933809Y-91894809D01*
X156933809Y-91894809D02*
X156981428Y-91894809D01*
X156981428Y-91894809D02*
X157052857Y-91918619D01*
X157052857Y-91918619D02*
X157076666Y-91942428D01*
X157552857Y-92394809D02*
X157267143Y-92394809D01*
X157410000Y-92394809D02*
X157410000Y-91894809D01*
X157410000Y-91894809D02*
X157362381Y-91966238D01*
X157362381Y-91966238D02*
X157314762Y-92013857D01*
X157314762Y-92013857D02*
X157267143Y-92037666D01*
X117224809Y-87254761D02*
X117581952Y-87254761D01*
X117581952Y-87254761D02*
X117653380Y-87278570D01*
X117653380Y-87278570D02*
X117701000Y-87326189D01*
X117701000Y-87326189D02*
X117724809Y-87397618D01*
X117724809Y-87397618D02*
X117724809Y-87445237D01*
X117724809Y-86754761D02*
X117724809Y-87040475D01*
X117724809Y-86897618D02*
X117224809Y-86897618D01*
X117224809Y-86897618D02*
X117296238Y-86945237D01*
X117296238Y-86945237D02*
X117343857Y-86992856D01*
X117343857Y-86992856D02*
X117367666Y-87040475D01*
X117724809Y-86278571D02*
X117724809Y-86564285D01*
X117724809Y-86421428D02*
X117224809Y-86421428D01*
X117224809Y-86421428D02*
X117296238Y-86469047D01*
X117296238Y-86469047D02*
X117343857Y-86516666D01*
X117343857Y-86516666D02*
X117367666Y-86564285D01*
X173783333Y-114674809D02*
X173783333Y-115031952D01*
X173783333Y-115031952D02*
X173759524Y-115103380D01*
X173759524Y-115103380D02*
X173711905Y-115151000D01*
X173711905Y-115151000D02*
X173640476Y-115174809D01*
X173640476Y-115174809D02*
X173592857Y-115174809D01*
X174235714Y-114841476D02*
X174235714Y-115174809D01*
X174116666Y-114651000D02*
X173997619Y-115008142D01*
X173997619Y-115008142D02*
X174307142Y-115008142D01*
X157295238Y-78624809D02*
X157295238Y-78981952D01*
X157295238Y-78981952D02*
X157271429Y-79053380D01*
X157271429Y-79053380D02*
X157223810Y-79101000D01*
X157223810Y-79101000D02*
X157152381Y-79124809D01*
X157152381Y-79124809D02*
X157104762Y-79124809D01*
X157509524Y-78672428D02*
X157533333Y-78648619D01*
X157533333Y-78648619D02*
X157580952Y-78624809D01*
X157580952Y-78624809D02*
X157700000Y-78624809D01*
X157700000Y-78624809D02*
X157747619Y-78648619D01*
X157747619Y-78648619D02*
X157771428Y-78672428D01*
X157771428Y-78672428D02*
X157795238Y-78720047D01*
X157795238Y-78720047D02*
X157795238Y-78767666D01*
X157795238Y-78767666D02*
X157771428Y-78839095D01*
X157771428Y-78839095D02*
X157485714Y-79124809D01*
X157485714Y-79124809D02*
X157795238Y-79124809D01*
X158247618Y-78624809D02*
X158009523Y-78624809D01*
X158009523Y-78624809D02*
X157985714Y-78862904D01*
X157985714Y-78862904D02*
X158009523Y-78839095D01*
X158009523Y-78839095D02*
X158057142Y-78815285D01*
X158057142Y-78815285D02*
X158176190Y-78815285D01*
X158176190Y-78815285D02*
X158223809Y-78839095D01*
X158223809Y-78839095D02*
X158247618Y-78862904D01*
X158247618Y-78862904D02*
X158271428Y-78910523D01*
X158271428Y-78910523D02*
X158271428Y-79029571D01*
X158271428Y-79029571D02*
X158247618Y-79077190D01*
X158247618Y-79077190D02*
X158223809Y-79101000D01*
X158223809Y-79101000D02*
X158176190Y-79124809D01*
X158176190Y-79124809D02*
X158057142Y-79124809D01*
X158057142Y-79124809D02*
X158009523Y-79101000D01*
X158009523Y-79101000D02*
X157985714Y-79077190D01*
X131169047Y-122834809D02*
X131169047Y-123239571D01*
X131169047Y-123239571D02*
X131192857Y-123287190D01*
X131192857Y-123287190D02*
X131216666Y-123311000D01*
X131216666Y-123311000D02*
X131264285Y-123334809D01*
X131264285Y-123334809D02*
X131359523Y-123334809D01*
X131359523Y-123334809D02*
X131407142Y-123311000D01*
X131407142Y-123311000D02*
X131430952Y-123287190D01*
X131430952Y-123287190D02*
X131454761Y-123239571D01*
X131454761Y-123239571D02*
X131454761Y-122834809D01*
X131645238Y-122834809D02*
X131954762Y-122834809D01*
X131954762Y-122834809D02*
X131788095Y-123025285D01*
X131788095Y-123025285D02*
X131859524Y-123025285D01*
X131859524Y-123025285D02*
X131907143Y-123049095D01*
X131907143Y-123049095D02*
X131930952Y-123072904D01*
X131930952Y-123072904D02*
X131954762Y-123120523D01*
X131954762Y-123120523D02*
X131954762Y-123239571D01*
X131954762Y-123239571D02*
X131930952Y-123287190D01*
X131930952Y-123287190D02*
X131907143Y-123311000D01*
X131907143Y-123311000D02*
X131859524Y-123334809D01*
X131859524Y-123334809D02*
X131716667Y-123334809D01*
X131716667Y-123334809D02*
X131669048Y-123311000D01*
X131669048Y-123311000D02*
X131645238Y-123287190D01*
X180574809Y-103854761D02*
X180931952Y-103854761D01*
X180931952Y-103854761D02*
X181003380Y-103878570D01*
X181003380Y-103878570D02*
X181051000Y-103926189D01*
X181051000Y-103926189D02*
X181074809Y-103997618D01*
X181074809Y-103997618D02*
X181074809Y-104045237D01*
X180574809Y-103664285D02*
X180574809Y-103354761D01*
X180574809Y-103354761D02*
X180765285Y-103521428D01*
X180765285Y-103521428D02*
X180765285Y-103449999D01*
X180765285Y-103449999D02*
X180789095Y-103402380D01*
X180789095Y-103402380D02*
X180812904Y-103378571D01*
X180812904Y-103378571D02*
X180860523Y-103354761D01*
X180860523Y-103354761D02*
X180979571Y-103354761D01*
X180979571Y-103354761D02*
X181027190Y-103378571D01*
X181027190Y-103378571D02*
X181051000Y-103402380D01*
X181051000Y-103402380D02*
X181074809Y-103449999D01*
X181074809Y-103449999D02*
X181074809Y-103592856D01*
X181074809Y-103592856D02*
X181051000Y-103640475D01*
X181051000Y-103640475D02*
X181027190Y-103664285D01*
X180574809Y-102926190D02*
X180574809Y-103021428D01*
X180574809Y-103021428D02*
X180598619Y-103069047D01*
X180598619Y-103069047D02*
X180622428Y-103092857D01*
X180622428Y-103092857D02*
X180693857Y-103140476D01*
X180693857Y-103140476D02*
X180789095Y-103164285D01*
X180789095Y-103164285D02*
X180979571Y-103164285D01*
X180979571Y-103164285D02*
X181027190Y-103140476D01*
X181027190Y-103140476D02*
X181051000Y-103116666D01*
X181051000Y-103116666D02*
X181074809Y-103069047D01*
X181074809Y-103069047D02*
X181074809Y-102973809D01*
X181074809Y-102973809D02*
X181051000Y-102926190D01*
X181051000Y-102926190D02*
X181027190Y-102902381D01*
X181027190Y-102902381D02*
X180979571Y-102878571D01*
X180979571Y-102878571D02*
X180860523Y-102878571D01*
X180860523Y-102878571D02*
X180812904Y-102902381D01*
X180812904Y-102902381D02*
X180789095Y-102926190D01*
X180789095Y-102926190D02*
X180765285Y-102973809D01*
X180765285Y-102973809D02*
X180765285Y-103069047D01*
X180765285Y-103069047D02*
X180789095Y-103116666D01*
X180789095Y-103116666D02*
X180812904Y-103140476D01*
X180812904Y-103140476D02*
X180860523Y-103164285D01*
X144928571Y-115827190D02*
X144904762Y-115851000D01*
X144904762Y-115851000D02*
X144833333Y-115874809D01*
X144833333Y-115874809D02*
X144785714Y-115874809D01*
X144785714Y-115874809D02*
X144714286Y-115851000D01*
X144714286Y-115851000D02*
X144666667Y-115803380D01*
X144666667Y-115803380D02*
X144642857Y-115755761D01*
X144642857Y-115755761D02*
X144619048Y-115660523D01*
X144619048Y-115660523D02*
X144619048Y-115589095D01*
X144619048Y-115589095D02*
X144642857Y-115493857D01*
X144642857Y-115493857D02*
X144666667Y-115446238D01*
X144666667Y-115446238D02*
X144714286Y-115398619D01*
X144714286Y-115398619D02*
X144785714Y-115374809D01*
X144785714Y-115374809D02*
X144833333Y-115374809D01*
X144833333Y-115374809D02*
X144904762Y-115398619D01*
X144904762Y-115398619D02*
X144928571Y-115422428D01*
X145095238Y-115374809D02*
X145404762Y-115374809D01*
X145404762Y-115374809D02*
X145238095Y-115565285D01*
X145238095Y-115565285D02*
X145309524Y-115565285D01*
X145309524Y-115565285D02*
X145357143Y-115589095D01*
X145357143Y-115589095D02*
X145380952Y-115612904D01*
X145380952Y-115612904D02*
X145404762Y-115660523D01*
X145404762Y-115660523D02*
X145404762Y-115779571D01*
X145404762Y-115779571D02*
X145380952Y-115827190D01*
X145380952Y-115827190D02*
X145357143Y-115851000D01*
X145357143Y-115851000D02*
X145309524Y-115874809D01*
X145309524Y-115874809D02*
X145166667Y-115874809D01*
X145166667Y-115874809D02*
X145119048Y-115851000D01*
X145119048Y-115851000D02*
X145095238Y-115827190D01*
X145690476Y-115589095D02*
X145642857Y-115565285D01*
X145642857Y-115565285D02*
X145619047Y-115541476D01*
X145619047Y-115541476D02*
X145595238Y-115493857D01*
X145595238Y-115493857D02*
X145595238Y-115470047D01*
X145595238Y-115470047D02*
X145619047Y-115422428D01*
X145619047Y-115422428D02*
X145642857Y-115398619D01*
X145642857Y-115398619D02*
X145690476Y-115374809D01*
X145690476Y-115374809D02*
X145785714Y-115374809D01*
X145785714Y-115374809D02*
X145833333Y-115398619D01*
X145833333Y-115398619D02*
X145857142Y-115422428D01*
X145857142Y-115422428D02*
X145880952Y-115470047D01*
X145880952Y-115470047D02*
X145880952Y-115493857D01*
X145880952Y-115493857D02*
X145857142Y-115541476D01*
X145857142Y-115541476D02*
X145833333Y-115565285D01*
X145833333Y-115565285D02*
X145785714Y-115589095D01*
X145785714Y-115589095D02*
X145690476Y-115589095D01*
X145690476Y-115589095D02*
X145642857Y-115612904D01*
X145642857Y-115612904D02*
X145619047Y-115636714D01*
X145619047Y-115636714D02*
X145595238Y-115684333D01*
X145595238Y-115684333D02*
X145595238Y-115779571D01*
X145595238Y-115779571D02*
X145619047Y-115827190D01*
X145619047Y-115827190D02*
X145642857Y-115851000D01*
X145642857Y-115851000D02*
X145690476Y-115874809D01*
X145690476Y-115874809D02*
X145785714Y-115874809D01*
X145785714Y-115874809D02*
X145833333Y-115851000D01*
X145833333Y-115851000D02*
X145857142Y-115827190D01*
X145857142Y-115827190D02*
X145880952Y-115779571D01*
X145880952Y-115779571D02*
X145880952Y-115684333D01*
X145880952Y-115684333D02*
X145857142Y-115636714D01*
X145857142Y-115636714D02*
X145833333Y-115612904D01*
X145833333Y-115612904D02*
X145785714Y-115589095D01*
X150195238Y-108724809D02*
X150195238Y-109081952D01*
X150195238Y-109081952D02*
X150171429Y-109153380D01*
X150171429Y-109153380D02*
X150123810Y-109201000D01*
X150123810Y-109201000D02*
X150052381Y-109224809D01*
X150052381Y-109224809D02*
X150004762Y-109224809D01*
X150695238Y-109224809D02*
X150409524Y-109224809D01*
X150552381Y-109224809D02*
X150552381Y-108724809D01*
X150552381Y-108724809D02*
X150504762Y-108796238D01*
X150504762Y-108796238D02*
X150457143Y-108843857D01*
X150457143Y-108843857D02*
X150409524Y-108867666D01*
X150933333Y-109224809D02*
X151028571Y-109224809D01*
X151028571Y-109224809D02*
X151076190Y-109201000D01*
X151076190Y-109201000D02*
X151099999Y-109177190D01*
X151099999Y-109177190D02*
X151147618Y-109105761D01*
X151147618Y-109105761D02*
X151171428Y-109010523D01*
X151171428Y-109010523D02*
X151171428Y-108820047D01*
X151171428Y-108820047D02*
X151147618Y-108772428D01*
X151147618Y-108772428D02*
X151123809Y-108748619D01*
X151123809Y-108748619D02*
X151076190Y-108724809D01*
X151076190Y-108724809D02*
X150980952Y-108724809D01*
X150980952Y-108724809D02*
X150933333Y-108748619D01*
X150933333Y-108748619D02*
X150909523Y-108772428D01*
X150909523Y-108772428D02*
X150885714Y-108820047D01*
X150885714Y-108820047D02*
X150885714Y-108939095D01*
X150885714Y-108939095D02*
X150909523Y-108986714D01*
X150909523Y-108986714D02*
X150933333Y-109010523D01*
X150933333Y-109010523D02*
X150980952Y-109034333D01*
X150980952Y-109034333D02*
X151076190Y-109034333D01*
X151076190Y-109034333D02*
X151123809Y-109010523D01*
X151123809Y-109010523D02*
X151147618Y-108986714D01*
X151147618Y-108986714D02*
X151171428Y-108939095D01*
X179224809Y-103616666D02*
X179581952Y-103616666D01*
X179581952Y-103616666D02*
X179653380Y-103640475D01*
X179653380Y-103640475D02*
X179701000Y-103688094D01*
X179701000Y-103688094D02*
X179724809Y-103759523D01*
X179724809Y-103759523D02*
X179724809Y-103807142D01*
X179272428Y-103402380D02*
X179248619Y-103378571D01*
X179248619Y-103378571D02*
X179224809Y-103330952D01*
X179224809Y-103330952D02*
X179224809Y-103211904D01*
X179224809Y-103211904D02*
X179248619Y-103164285D01*
X179248619Y-103164285D02*
X179272428Y-103140476D01*
X179272428Y-103140476D02*
X179320047Y-103116666D01*
X179320047Y-103116666D02*
X179367666Y-103116666D01*
X179367666Y-103116666D02*
X179439095Y-103140476D01*
X179439095Y-103140476D02*
X179724809Y-103426190D01*
X179724809Y-103426190D02*
X179724809Y-103116666D01*
X128745238Y-105224809D02*
X128745238Y-105581952D01*
X128745238Y-105581952D02*
X128721429Y-105653380D01*
X128721429Y-105653380D02*
X128673810Y-105701000D01*
X128673810Y-105701000D02*
X128602381Y-105724809D01*
X128602381Y-105724809D02*
X128554762Y-105724809D01*
X128935714Y-105224809D02*
X129245238Y-105224809D01*
X129245238Y-105224809D02*
X129078571Y-105415285D01*
X129078571Y-105415285D02*
X129150000Y-105415285D01*
X129150000Y-105415285D02*
X129197619Y-105439095D01*
X129197619Y-105439095D02*
X129221428Y-105462904D01*
X129221428Y-105462904D02*
X129245238Y-105510523D01*
X129245238Y-105510523D02*
X129245238Y-105629571D01*
X129245238Y-105629571D02*
X129221428Y-105677190D01*
X129221428Y-105677190D02*
X129197619Y-105701000D01*
X129197619Y-105701000D02*
X129150000Y-105724809D01*
X129150000Y-105724809D02*
X129007143Y-105724809D01*
X129007143Y-105724809D02*
X128959524Y-105701000D01*
X128959524Y-105701000D02*
X128935714Y-105677190D01*
X129721428Y-105724809D02*
X129435714Y-105724809D01*
X129578571Y-105724809D02*
X129578571Y-105224809D01*
X129578571Y-105224809D02*
X129530952Y-105296238D01*
X129530952Y-105296238D02*
X129483333Y-105343857D01*
X129483333Y-105343857D02*
X129435714Y-105367666D01*
X122730952Y-125824809D02*
X122730952Y-125324809D01*
X122730952Y-125324809D02*
X122850000Y-125324809D01*
X122850000Y-125324809D02*
X122921428Y-125348619D01*
X122921428Y-125348619D02*
X122969047Y-125396238D01*
X122969047Y-125396238D02*
X122992857Y-125443857D01*
X122992857Y-125443857D02*
X123016666Y-125539095D01*
X123016666Y-125539095D02*
X123016666Y-125610523D01*
X123016666Y-125610523D02*
X122992857Y-125705761D01*
X122992857Y-125705761D02*
X122969047Y-125753380D01*
X122969047Y-125753380D02*
X122921428Y-125801000D01*
X122921428Y-125801000D02*
X122850000Y-125824809D01*
X122850000Y-125824809D02*
X122730952Y-125824809D01*
X123207143Y-125372428D02*
X123230952Y-125348619D01*
X123230952Y-125348619D02*
X123278571Y-125324809D01*
X123278571Y-125324809D02*
X123397619Y-125324809D01*
X123397619Y-125324809D02*
X123445238Y-125348619D01*
X123445238Y-125348619D02*
X123469047Y-125372428D01*
X123469047Y-125372428D02*
X123492857Y-125420047D01*
X123492857Y-125420047D02*
X123492857Y-125467666D01*
X123492857Y-125467666D02*
X123469047Y-125539095D01*
X123469047Y-125539095D02*
X123183333Y-125824809D01*
X123183333Y-125824809D02*
X123492857Y-125824809D01*
X175374809Y-85954761D02*
X175731952Y-85954761D01*
X175731952Y-85954761D02*
X175803380Y-85978570D01*
X175803380Y-85978570D02*
X175851000Y-86026189D01*
X175851000Y-86026189D02*
X175874809Y-86097618D01*
X175874809Y-86097618D02*
X175874809Y-86145237D01*
X175374809Y-85764285D02*
X175374809Y-85454761D01*
X175374809Y-85454761D02*
X175565285Y-85621428D01*
X175565285Y-85621428D02*
X175565285Y-85549999D01*
X175565285Y-85549999D02*
X175589095Y-85502380D01*
X175589095Y-85502380D02*
X175612904Y-85478571D01*
X175612904Y-85478571D02*
X175660523Y-85454761D01*
X175660523Y-85454761D02*
X175779571Y-85454761D01*
X175779571Y-85454761D02*
X175827190Y-85478571D01*
X175827190Y-85478571D02*
X175851000Y-85502380D01*
X175851000Y-85502380D02*
X175874809Y-85549999D01*
X175874809Y-85549999D02*
X175874809Y-85692856D01*
X175874809Y-85692856D02*
X175851000Y-85740475D01*
X175851000Y-85740475D02*
X175827190Y-85764285D01*
X175374809Y-85288095D02*
X175374809Y-84954762D01*
X175374809Y-84954762D02*
X175874809Y-85169047D01*
X176124809Y-85904761D02*
X176481952Y-85904761D01*
X176481952Y-85904761D02*
X176553380Y-85928570D01*
X176553380Y-85928570D02*
X176601000Y-85976189D01*
X176601000Y-85976189D02*
X176624809Y-86047618D01*
X176624809Y-86047618D02*
X176624809Y-86095237D01*
X176172428Y-85690475D02*
X176148619Y-85666666D01*
X176148619Y-85666666D02*
X176124809Y-85619047D01*
X176124809Y-85619047D02*
X176124809Y-85499999D01*
X176124809Y-85499999D02*
X176148619Y-85452380D01*
X176148619Y-85452380D02*
X176172428Y-85428571D01*
X176172428Y-85428571D02*
X176220047Y-85404761D01*
X176220047Y-85404761D02*
X176267666Y-85404761D01*
X176267666Y-85404761D02*
X176339095Y-85428571D01*
X176339095Y-85428571D02*
X176624809Y-85714285D01*
X176624809Y-85714285D02*
X176624809Y-85404761D01*
X176624809Y-85166666D02*
X176624809Y-85071428D01*
X176624809Y-85071428D02*
X176601000Y-85023809D01*
X176601000Y-85023809D02*
X176577190Y-85000000D01*
X176577190Y-85000000D02*
X176505761Y-84952381D01*
X176505761Y-84952381D02*
X176410523Y-84928571D01*
X176410523Y-84928571D02*
X176220047Y-84928571D01*
X176220047Y-84928571D02*
X176172428Y-84952381D01*
X176172428Y-84952381D02*
X176148619Y-84976190D01*
X176148619Y-84976190D02*
X176124809Y-85023809D01*
X176124809Y-85023809D02*
X176124809Y-85119047D01*
X176124809Y-85119047D02*
X176148619Y-85166666D01*
X176148619Y-85166666D02*
X176172428Y-85190476D01*
X176172428Y-85190476D02*
X176220047Y-85214285D01*
X176220047Y-85214285D02*
X176339095Y-85214285D01*
X176339095Y-85214285D02*
X176386714Y-85190476D01*
X176386714Y-85190476D02*
X176410523Y-85166666D01*
X176410523Y-85166666D02*
X176434333Y-85119047D01*
X176434333Y-85119047D02*
X176434333Y-85023809D01*
X176434333Y-85023809D02*
X176410523Y-84976190D01*
X176410523Y-84976190D02*
X176386714Y-84952381D01*
X176386714Y-84952381D02*
X176339095Y-84928571D01*
X119519047Y-133324809D02*
X119519047Y-132824809D01*
X119519047Y-133062904D02*
X119804761Y-133062904D01*
X119804761Y-133324809D02*
X119804761Y-132824809D01*
X120257143Y-132991476D02*
X120257143Y-133324809D01*
X120138095Y-132801000D02*
X120019048Y-133158142D01*
X120019048Y-133158142D02*
X120328571Y-133158142D01*
X138474809Y-98454761D02*
X138831952Y-98454761D01*
X138831952Y-98454761D02*
X138903380Y-98478570D01*
X138903380Y-98478570D02*
X138951000Y-98526189D01*
X138951000Y-98526189D02*
X138974809Y-98597618D01*
X138974809Y-98597618D02*
X138974809Y-98645237D01*
X138474809Y-98264285D02*
X138474809Y-97954761D01*
X138474809Y-97954761D02*
X138665285Y-98121428D01*
X138665285Y-98121428D02*
X138665285Y-98049999D01*
X138665285Y-98049999D02*
X138689095Y-98002380D01*
X138689095Y-98002380D02*
X138712904Y-97978571D01*
X138712904Y-97978571D02*
X138760523Y-97954761D01*
X138760523Y-97954761D02*
X138879571Y-97954761D01*
X138879571Y-97954761D02*
X138927190Y-97978571D01*
X138927190Y-97978571D02*
X138951000Y-98002380D01*
X138951000Y-98002380D02*
X138974809Y-98049999D01*
X138974809Y-98049999D02*
X138974809Y-98192856D01*
X138974809Y-98192856D02*
X138951000Y-98240475D01*
X138951000Y-98240475D02*
X138927190Y-98264285D01*
X138474809Y-97645238D02*
X138474809Y-97597619D01*
X138474809Y-97597619D02*
X138498619Y-97550000D01*
X138498619Y-97550000D02*
X138522428Y-97526190D01*
X138522428Y-97526190D02*
X138570047Y-97502381D01*
X138570047Y-97502381D02*
X138665285Y-97478571D01*
X138665285Y-97478571D02*
X138784333Y-97478571D01*
X138784333Y-97478571D02*
X138879571Y-97502381D01*
X138879571Y-97502381D02*
X138927190Y-97526190D01*
X138927190Y-97526190D02*
X138951000Y-97550000D01*
X138951000Y-97550000D02*
X138974809Y-97597619D01*
X138974809Y-97597619D02*
X138974809Y-97645238D01*
X138974809Y-97645238D02*
X138951000Y-97692857D01*
X138951000Y-97692857D02*
X138927190Y-97716666D01*
X138927190Y-97716666D02*
X138879571Y-97740476D01*
X138879571Y-97740476D02*
X138784333Y-97764285D01*
X138784333Y-97764285D02*
X138665285Y-97764285D01*
X138665285Y-97764285D02*
X138570047Y-97740476D01*
X138570047Y-97740476D02*
X138522428Y-97716666D01*
X138522428Y-97716666D02*
X138498619Y-97692857D01*
X138498619Y-97692857D02*
X138474809Y-97645238D01*
X130583333Y-81324809D02*
X130583333Y-81681952D01*
X130583333Y-81681952D02*
X130559524Y-81753380D01*
X130559524Y-81753380D02*
X130511905Y-81801000D01*
X130511905Y-81801000D02*
X130440476Y-81824809D01*
X130440476Y-81824809D02*
X130392857Y-81824809D01*
X130845238Y-81824809D02*
X130940476Y-81824809D01*
X130940476Y-81824809D02*
X130988095Y-81801000D01*
X130988095Y-81801000D02*
X131011904Y-81777190D01*
X131011904Y-81777190D02*
X131059523Y-81705761D01*
X131059523Y-81705761D02*
X131083333Y-81610523D01*
X131083333Y-81610523D02*
X131083333Y-81420047D01*
X131083333Y-81420047D02*
X131059523Y-81372428D01*
X131059523Y-81372428D02*
X131035714Y-81348619D01*
X131035714Y-81348619D02*
X130988095Y-81324809D01*
X130988095Y-81324809D02*
X130892857Y-81324809D01*
X130892857Y-81324809D02*
X130845238Y-81348619D01*
X130845238Y-81348619D02*
X130821428Y-81372428D01*
X130821428Y-81372428D02*
X130797619Y-81420047D01*
X130797619Y-81420047D02*
X130797619Y-81539095D01*
X130797619Y-81539095D02*
X130821428Y-81586714D01*
X130821428Y-81586714D02*
X130845238Y-81610523D01*
X130845238Y-81610523D02*
X130892857Y-81634333D01*
X130892857Y-81634333D02*
X130988095Y-81634333D01*
X130988095Y-81634333D02*
X131035714Y-81610523D01*
X131035714Y-81610523D02*
X131059523Y-81586714D01*
X131059523Y-81586714D02*
X131083333Y-81539095D01*
X180174809Y-112004761D02*
X180531952Y-112004761D01*
X180531952Y-112004761D02*
X180603380Y-112028570D01*
X180603380Y-112028570D02*
X180651000Y-112076189D01*
X180651000Y-112076189D02*
X180674809Y-112147618D01*
X180674809Y-112147618D02*
X180674809Y-112195237D01*
X180674809Y-111504761D02*
X180674809Y-111790475D01*
X180674809Y-111647618D02*
X180174809Y-111647618D01*
X180174809Y-111647618D02*
X180246238Y-111695237D01*
X180246238Y-111695237D02*
X180293857Y-111742856D01*
X180293857Y-111742856D02*
X180317666Y-111790475D01*
X180174809Y-111052381D02*
X180174809Y-111290476D01*
X180174809Y-111290476D02*
X180412904Y-111314285D01*
X180412904Y-111314285D02*
X180389095Y-111290476D01*
X180389095Y-111290476D02*
X180365285Y-111242857D01*
X180365285Y-111242857D02*
X180365285Y-111123809D01*
X180365285Y-111123809D02*
X180389095Y-111076190D01*
X180389095Y-111076190D02*
X180412904Y-111052381D01*
X180412904Y-111052381D02*
X180460523Y-111028571D01*
X180460523Y-111028571D02*
X180579571Y-111028571D01*
X180579571Y-111028571D02*
X180627190Y-111052381D01*
X180627190Y-111052381D02*
X180651000Y-111076190D01*
X180651000Y-111076190D02*
X180674809Y-111123809D01*
X180674809Y-111123809D02*
X180674809Y-111242857D01*
X180674809Y-111242857D02*
X180651000Y-111290476D01*
X180651000Y-111290476D02*
X180627190Y-111314285D01*
X170279809Y-80154761D02*
X170636952Y-80154761D01*
X170636952Y-80154761D02*
X170708380Y-80178570D01*
X170708380Y-80178570D02*
X170756000Y-80226189D01*
X170756000Y-80226189D02*
X170779809Y-80297618D01*
X170779809Y-80297618D02*
X170779809Y-80345237D01*
X170279809Y-79964285D02*
X170279809Y-79654761D01*
X170279809Y-79654761D02*
X170470285Y-79821428D01*
X170470285Y-79821428D02*
X170470285Y-79749999D01*
X170470285Y-79749999D02*
X170494095Y-79702380D01*
X170494095Y-79702380D02*
X170517904Y-79678571D01*
X170517904Y-79678571D02*
X170565523Y-79654761D01*
X170565523Y-79654761D02*
X170684571Y-79654761D01*
X170684571Y-79654761D02*
X170732190Y-79678571D01*
X170732190Y-79678571D02*
X170756000Y-79702380D01*
X170756000Y-79702380D02*
X170779809Y-79749999D01*
X170779809Y-79749999D02*
X170779809Y-79892856D01*
X170779809Y-79892856D02*
X170756000Y-79940475D01*
X170756000Y-79940475D02*
X170732190Y-79964285D01*
X170279809Y-79202381D02*
X170279809Y-79440476D01*
X170279809Y-79440476D02*
X170517904Y-79464285D01*
X170517904Y-79464285D02*
X170494095Y-79440476D01*
X170494095Y-79440476D02*
X170470285Y-79392857D01*
X170470285Y-79392857D02*
X170470285Y-79273809D01*
X170470285Y-79273809D02*
X170494095Y-79226190D01*
X170494095Y-79226190D02*
X170517904Y-79202381D01*
X170517904Y-79202381D02*
X170565523Y-79178571D01*
X170565523Y-79178571D02*
X170684571Y-79178571D01*
X170684571Y-79178571D02*
X170732190Y-79202381D01*
X170732190Y-79202381D02*
X170756000Y-79226190D01*
X170756000Y-79226190D02*
X170779809Y-79273809D01*
X170779809Y-79273809D02*
X170779809Y-79392857D01*
X170779809Y-79392857D02*
X170756000Y-79440476D01*
X170756000Y-79440476D02*
X170732190Y-79464285D01*
X156817190Y-106003333D02*
X156841000Y-106027142D01*
X156841000Y-106027142D02*
X156864809Y-106098571D01*
X156864809Y-106098571D02*
X156864809Y-106146190D01*
X156864809Y-106146190D02*
X156841000Y-106217618D01*
X156841000Y-106217618D02*
X156793380Y-106265237D01*
X156793380Y-106265237D02*
X156745761Y-106289047D01*
X156745761Y-106289047D02*
X156650523Y-106312856D01*
X156650523Y-106312856D02*
X156579095Y-106312856D01*
X156579095Y-106312856D02*
X156483857Y-106289047D01*
X156483857Y-106289047D02*
X156436238Y-106265237D01*
X156436238Y-106265237D02*
X156388619Y-106217618D01*
X156388619Y-106217618D02*
X156364809Y-106146190D01*
X156364809Y-106146190D02*
X156364809Y-106098571D01*
X156364809Y-106098571D02*
X156388619Y-106027142D01*
X156388619Y-106027142D02*
X156412428Y-106003333D01*
X156531476Y-105574761D02*
X156864809Y-105574761D01*
X156341000Y-105693809D02*
X156698142Y-105812856D01*
X156698142Y-105812856D02*
X156698142Y-105503333D01*
X130645238Y-104424809D02*
X130645238Y-104781952D01*
X130645238Y-104781952D02*
X130621429Y-104853380D01*
X130621429Y-104853380D02*
X130573810Y-104901000D01*
X130573810Y-104901000D02*
X130502381Y-104924809D01*
X130502381Y-104924809D02*
X130454762Y-104924809D01*
X131145238Y-104924809D02*
X130859524Y-104924809D01*
X131002381Y-104924809D02*
X131002381Y-104424809D01*
X131002381Y-104424809D02*
X130954762Y-104496238D01*
X130954762Y-104496238D02*
X130907143Y-104543857D01*
X130907143Y-104543857D02*
X130859524Y-104567666D01*
X131311904Y-104424809D02*
X131621428Y-104424809D01*
X131621428Y-104424809D02*
X131454761Y-104615285D01*
X131454761Y-104615285D02*
X131526190Y-104615285D01*
X131526190Y-104615285D02*
X131573809Y-104639095D01*
X131573809Y-104639095D02*
X131597618Y-104662904D01*
X131597618Y-104662904D02*
X131621428Y-104710523D01*
X131621428Y-104710523D02*
X131621428Y-104829571D01*
X131621428Y-104829571D02*
X131597618Y-104877190D01*
X131597618Y-104877190D02*
X131573809Y-104901000D01*
X131573809Y-104901000D02*
X131526190Y-104924809D01*
X131526190Y-104924809D02*
X131383333Y-104924809D01*
X131383333Y-104924809D02*
X131335714Y-104901000D01*
X131335714Y-104901000D02*
X131311904Y-104877190D01*
X123745238Y-114274809D02*
X123745238Y-114631952D01*
X123745238Y-114631952D02*
X123721429Y-114703380D01*
X123721429Y-114703380D02*
X123673810Y-114751000D01*
X123673810Y-114751000D02*
X123602381Y-114774809D01*
X123602381Y-114774809D02*
X123554762Y-114774809D01*
X124245238Y-114774809D02*
X123959524Y-114774809D01*
X124102381Y-114774809D02*
X124102381Y-114274809D01*
X124102381Y-114274809D02*
X124054762Y-114346238D01*
X124054762Y-114346238D02*
X124007143Y-114393857D01*
X124007143Y-114393857D02*
X123959524Y-114417666D01*
X124530952Y-114489095D02*
X124483333Y-114465285D01*
X124483333Y-114465285D02*
X124459523Y-114441476D01*
X124459523Y-114441476D02*
X124435714Y-114393857D01*
X124435714Y-114393857D02*
X124435714Y-114370047D01*
X124435714Y-114370047D02*
X124459523Y-114322428D01*
X124459523Y-114322428D02*
X124483333Y-114298619D01*
X124483333Y-114298619D02*
X124530952Y-114274809D01*
X124530952Y-114274809D02*
X124626190Y-114274809D01*
X124626190Y-114274809D02*
X124673809Y-114298619D01*
X124673809Y-114298619D02*
X124697618Y-114322428D01*
X124697618Y-114322428D02*
X124721428Y-114370047D01*
X124721428Y-114370047D02*
X124721428Y-114393857D01*
X124721428Y-114393857D02*
X124697618Y-114441476D01*
X124697618Y-114441476D02*
X124673809Y-114465285D01*
X124673809Y-114465285D02*
X124626190Y-114489095D01*
X124626190Y-114489095D02*
X124530952Y-114489095D01*
X124530952Y-114489095D02*
X124483333Y-114512904D01*
X124483333Y-114512904D02*
X124459523Y-114536714D01*
X124459523Y-114536714D02*
X124435714Y-114584333D01*
X124435714Y-114584333D02*
X124435714Y-114679571D01*
X124435714Y-114679571D02*
X124459523Y-114727190D01*
X124459523Y-114727190D02*
X124483333Y-114751000D01*
X124483333Y-114751000D02*
X124530952Y-114774809D01*
X124530952Y-114774809D02*
X124626190Y-114774809D01*
X124626190Y-114774809D02*
X124673809Y-114751000D01*
X124673809Y-114751000D02*
X124697618Y-114727190D01*
X124697618Y-114727190D02*
X124721428Y-114679571D01*
X124721428Y-114679571D02*
X124721428Y-114584333D01*
X124721428Y-114584333D02*
X124697618Y-114536714D01*
X124697618Y-114536714D02*
X124673809Y-114512904D01*
X124673809Y-114512904D02*
X124626190Y-114489095D01*
X139134809Y-102450833D02*
X139134809Y-102688928D01*
X139134809Y-102688928D02*
X138634809Y-102688928D01*
X139134809Y-102022261D02*
X139134809Y-102307975D01*
X139134809Y-102165118D02*
X138634809Y-102165118D01*
X138634809Y-102165118D02*
X138706238Y-102212737D01*
X138706238Y-102212737D02*
X138753857Y-102260356D01*
X138753857Y-102260356D02*
X138777666Y-102307975D01*
X125495238Y-104524809D02*
X125495238Y-104881952D01*
X125495238Y-104881952D02*
X125471429Y-104953380D01*
X125471429Y-104953380D02*
X125423810Y-105001000D01*
X125423810Y-105001000D02*
X125352381Y-105024809D01*
X125352381Y-105024809D02*
X125304762Y-105024809D01*
X125709524Y-104572428D02*
X125733333Y-104548619D01*
X125733333Y-104548619D02*
X125780952Y-104524809D01*
X125780952Y-104524809D02*
X125900000Y-104524809D01*
X125900000Y-104524809D02*
X125947619Y-104548619D01*
X125947619Y-104548619D02*
X125971428Y-104572428D01*
X125971428Y-104572428D02*
X125995238Y-104620047D01*
X125995238Y-104620047D02*
X125995238Y-104667666D01*
X125995238Y-104667666D02*
X125971428Y-104739095D01*
X125971428Y-104739095D02*
X125685714Y-105024809D01*
X125685714Y-105024809D02*
X125995238Y-105024809D01*
X126280952Y-104739095D02*
X126233333Y-104715285D01*
X126233333Y-104715285D02*
X126209523Y-104691476D01*
X126209523Y-104691476D02*
X126185714Y-104643857D01*
X126185714Y-104643857D02*
X126185714Y-104620047D01*
X126185714Y-104620047D02*
X126209523Y-104572428D01*
X126209523Y-104572428D02*
X126233333Y-104548619D01*
X126233333Y-104548619D02*
X126280952Y-104524809D01*
X126280952Y-104524809D02*
X126376190Y-104524809D01*
X126376190Y-104524809D02*
X126423809Y-104548619D01*
X126423809Y-104548619D02*
X126447618Y-104572428D01*
X126447618Y-104572428D02*
X126471428Y-104620047D01*
X126471428Y-104620047D02*
X126471428Y-104643857D01*
X126471428Y-104643857D02*
X126447618Y-104691476D01*
X126447618Y-104691476D02*
X126423809Y-104715285D01*
X126423809Y-104715285D02*
X126376190Y-104739095D01*
X126376190Y-104739095D02*
X126280952Y-104739095D01*
X126280952Y-104739095D02*
X126233333Y-104762904D01*
X126233333Y-104762904D02*
X126209523Y-104786714D01*
X126209523Y-104786714D02*
X126185714Y-104834333D01*
X126185714Y-104834333D02*
X126185714Y-104929571D01*
X126185714Y-104929571D02*
X126209523Y-104977190D01*
X126209523Y-104977190D02*
X126233333Y-105001000D01*
X126233333Y-105001000D02*
X126280952Y-105024809D01*
X126280952Y-105024809D02*
X126376190Y-105024809D01*
X126376190Y-105024809D02*
X126423809Y-105001000D01*
X126423809Y-105001000D02*
X126447618Y-104977190D01*
X126447618Y-104977190D02*
X126471428Y-104929571D01*
X126471428Y-104929571D02*
X126471428Y-104834333D01*
X126471428Y-104834333D02*
X126447618Y-104786714D01*
X126447618Y-104786714D02*
X126423809Y-104762904D01*
X126423809Y-104762904D02*
X126376190Y-104739095D01*
X153674809Y-124554761D02*
X154031952Y-124554761D01*
X154031952Y-124554761D02*
X154103380Y-124578570D01*
X154103380Y-124578570D02*
X154151000Y-124626189D01*
X154151000Y-124626189D02*
X154174809Y-124697618D01*
X154174809Y-124697618D02*
X154174809Y-124745237D01*
X153722428Y-124340475D02*
X153698619Y-124316666D01*
X153698619Y-124316666D02*
X153674809Y-124269047D01*
X153674809Y-124269047D02*
X153674809Y-124149999D01*
X153674809Y-124149999D02*
X153698619Y-124102380D01*
X153698619Y-124102380D02*
X153722428Y-124078571D01*
X153722428Y-124078571D02*
X153770047Y-124054761D01*
X153770047Y-124054761D02*
X153817666Y-124054761D01*
X153817666Y-124054761D02*
X153889095Y-124078571D01*
X153889095Y-124078571D02*
X154174809Y-124364285D01*
X154174809Y-124364285D02*
X154174809Y-124054761D01*
X153722428Y-123864285D02*
X153698619Y-123840476D01*
X153698619Y-123840476D02*
X153674809Y-123792857D01*
X153674809Y-123792857D02*
X153674809Y-123673809D01*
X153674809Y-123673809D02*
X153698619Y-123626190D01*
X153698619Y-123626190D02*
X153722428Y-123602381D01*
X153722428Y-123602381D02*
X153770047Y-123578571D01*
X153770047Y-123578571D02*
X153817666Y-123578571D01*
X153817666Y-123578571D02*
X153889095Y-123602381D01*
X153889095Y-123602381D02*
X154174809Y-123888095D01*
X154174809Y-123888095D02*
X154174809Y-123578571D01*
X146016666Y-91277190D02*
X145992857Y-91301000D01*
X145992857Y-91301000D02*
X145921428Y-91324809D01*
X145921428Y-91324809D02*
X145873809Y-91324809D01*
X145873809Y-91324809D02*
X145802381Y-91301000D01*
X145802381Y-91301000D02*
X145754762Y-91253380D01*
X145754762Y-91253380D02*
X145730952Y-91205761D01*
X145730952Y-91205761D02*
X145707143Y-91110523D01*
X145707143Y-91110523D02*
X145707143Y-91039095D01*
X145707143Y-91039095D02*
X145730952Y-90943857D01*
X145730952Y-90943857D02*
X145754762Y-90896238D01*
X145754762Y-90896238D02*
X145802381Y-90848619D01*
X145802381Y-90848619D02*
X145873809Y-90824809D01*
X145873809Y-90824809D02*
X145921428Y-90824809D01*
X145921428Y-90824809D02*
X145992857Y-90848619D01*
X145992857Y-90848619D02*
X146016666Y-90872428D01*
X146302381Y-91039095D02*
X146254762Y-91015285D01*
X146254762Y-91015285D02*
X146230952Y-90991476D01*
X146230952Y-90991476D02*
X146207143Y-90943857D01*
X146207143Y-90943857D02*
X146207143Y-90920047D01*
X146207143Y-90920047D02*
X146230952Y-90872428D01*
X146230952Y-90872428D02*
X146254762Y-90848619D01*
X146254762Y-90848619D02*
X146302381Y-90824809D01*
X146302381Y-90824809D02*
X146397619Y-90824809D01*
X146397619Y-90824809D02*
X146445238Y-90848619D01*
X146445238Y-90848619D02*
X146469047Y-90872428D01*
X146469047Y-90872428D02*
X146492857Y-90920047D01*
X146492857Y-90920047D02*
X146492857Y-90943857D01*
X146492857Y-90943857D02*
X146469047Y-90991476D01*
X146469047Y-90991476D02*
X146445238Y-91015285D01*
X146445238Y-91015285D02*
X146397619Y-91039095D01*
X146397619Y-91039095D02*
X146302381Y-91039095D01*
X146302381Y-91039095D02*
X146254762Y-91062904D01*
X146254762Y-91062904D02*
X146230952Y-91086714D01*
X146230952Y-91086714D02*
X146207143Y-91134333D01*
X146207143Y-91134333D02*
X146207143Y-91229571D01*
X146207143Y-91229571D02*
X146230952Y-91277190D01*
X146230952Y-91277190D02*
X146254762Y-91301000D01*
X146254762Y-91301000D02*
X146302381Y-91324809D01*
X146302381Y-91324809D02*
X146397619Y-91324809D01*
X146397619Y-91324809D02*
X146445238Y-91301000D01*
X146445238Y-91301000D02*
X146469047Y-91277190D01*
X146469047Y-91277190D02*
X146492857Y-91229571D01*
X146492857Y-91229571D02*
X146492857Y-91134333D01*
X146492857Y-91134333D02*
X146469047Y-91086714D01*
X146469047Y-91086714D02*
X146445238Y-91062904D01*
X146445238Y-91062904D02*
X146397619Y-91039095D01*
X168422380Y-116462428D02*
X168374761Y-116438619D01*
X168374761Y-116438619D02*
X168327142Y-116391000D01*
X168327142Y-116391000D02*
X168255714Y-116319571D01*
X168255714Y-116319571D02*
X168208095Y-116295761D01*
X168208095Y-116295761D02*
X168160476Y-116295761D01*
X168184285Y-116414809D02*
X168136666Y-116391000D01*
X168136666Y-116391000D02*
X168089047Y-116343380D01*
X168089047Y-116343380D02*
X168065238Y-116248142D01*
X168065238Y-116248142D02*
X168065238Y-116081476D01*
X168065238Y-116081476D02*
X168089047Y-115986238D01*
X168089047Y-115986238D02*
X168136666Y-115938619D01*
X168136666Y-115938619D02*
X168184285Y-115914809D01*
X168184285Y-115914809D02*
X168279523Y-115914809D01*
X168279523Y-115914809D02*
X168327142Y-115938619D01*
X168327142Y-115938619D02*
X168374761Y-115986238D01*
X168374761Y-115986238D02*
X168398571Y-116081476D01*
X168398571Y-116081476D02*
X168398571Y-116248142D01*
X168398571Y-116248142D02*
X168374761Y-116343380D01*
X168374761Y-116343380D02*
X168327142Y-116391000D01*
X168327142Y-116391000D02*
X168279523Y-116414809D01*
X168279523Y-116414809D02*
X168184285Y-116414809D01*
X168589048Y-115962428D02*
X168612857Y-115938619D01*
X168612857Y-115938619D02*
X168660476Y-115914809D01*
X168660476Y-115914809D02*
X168779524Y-115914809D01*
X168779524Y-115914809D02*
X168827143Y-115938619D01*
X168827143Y-115938619D02*
X168850952Y-115962428D01*
X168850952Y-115962428D02*
X168874762Y-116010047D01*
X168874762Y-116010047D02*
X168874762Y-116057666D01*
X168874762Y-116057666D02*
X168850952Y-116129095D01*
X168850952Y-116129095D02*
X168565238Y-116414809D01*
X168565238Y-116414809D02*
X168874762Y-116414809D01*
X156137190Y-106003333D02*
X156161000Y-106027142D01*
X156161000Y-106027142D02*
X156184809Y-106098571D01*
X156184809Y-106098571D02*
X156184809Y-106146190D01*
X156184809Y-106146190D02*
X156161000Y-106217618D01*
X156161000Y-106217618D02*
X156113380Y-106265237D01*
X156113380Y-106265237D02*
X156065761Y-106289047D01*
X156065761Y-106289047D02*
X155970523Y-106312856D01*
X155970523Y-106312856D02*
X155899095Y-106312856D01*
X155899095Y-106312856D02*
X155803857Y-106289047D01*
X155803857Y-106289047D02*
X155756238Y-106265237D01*
X155756238Y-106265237D02*
X155708619Y-106217618D01*
X155708619Y-106217618D02*
X155684809Y-106146190D01*
X155684809Y-106146190D02*
X155684809Y-106098571D01*
X155684809Y-106098571D02*
X155708619Y-106027142D01*
X155708619Y-106027142D02*
X155732428Y-106003333D01*
X155684809Y-105574761D02*
X155684809Y-105669999D01*
X155684809Y-105669999D02*
X155708619Y-105717618D01*
X155708619Y-105717618D02*
X155732428Y-105741428D01*
X155732428Y-105741428D02*
X155803857Y-105789047D01*
X155803857Y-105789047D02*
X155899095Y-105812856D01*
X155899095Y-105812856D02*
X156089571Y-105812856D01*
X156089571Y-105812856D02*
X156137190Y-105789047D01*
X156137190Y-105789047D02*
X156161000Y-105765237D01*
X156161000Y-105765237D02*
X156184809Y-105717618D01*
X156184809Y-105717618D02*
X156184809Y-105622380D01*
X156184809Y-105622380D02*
X156161000Y-105574761D01*
X156161000Y-105574761D02*
X156137190Y-105550952D01*
X156137190Y-105550952D02*
X156089571Y-105527142D01*
X156089571Y-105527142D02*
X155970523Y-105527142D01*
X155970523Y-105527142D02*
X155922904Y-105550952D01*
X155922904Y-105550952D02*
X155899095Y-105574761D01*
X155899095Y-105574761D02*
X155875285Y-105622380D01*
X155875285Y-105622380D02*
X155875285Y-105717618D01*
X155875285Y-105717618D02*
X155899095Y-105765237D01*
X155899095Y-105765237D02*
X155922904Y-105789047D01*
X155922904Y-105789047D02*
X155970523Y-105812856D01*
X157922428Y-116137619D02*
X157898619Y-116185238D01*
X157898619Y-116185238D02*
X157851000Y-116232857D01*
X157851000Y-116232857D02*
X157779571Y-116304285D01*
X157779571Y-116304285D02*
X157755761Y-116351904D01*
X157755761Y-116351904D02*
X157755761Y-116399523D01*
X157874809Y-116375714D02*
X157851000Y-116423333D01*
X157851000Y-116423333D02*
X157803380Y-116470952D01*
X157803380Y-116470952D02*
X157708142Y-116494761D01*
X157708142Y-116494761D02*
X157541476Y-116494761D01*
X157541476Y-116494761D02*
X157446238Y-116470952D01*
X157446238Y-116470952D02*
X157398619Y-116423333D01*
X157398619Y-116423333D02*
X157374809Y-116375714D01*
X157374809Y-116375714D02*
X157374809Y-116280476D01*
X157374809Y-116280476D02*
X157398619Y-116232857D01*
X157398619Y-116232857D02*
X157446238Y-116185238D01*
X157446238Y-116185238D02*
X157541476Y-116161428D01*
X157541476Y-116161428D02*
X157708142Y-116161428D01*
X157708142Y-116161428D02*
X157803380Y-116185238D01*
X157803380Y-116185238D02*
X157851000Y-116232857D01*
X157851000Y-116232857D02*
X157874809Y-116280476D01*
X157874809Y-116280476D02*
X157874809Y-116375714D01*
X157874809Y-115685237D02*
X157874809Y-115970951D01*
X157874809Y-115828094D02*
X157374809Y-115828094D01*
X157374809Y-115828094D02*
X157446238Y-115875713D01*
X157446238Y-115875713D02*
X157493857Y-115923332D01*
X157493857Y-115923332D02*
X157517666Y-115970951D01*
X120606666Y-120054809D02*
X120440000Y-119816714D01*
X120320952Y-120054809D02*
X120320952Y-119554809D01*
X120320952Y-119554809D02*
X120511428Y-119554809D01*
X120511428Y-119554809D02*
X120559047Y-119578619D01*
X120559047Y-119578619D02*
X120582857Y-119602428D01*
X120582857Y-119602428D02*
X120606666Y-119650047D01*
X120606666Y-119650047D02*
X120606666Y-119721476D01*
X120606666Y-119721476D02*
X120582857Y-119769095D01*
X120582857Y-119769095D02*
X120559047Y-119792904D01*
X120559047Y-119792904D02*
X120511428Y-119816714D01*
X120511428Y-119816714D02*
X120320952Y-119816714D01*
X121059047Y-119554809D02*
X120820952Y-119554809D01*
X120820952Y-119554809D02*
X120797143Y-119792904D01*
X120797143Y-119792904D02*
X120820952Y-119769095D01*
X120820952Y-119769095D02*
X120868571Y-119745285D01*
X120868571Y-119745285D02*
X120987619Y-119745285D01*
X120987619Y-119745285D02*
X121035238Y-119769095D01*
X121035238Y-119769095D02*
X121059047Y-119792904D01*
X121059047Y-119792904D02*
X121082857Y-119840523D01*
X121082857Y-119840523D02*
X121082857Y-119959571D01*
X121082857Y-119959571D02*
X121059047Y-120007190D01*
X121059047Y-120007190D02*
X121035238Y-120031000D01*
X121035238Y-120031000D02*
X120987619Y-120054809D01*
X120987619Y-120054809D02*
X120868571Y-120054809D01*
X120868571Y-120054809D02*
X120820952Y-120031000D01*
X120820952Y-120031000D02*
X120797143Y-120007190D01*
X174073333Y-132784809D02*
X174073333Y-133141952D01*
X174073333Y-133141952D02*
X174049524Y-133213380D01*
X174049524Y-133213380D02*
X174001905Y-133261000D01*
X174001905Y-133261000D02*
X173930476Y-133284809D01*
X173930476Y-133284809D02*
X173882857Y-133284809D01*
X174549523Y-132784809D02*
X174311428Y-132784809D01*
X174311428Y-132784809D02*
X174287619Y-133022904D01*
X174287619Y-133022904D02*
X174311428Y-132999095D01*
X174311428Y-132999095D02*
X174359047Y-132975285D01*
X174359047Y-132975285D02*
X174478095Y-132975285D01*
X174478095Y-132975285D02*
X174525714Y-132999095D01*
X174525714Y-132999095D02*
X174549523Y-133022904D01*
X174549523Y-133022904D02*
X174573333Y-133070523D01*
X174573333Y-133070523D02*
X174573333Y-133189571D01*
X174573333Y-133189571D02*
X174549523Y-133237190D01*
X174549523Y-133237190D02*
X174525714Y-133261000D01*
X174525714Y-133261000D02*
X174478095Y-133284809D01*
X174478095Y-133284809D02*
X174359047Y-133284809D01*
X174359047Y-133284809D02*
X174311428Y-133261000D01*
X174311428Y-133261000D02*
X174287619Y-133237190D01*
X119619047Y-74024809D02*
X119619047Y-73524809D01*
X119619047Y-73762904D02*
X119904761Y-73762904D01*
X119904761Y-74024809D02*
X119904761Y-73524809D01*
X120119048Y-73572428D02*
X120142857Y-73548619D01*
X120142857Y-73548619D02*
X120190476Y-73524809D01*
X120190476Y-73524809D02*
X120309524Y-73524809D01*
X120309524Y-73524809D02*
X120357143Y-73548619D01*
X120357143Y-73548619D02*
X120380952Y-73572428D01*
X120380952Y-73572428D02*
X120404762Y-73620047D01*
X120404762Y-73620047D02*
X120404762Y-73667666D01*
X120404762Y-73667666D02*
X120380952Y-73739095D01*
X120380952Y-73739095D02*
X120095238Y-74024809D01*
X120095238Y-74024809D02*
X120404762Y-74024809D01*
X122156666Y-120044809D02*
X121990000Y-119806714D01*
X121870952Y-120044809D02*
X121870952Y-119544809D01*
X121870952Y-119544809D02*
X122061428Y-119544809D01*
X122061428Y-119544809D02*
X122109047Y-119568619D01*
X122109047Y-119568619D02*
X122132857Y-119592428D01*
X122132857Y-119592428D02*
X122156666Y-119640047D01*
X122156666Y-119640047D02*
X122156666Y-119711476D01*
X122156666Y-119711476D02*
X122132857Y-119759095D01*
X122132857Y-119759095D02*
X122109047Y-119782904D01*
X122109047Y-119782904D02*
X122061428Y-119806714D01*
X122061428Y-119806714D02*
X121870952Y-119806714D01*
X122585238Y-119544809D02*
X122490000Y-119544809D01*
X122490000Y-119544809D02*
X122442381Y-119568619D01*
X122442381Y-119568619D02*
X122418571Y-119592428D01*
X122418571Y-119592428D02*
X122370952Y-119663857D01*
X122370952Y-119663857D02*
X122347143Y-119759095D01*
X122347143Y-119759095D02*
X122347143Y-119949571D01*
X122347143Y-119949571D02*
X122370952Y-119997190D01*
X122370952Y-119997190D02*
X122394762Y-120021000D01*
X122394762Y-120021000D02*
X122442381Y-120044809D01*
X122442381Y-120044809D02*
X122537619Y-120044809D01*
X122537619Y-120044809D02*
X122585238Y-120021000D01*
X122585238Y-120021000D02*
X122609047Y-119997190D01*
X122609047Y-119997190D02*
X122632857Y-119949571D01*
X122632857Y-119949571D02*
X122632857Y-119830523D01*
X122632857Y-119830523D02*
X122609047Y-119782904D01*
X122609047Y-119782904D02*
X122585238Y-119759095D01*
X122585238Y-119759095D02*
X122537619Y-119735285D01*
X122537619Y-119735285D02*
X122442381Y-119735285D01*
X122442381Y-119735285D02*
X122394762Y-119759095D01*
X122394762Y-119759095D02*
X122370952Y-119782904D01*
X122370952Y-119782904D02*
X122347143Y-119830523D01*
X153624809Y-120754761D02*
X153981952Y-120754761D01*
X153981952Y-120754761D02*
X154053380Y-120778570D01*
X154053380Y-120778570D02*
X154101000Y-120826189D01*
X154101000Y-120826189D02*
X154124809Y-120897618D01*
X154124809Y-120897618D02*
X154124809Y-120945237D01*
X153672428Y-120540475D02*
X153648619Y-120516666D01*
X153648619Y-120516666D02*
X153624809Y-120469047D01*
X153624809Y-120469047D02*
X153624809Y-120349999D01*
X153624809Y-120349999D02*
X153648619Y-120302380D01*
X153648619Y-120302380D02*
X153672428Y-120278571D01*
X153672428Y-120278571D02*
X153720047Y-120254761D01*
X153720047Y-120254761D02*
X153767666Y-120254761D01*
X153767666Y-120254761D02*
X153839095Y-120278571D01*
X153839095Y-120278571D02*
X154124809Y-120564285D01*
X154124809Y-120564285D02*
X154124809Y-120254761D01*
X153624809Y-119945238D02*
X153624809Y-119897619D01*
X153624809Y-119897619D02*
X153648619Y-119850000D01*
X153648619Y-119850000D02*
X153672428Y-119826190D01*
X153672428Y-119826190D02*
X153720047Y-119802381D01*
X153720047Y-119802381D02*
X153815285Y-119778571D01*
X153815285Y-119778571D02*
X153934333Y-119778571D01*
X153934333Y-119778571D02*
X154029571Y-119802381D01*
X154029571Y-119802381D02*
X154077190Y-119826190D01*
X154077190Y-119826190D02*
X154101000Y-119850000D01*
X154101000Y-119850000D02*
X154124809Y-119897619D01*
X154124809Y-119897619D02*
X154124809Y-119945238D01*
X154124809Y-119945238D02*
X154101000Y-119992857D01*
X154101000Y-119992857D02*
X154077190Y-120016666D01*
X154077190Y-120016666D02*
X154029571Y-120040476D01*
X154029571Y-120040476D02*
X153934333Y-120064285D01*
X153934333Y-120064285D02*
X153815285Y-120064285D01*
X153815285Y-120064285D02*
X153720047Y-120040476D01*
X153720047Y-120040476D02*
X153672428Y-120016666D01*
X153672428Y-120016666D02*
X153648619Y-119992857D01*
X153648619Y-119992857D02*
X153624809Y-119945238D01*
X158345238Y-132824809D02*
X158345238Y-133181952D01*
X158345238Y-133181952D02*
X158321429Y-133253380D01*
X158321429Y-133253380D02*
X158273810Y-133301000D01*
X158273810Y-133301000D02*
X158202381Y-133324809D01*
X158202381Y-133324809D02*
X158154762Y-133324809D01*
X158535714Y-132824809D02*
X158845238Y-132824809D01*
X158845238Y-132824809D02*
X158678571Y-133015285D01*
X158678571Y-133015285D02*
X158750000Y-133015285D01*
X158750000Y-133015285D02*
X158797619Y-133039095D01*
X158797619Y-133039095D02*
X158821428Y-133062904D01*
X158821428Y-133062904D02*
X158845238Y-133110523D01*
X158845238Y-133110523D02*
X158845238Y-133229571D01*
X158845238Y-133229571D02*
X158821428Y-133277190D01*
X158821428Y-133277190D02*
X158797619Y-133301000D01*
X158797619Y-133301000D02*
X158750000Y-133324809D01*
X158750000Y-133324809D02*
X158607143Y-133324809D01*
X158607143Y-133324809D02*
X158559524Y-133301000D01*
X158559524Y-133301000D02*
X158535714Y-133277190D01*
X159035714Y-132872428D02*
X159059523Y-132848619D01*
X159059523Y-132848619D02*
X159107142Y-132824809D01*
X159107142Y-132824809D02*
X159226190Y-132824809D01*
X159226190Y-132824809D02*
X159273809Y-132848619D01*
X159273809Y-132848619D02*
X159297618Y-132872428D01*
X159297618Y-132872428D02*
X159321428Y-132920047D01*
X159321428Y-132920047D02*
X159321428Y-132967666D01*
X159321428Y-132967666D02*
X159297618Y-133039095D01*
X159297618Y-133039095D02*
X159011904Y-133324809D01*
X159011904Y-133324809D02*
X159321428Y-133324809D01*
X170666666Y-117194809D02*
X170500000Y-116956714D01*
X170380952Y-117194809D02*
X170380952Y-116694809D01*
X170380952Y-116694809D02*
X170571428Y-116694809D01*
X170571428Y-116694809D02*
X170619047Y-116718619D01*
X170619047Y-116718619D02*
X170642857Y-116742428D01*
X170642857Y-116742428D02*
X170666666Y-116790047D01*
X170666666Y-116790047D02*
X170666666Y-116861476D01*
X170666666Y-116861476D02*
X170642857Y-116909095D01*
X170642857Y-116909095D02*
X170619047Y-116932904D01*
X170619047Y-116932904D02*
X170571428Y-116956714D01*
X170571428Y-116956714D02*
X170380952Y-116956714D01*
X171095238Y-116861476D02*
X171095238Y-117194809D01*
X170976190Y-116671000D02*
X170857143Y-117028142D01*
X170857143Y-117028142D02*
X171166666Y-117028142D01*
X121760952Y-125834809D02*
X121760952Y-125334809D01*
X121760952Y-125334809D02*
X121880000Y-125334809D01*
X121880000Y-125334809D02*
X121951428Y-125358619D01*
X121951428Y-125358619D02*
X121999047Y-125406238D01*
X121999047Y-125406238D02*
X122022857Y-125453857D01*
X122022857Y-125453857D02*
X122046666Y-125549095D01*
X122046666Y-125549095D02*
X122046666Y-125620523D01*
X122046666Y-125620523D02*
X122022857Y-125715761D01*
X122022857Y-125715761D02*
X121999047Y-125763380D01*
X121999047Y-125763380D02*
X121951428Y-125811000D01*
X121951428Y-125811000D02*
X121880000Y-125834809D01*
X121880000Y-125834809D02*
X121760952Y-125834809D01*
X122522857Y-125834809D02*
X122237143Y-125834809D01*
X122380000Y-125834809D02*
X122380000Y-125334809D01*
X122380000Y-125334809D02*
X122332381Y-125406238D01*
X122332381Y-125406238D02*
X122284762Y-125453857D01*
X122284762Y-125453857D02*
X122237143Y-125477666D01*
X182951000Y-92966665D02*
X182974809Y-92895237D01*
X182974809Y-92895237D02*
X182974809Y-92776189D01*
X182974809Y-92776189D02*
X182951000Y-92728570D01*
X182951000Y-92728570D02*
X182927190Y-92704761D01*
X182927190Y-92704761D02*
X182879571Y-92680951D01*
X182879571Y-92680951D02*
X182831952Y-92680951D01*
X182831952Y-92680951D02*
X182784333Y-92704761D01*
X182784333Y-92704761D02*
X182760523Y-92728570D01*
X182760523Y-92728570D02*
X182736714Y-92776189D01*
X182736714Y-92776189D02*
X182712904Y-92871427D01*
X182712904Y-92871427D02*
X182689095Y-92919046D01*
X182689095Y-92919046D02*
X182665285Y-92942856D01*
X182665285Y-92942856D02*
X182617666Y-92966665D01*
X182617666Y-92966665D02*
X182570047Y-92966665D01*
X182570047Y-92966665D02*
X182522428Y-92942856D01*
X182522428Y-92942856D02*
X182498619Y-92919046D01*
X182498619Y-92919046D02*
X182474809Y-92871427D01*
X182474809Y-92871427D02*
X182474809Y-92752380D01*
X182474809Y-92752380D02*
X182498619Y-92680951D01*
X182474809Y-92514285D02*
X182974809Y-92395237D01*
X182974809Y-92395237D02*
X182617666Y-92299999D01*
X182617666Y-92299999D02*
X182974809Y-92204761D01*
X182974809Y-92204761D02*
X182474809Y-92085714D01*
X182974809Y-91633332D02*
X182974809Y-91919046D01*
X182974809Y-91776189D02*
X182474809Y-91776189D01*
X182474809Y-91776189D02*
X182546238Y-91823808D01*
X182546238Y-91823808D02*
X182593857Y-91871427D01*
X182593857Y-91871427D02*
X182617666Y-91919046D01*
X147033334Y-133401000D02*
X147104762Y-133424809D01*
X147104762Y-133424809D02*
X147223810Y-133424809D01*
X147223810Y-133424809D02*
X147271429Y-133401000D01*
X147271429Y-133401000D02*
X147295238Y-133377190D01*
X147295238Y-133377190D02*
X147319048Y-133329571D01*
X147319048Y-133329571D02*
X147319048Y-133281952D01*
X147319048Y-133281952D02*
X147295238Y-133234333D01*
X147295238Y-133234333D02*
X147271429Y-133210523D01*
X147271429Y-133210523D02*
X147223810Y-133186714D01*
X147223810Y-133186714D02*
X147128572Y-133162904D01*
X147128572Y-133162904D02*
X147080953Y-133139095D01*
X147080953Y-133139095D02*
X147057143Y-133115285D01*
X147057143Y-133115285D02*
X147033334Y-133067666D01*
X147033334Y-133067666D02*
X147033334Y-133020047D01*
X147033334Y-133020047D02*
X147057143Y-132972428D01*
X147057143Y-132972428D02*
X147080953Y-132948619D01*
X147080953Y-132948619D02*
X147128572Y-132924809D01*
X147128572Y-132924809D02*
X147247619Y-132924809D01*
X147247619Y-132924809D02*
X147319048Y-132948619D01*
X147485714Y-132924809D02*
X147604762Y-133424809D01*
X147604762Y-133424809D02*
X147700000Y-133067666D01*
X147700000Y-133067666D02*
X147795238Y-133424809D01*
X147795238Y-133424809D02*
X147914286Y-132924809D01*
X148080953Y-132972428D02*
X148104762Y-132948619D01*
X148104762Y-132948619D02*
X148152381Y-132924809D01*
X148152381Y-132924809D02*
X148271429Y-132924809D01*
X148271429Y-132924809D02*
X148319048Y-132948619D01*
X148319048Y-132948619D02*
X148342857Y-132972428D01*
X148342857Y-132972428D02*
X148366667Y-133020047D01*
X148366667Y-133020047D02*
X148366667Y-133067666D01*
X148366667Y-133067666D02*
X148342857Y-133139095D01*
X148342857Y-133139095D02*
X148057143Y-133424809D01*
X148057143Y-133424809D02*
X148366667Y-133424809D01*
X182074809Y-119874761D02*
X182431952Y-119874761D01*
X182431952Y-119874761D02*
X182503380Y-119898570D01*
X182503380Y-119898570D02*
X182551000Y-119946189D01*
X182551000Y-119946189D02*
X182574809Y-120017618D01*
X182574809Y-120017618D02*
X182574809Y-120065237D01*
X182574809Y-119374761D02*
X182574809Y-119660475D01*
X182574809Y-119517618D02*
X182074809Y-119517618D01*
X182074809Y-119517618D02*
X182146238Y-119565237D01*
X182146238Y-119565237D02*
X182193857Y-119612856D01*
X182193857Y-119612856D02*
X182217666Y-119660475D01*
X182241476Y-118946190D02*
X182574809Y-118946190D01*
X182051000Y-119065238D02*
X182408142Y-119184285D01*
X182408142Y-119184285D02*
X182408142Y-118874762D01*
X125495238Y-81224809D02*
X125495238Y-81581952D01*
X125495238Y-81581952D02*
X125471429Y-81653380D01*
X125471429Y-81653380D02*
X125423810Y-81701000D01*
X125423810Y-81701000D02*
X125352381Y-81724809D01*
X125352381Y-81724809D02*
X125304762Y-81724809D01*
X125995238Y-81724809D02*
X125709524Y-81724809D01*
X125852381Y-81724809D02*
X125852381Y-81224809D01*
X125852381Y-81224809D02*
X125804762Y-81296238D01*
X125804762Y-81296238D02*
X125757143Y-81343857D01*
X125757143Y-81343857D02*
X125709524Y-81367666D01*
X126304761Y-81224809D02*
X126352380Y-81224809D01*
X126352380Y-81224809D02*
X126399999Y-81248619D01*
X126399999Y-81248619D02*
X126423809Y-81272428D01*
X126423809Y-81272428D02*
X126447618Y-81320047D01*
X126447618Y-81320047D02*
X126471428Y-81415285D01*
X126471428Y-81415285D02*
X126471428Y-81534333D01*
X126471428Y-81534333D02*
X126447618Y-81629571D01*
X126447618Y-81629571D02*
X126423809Y-81677190D01*
X126423809Y-81677190D02*
X126399999Y-81701000D01*
X126399999Y-81701000D02*
X126352380Y-81724809D01*
X126352380Y-81724809D02*
X126304761Y-81724809D01*
X126304761Y-81724809D02*
X126257142Y-81701000D01*
X126257142Y-81701000D02*
X126233333Y-81677190D01*
X126233333Y-81677190D02*
X126209523Y-81629571D01*
X126209523Y-81629571D02*
X126185714Y-81534333D01*
X126185714Y-81534333D02*
X126185714Y-81415285D01*
X126185714Y-81415285D02*
X126209523Y-81320047D01*
X126209523Y-81320047D02*
X126233333Y-81272428D01*
X126233333Y-81272428D02*
X126257142Y-81248619D01*
X126257142Y-81248619D02*
X126304761Y-81224809D01*
X138895238Y-114924809D02*
X138895238Y-115281952D01*
X138895238Y-115281952D02*
X138871429Y-115353380D01*
X138871429Y-115353380D02*
X138823810Y-115401000D01*
X138823810Y-115401000D02*
X138752381Y-115424809D01*
X138752381Y-115424809D02*
X138704762Y-115424809D01*
X139395238Y-115424809D02*
X139109524Y-115424809D01*
X139252381Y-115424809D02*
X139252381Y-114924809D01*
X139252381Y-114924809D02*
X139204762Y-114996238D01*
X139204762Y-114996238D02*
X139157143Y-115043857D01*
X139157143Y-115043857D02*
X139109524Y-115067666D01*
X139561904Y-114924809D02*
X139895237Y-114924809D01*
X139895237Y-114924809D02*
X139680952Y-115424809D01*
X153488571Y-108507190D02*
X153464762Y-108531000D01*
X153464762Y-108531000D02*
X153393333Y-108554809D01*
X153393333Y-108554809D02*
X153345714Y-108554809D01*
X153345714Y-108554809D02*
X153274286Y-108531000D01*
X153274286Y-108531000D02*
X153226667Y-108483380D01*
X153226667Y-108483380D02*
X153202857Y-108435761D01*
X153202857Y-108435761D02*
X153179048Y-108340523D01*
X153179048Y-108340523D02*
X153179048Y-108269095D01*
X153179048Y-108269095D02*
X153202857Y-108173857D01*
X153202857Y-108173857D02*
X153226667Y-108126238D01*
X153226667Y-108126238D02*
X153274286Y-108078619D01*
X153274286Y-108078619D02*
X153345714Y-108054809D01*
X153345714Y-108054809D02*
X153393333Y-108054809D01*
X153393333Y-108054809D02*
X153464762Y-108078619D01*
X153464762Y-108078619D02*
X153488571Y-108102428D01*
X153964762Y-108554809D02*
X153679048Y-108554809D01*
X153821905Y-108554809D02*
X153821905Y-108054809D01*
X153821905Y-108054809D02*
X153774286Y-108126238D01*
X153774286Y-108126238D02*
X153726667Y-108173857D01*
X153726667Y-108173857D02*
X153679048Y-108197666D01*
X154274285Y-108054809D02*
X154321904Y-108054809D01*
X154321904Y-108054809D02*
X154369523Y-108078619D01*
X154369523Y-108078619D02*
X154393333Y-108102428D01*
X154393333Y-108102428D02*
X154417142Y-108150047D01*
X154417142Y-108150047D02*
X154440952Y-108245285D01*
X154440952Y-108245285D02*
X154440952Y-108364333D01*
X154440952Y-108364333D02*
X154417142Y-108459571D01*
X154417142Y-108459571D02*
X154393333Y-108507190D01*
X154393333Y-108507190D02*
X154369523Y-108531000D01*
X154369523Y-108531000D02*
X154321904Y-108554809D01*
X154321904Y-108554809D02*
X154274285Y-108554809D01*
X154274285Y-108554809D02*
X154226666Y-108531000D01*
X154226666Y-108531000D02*
X154202857Y-108507190D01*
X154202857Y-108507190D02*
X154179047Y-108459571D01*
X154179047Y-108459571D02*
X154155238Y-108364333D01*
X154155238Y-108364333D02*
X154155238Y-108245285D01*
X154155238Y-108245285D02*
X154179047Y-108150047D01*
X154179047Y-108150047D02*
X154202857Y-108102428D01*
X154202857Y-108102428D02*
X154226666Y-108078619D01*
X154226666Y-108078619D02*
X154274285Y-108054809D01*
X139133333Y-73924809D02*
X139133333Y-74281952D01*
X139133333Y-74281952D02*
X139109524Y-74353380D01*
X139109524Y-74353380D02*
X139061905Y-74401000D01*
X139061905Y-74401000D02*
X138990476Y-74424809D01*
X138990476Y-74424809D02*
X138942857Y-74424809D01*
X139585714Y-73924809D02*
X139490476Y-73924809D01*
X139490476Y-73924809D02*
X139442857Y-73948619D01*
X139442857Y-73948619D02*
X139419047Y-73972428D01*
X139419047Y-73972428D02*
X139371428Y-74043857D01*
X139371428Y-74043857D02*
X139347619Y-74139095D01*
X139347619Y-74139095D02*
X139347619Y-74329571D01*
X139347619Y-74329571D02*
X139371428Y-74377190D01*
X139371428Y-74377190D02*
X139395238Y-74401000D01*
X139395238Y-74401000D02*
X139442857Y-74424809D01*
X139442857Y-74424809D02*
X139538095Y-74424809D01*
X139538095Y-74424809D02*
X139585714Y-74401000D01*
X139585714Y-74401000D02*
X139609523Y-74377190D01*
X139609523Y-74377190D02*
X139633333Y-74329571D01*
X139633333Y-74329571D02*
X139633333Y-74210523D01*
X139633333Y-74210523D02*
X139609523Y-74162904D01*
X139609523Y-74162904D02*
X139585714Y-74139095D01*
X139585714Y-74139095D02*
X139538095Y-74115285D01*
X139538095Y-74115285D02*
X139442857Y-74115285D01*
X139442857Y-74115285D02*
X139395238Y-74139095D01*
X139395238Y-74139095D02*
X139371428Y-74162904D01*
X139371428Y-74162904D02*
X139347619Y-74210523D01*
X176874809Y-85954761D02*
X177231952Y-85954761D01*
X177231952Y-85954761D02*
X177303380Y-85978570D01*
X177303380Y-85978570D02*
X177351000Y-86026189D01*
X177351000Y-86026189D02*
X177374809Y-86097618D01*
X177374809Y-86097618D02*
X177374809Y-86145237D01*
X176874809Y-85764285D02*
X176874809Y-85454761D01*
X176874809Y-85454761D02*
X177065285Y-85621428D01*
X177065285Y-85621428D02*
X177065285Y-85549999D01*
X177065285Y-85549999D02*
X177089095Y-85502380D01*
X177089095Y-85502380D02*
X177112904Y-85478571D01*
X177112904Y-85478571D02*
X177160523Y-85454761D01*
X177160523Y-85454761D02*
X177279571Y-85454761D01*
X177279571Y-85454761D02*
X177327190Y-85478571D01*
X177327190Y-85478571D02*
X177351000Y-85502380D01*
X177351000Y-85502380D02*
X177374809Y-85549999D01*
X177374809Y-85549999D02*
X177374809Y-85692856D01*
X177374809Y-85692856D02*
X177351000Y-85740475D01*
X177351000Y-85740475D02*
X177327190Y-85764285D01*
X177041476Y-85026190D02*
X177374809Y-85026190D01*
X176851000Y-85145238D02*
X177208142Y-85264285D01*
X177208142Y-85264285D02*
X177208142Y-84954762D01*
X152195238Y-78574809D02*
X152195238Y-78931952D01*
X152195238Y-78931952D02*
X152171429Y-79003380D01*
X152171429Y-79003380D02*
X152123810Y-79051000D01*
X152123810Y-79051000D02*
X152052381Y-79074809D01*
X152052381Y-79074809D02*
X152004762Y-79074809D01*
X152409524Y-78622428D02*
X152433333Y-78598619D01*
X152433333Y-78598619D02*
X152480952Y-78574809D01*
X152480952Y-78574809D02*
X152600000Y-78574809D01*
X152600000Y-78574809D02*
X152647619Y-78598619D01*
X152647619Y-78598619D02*
X152671428Y-78622428D01*
X152671428Y-78622428D02*
X152695238Y-78670047D01*
X152695238Y-78670047D02*
X152695238Y-78717666D01*
X152695238Y-78717666D02*
X152671428Y-78789095D01*
X152671428Y-78789095D02*
X152385714Y-79074809D01*
X152385714Y-79074809D02*
X152695238Y-79074809D01*
X153123809Y-78741476D02*
X153123809Y-79074809D01*
X153004761Y-78551000D02*
X152885714Y-78908142D01*
X152885714Y-78908142D02*
X153195237Y-78908142D01*
X180619047Y-74024809D02*
X180619047Y-73524809D01*
X180619047Y-73762904D02*
X180904761Y-73762904D01*
X180904761Y-74024809D02*
X180904761Y-73524809D01*
X181404762Y-74024809D02*
X181119048Y-74024809D01*
X181261905Y-74024809D02*
X181261905Y-73524809D01*
X181261905Y-73524809D02*
X181214286Y-73596238D01*
X181214286Y-73596238D02*
X181166667Y-73643857D01*
X181166667Y-73643857D02*
X181119048Y-73667666D01*
X125595238Y-132024809D02*
X125595238Y-132381952D01*
X125595238Y-132381952D02*
X125571429Y-132453380D01*
X125571429Y-132453380D02*
X125523810Y-132501000D01*
X125523810Y-132501000D02*
X125452381Y-132524809D01*
X125452381Y-132524809D02*
X125404762Y-132524809D01*
X125785714Y-132024809D02*
X126095238Y-132024809D01*
X126095238Y-132024809D02*
X125928571Y-132215285D01*
X125928571Y-132215285D02*
X126000000Y-132215285D01*
X126000000Y-132215285D02*
X126047619Y-132239095D01*
X126047619Y-132239095D02*
X126071428Y-132262904D01*
X126071428Y-132262904D02*
X126095238Y-132310523D01*
X126095238Y-132310523D02*
X126095238Y-132429571D01*
X126095238Y-132429571D02*
X126071428Y-132477190D01*
X126071428Y-132477190D02*
X126047619Y-132501000D01*
X126047619Y-132501000D02*
X126000000Y-132524809D01*
X126000000Y-132524809D02*
X125857143Y-132524809D01*
X125857143Y-132524809D02*
X125809524Y-132501000D01*
X125809524Y-132501000D02*
X125785714Y-132477190D01*
X126261904Y-132024809D02*
X126571428Y-132024809D01*
X126571428Y-132024809D02*
X126404761Y-132215285D01*
X126404761Y-132215285D02*
X126476190Y-132215285D01*
X126476190Y-132215285D02*
X126523809Y-132239095D01*
X126523809Y-132239095D02*
X126547618Y-132262904D01*
X126547618Y-132262904D02*
X126571428Y-132310523D01*
X126571428Y-132310523D02*
X126571428Y-132429571D01*
X126571428Y-132429571D02*
X126547618Y-132477190D01*
X126547618Y-132477190D02*
X126523809Y-132501000D01*
X126523809Y-132501000D02*
X126476190Y-132524809D01*
X126476190Y-132524809D02*
X126333333Y-132524809D01*
X126333333Y-132524809D02*
X126285714Y-132501000D01*
X126285714Y-132501000D02*
X126261904Y-132477190D01*
X143545238Y-90574809D02*
X143545238Y-90931952D01*
X143545238Y-90931952D02*
X143521429Y-91003380D01*
X143521429Y-91003380D02*
X143473810Y-91051000D01*
X143473810Y-91051000D02*
X143402381Y-91074809D01*
X143402381Y-91074809D02*
X143354762Y-91074809D01*
X143759524Y-90622428D02*
X143783333Y-90598619D01*
X143783333Y-90598619D02*
X143830952Y-90574809D01*
X143830952Y-90574809D02*
X143950000Y-90574809D01*
X143950000Y-90574809D02*
X143997619Y-90598619D01*
X143997619Y-90598619D02*
X144021428Y-90622428D01*
X144021428Y-90622428D02*
X144045238Y-90670047D01*
X144045238Y-90670047D02*
X144045238Y-90717666D01*
X144045238Y-90717666D02*
X144021428Y-90789095D01*
X144021428Y-90789095D02*
X143735714Y-91074809D01*
X143735714Y-91074809D02*
X144045238Y-91074809D01*
X144211904Y-90574809D02*
X144545237Y-90574809D01*
X144545237Y-90574809D02*
X144330952Y-91074809D01*
X163104809Y-116123333D02*
X162866714Y-116289999D01*
X163104809Y-116409047D02*
X162604809Y-116409047D01*
X162604809Y-116409047D02*
X162604809Y-116218571D01*
X162604809Y-116218571D02*
X162628619Y-116170952D01*
X162628619Y-116170952D02*
X162652428Y-116147142D01*
X162652428Y-116147142D02*
X162700047Y-116123333D01*
X162700047Y-116123333D02*
X162771476Y-116123333D01*
X162771476Y-116123333D02*
X162819095Y-116147142D01*
X162819095Y-116147142D02*
X162842904Y-116170952D01*
X162842904Y-116170952D02*
X162866714Y-116218571D01*
X162866714Y-116218571D02*
X162866714Y-116409047D01*
X163104809Y-115647142D02*
X163104809Y-115932856D01*
X163104809Y-115789999D02*
X162604809Y-115789999D01*
X162604809Y-115789999D02*
X162676238Y-115837618D01*
X162676238Y-115837618D02*
X162723857Y-115885237D01*
X162723857Y-115885237D02*
X162747666Y-115932856D01*
X143546666Y-103857190D02*
X143522857Y-103881000D01*
X143522857Y-103881000D02*
X143451428Y-103904809D01*
X143451428Y-103904809D02*
X143403809Y-103904809D01*
X143403809Y-103904809D02*
X143332381Y-103881000D01*
X143332381Y-103881000D02*
X143284762Y-103833380D01*
X143284762Y-103833380D02*
X143260952Y-103785761D01*
X143260952Y-103785761D02*
X143237143Y-103690523D01*
X143237143Y-103690523D02*
X143237143Y-103619095D01*
X143237143Y-103619095D02*
X143260952Y-103523857D01*
X143260952Y-103523857D02*
X143284762Y-103476238D01*
X143284762Y-103476238D02*
X143332381Y-103428619D01*
X143332381Y-103428619D02*
X143403809Y-103404809D01*
X143403809Y-103404809D02*
X143451428Y-103404809D01*
X143451428Y-103404809D02*
X143522857Y-103428619D01*
X143522857Y-103428619D02*
X143546666Y-103452428D01*
X143784762Y-103904809D02*
X143880000Y-103904809D01*
X143880000Y-103904809D02*
X143927619Y-103881000D01*
X143927619Y-103881000D02*
X143951428Y-103857190D01*
X143951428Y-103857190D02*
X143999047Y-103785761D01*
X143999047Y-103785761D02*
X144022857Y-103690523D01*
X144022857Y-103690523D02*
X144022857Y-103500047D01*
X144022857Y-103500047D02*
X143999047Y-103452428D01*
X143999047Y-103452428D02*
X143975238Y-103428619D01*
X143975238Y-103428619D02*
X143927619Y-103404809D01*
X143927619Y-103404809D02*
X143832381Y-103404809D01*
X143832381Y-103404809D02*
X143784762Y-103428619D01*
X143784762Y-103428619D02*
X143760952Y-103452428D01*
X143760952Y-103452428D02*
X143737143Y-103500047D01*
X143737143Y-103500047D02*
X143737143Y-103619095D01*
X143737143Y-103619095D02*
X143760952Y-103666714D01*
X143760952Y-103666714D02*
X143784762Y-103690523D01*
X143784762Y-103690523D02*
X143832381Y-103714333D01*
X143832381Y-103714333D02*
X143927619Y-103714333D01*
X143927619Y-103714333D02*
X143975238Y-103690523D01*
X143975238Y-103690523D02*
X143999047Y-103666714D01*
X143999047Y-103666714D02*
X144022857Y-103619095D01*
X145719047Y-104124809D02*
X145719047Y-104529571D01*
X145719047Y-104529571D02*
X145742857Y-104577190D01*
X145742857Y-104577190D02*
X145766666Y-104601000D01*
X145766666Y-104601000D02*
X145814285Y-104624809D01*
X145814285Y-104624809D02*
X145909523Y-104624809D01*
X145909523Y-104624809D02*
X145957142Y-104601000D01*
X145957142Y-104601000D02*
X145980952Y-104577190D01*
X145980952Y-104577190D02*
X146004761Y-104529571D01*
X146004761Y-104529571D02*
X146004761Y-104124809D01*
X146504762Y-104624809D02*
X146219048Y-104624809D01*
X146361905Y-104624809D02*
X146361905Y-104124809D01*
X146361905Y-104124809D02*
X146314286Y-104196238D01*
X146314286Y-104196238D02*
X146266667Y-104243857D01*
X146266667Y-104243857D02*
X146219048Y-104267666D01*
X125728571Y-123277190D02*
X125704762Y-123301000D01*
X125704762Y-123301000D02*
X125633333Y-123324809D01*
X125633333Y-123324809D02*
X125585714Y-123324809D01*
X125585714Y-123324809D02*
X125514286Y-123301000D01*
X125514286Y-123301000D02*
X125466667Y-123253380D01*
X125466667Y-123253380D02*
X125442857Y-123205761D01*
X125442857Y-123205761D02*
X125419048Y-123110523D01*
X125419048Y-123110523D02*
X125419048Y-123039095D01*
X125419048Y-123039095D02*
X125442857Y-122943857D01*
X125442857Y-122943857D02*
X125466667Y-122896238D01*
X125466667Y-122896238D02*
X125514286Y-122848619D01*
X125514286Y-122848619D02*
X125585714Y-122824809D01*
X125585714Y-122824809D02*
X125633333Y-122824809D01*
X125633333Y-122824809D02*
X125704762Y-122848619D01*
X125704762Y-122848619D02*
X125728571Y-122872428D01*
X125895238Y-122824809D02*
X126204762Y-122824809D01*
X126204762Y-122824809D02*
X126038095Y-123015285D01*
X126038095Y-123015285D02*
X126109524Y-123015285D01*
X126109524Y-123015285D02*
X126157143Y-123039095D01*
X126157143Y-123039095D02*
X126180952Y-123062904D01*
X126180952Y-123062904D02*
X126204762Y-123110523D01*
X126204762Y-123110523D02*
X126204762Y-123229571D01*
X126204762Y-123229571D02*
X126180952Y-123277190D01*
X126180952Y-123277190D02*
X126157143Y-123301000D01*
X126157143Y-123301000D02*
X126109524Y-123324809D01*
X126109524Y-123324809D02*
X125966667Y-123324809D01*
X125966667Y-123324809D02*
X125919048Y-123301000D01*
X125919048Y-123301000D02*
X125895238Y-123277190D01*
X126442857Y-123324809D02*
X126538095Y-123324809D01*
X126538095Y-123324809D02*
X126585714Y-123301000D01*
X126585714Y-123301000D02*
X126609523Y-123277190D01*
X126609523Y-123277190D02*
X126657142Y-123205761D01*
X126657142Y-123205761D02*
X126680952Y-123110523D01*
X126680952Y-123110523D02*
X126680952Y-122920047D01*
X126680952Y-122920047D02*
X126657142Y-122872428D01*
X126657142Y-122872428D02*
X126633333Y-122848619D01*
X126633333Y-122848619D02*
X126585714Y-122824809D01*
X126585714Y-122824809D02*
X126490476Y-122824809D01*
X126490476Y-122824809D02*
X126442857Y-122848619D01*
X126442857Y-122848619D02*
X126419047Y-122872428D01*
X126419047Y-122872428D02*
X126395238Y-122920047D01*
X126395238Y-122920047D02*
X126395238Y-123039095D01*
X126395238Y-123039095D02*
X126419047Y-123086714D01*
X126419047Y-123086714D02*
X126442857Y-123110523D01*
X126442857Y-123110523D02*
X126490476Y-123134333D01*
X126490476Y-123134333D02*
X126585714Y-123134333D01*
X126585714Y-123134333D02*
X126633333Y-123110523D01*
X126633333Y-123110523D02*
X126657142Y-123086714D01*
X126657142Y-123086714D02*
X126680952Y-123039095D01*
X170666666Y-115354809D02*
X170500000Y-115116714D01*
X170380952Y-115354809D02*
X170380952Y-114854809D01*
X170380952Y-114854809D02*
X170571428Y-114854809D01*
X170571428Y-114854809D02*
X170619047Y-114878619D01*
X170619047Y-114878619D02*
X170642857Y-114902428D01*
X170642857Y-114902428D02*
X170666666Y-114950047D01*
X170666666Y-114950047D02*
X170666666Y-115021476D01*
X170666666Y-115021476D02*
X170642857Y-115069095D01*
X170642857Y-115069095D02*
X170619047Y-115092904D01*
X170619047Y-115092904D02*
X170571428Y-115116714D01*
X170571428Y-115116714D02*
X170380952Y-115116714D01*
X170833333Y-114854809D02*
X171142857Y-114854809D01*
X171142857Y-114854809D02*
X170976190Y-115045285D01*
X170976190Y-115045285D02*
X171047619Y-115045285D01*
X171047619Y-115045285D02*
X171095238Y-115069095D01*
X171095238Y-115069095D02*
X171119047Y-115092904D01*
X171119047Y-115092904D02*
X171142857Y-115140523D01*
X171142857Y-115140523D02*
X171142857Y-115259571D01*
X171142857Y-115259571D02*
X171119047Y-115307190D01*
X171119047Y-115307190D02*
X171095238Y-115331000D01*
X171095238Y-115331000D02*
X171047619Y-115354809D01*
X171047619Y-115354809D02*
X170904762Y-115354809D01*
X170904762Y-115354809D02*
X170857143Y-115331000D01*
X170857143Y-115331000D02*
X170833333Y-115307190D01*
X123916666Y-120064809D02*
X123750000Y-119826714D01*
X123630952Y-120064809D02*
X123630952Y-119564809D01*
X123630952Y-119564809D02*
X123821428Y-119564809D01*
X123821428Y-119564809D02*
X123869047Y-119588619D01*
X123869047Y-119588619D02*
X123892857Y-119612428D01*
X123892857Y-119612428D02*
X123916666Y-119660047D01*
X123916666Y-119660047D02*
X123916666Y-119731476D01*
X123916666Y-119731476D02*
X123892857Y-119779095D01*
X123892857Y-119779095D02*
X123869047Y-119802904D01*
X123869047Y-119802904D02*
X123821428Y-119826714D01*
X123821428Y-119826714D02*
X123630952Y-119826714D01*
X124083333Y-119564809D02*
X124416666Y-119564809D01*
X124416666Y-119564809D02*
X124202381Y-120064809D01*
X181374809Y-103854761D02*
X181731952Y-103854761D01*
X181731952Y-103854761D02*
X181803380Y-103878570D01*
X181803380Y-103878570D02*
X181851000Y-103926189D01*
X181851000Y-103926189D02*
X181874809Y-103997618D01*
X181874809Y-103997618D02*
X181874809Y-104045237D01*
X181874809Y-103354761D02*
X181874809Y-103640475D01*
X181874809Y-103497618D02*
X181374809Y-103497618D01*
X181374809Y-103497618D02*
X181446238Y-103545237D01*
X181446238Y-103545237D02*
X181493857Y-103592856D01*
X181493857Y-103592856D02*
X181517666Y-103640475D01*
X181422428Y-103164285D02*
X181398619Y-103140476D01*
X181398619Y-103140476D02*
X181374809Y-103092857D01*
X181374809Y-103092857D02*
X181374809Y-102973809D01*
X181374809Y-102973809D02*
X181398619Y-102926190D01*
X181398619Y-102926190D02*
X181422428Y-102902381D01*
X181422428Y-102902381D02*
X181470047Y-102878571D01*
X181470047Y-102878571D02*
X181517666Y-102878571D01*
X181517666Y-102878571D02*
X181589095Y-102902381D01*
X181589095Y-102902381D02*
X181874809Y-103188095D01*
X181874809Y-103188095D02*
X181874809Y-102878571D01*
X155566666Y-92587190D02*
X155542857Y-92611000D01*
X155542857Y-92611000D02*
X155471428Y-92634809D01*
X155471428Y-92634809D02*
X155423809Y-92634809D01*
X155423809Y-92634809D02*
X155352381Y-92611000D01*
X155352381Y-92611000D02*
X155304762Y-92563380D01*
X155304762Y-92563380D02*
X155280952Y-92515761D01*
X155280952Y-92515761D02*
X155257143Y-92420523D01*
X155257143Y-92420523D02*
X155257143Y-92349095D01*
X155257143Y-92349095D02*
X155280952Y-92253857D01*
X155280952Y-92253857D02*
X155304762Y-92206238D01*
X155304762Y-92206238D02*
X155352381Y-92158619D01*
X155352381Y-92158619D02*
X155423809Y-92134809D01*
X155423809Y-92134809D02*
X155471428Y-92134809D01*
X155471428Y-92134809D02*
X155542857Y-92158619D01*
X155542857Y-92158619D02*
X155566666Y-92182428D01*
X155733333Y-92134809D02*
X156042857Y-92134809D01*
X156042857Y-92134809D02*
X155876190Y-92325285D01*
X155876190Y-92325285D02*
X155947619Y-92325285D01*
X155947619Y-92325285D02*
X155995238Y-92349095D01*
X155995238Y-92349095D02*
X156019047Y-92372904D01*
X156019047Y-92372904D02*
X156042857Y-92420523D01*
X156042857Y-92420523D02*
X156042857Y-92539571D01*
X156042857Y-92539571D02*
X156019047Y-92587190D01*
X156019047Y-92587190D02*
X155995238Y-92611000D01*
X155995238Y-92611000D02*
X155947619Y-92634809D01*
X155947619Y-92634809D02*
X155804762Y-92634809D01*
X155804762Y-92634809D02*
X155757143Y-92611000D01*
X155757143Y-92611000D02*
X155733333Y-92587190D01*
X147019047Y-115774809D02*
X147019047Y-116179571D01*
X147019047Y-116179571D02*
X147042857Y-116227190D01*
X147042857Y-116227190D02*
X147066666Y-116251000D01*
X147066666Y-116251000D02*
X147114285Y-116274809D01*
X147114285Y-116274809D02*
X147209523Y-116274809D01*
X147209523Y-116274809D02*
X147257142Y-116251000D01*
X147257142Y-116251000D02*
X147280952Y-116227190D01*
X147280952Y-116227190D02*
X147304761Y-116179571D01*
X147304761Y-116179571D02*
X147304761Y-115774809D01*
X147519048Y-115822428D02*
X147542857Y-115798619D01*
X147542857Y-115798619D02*
X147590476Y-115774809D01*
X147590476Y-115774809D02*
X147709524Y-115774809D01*
X147709524Y-115774809D02*
X147757143Y-115798619D01*
X147757143Y-115798619D02*
X147780952Y-115822428D01*
X147780952Y-115822428D02*
X147804762Y-115870047D01*
X147804762Y-115870047D02*
X147804762Y-115917666D01*
X147804762Y-115917666D02*
X147780952Y-115989095D01*
X147780952Y-115989095D02*
X147495238Y-116274809D01*
X147495238Y-116274809D02*
X147804762Y-116274809D01*
X142427190Y-96683333D02*
X142451000Y-96707142D01*
X142451000Y-96707142D02*
X142474809Y-96778571D01*
X142474809Y-96778571D02*
X142474809Y-96826190D01*
X142474809Y-96826190D02*
X142451000Y-96897618D01*
X142451000Y-96897618D02*
X142403380Y-96945237D01*
X142403380Y-96945237D02*
X142355761Y-96969047D01*
X142355761Y-96969047D02*
X142260523Y-96992856D01*
X142260523Y-96992856D02*
X142189095Y-96992856D01*
X142189095Y-96992856D02*
X142093857Y-96969047D01*
X142093857Y-96969047D02*
X142046238Y-96945237D01*
X142046238Y-96945237D02*
X141998619Y-96897618D01*
X141998619Y-96897618D02*
X141974809Y-96826190D01*
X141974809Y-96826190D02*
X141974809Y-96778571D01*
X141974809Y-96778571D02*
X141998619Y-96707142D01*
X141998619Y-96707142D02*
X142022428Y-96683333D01*
X142022428Y-96492856D02*
X141998619Y-96469047D01*
X141998619Y-96469047D02*
X141974809Y-96421428D01*
X141974809Y-96421428D02*
X141974809Y-96302380D01*
X141974809Y-96302380D02*
X141998619Y-96254761D01*
X141998619Y-96254761D02*
X142022428Y-96230952D01*
X142022428Y-96230952D02*
X142070047Y-96207142D01*
X142070047Y-96207142D02*
X142117666Y-96207142D01*
X142117666Y-96207142D02*
X142189095Y-96230952D01*
X142189095Y-96230952D02*
X142474809Y-96516666D01*
X142474809Y-96516666D02*
X142474809Y-96207142D01*
X170705238Y-117344809D02*
X170705238Y-117701952D01*
X170705238Y-117701952D02*
X170681429Y-117773380D01*
X170681429Y-117773380D02*
X170633810Y-117821000D01*
X170633810Y-117821000D02*
X170562381Y-117844809D01*
X170562381Y-117844809D02*
X170514762Y-117844809D01*
X170919524Y-117392428D02*
X170943333Y-117368619D01*
X170943333Y-117368619D02*
X170990952Y-117344809D01*
X170990952Y-117344809D02*
X171110000Y-117344809D01*
X171110000Y-117344809D02*
X171157619Y-117368619D01*
X171157619Y-117368619D02*
X171181428Y-117392428D01*
X171181428Y-117392428D02*
X171205238Y-117440047D01*
X171205238Y-117440047D02*
X171205238Y-117487666D01*
X171205238Y-117487666D02*
X171181428Y-117559095D01*
X171181428Y-117559095D02*
X170895714Y-117844809D01*
X170895714Y-117844809D02*
X171205238Y-117844809D01*
X171681428Y-117844809D02*
X171395714Y-117844809D01*
X171538571Y-117844809D02*
X171538571Y-117344809D01*
X171538571Y-117344809D02*
X171490952Y-117416238D01*
X171490952Y-117416238D02*
X171443333Y-117463857D01*
X171443333Y-117463857D02*
X171395714Y-117487666D01*
X137445238Y-81224809D02*
X137445238Y-81581952D01*
X137445238Y-81581952D02*
X137421429Y-81653380D01*
X137421429Y-81653380D02*
X137373810Y-81701000D01*
X137373810Y-81701000D02*
X137302381Y-81724809D01*
X137302381Y-81724809D02*
X137254762Y-81724809D01*
X137659524Y-81272428D02*
X137683333Y-81248619D01*
X137683333Y-81248619D02*
X137730952Y-81224809D01*
X137730952Y-81224809D02*
X137850000Y-81224809D01*
X137850000Y-81224809D02*
X137897619Y-81248619D01*
X137897619Y-81248619D02*
X137921428Y-81272428D01*
X137921428Y-81272428D02*
X137945238Y-81320047D01*
X137945238Y-81320047D02*
X137945238Y-81367666D01*
X137945238Y-81367666D02*
X137921428Y-81439095D01*
X137921428Y-81439095D02*
X137635714Y-81724809D01*
X137635714Y-81724809D02*
X137945238Y-81724809D01*
X138373809Y-81224809D02*
X138278571Y-81224809D01*
X138278571Y-81224809D02*
X138230952Y-81248619D01*
X138230952Y-81248619D02*
X138207142Y-81272428D01*
X138207142Y-81272428D02*
X138159523Y-81343857D01*
X138159523Y-81343857D02*
X138135714Y-81439095D01*
X138135714Y-81439095D02*
X138135714Y-81629571D01*
X138135714Y-81629571D02*
X138159523Y-81677190D01*
X138159523Y-81677190D02*
X138183333Y-81701000D01*
X138183333Y-81701000D02*
X138230952Y-81724809D01*
X138230952Y-81724809D02*
X138326190Y-81724809D01*
X138326190Y-81724809D02*
X138373809Y-81701000D01*
X138373809Y-81701000D02*
X138397618Y-81677190D01*
X138397618Y-81677190D02*
X138421428Y-81629571D01*
X138421428Y-81629571D02*
X138421428Y-81510523D01*
X138421428Y-81510523D02*
X138397618Y-81462904D01*
X138397618Y-81462904D02*
X138373809Y-81439095D01*
X138373809Y-81439095D02*
X138326190Y-81415285D01*
X138326190Y-81415285D02*
X138230952Y-81415285D01*
X138230952Y-81415285D02*
X138183333Y-81439095D01*
X138183333Y-81439095D02*
X138159523Y-81462904D01*
X138159523Y-81462904D02*
X138135714Y-81510523D01*
X142136666Y-100767190D02*
X142112857Y-100791000D01*
X142112857Y-100791000D02*
X142041428Y-100814809D01*
X142041428Y-100814809D02*
X141993809Y-100814809D01*
X141993809Y-100814809D02*
X141922381Y-100791000D01*
X141922381Y-100791000D02*
X141874762Y-100743380D01*
X141874762Y-100743380D02*
X141850952Y-100695761D01*
X141850952Y-100695761D02*
X141827143Y-100600523D01*
X141827143Y-100600523D02*
X141827143Y-100529095D01*
X141827143Y-100529095D02*
X141850952Y-100433857D01*
X141850952Y-100433857D02*
X141874762Y-100386238D01*
X141874762Y-100386238D02*
X141922381Y-100338619D01*
X141922381Y-100338619D02*
X141993809Y-100314809D01*
X141993809Y-100314809D02*
X142041428Y-100314809D01*
X142041428Y-100314809D02*
X142112857Y-100338619D01*
X142112857Y-100338619D02*
X142136666Y-100362428D01*
X142589047Y-100314809D02*
X142350952Y-100314809D01*
X142350952Y-100314809D02*
X142327143Y-100552904D01*
X142327143Y-100552904D02*
X142350952Y-100529095D01*
X142350952Y-100529095D02*
X142398571Y-100505285D01*
X142398571Y-100505285D02*
X142517619Y-100505285D01*
X142517619Y-100505285D02*
X142565238Y-100529095D01*
X142565238Y-100529095D02*
X142589047Y-100552904D01*
X142589047Y-100552904D02*
X142612857Y-100600523D01*
X142612857Y-100600523D02*
X142612857Y-100719571D01*
X142612857Y-100719571D02*
X142589047Y-100767190D01*
X142589047Y-100767190D02*
X142565238Y-100791000D01*
X142565238Y-100791000D02*
X142517619Y-100814809D01*
X142517619Y-100814809D02*
X142398571Y-100814809D01*
X142398571Y-100814809D02*
X142350952Y-100791000D01*
X142350952Y-100791000D02*
X142327143Y-100767190D01*
X120683333Y-104574809D02*
X120683333Y-104931952D01*
X120683333Y-104931952D02*
X120659524Y-105003380D01*
X120659524Y-105003380D02*
X120611905Y-105051000D01*
X120611905Y-105051000D02*
X120540476Y-105074809D01*
X120540476Y-105074809D02*
X120492857Y-105074809D01*
X120992857Y-104789095D02*
X120945238Y-104765285D01*
X120945238Y-104765285D02*
X120921428Y-104741476D01*
X120921428Y-104741476D02*
X120897619Y-104693857D01*
X120897619Y-104693857D02*
X120897619Y-104670047D01*
X120897619Y-104670047D02*
X120921428Y-104622428D01*
X120921428Y-104622428D02*
X120945238Y-104598619D01*
X120945238Y-104598619D02*
X120992857Y-104574809D01*
X120992857Y-104574809D02*
X121088095Y-104574809D01*
X121088095Y-104574809D02*
X121135714Y-104598619D01*
X121135714Y-104598619D02*
X121159523Y-104622428D01*
X121159523Y-104622428D02*
X121183333Y-104670047D01*
X121183333Y-104670047D02*
X121183333Y-104693857D01*
X121183333Y-104693857D02*
X121159523Y-104741476D01*
X121159523Y-104741476D02*
X121135714Y-104765285D01*
X121135714Y-104765285D02*
X121088095Y-104789095D01*
X121088095Y-104789095D02*
X120992857Y-104789095D01*
X120992857Y-104789095D02*
X120945238Y-104812904D01*
X120945238Y-104812904D02*
X120921428Y-104836714D01*
X120921428Y-104836714D02*
X120897619Y-104884333D01*
X120897619Y-104884333D02*
X120897619Y-104979571D01*
X120897619Y-104979571D02*
X120921428Y-105027190D01*
X120921428Y-105027190D02*
X120945238Y-105051000D01*
X120945238Y-105051000D02*
X120992857Y-105074809D01*
X120992857Y-105074809D02*
X121088095Y-105074809D01*
X121088095Y-105074809D02*
X121135714Y-105051000D01*
X121135714Y-105051000D02*
X121159523Y-105027190D01*
X121159523Y-105027190D02*
X121183333Y-104979571D01*
X121183333Y-104979571D02*
X121183333Y-104884333D01*
X121183333Y-104884333D02*
X121159523Y-104836714D01*
X121159523Y-104836714D02*
X121135714Y-104812904D01*
X121135714Y-104812904D02*
X121088095Y-104789095D01*
X179924809Y-103616666D02*
X180281952Y-103616666D01*
X180281952Y-103616666D02*
X180353380Y-103640475D01*
X180353380Y-103640475D02*
X180401000Y-103688094D01*
X180401000Y-103688094D02*
X180424809Y-103759523D01*
X180424809Y-103759523D02*
X180424809Y-103807142D01*
X179924809Y-103426190D02*
X179924809Y-103092857D01*
X179924809Y-103092857D02*
X180424809Y-103307142D01*
X123740952Y-125824809D02*
X123740952Y-125324809D01*
X123740952Y-125324809D02*
X123860000Y-125324809D01*
X123860000Y-125324809D02*
X123931428Y-125348619D01*
X123931428Y-125348619D02*
X123979047Y-125396238D01*
X123979047Y-125396238D02*
X124002857Y-125443857D01*
X124002857Y-125443857D02*
X124026666Y-125539095D01*
X124026666Y-125539095D02*
X124026666Y-125610523D01*
X124026666Y-125610523D02*
X124002857Y-125705761D01*
X124002857Y-125705761D02*
X123979047Y-125753380D01*
X123979047Y-125753380D02*
X123931428Y-125801000D01*
X123931428Y-125801000D02*
X123860000Y-125824809D01*
X123860000Y-125824809D02*
X123740952Y-125824809D01*
X124193333Y-125324809D02*
X124502857Y-125324809D01*
X124502857Y-125324809D02*
X124336190Y-125515285D01*
X124336190Y-125515285D02*
X124407619Y-125515285D01*
X124407619Y-125515285D02*
X124455238Y-125539095D01*
X124455238Y-125539095D02*
X124479047Y-125562904D01*
X124479047Y-125562904D02*
X124502857Y-125610523D01*
X124502857Y-125610523D02*
X124502857Y-125729571D01*
X124502857Y-125729571D02*
X124479047Y-125777190D01*
X124479047Y-125777190D02*
X124455238Y-125801000D01*
X124455238Y-125801000D02*
X124407619Y-125824809D01*
X124407619Y-125824809D02*
X124264762Y-125824809D01*
X124264762Y-125824809D02*
X124217143Y-125801000D01*
X124217143Y-125801000D02*
X124193333Y-125777190D01*
X140545238Y-104274809D02*
X140545238Y-104631952D01*
X140545238Y-104631952D02*
X140521429Y-104703380D01*
X140521429Y-104703380D02*
X140473810Y-104751000D01*
X140473810Y-104751000D02*
X140402381Y-104774809D01*
X140402381Y-104774809D02*
X140354762Y-104774809D01*
X141045238Y-104774809D02*
X140759524Y-104774809D01*
X140902381Y-104774809D02*
X140902381Y-104274809D01*
X140902381Y-104274809D02*
X140854762Y-104346238D01*
X140854762Y-104346238D02*
X140807143Y-104393857D01*
X140807143Y-104393857D02*
X140759524Y-104417666D01*
X141473809Y-104274809D02*
X141378571Y-104274809D01*
X141378571Y-104274809D02*
X141330952Y-104298619D01*
X141330952Y-104298619D02*
X141307142Y-104322428D01*
X141307142Y-104322428D02*
X141259523Y-104393857D01*
X141259523Y-104393857D02*
X141235714Y-104489095D01*
X141235714Y-104489095D02*
X141235714Y-104679571D01*
X141235714Y-104679571D02*
X141259523Y-104727190D01*
X141259523Y-104727190D02*
X141283333Y-104751000D01*
X141283333Y-104751000D02*
X141330952Y-104774809D01*
X141330952Y-104774809D02*
X141426190Y-104774809D01*
X141426190Y-104774809D02*
X141473809Y-104751000D01*
X141473809Y-104751000D02*
X141497618Y-104727190D01*
X141497618Y-104727190D02*
X141521428Y-104679571D01*
X141521428Y-104679571D02*
X141521428Y-104560523D01*
X141521428Y-104560523D02*
X141497618Y-104512904D01*
X141497618Y-104512904D02*
X141473809Y-104489095D01*
X141473809Y-104489095D02*
X141426190Y-104465285D01*
X141426190Y-104465285D02*
X141330952Y-104465285D01*
X141330952Y-104465285D02*
X141283333Y-104489095D01*
X141283333Y-104489095D02*
X141259523Y-104512904D01*
X141259523Y-104512904D02*
X141235714Y-104560523D01*
X168233333Y-132874809D02*
X168233333Y-133231952D01*
X168233333Y-133231952D02*
X168209524Y-133303380D01*
X168209524Y-133303380D02*
X168161905Y-133351000D01*
X168161905Y-133351000D02*
X168090476Y-133374809D01*
X168090476Y-133374809D02*
X168042857Y-133374809D01*
X168423809Y-132874809D02*
X168733333Y-132874809D01*
X168733333Y-132874809D02*
X168566666Y-133065285D01*
X168566666Y-133065285D02*
X168638095Y-133065285D01*
X168638095Y-133065285D02*
X168685714Y-133089095D01*
X168685714Y-133089095D02*
X168709523Y-133112904D01*
X168709523Y-133112904D02*
X168733333Y-133160523D01*
X168733333Y-133160523D02*
X168733333Y-133279571D01*
X168733333Y-133279571D02*
X168709523Y-133327190D01*
X168709523Y-133327190D02*
X168685714Y-133351000D01*
X168685714Y-133351000D02*
X168638095Y-133374809D01*
X168638095Y-133374809D02*
X168495238Y-133374809D01*
X168495238Y-133374809D02*
X168447619Y-133351000D01*
X168447619Y-133351000D02*
X168423809Y-133327190D01*
X164695238Y-132824809D02*
X164695238Y-133181952D01*
X164695238Y-133181952D02*
X164671429Y-133253380D01*
X164671429Y-133253380D02*
X164623810Y-133301000D01*
X164623810Y-133301000D02*
X164552381Y-133324809D01*
X164552381Y-133324809D02*
X164504762Y-133324809D01*
X164909524Y-132872428D02*
X164933333Y-132848619D01*
X164933333Y-132848619D02*
X164980952Y-132824809D01*
X164980952Y-132824809D02*
X165100000Y-132824809D01*
X165100000Y-132824809D02*
X165147619Y-132848619D01*
X165147619Y-132848619D02*
X165171428Y-132872428D01*
X165171428Y-132872428D02*
X165195238Y-132920047D01*
X165195238Y-132920047D02*
X165195238Y-132967666D01*
X165195238Y-132967666D02*
X165171428Y-133039095D01*
X165171428Y-133039095D02*
X164885714Y-133324809D01*
X164885714Y-133324809D02*
X165195238Y-133324809D01*
X165361904Y-132824809D02*
X165671428Y-132824809D01*
X165671428Y-132824809D02*
X165504761Y-133015285D01*
X165504761Y-133015285D02*
X165576190Y-133015285D01*
X165576190Y-133015285D02*
X165623809Y-133039095D01*
X165623809Y-133039095D02*
X165647618Y-133062904D01*
X165647618Y-133062904D02*
X165671428Y-133110523D01*
X165671428Y-133110523D02*
X165671428Y-133229571D01*
X165671428Y-133229571D02*
X165647618Y-133277190D01*
X165647618Y-133277190D02*
X165623809Y-133301000D01*
X165623809Y-133301000D02*
X165576190Y-133324809D01*
X165576190Y-133324809D02*
X165433333Y-133324809D01*
X165433333Y-133324809D02*
X165385714Y-133301000D01*
X165385714Y-133301000D02*
X165361904Y-133277190D01*
X135983333Y-81374809D02*
X135983333Y-81731952D01*
X135983333Y-81731952D02*
X135959524Y-81803380D01*
X135959524Y-81803380D02*
X135911905Y-81851000D01*
X135911905Y-81851000D02*
X135840476Y-81874809D01*
X135840476Y-81874809D02*
X135792857Y-81874809D01*
X136483333Y-81874809D02*
X136197619Y-81874809D01*
X136340476Y-81874809D02*
X136340476Y-81374809D01*
X136340476Y-81374809D02*
X136292857Y-81446238D01*
X136292857Y-81446238D02*
X136245238Y-81493857D01*
X136245238Y-81493857D02*
X136197619Y-81517666D01*
X163804809Y-116383333D02*
X163566714Y-116549999D01*
X163804809Y-116669047D02*
X163304809Y-116669047D01*
X163304809Y-116669047D02*
X163304809Y-116478571D01*
X163304809Y-116478571D02*
X163328619Y-116430952D01*
X163328619Y-116430952D02*
X163352428Y-116407142D01*
X163352428Y-116407142D02*
X163400047Y-116383333D01*
X163400047Y-116383333D02*
X163471476Y-116383333D01*
X163471476Y-116383333D02*
X163519095Y-116407142D01*
X163519095Y-116407142D02*
X163542904Y-116430952D01*
X163542904Y-116430952D02*
X163566714Y-116478571D01*
X163566714Y-116478571D02*
X163566714Y-116669047D01*
X163352428Y-116192856D02*
X163328619Y-116169047D01*
X163328619Y-116169047D02*
X163304809Y-116121428D01*
X163304809Y-116121428D02*
X163304809Y-116002380D01*
X163304809Y-116002380D02*
X163328619Y-115954761D01*
X163328619Y-115954761D02*
X163352428Y-115930952D01*
X163352428Y-115930952D02*
X163400047Y-115907142D01*
X163400047Y-115907142D02*
X163447666Y-115907142D01*
X163447666Y-115907142D02*
X163519095Y-115930952D01*
X163519095Y-115930952D02*
X163804809Y-116216666D01*
X163804809Y-116216666D02*
X163804809Y-115907142D01*
X180619047Y-133274809D02*
X180619047Y-132774809D01*
X180619047Y-133012904D02*
X180904761Y-133012904D01*
X180904761Y-133274809D02*
X180904761Y-132774809D01*
X181095238Y-132774809D02*
X181404762Y-132774809D01*
X181404762Y-132774809D02*
X181238095Y-132965285D01*
X181238095Y-132965285D02*
X181309524Y-132965285D01*
X181309524Y-132965285D02*
X181357143Y-132989095D01*
X181357143Y-132989095D02*
X181380952Y-133012904D01*
X181380952Y-133012904D02*
X181404762Y-133060523D01*
X181404762Y-133060523D02*
X181404762Y-133179571D01*
X181404762Y-133179571D02*
X181380952Y-133227190D01*
X181380952Y-133227190D02*
X181357143Y-133251000D01*
X181357143Y-133251000D02*
X181309524Y-133274809D01*
X181309524Y-133274809D02*
X181166667Y-133274809D01*
X181166667Y-133274809D02*
X181119048Y-133251000D01*
X181119048Y-133251000D02*
X181095238Y-133227190D01*
X144966666Y-92327190D02*
X144942857Y-92351000D01*
X144942857Y-92351000D02*
X144871428Y-92374809D01*
X144871428Y-92374809D02*
X144823809Y-92374809D01*
X144823809Y-92374809D02*
X144752381Y-92351000D01*
X144752381Y-92351000D02*
X144704762Y-92303380D01*
X144704762Y-92303380D02*
X144680952Y-92255761D01*
X144680952Y-92255761D02*
X144657143Y-92160523D01*
X144657143Y-92160523D02*
X144657143Y-92089095D01*
X144657143Y-92089095D02*
X144680952Y-91993857D01*
X144680952Y-91993857D02*
X144704762Y-91946238D01*
X144704762Y-91946238D02*
X144752381Y-91898619D01*
X144752381Y-91898619D02*
X144823809Y-91874809D01*
X144823809Y-91874809D02*
X144871428Y-91874809D01*
X144871428Y-91874809D02*
X144942857Y-91898619D01*
X144942857Y-91898619D02*
X144966666Y-91922428D01*
X145133333Y-91874809D02*
X145466666Y-91874809D01*
X145466666Y-91874809D02*
X145252381Y-92374809D01*
D13*
%TO.C,J38*%
X118620000Y-105750000D02*
X118620000Y-108250000D01*
X118920000Y-106050000D02*
X118920000Y-118770000D01*
X118920000Y-118770000D02*
X122940000Y-118770000D01*
X120420000Y-106050000D02*
X120420000Y-107050000D01*
X120420000Y-107050000D02*
X118920000Y-107050000D01*
X120420000Y-117770000D02*
X118920000Y-117770000D01*
X120420000Y-118770000D02*
X120420000Y-117770000D01*
X121120000Y-105750000D02*
X118620000Y-105750000D01*
X121230000Y-106050000D02*
X121230000Y-106550000D01*
X121230000Y-106550000D02*
X122440000Y-106550000D01*
X121230000Y-118270000D02*
X121230000Y-118770000D01*
X122440000Y-106550000D02*
X122440000Y-118270000D01*
X122440000Y-118270000D02*
X121230000Y-118270000D01*
X122940000Y-106050000D02*
X118920000Y-106050000D01*
X122940000Y-118770000D02*
X122940000Y-106050000D01*
%TO.C,C1*%
X157870000Y-93755580D02*
X157870000Y-93474420D01*
X158890000Y-93755580D02*
X158890000Y-93474420D01*
%TO.C,J11*%
X118290000Y-82140000D02*
X118290000Y-84640000D01*
X118590000Y-82440000D02*
X118590000Y-92660000D01*
X118590000Y-92660000D02*
X122610000Y-92660000D01*
X120090000Y-82440000D02*
X120090000Y-83440000D01*
X120090000Y-83440000D02*
X118590000Y-83440000D01*
X120090000Y-91660000D02*
X118590000Y-91660000D01*
X120090000Y-92660000D02*
X120090000Y-91660000D01*
X120790000Y-82140000D02*
X118290000Y-82140000D01*
X120900000Y-82440000D02*
X120900000Y-82940000D01*
X120900000Y-82940000D02*
X122110000Y-82940000D01*
X120900000Y-92160000D02*
X120900000Y-92660000D01*
X122110000Y-82940000D02*
X122110000Y-92160000D01*
X122110000Y-92160000D02*
X120900000Y-92160000D01*
X122610000Y-82440000D02*
X118590000Y-82440000D01*
X122610000Y-92660000D02*
X122610000Y-82440000D01*
%TO.C,J4*%
X172290000Y-115760000D02*
X172290000Y-123480000D01*
X172290000Y-123480000D02*
X176310000Y-123480000D01*
X172790000Y-116260000D02*
X174000000Y-116260000D01*
X172790000Y-122980000D02*
X172790000Y-116260000D01*
X174000000Y-116260000D02*
X174000000Y-115760000D01*
X174000000Y-122980000D02*
X172790000Y-122980000D01*
X174000000Y-123480000D02*
X174000000Y-122980000D01*
X174110000Y-123780000D02*
X176610000Y-123780000D01*
X174810000Y-115760000D02*
X174810000Y-116760000D01*
X174810000Y-116760000D02*
X176310000Y-116760000D01*
X174810000Y-122480000D02*
X176310000Y-122480000D01*
X174810000Y-123480000D02*
X174810000Y-122480000D01*
X176310000Y-115760000D02*
X172290000Y-115760000D01*
X176310000Y-123480000D02*
X176310000Y-115760000D01*
X176610000Y-123780000D02*
X176610000Y-121280000D01*
%TO.C,J25*%
X155040000Y-79490000D02*
X155040000Y-81990000D01*
X155340000Y-79790000D02*
X155340000Y-90010000D01*
X155340000Y-90010000D02*
X159360000Y-90010000D01*
X156840000Y-79790000D02*
X156840000Y-80790000D01*
X156840000Y-80790000D02*
X155340000Y-80790000D01*
X156840000Y-89010000D02*
X155340000Y-89010000D01*
X156840000Y-90010000D02*
X156840000Y-89010000D01*
X157540000Y-79490000D02*
X155040000Y-79490000D01*
X157650000Y-79790000D02*
X157650000Y-80290000D01*
X157650000Y-80290000D02*
X158860000Y-80290000D01*
X157650000Y-89510000D02*
X157650000Y-90010000D01*
X158860000Y-80290000D02*
X158860000Y-89510000D01*
X158860000Y-89510000D02*
X157650000Y-89510000D01*
X159360000Y-79790000D02*
X155340000Y-79790000D01*
X159360000Y-90010000D02*
X159360000Y-79790000D01*
%TO.C,U3*%
X134640000Y-116290000D02*
X134640000Y-117550000D01*
X134640000Y-123110000D02*
X134640000Y-121850000D01*
X138400000Y-116290000D02*
X134640000Y-116290000D01*
X138400000Y-123110000D02*
X134640000Y-123110000D01*
X139920000Y-123340000D02*
X139440000Y-123340000D01*
X139680000Y-123010000D01*
X139920000Y-123340000D01*
G36*
X139920000Y-123340000D02*
G01*
X139440000Y-123340000D01*
X139680000Y-123010000D01*
X139920000Y-123340000D01*
G37*
%TO.C,J36*%
X168990000Y-97940000D02*
X168990000Y-100440000D01*
X169290000Y-98240000D02*
X169290000Y-108460000D01*
X169290000Y-108460000D02*
X173310000Y-108460000D01*
X170790000Y-98240000D02*
X170790000Y-99240000D01*
X170790000Y-99240000D02*
X169290000Y-99240000D01*
X170790000Y-107460000D02*
X169290000Y-107460000D01*
X170790000Y-108460000D02*
X170790000Y-107460000D01*
X171490000Y-97940000D02*
X168990000Y-97940000D01*
X171600000Y-98240000D02*
X171600000Y-98740000D01*
X171600000Y-98740000D02*
X172810000Y-98740000D01*
X171600000Y-107960000D02*
X171600000Y-108460000D01*
X172810000Y-98740000D02*
X172810000Y-107960000D01*
X172810000Y-107960000D02*
X171600000Y-107960000D01*
X173310000Y-98240000D02*
X169290000Y-98240000D01*
X173310000Y-108460000D02*
X173310000Y-98240000D01*
%TO.C,C38*%
X142434420Y-115190000D02*
X142715580Y-115190000D01*
X142434420Y-116210000D02*
X142715580Y-116210000D01*
%TO.C,J19*%
X147640000Y-111660000D02*
X147640000Y-114160000D01*
X147640000Y-114160000D02*
X150140000Y-114160000D01*
X147940000Y-109840000D02*
X147940000Y-113860000D01*
X147940000Y-111550000D02*
X148440000Y-111550000D01*
X147940000Y-112360000D02*
X148940000Y-112360000D01*
X147940000Y-113860000D02*
X158160000Y-113860000D01*
X148440000Y-110340000D02*
X157660000Y-110340000D01*
X148440000Y-111550000D02*
X148440000Y-110340000D01*
X148940000Y-112360000D02*
X148940000Y-113860000D01*
X157160000Y-112360000D02*
X157160000Y-113860000D01*
X157660000Y-110340000D02*
X157660000Y-111550000D01*
X157660000Y-111550000D02*
X158160000Y-111550000D01*
X158160000Y-109840000D02*
X147940000Y-109840000D01*
X158160000Y-112360000D02*
X157160000Y-112360000D01*
X158160000Y-113860000D02*
X158160000Y-109840000D01*
%TO.C,J2*%
X159240000Y-96140000D02*
X159240000Y-113860000D01*
X159240000Y-113860000D02*
X163260000Y-113860000D01*
X159740000Y-96640000D02*
X160950000Y-96640000D01*
X159740000Y-113360000D02*
X159740000Y-96640000D01*
X160950000Y-96640000D02*
X160950000Y-96140000D01*
X160950000Y-113360000D02*
X159740000Y-113360000D01*
X160950000Y-113860000D02*
X160950000Y-113360000D01*
X161060000Y-114160000D02*
X163560000Y-114160000D01*
X161760000Y-96140000D02*
X161760000Y-97140000D01*
X161760000Y-97140000D02*
X163260000Y-97140000D01*
X161760000Y-112860000D02*
X163260000Y-112860000D01*
X161760000Y-113860000D02*
X161760000Y-112860000D01*
X163260000Y-96140000D02*
X159240000Y-96140000D01*
X163260000Y-113860000D02*
X163260000Y-96140000D01*
X163560000Y-114160000D02*
X163560000Y-111660000D01*
%TO.C,J31*%
X123890000Y-108110000D02*
X123890000Y-110610000D01*
X123890000Y-110610000D02*
X126390000Y-110610000D01*
X124190000Y-106290000D02*
X124190000Y-110310000D01*
X124190000Y-108000000D02*
X124690000Y-108000000D01*
X124190000Y-108810000D02*
X125190000Y-108810000D01*
X124190000Y-110310000D02*
X134410000Y-110310000D01*
X124690000Y-106790000D02*
X133910000Y-106790000D01*
X124690000Y-108000000D02*
X124690000Y-106790000D01*
X125190000Y-108810000D02*
X125190000Y-110310000D01*
X133410000Y-108810000D02*
X133410000Y-110310000D01*
X133910000Y-106790000D02*
X133910000Y-108000000D01*
X133910000Y-108000000D02*
X134410000Y-108000000D01*
X134410000Y-106290000D02*
X124190000Y-106290000D01*
X134410000Y-108810000D02*
X133410000Y-108810000D01*
X134410000Y-110310000D02*
X134410000Y-106290000D01*
%TO.C,D2*%
X121615000Y-122800000D02*
X121615000Y-125085000D01*
X121615000Y-125085000D02*
X123085000Y-125085000D01*
X123085000Y-125085000D02*
X123085000Y-122800000D01*
%TO.C,J37*%
X160190000Y-84540000D02*
X160190000Y-87040000D01*
X160490000Y-84840000D02*
X160490000Y-95060000D01*
X160490000Y-95060000D02*
X164510000Y-95060000D01*
X161990000Y-84840000D02*
X161990000Y-85840000D01*
X161990000Y-85840000D02*
X160490000Y-85840000D01*
X161990000Y-94060000D02*
X160490000Y-94060000D01*
X161990000Y-95060000D02*
X161990000Y-94060000D01*
X162690000Y-84540000D02*
X160190000Y-84540000D01*
X162800000Y-84840000D02*
X162800000Y-85340000D01*
X162800000Y-85340000D02*
X164010000Y-85340000D01*
X162800000Y-94560000D02*
X162800000Y-95060000D01*
X164010000Y-85340000D02*
X164010000Y-94560000D01*
X164010000Y-94560000D02*
X162800000Y-94560000D01*
X164510000Y-84840000D02*
X160490000Y-84840000D01*
X164510000Y-95060000D02*
X164510000Y-84840000D01*
%TO.C,J29*%
X165290000Y-84540000D02*
X165290000Y-87040000D01*
X165590000Y-84840000D02*
X165590000Y-95060000D01*
X165590000Y-95060000D02*
X169610000Y-95060000D01*
X167090000Y-84840000D02*
X167090000Y-85840000D01*
X167090000Y-85840000D02*
X165590000Y-85840000D01*
X167090000Y-94060000D02*
X165590000Y-94060000D01*
X167090000Y-95060000D02*
X167090000Y-94060000D01*
X167790000Y-84540000D02*
X165290000Y-84540000D01*
X167900000Y-84840000D02*
X167900000Y-85340000D01*
X167900000Y-85340000D02*
X169110000Y-85340000D01*
X167900000Y-94560000D02*
X167900000Y-95060000D01*
X169110000Y-85340000D02*
X169110000Y-94560000D01*
X169110000Y-94560000D02*
X167900000Y-94560000D01*
X169610000Y-84840000D02*
X165590000Y-84840000D01*
X169610000Y-95060000D02*
X169610000Y-84840000D01*
%TO.C,J30*%
X133590000Y-93390000D02*
X133590000Y-95890000D01*
X133890000Y-93690000D02*
X133890000Y-103910000D01*
X133890000Y-103910000D02*
X137910000Y-103910000D01*
X135390000Y-93690000D02*
X135390000Y-94690000D01*
X135390000Y-94690000D02*
X133890000Y-94690000D01*
X135390000Y-102910000D02*
X133890000Y-102910000D01*
X135390000Y-103910000D02*
X135390000Y-102910000D01*
X136090000Y-93390000D02*
X133590000Y-93390000D01*
X136200000Y-93690000D02*
X136200000Y-94190000D01*
X136200000Y-94190000D02*
X137410000Y-94190000D01*
X136200000Y-103410000D02*
X136200000Y-103910000D01*
X137410000Y-94190000D02*
X137410000Y-103410000D01*
X137410000Y-103410000D02*
X136200000Y-103410000D01*
X137910000Y-93690000D02*
X133890000Y-93690000D01*
X137910000Y-103910000D02*
X137910000Y-93690000D01*
%TO.C,J9*%
X128490000Y-82140000D02*
X128490000Y-84640000D01*
X128790000Y-82440000D02*
X128790000Y-92660000D01*
X128790000Y-92660000D02*
X132810000Y-92660000D01*
X130290000Y-82440000D02*
X130290000Y-83440000D01*
X130290000Y-83440000D02*
X128790000Y-83440000D01*
X130290000Y-91660000D02*
X128790000Y-91660000D01*
X130290000Y-92660000D02*
X130290000Y-91660000D01*
X130990000Y-82140000D02*
X128490000Y-82140000D01*
X131100000Y-82440000D02*
X131100000Y-82940000D01*
X131100000Y-82940000D02*
X132310000Y-82940000D01*
X131100000Y-92160000D02*
X131100000Y-92660000D01*
X132310000Y-82940000D02*
X132310000Y-92160000D01*
X132310000Y-92160000D02*
X131100000Y-92160000D01*
X132810000Y-82440000D02*
X128790000Y-82440000D01*
X132810000Y-92660000D02*
X132810000Y-82440000D01*
%TO.C,J15*%
X169270000Y-109420000D02*
X169270000Y-113440000D01*
X169270000Y-110920000D02*
X170270000Y-110920000D01*
X169270000Y-113440000D02*
X179490000Y-113440000D01*
X169770000Y-111730000D02*
X169270000Y-111730000D01*
X169770000Y-112940000D02*
X169770000Y-111730000D01*
X170270000Y-110920000D02*
X170270000Y-109420000D01*
X178490000Y-110920000D02*
X178490000Y-109420000D01*
X178990000Y-111730000D02*
X178990000Y-112940000D01*
X178990000Y-112940000D02*
X169770000Y-112940000D01*
X179490000Y-109420000D02*
X169270000Y-109420000D01*
X179490000Y-110920000D02*
X178490000Y-110920000D01*
X179490000Y-111730000D02*
X178990000Y-111730000D01*
X179490000Y-113440000D02*
X179490000Y-109420000D01*
X179790000Y-109120000D02*
X177290000Y-109120000D01*
X179790000Y-111620000D02*
X179790000Y-109120000D01*
%TO.C,J35*%
X160545000Y-77985000D02*
X160545000Y-81515000D01*
X160610000Y-77985000D02*
X160545000Y-77985000D01*
X160610000Y-81515000D02*
X160545000Y-81515000D01*
X169490000Y-76660000D02*
X169490000Y-77985000D01*
X169555000Y-77985000D02*
X169490000Y-77985000D01*
X169555000Y-77985000D02*
X169555000Y-81515000D01*
X169555000Y-81515000D02*
X169490000Y-81515000D01*
%TO.C,C4*%
X154747836Y-105570000D02*
X154532164Y-105570000D01*
X154747836Y-106290000D02*
X154532164Y-106290000D01*
%TO.C,J13*%
X128490000Y-93390000D02*
X128490000Y-95890000D01*
X128790000Y-93690000D02*
X128790000Y-103910000D01*
X128790000Y-103910000D02*
X132810000Y-103910000D01*
X130290000Y-93690000D02*
X130290000Y-94690000D01*
X130290000Y-94690000D02*
X128790000Y-94690000D01*
X130290000Y-102910000D02*
X128790000Y-102910000D01*
X130290000Y-103910000D02*
X130290000Y-102910000D01*
X130990000Y-93390000D02*
X128490000Y-93390000D01*
X131100000Y-93690000D02*
X131100000Y-94190000D01*
X131100000Y-94190000D02*
X132310000Y-94190000D01*
X131100000Y-103410000D02*
X131100000Y-103910000D01*
X132310000Y-94190000D02*
X132310000Y-103410000D01*
X132310000Y-103410000D02*
X131100000Y-103410000D01*
X132810000Y-93690000D02*
X128790000Y-93690000D01*
X132810000Y-103910000D02*
X132810000Y-93690000D01*
%TO.C,J18*%
X125340000Y-111390000D02*
X125340000Y-115410000D01*
X125340000Y-112890000D02*
X126340000Y-112890000D01*
X125340000Y-115410000D02*
X135560000Y-115410000D01*
X125840000Y-113700000D02*
X125340000Y-113700000D01*
X125840000Y-114910000D02*
X125840000Y-113700000D01*
X126340000Y-112890000D02*
X126340000Y-111390000D01*
X134560000Y-112890000D02*
X134560000Y-111390000D01*
X135060000Y-113700000D02*
X135060000Y-114910000D01*
X135060000Y-114910000D02*
X125840000Y-114910000D01*
X135560000Y-111390000D02*
X125340000Y-111390000D01*
X135560000Y-112890000D02*
X134560000Y-112890000D01*
X135560000Y-113700000D02*
X135060000Y-113700000D01*
X135560000Y-115410000D02*
X135560000Y-111390000D01*
X135860000Y-111090000D02*
X133360000Y-111090000D01*
X135860000Y-113590000D02*
X135860000Y-111090000D01*
%TO.C,L1*%
X139900000Y-102767122D02*
X139900000Y-101967878D01*
X141020000Y-102767122D02*
X141020000Y-101967878D01*
%TO.C,J28*%
X123390000Y-93390000D02*
X123390000Y-95890000D01*
X123690000Y-93690000D02*
X123690000Y-103910000D01*
X123690000Y-103910000D02*
X127710000Y-103910000D01*
X125190000Y-93690000D02*
X125190000Y-94690000D01*
X125190000Y-94690000D02*
X123690000Y-94690000D01*
X125190000Y-102910000D02*
X123690000Y-102910000D01*
X125190000Y-103910000D02*
X125190000Y-102910000D01*
X125890000Y-93390000D02*
X123390000Y-93390000D01*
X126000000Y-93690000D02*
X126000000Y-94190000D01*
X126000000Y-94190000D02*
X127210000Y-94190000D01*
X126000000Y-103410000D02*
X126000000Y-103910000D01*
X127210000Y-94190000D02*
X127210000Y-103410000D01*
X127210000Y-103410000D02*
X126000000Y-103410000D01*
X127710000Y-93690000D02*
X123690000Y-93690000D01*
X127710000Y-103910000D02*
X127710000Y-93690000D01*
%TO.C,J22*%
X154590000Y-125130000D02*
X154590000Y-127630000D01*
X154590000Y-127630000D02*
X157090000Y-127630000D01*
X154890000Y-123310000D02*
X154890000Y-127330000D01*
X154890000Y-125020000D02*
X155390000Y-125020000D01*
X154890000Y-125830000D02*
X155890000Y-125830000D01*
X154890000Y-127330000D02*
X162610000Y-127330000D01*
X155390000Y-123810000D02*
X162110000Y-123810000D01*
X155390000Y-125020000D02*
X155390000Y-123810000D01*
X155890000Y-125830000D02*
X155890000Y-127330000D01*
X161610000Y-125830000D02*
X161610000Y-127330000D01*
X162110000Y-123810000D02*
X162110000Y-125020000D01*
X162110000Y-125020000D02*
X162610000Y-125020000D01*
X162610000Y-123310000D02*
X154890000Y-123310000D01*
X162610000Y-125830000D02*
X161610000Y-125830000D01*
X162610000Y-127330000D02*
X162610000Y-123310000D01*
%TO.C,C8*%
X145750000Y-92507836D02*
X145750000Y-92292164D01*
X146470000Y-92507836D02*
X146470000Y-92292164D01*
%TO.C,Q2*%
X165962500Y-114510000D02*
X165312500Y-114510000D01*
X165962500Y-114510000D02*
X166612500Y-114510000D01*
X165962500Y-117630000D02*
X165312500Y-117630000D01*
X165962500Y-117630000D02*
X166612500Y-117630000D01*
X167365000Y-117910000D02*
X166885000Y-117910000D01*
X167125000Y-117580000D01*
X167365000Y-117910000D01*
G36*
X167365000Y-117910000D02*
G01*
X166885000Y-117910000D01*
X167125000Y-117580000D01*
X167365000Y-117910000D01*
G37*
%TO.C,C6*%
X152777836Y-105570000D02*
X152562164Y-105570000D01*
X152777836Y-106290000D02*
X152562164Y-106290000D01*
%TO.C,Q1*%
X160002500Y-114510000D02*
X159352500Y-114510000D01*
X160002500Y-114510000D02*
X160652500Y-114510000D01*
X160002500Y-117630000D02*
X159352500Y-117630000D01*
X160002500Y-117630000D02*
X160652500Y-117630000D01*
X161405000Y-117910000D02*
X160925000Y-117910000D01*
X161165000Y-117580000D01*
X161405000Y-117910000D01*
G36*
X161405000Y-117910000D02*
G01*
X160925000Y-117910000D01*
X161165000Y-117580000D01*
X161405000Y-117910000D01*
G37*
%TO.C,R5*%
X120320000Y-120948859D02*
X120320000Y-121256141D01*
X121080000Y-120948859D02*
X121080000Y-121256141D01*
%TO.C,J5*%
X172250000Y-124500000D02*
X172250000Y-132220000D01*
X172250000Y-132220000D02*
X176270000Y-132220000D01*
X172750000Y-125000000D02*
X173960000Y-125000000D01*
X172750000Y-131720000D02*
X172750000Y-125000000D01*
X173960000Y-125000000D02*
X173960000Y-124500000D01*
X173960000Y-131720000D02*
X172750000Y-131720000D01*
X173960000Y-132220000D02*
X173960000Y-131720000D01*
X174070000Y-132520000D02*
X176570000Y-132520000D01*
X174770000Y-124500000D02*
X174770000Y-125500000D01*
X174770000Y-125500000D02*
X176270000Y-125500000D01*
X174770000Y-131220000D02*
X176270000Y-131220000D01*
X174770000Y-132220000D02*
X174770000Y-131220000D01*
X176270000Y-124500000D02*
X172250000Y-124500000D01*
X176270000Y-132220000D02*
X176270000Y-124500000D01*
X176570000Y-132520000D02*
X176570000Y-130020000D01*
%TO.C,R6*%
X121930000Y-120948859D02*
X121930000Y-121256141D01*
X122690000Y-120948859D02*
X122690000Y-121256141D01*
%TO.C,J20*%
X154580000Y-120150000D02*
X154580000Y-122650000D01*
X154580000Y-122650000D02*
X157080000Y-122650000D01*
X154880000Y-118330000D02*
X154880000Y-122350000D01*
X154880000Y-120040000D02*
X155380000Y-120040000D01*
X154880000Y-120850000D02*
X155880000Y-120850000D01*
X154880000Y-122350000D02*
X162600000Y-122350000D01*
X155380000Y-118830000D02*
X162100000Y-118830000D01*
X155380000Y-120040000D02*
X155380000Y-118830000D01*
X155880000Y-120850000D02*
X155880000Y-122350000D01*
X161600000Y-120850000D02*
X161600000Y-122350000D01*
X162100000Y-118830000D02*
X162100000Y-120040000D01*
X162100000Y-120040000D02*
X162600000Y-120040000D01*
X162600000Y-118330000D02*
X154880000Y-118330000D01*
X162600000Y-120850000D02*
X161600000Y-120850000D01*
X162600000Y-122350000D02*
X162600000Y-118330000D01*
%TO.C,J32*%
X154590000Y-130030000D02*
X154590000Y-132530000D01*
X154590000Y-132530000D02*
X157090000Y-132530000D01*
X154890000Y-128210000D02*
X154890000Y-132230000D01*
X154890000Y-129920000D02*
X155390000Y-129920000D01*
X154890000Y-130730000D02*
X155890000Y-130730000D01*
X154890000Y-132230000D02*
X162610000Y-132230000D01*
X155390000Y-128710000D02*
X162110000Y-128710000D01*
X155390000Y-129920000D02*
X155390000Y-128710000D01*
X155890000Y-130730000D02*
X155890000Y-132230000D01*
X161610000Y-130730000D02*
X161610000Y-132230000D01*
X162110000Y-128710000D02*
X162110000Y-129920000D01*
X162110000Y-129920000D02*
X162610000Y-129920000D01*
X162610000Y-128210000D02*
X154890000Y-128210000D01*
X162610000Y-130730000D02*
X161610000Y-130730000D01*
X162610000Y-132230000D02*
X162610000Y-128210000D01*
%TO.C,R4*%
X169413641Y-116700000D02*
X169106359Y-116700000D01*
X169413641Y-117460000D02*
X169106359Y-117460000D01*
%TO.C,D1*%
X119965000Y-122800000D02*
X119965000Y-125085000D01*
X119965000Y-125085000D02*
X121435000Y-125085000D01*
X121435000Y-125085000D02*
X121435000Y-122800000D01*
%TO.C,SW1*%
X175570000Y-89170000D02*
X175570000Y-95630000D01*
X175570000Y-89170000D02*
X175600000Y-89170000D01*
X175570000Y-95630000D02*
X175600000Y-95630000D01*
X180100000Y-89170000D02*
X177500000Y-89170000D01*
X180100000Y-95630000D02*
X177500000Y-95630000D01*
X182000000Y-89170000D02*
X182030000Y-89170000D01*
X182030000Y-89170000D02*
X182030000Y-95630000D01*
X182030000Y-95630000D02*
X182000000Y-95630000D01*
%TO.C,SW2*%
D14*
X154150000Y-132600000D02*
X141250000Y-132600000D01*
X141250000Y-125800000D01*
X154150000Y-125800000D01*
X154150000Y-132600000D01*
D13*
%TO.C,J14*%
X176940000Y-114060000D02*
X176940000Y-116560000D01*
X177240000Y-114360000D02*
X177240000Y-124580000D01*
X177240000Y-124580000D02*
X181260000Y-124580000D01*
X178740000Y-114360000D02*
X178740000Y-115360000D01*
X178740000Y-115360000D02*
X177240000Y-115360000D01*
X178740000Y-123580000D02*
X177240000Y-123580000D01*
X178740000Y-124580000D02*
X178740000Y-123580000D01*
X179440000Y-114060000D02*
X176940000Y-114060000D01*
X179550000Y-114360000D02*
X179550000Y-114860000D01*
X179550000Y-114860000D02*
X180760000Y-114860000D01*
X179550000Y-124080000D02*
X179550000Y-124580000D01*
X180760000Y-114860000D02*
X180760000Y-124080000D01*
X180760000Y-124080000D02*
X179550000Y-124080000D01*
X181260000Y-114360000D02*
X177240000Y-114360000D01*
X181260000Y-124580000D02*
X181260000Y-114360000D01*
%TO.C,J10*%
X123390000Y-82140000D02*
X123390000Y-84640000D01*
X123690000Y-82440000D02*
X123690000Y-92660000D01*
X123690000Y-92660000D02*
X127710000Y-92660000D01*
X125190000Y-82440000D02*
X125190000Y-83440000D01*
X125190000Y-83440000D02*
X123690000Y-83440000D01*
X125190000Y-91660000D02*
X123690000Y-91660000D01*
X125190000Y-92660000D02*
X125190000Y-91660000D01*
X125890000Y-82140000D02*
X123390000Y-82140000D01*
X126000000Y-82440000D02*
X126000000Y-82940000D01*
X126000000Y-82940000D02*
X127210000Y-82940000D01*
X126000000Y-92160000D02*
X126000000Y-92660000D01*
X127210000Y-82940000D02*
X127210000Y-92160000D01*
X127210000Y-92160000D02*
X126000000Y-92160000D01*
X127710000Y-82440000D02*
X123690000Y-82440000D01*
X127710000Y-92660000D02*
X127710000Y-82440000D01*
%TO.C,J17*%
X136390000Y-112160000D02*
X136390000Y-114660000D01*
X136390000Y-114660000D02*
X138890000Y-114660000D01*
X136690000Y-110340000D02*
X136690000Y-114360000D01*
X136690000Y-112050000D02*
X137190000Y-112050000D01*
X136690000Y-112860000D02*
X137690000Y-112860000D01*
X136690000Y-114360000D02*
X146910000Y-114360000D01*
X137190000Y-110840000D02*
X146410000Y-110840000D01*
X137190000Y-112050000D02*
X137190000Y-110840000D01*
X137690000Y-112860000D02*
X137690000Y-114360000D01*
X145910000Y-112860000D02*
X145910000Y-114360000D01*
X146410000Y-110840000D02*
X146410000Y-112050000D01*
X146410000Y-112050000D02*
X146910000Y-112050000D01*
X146910000Y-110340000D02*
X136690000Y-110340000D01*
X146910000Y-112860000D02*
X145910000Y-112860000D01*
X146910000Y-114360000D02*
X146910000Y-110340000D01*
%TO.C,C10*%
X153370580Y-106730000D02*
X153089420Y-106730000D01*
X153370580Y-107750000D02*
X153089420Y-107750000D01*
%TO.C,J6*%
X130140000Y-77110000D02*
X130140000Y-79610000D01*
X130140000Y-79610000D02*
X132640000Y-79610000D01*
X130440000Y-75290000D02*
X130440000Y-79310000D01*
X130440000Y-77000000D02*
X130940000Y-77000000D01*
X130440000Y-77810000D02*
X131440000Y-77810000D01*
X130440000Y-79310000D02*
X148160000Y-79310000D01*
X130940000Y-75790000D02*
X147660000Y-75790000D01*
X130940000Y-77000000D02*
X130940000Y-75790000D01*
X131440000Y-77810000D02*
X131440000Y-79310000D01*
X147160000Y-77810000D02*
X147160000Y-79310000D01*
X147660000Y-75790000D02*
X147660000Y-77000000D01*
X147660000Y-77000000D02*
X148160000Y-77000000D01*
X148160000Y-75290000D02*
X130440000Y-75290000D01*
X148160000Y-77810000D02*
X147160000Y-77810000D01*
X148160000Y-79310000D02*
X148160000Y-75290000D01*
%TO.C,J34*%
X170390000Y-84040000D02*
X170390000Y-86540000D01*
X170690000Y-84340000D02*
X170690000Y-97060000D01*
X170690000Y-97060000D02*
X174710000Y-97060000D01*
X172190000Y-84340000D02*
X172190000Y-85340000D01*
X172190000Y-85340000D02*
X170690000Y-85340000D01*
X172190000Y-96060000D02*
X170690000Y-96060000D01*
X172190000Y-97060000D02*
X172190000Y-96060000D01*
X172890000Y-84040000D02*
X170390000Y-84040000D01*
X173000000Y-84340000D02*
X173000000Y-84840000D01*
X173000000Y-84840000D02*
X174210000Y-84840000D01*
X173000000Y-96560000D02*
X173000000Y-97060000D01*
X174210000Y-84840000D02*
X174210000Y-96560000D01*
X174210000Y-96560000D02*
X173000000Y-96560000D01*
X174710000Y-84340000D02*
X170690000Y-84340000D01*
X174710000Y-97060000D02*
X174710000Y-84340000D01*
%TO.C,J24*%
X149990000Y-79490000D02*
X149990000Y-81990000D01*
X150290000Y-79790000D02*
X150290000Y-90010000D01*
X150290000Y-90010000D02*
X154310000Y-90010000D01*
X151790000Y-79790000D02*
X151790000Y-80790000D01*
X151790000Y-80790000D02*
X150290000Y-80790000D01*
X151790000Y-89010000D02*
X150290000Y-89010000D01*
X151790000Y-90010000D02*
X151790000Y-89010000D01*
X152490000Y-79490000D02*
X149990000Y-79490000D01*
X152600000Y-79790000D02*
X152600000Y-80290000D01*
X152600000Y-80290000D02*
X153810000Y-80290000D01*
X152600000Y-89510000D02*
X152600000Y-90010000D01*
X153810000Y-80290000D02*
X153810000Y-89510000D01*
X153810000Y-89510000D02*
X152600000Y-89510000D01*
X154310000Y-79790000D02*
X150290000Y-79790000D01*
X154310000Y-90010000D02*
X154310000Y-79790000D01*
%TO.C,J33*%
X124850000Y-126450000D02*
X124850000Y-129600000D01*
X124850000Y-129600000D02*
X127700000Y-132200000D01*
X127700000Y-123900000D02*
X124850000Y-126450000D01*
X127700000Y-132200000D02*
X140550000Y-132200000D01*
X140550000Y-123900000D02*
X127700000Y-123900000D01*
X140550000Y-132200000D02*
X140550000Y-123900000D01*
%TO.C,J27*%
X138990000Y-85990000D02*
X138990000Y-90010000D01*
X138990000Y-87490000D02*
X139990000Y-87490000D01*
X138990000Y-90010000D02*
X149210000Y-90010000D01*
X139490000Y-88300000D02*
X138990000Y-88300000D01*
X139490000Y-89510000D02*
X139490000Y-88300000D01*
X139990000Y-87490000D02*
X139990000Y-85990000D01*
X148210000Y-87490000D02*
X148210000Y-85990000D01*
X148710000Y-88300000D02*
X148710000Y-89510000D01*
X148710000Y-89510000D02*
X139490000Y-89510000D01*
X149210000Y-85990000D02*
X138990000Y-85990000D01*
X149210000Y-87490000D02*
X148210000Y-87490000D01*
X149210000Y-88300000D02*
X148710000Y-88300000D01*
X149210000Y-90010000D02*
X149210000Y-85990000D01*
X149510000Y-85690000D02*
X147010000Y-85690000D01*
X149510000Y-88190000D02*
X149510000Y-85690000D01*
%TO.C,R1*%
X162796359Y-114690000D02*
X163103641Y-114690000D01*
X162796359Y-115450000D02*
X163103641Y-115450000D01*
%TO.C,C9*%
X143180000Y-102477836D02*
X143180000Y-102262164D01*
X143900000Y-102477836D02*
X143900000Y-102262164D01*
%TO.C,U1*%
X145740000Y-93590000D02*
X145740000Y-94540000D01*
X145740000Y-103810000D02*
X145740000Y-102860000D01*
X146690000Y-93590000D02*
X145740000Y-93590000D01*
X146690000Y-103810000D02*
X145740000Y-103810000D01*
X155010000Y-93590000D02*
X155960000Y-93590000D01*
X155010000Y-103810000D02*
X155960000Y-103810000D01*
X155960000Y-93590000D02*
X155960000Y-94540000D01*
X155960000Y-103810000D02*
X155960000Y-102860000D01*
X145125000Y-94540000D02*
X144785000Y-94070000D01*
X145465000Y-94070000D01*
X145125000Y-94540000D01*
G36*
X145125000Y-94540000D02*
G01*
X144785000Y-94070000D01*
X145465000Y-94070000D01*
X145125000Y-94540000D01*
G37*
%TO.C,C39*%
X125540000Y-116990000D02*
X125540000Y-118690000D01*
X125540000Y-122510000D02*
X125540000Y-120810000D01*
X129995563Y-116990000D02*
X125540000Y-116990000D01*
X129995563Y-122510000D02*
X125540000Y-122510000D01*
X131060000Y-118054437D02*
X129995563Y-116990000D01*
X131060000Y-118054437D02*
X131060000Y-118690000D01*
X131060000Y-121445563D02*
X129995563Y-122510000D01*
X131060000Y-121445563D02*
X131060000Y-120810000D01*
%TO.C,R3*%
X169413641Y-114710000D02*
X169106359Y-114710000D01*
X169413641Y-115470000D02*
X169106359Y-115470000D01*
%TO.C,R7*%
X123620000Y-120936359D02*
X123620000Y-121243641D01*
X124380000Y-120936359D02*
X124380000Y-121243641D01*
%TO.C,J12*%
X174040000Y-97940000D02*
X174040000Y-100440000D01*
X174340000Y-98240000D02*
X174340000Y-108460000D01*
X174340000Y-108460000D02*
X178360000Y-108460000D01*
X175840000Y-98240000D02*
X175840000Y-99240000D01*
X175840000Y-99240000D02*
X174340000Y-99240000D01*
X175840000Y-107460000D02*
X174340000Y-107460000D01*
X175840000Y-108460000D02*
X175840000Y-107460000D01*
X176540000Y-97940000D02*
X174040000Y-97940000D01*
X176650000Y-98240000D02*
X176650000Y-98740000D01*
X176650000Y-98740000D02*
X177860000Y-98740000D01*
X176650000Y-107960000D02*
X176650000Y-108460000D01*
X177860000Y-98740000D02*
X177860000Y-107960000D01*
X177860000Y-107960000D02*
X176650000Y-107960000D01*
X178360000Y-98240000D02*
X174340000Y-98240000D01*
X178360000Y-108460000D02*
X178360000Y-98240000D01*
%TO.C,C3*%
X156270000Y-93677836D02*
X156270000Y-93462164D01*
X156990000Y-93677836D02*
X156990000Y-93462164D01*
%TO.C,U2*%
D14*
X153310000Y-125500000D02*
X141310000Y-125500000D01*
X141310000Y-116600000D01*
X153310000Y-116600000D01*
X153310000Y-125500000D01*
D13*
%TO.C,C2*%
X143240000Y-97427836D02*
X143240000Y-97212164D01*
X143960000Y-97427836D02*
X143960000Y-97212164D01*
%TO.C,J21*%
X163260000Y-120150000D02*
X163260000Y-122650000D01*
X163260000Y-122650000D02*
X165760000Y-122650000D01*
X163560000Y-118330000D02*
X163560000Y-122350000D01*
X163560000Y-120040000D02*
X164060000Y-120040000D01*
X163560000Y-120850000D02*
X164560000Y-120850000D01*
X163560000Y-122350000D02*
X171280000Y-122350000D01*
X164060000Y-118830000D02*
X170780000Y-118830000D01*
X164060000Y-120040000D02*
X164060000Y-118830000D01*
X164560000Y-120850000D02*
X164560000Y-122350000D01*
X170280000Y-120850000D02*
X170280000Y-122350000D01*
X170780000Y-118830000D02*
X170780000Y-120040000D01*
X170780000Y-120040000D02*
X171280000Y-120040000D01*
X171280000Y-118330000D02*
X163560000Y-118330000D01*
X171280000Y-120850000D02*
X170280000Y-120850000D01*
X171280000Y-122350000D02*
X171280000Y-118330000D01*
%TO.C,J26*%
X138990000Y-80940000D02*
X138990000Y-84960000D01*
X138990000Y-82440000D02*
X139990000Y-82440000D01*
X138990000Y-84960000D02*
X149210000Y-84960000D01*
X139490000Y-83250000D02*
X138990000Y-83250000D01*
X139490000Y-84460000D02*
X139490000Y-83250000D01*
X139990000Y-82440000D02*
X139990000Y-80940000D01*
X148210000Y-82440000D02*
X148210000Y-80940000D01*
X148710000Y-83250000D02*
X148710000Y-84460000D01*
X148710000Y-84460000D02*
X139490000Y-84460000D01*
X149210000Y-80940000D02*
X138990000Y-80940000D01*
X149210000Y-82440000D02*
X148210000Y-82440000D01*
X149210000Y-83250000D02*
X148710000Y-83250000D01*
X149210000Y-84960000D02*
X149210000Y-80940000D01*
X149510000Y-80640000D02*
X147010000Y-80640000D01*
X149510000Y-83140000D02*
X149510000Y-80640000D01*
%TO.C,C5*%
X141670000Y-102364420D02*
X141670000Y-102645580D01*
X142690000Y-102364420D02*
X142690000Y-102645580D01*
%TO.C,J8*%
X118290000Y-93390000D02*
X118290000Y-95890000D01*
X118590000Y-93690000D02*
X118590000Y-103910000D01*
X118590000Y-103910000D02*
X122610000Y-103910000D01*
X120090000Y-93690000D02*
X120090000Y-94690000D01*
X120090000Y-94690000D02*
X118590000Y-94690000D01*
X120090000Y-102910000D02*
X118590000Y-102910000D01*
X120090000Y-103910000D02*
X120090000Y-102910000D01*
X120790000Y-93390000D02*
X118290000Y-93390000D01*
X120900000Y-93690000D02*
X120900000Y-94190000D01*
X120900000Y-94190000D02*
X122110000Y-94190000D01*
X120900000Y-103410000D02*
X120900000Y-103910000D01*
X122110000Y-94190000D02*
X122110000Y-103410000D01*
X122110000Y-103410000D02*
X120900000Y-103410000D01*
X122610000Y-93690000D02*
X118590000Y-93690000D01*
X122610000Y-103910000D02*
X122610000Y-93690000D01*
%TO.C,J7*%
X164240000Y-96140000D02*
X164240000Y-113860000D01*
X164240000Y-113860000D02*
X168260000Y-113860000D01*
X164740000Y-96640000D02*
X165950000Y-96640000D01*
X164740000Y-113360000D02*
X164740000Y-96640000D01*
X165950000Y-96640000D02*
X165950000Y-96140000D01*
X165950000Y-113360000D02*
X164740000Y-113360000D01*
X165950000Y-113860000D02*
X165950000Y-113360000D01*
X166060000Y-114160000D02*
X168560000Y-114160000D01*
X166760000Y-96140000D02*
X166760000Y-97140000D01*
X166760000Y-97140000D02*
X168260000Y-97140000D01*
X166760000Y-112860000D02*
X168260000Y-112860000D01*
X166760000Y-113860000D02*
X166760000Y-112860000D01*
X168260000Y-96140000D02*
X164240000Y-96140000D01*
X168260000Y-113860000D02*
X168260000Y-96140000D01*
X168560000Y-114160000D02*
X168560000Y-111660000D01*
%TO.C,D3*%
X123295000Y-122787500D02*
X123295000Y-125072500D01*
X123295000Y-125072500D02*
X124765000Y-125072500D01*
X124765000Y-125072500D02*
X124765000Y-122787500D01*
%TO.C,J16*%
X135140000Y-107110000D02*
X135140000Y-109610000D01*
X135140000Y-109610000D02*
X137640000Y-109610000D01*
X135440000Y-105290000D02*
X135440000Y-109310000D01*
X135440000Y-107000000D02*
X135940000Y-107000000D01*
X135440000Y-107810000D02*
X136440000Y-107810000D01*
X135440000Y-109310000D02*
X145660000Y-109310000D01*
X135940000Y-105790000D02*
X145160000Y-105790000D01*
X135940000Y-107000000D02*
X135940000Y-105790000D01*
X136440000Y-107810000D02*
X136440000Y-109310000D01*
X144660000Y-107810000D02*
X144660000Y-109310000D01*
X145160000Y-105790000D02*
X145160000Y-107000000D01*
X145160000Y-107000000D02*
X145660000Y-107000000D01*
X145660000Y-105290000D02*
X135440000Y-105290000D01*
X145660000Y-107810000D02*
X144660000Y-107810000D01*
X145660000Y-109310000D02*
X145660000Y-105290000D01*
%TO.C,J3*%
X163240000Y-130030000D02*
X163240000Y-132530000D01*
X163240000Y-132530000D02*
X165740000Y-132530000D01*
X163540000Y-128210000D02*
X163540000Y-132230000D01*
X163540000Y-129920000D02*
X164040000Y-129920000D01*
X163540000Y-130730000D02*
X164540000Y-130730000D01*
X163540000Y-132230000D02*
X171260000Y-132230000D01*
X164040000Y-128710000D02*
X170760000Y-128710000D01*
X164040000Y-129920000D02*
X164040000Y-128710000D01*
X164540000Y-130730000D02*
X164540000Y-132230000D01*
X170260000Y-130730000D02*
X170260000Y-132230000D01*
X170760000Y-128710000D02*
X170760000Y-129920000D01*
X170760000Y-129920000D02*
X171260000Y-129920000D01*
X171260000Y-128210000D02*
X163540000Y-128210000D01*
X171260000Y-130730000D02*
X170260000Y-130730000D01*
X171260000Y-132230000D02*
X171260000Y-128210000D01*
%TO.C,J23*%
X163240000Y-125130000D02*
X163240000Y-127630000D01*
X163240000Y-127630000D02*
X165740000Y-127630000D01*
X163540000Y-123310000D02*
X163540000Y-127330000D01*
X163540000Y-125020000D02*
X164040000Y-125020000D01*
X163540000Y-125830000D02*
X164540000Y-125830000D01*
X163540000Y-127330000D02*
X171260000Y-127330000D01*
X164040000Y-123810000D02*
X170760000Y-123810000D01*
X164040000Y-125020000D02*
X164040000Y-123810000D01*
X164540000Y-125830000D02*
X164540000Y-127330000D01*
X170260000Y-125830000D02*
X170260000Y-127330000D01*
X170760000Y-123810000D02*
X170760000Y-125020000D01*
X170760000Y-125020000D02*
X171260000Y-125020000D01*
X171260000Y-123310000D02*
X163540000Y-123310000D01*
X171260000Y-125830000D02*
X170260000Y-125830000D01*
X171260000Y-127330000D02*
X171260000Y-123310000D01*
%TO.C,J1*%
X133590000Y-82140000D02*
X133590000Y-84640000D01*
X133890000Y-82440000D02*
X133890000Y-92660000D01*
X133890000Y-92660000D02*
X137910000Y-92660000D01*
X135390000Y-82440000D02*
X135390000Y-83440000D01*
X135390000Y-83440000D02*
X133890000Y-83440000D01*
X135390000Y-91660000D02*
X133890000Y-91660000D01*
X135390000Y-92660000D02*
X135390000Y-91660000D01*
X136090000Y-82140000D02*
X133590000Y-82140000D01*
X136200000Y-82440000D02*
X136200000Y-82940000D01*
X136200000Y-82940000D02*
X137410000Y-82940000D01*
X136200000Y-92160000D02*
X136200000Y-92660000D01*
X137410000Y-82940000D02*
X137410000Y-92160000D01*
X137410000Y-92160000D02*
X136200000Y-92160000D01*
X137910000Y-82440000D02*
X133890000Y-82440000D01*
X137910000Y-92660000D02*
X137910000Y-82440000D01*
%TO.C,R2*%
X162776359Y-116910000D02*
X163083641Y-116910000D01*
X162776359Y-117670000D02*
X163083641Y-117670000D01*
%TO.C,C7*%
X144650000Y-93342164D02*
X144650000Y-93557836D01*
X145370000Y-93342164D02*
X145370000Y-93557836D01*
%TD*%
M02*
