M48
; DRILL file {KiCad 9.0.0} date 2025-03-22T22:53:37+0100
; FORMAT={-:-/ absolute / metric / decimal}
; #@! TF.CreationDate,2025-03-22T22:53:37+01:00
; #@! TF.GenerationSoftware,Kicad,Pcbnew,9.0.0
; #@! TF.FileFunction,Plated,1,4,PTH
FMAT,2
METRIC
; #@! TA.AperFunction,Plated,PTH,ViaDrill
T1C0.300
; #@! TA.AperFunction,Plated,PTH,ComponentDrill
T2C0.500
; #@! TA.AperFunction,Plated,PTH,ComponentDrill
T3C0.950
; #@! TA.AperFunction,Plated,PTH,ComponentDrill
T4C1.000
; #@! TA.AperFunction,Plated,PTH,ComponentDrill
T5C1.850
; #@! TA.AperFunction,Plated,PTH,ComponentDrill
T6C3.200
; #@! TA.AperFunction,Plated,PTH,ComponentDrill
T7C4.500
%
G90
G05
T1
X116.64Y-117.56
X116.71Y-109.44
X116.93Y-125.51
X117.14Y-99.33
X117.23Y-90.78
X119.0Y-105.19
X119.95Y-120.6
X121.5Y-124.387
X121.7Y-120.59
X123.2Y-124.387
X123.26Y-120.6
X123.97Y-113.02
X124.1Y-132.31
X124.25Y-119.21
X124.39Y-117.4
X125.3Y-75.54
X127.11Y-79.69
X134.58Y-80.99
X135.1Y-119.75
X135.92Y-94.94
X138.0Y-80.35
X138.65Y-91.01
X139.42Y-110.63
X140.69Y-93.8
X140.9Y-116.2
X141.2Y-122.0
X141.65Y-100.74
X141.91Y-79.47
X142.5Y-97.75
X142.85Y-96.85
X142.98Y-101.89
X143.8Y-100.475
X143.8Y-101.125
X143.85Y-94.951
X144.05Y-93.9
X144.12Y-102.85
X144.25Y-93.0
X144.25Y-115.7
X146.29Y-100.95
X146.35Y-96.19
X146.5Y-97.45
X146.571Y-96.801
X147.15Y-79.825
X147.529Y-91.771
X148.471Y-91.229
X148.8Y-94.65
X149.1Y-105.7
X149.59Y-108.43
X149.59Y-115.77
X149.6Y-86.25
X149.6Y-103.05
X150.1Y-94.25
X151.1Y-82.4
X151.1Y-91.7
X151.724Y-96.726
X151.85Y-94.35
X152.645Y-94.438
X152.8Y-108.225
X153.049Y-98.05
X153.357Y-106.593
X153.6Y-94.65
X153.6Y-103.2
X154.1Y-91.936
X154.1Y-105.41
X154.5Y-76.7
X154.76Y-79.83
X154.85Y-86.6
X155.1Y-106.7
X155.25Y-101.4
X155.4Y-93.0
X156.35Y-83.31
X156.48Y-107.96
X157.34Y-92.84
X157.594Y-91.394
X157.724Y-103.125
X157.75Y-95.425
X157.848Y-102.0
X158.396Y-95.353
X159.2Y-114.0
X159.6Y-95.027
X160.2Y-94.201
X161.2Y-83.45
X161.426Y-95.076
X162.45Y-79.8
X162.5Y-102.75
X162.51Y-76.3
X162.85Y-110.0
X163.695Y-83.595
X165.05Y-76.3
X166.32Y-76.3
X166.88Y-113.13
X167.59Y-76.3
X167.6Y-83.55
X168.82Y-117.8
X170.94Y-115.93
X172.4Y-93.38
X173.25Y-78.99
X176.46Y-75.82
X178.52Y-95.69
X178.54Y-85.08
X180.11Y-105.58
X181.15Y-83.43
X182.32Y-113.37
X182.75Y-98.35
X184.48Y-123.37
T2
X117.6Y-78.0
X117.6Y-129.0
X118.303Y-76.303
X118.303Y-79.697
X118.303Y-127.303
X118.303Y-130.697
X120.0Y-75.6
X120.0Y-80.4
X120.0Y-126.6
X120.0Y-131.4
X121.697Y-76.303
X121.697Y-79.697
X121.697Y-127.303
X121.697Y-130.697
X122.4Y-78.0
X122.4Y-129.0
X178.6Y-78.0
X178.6Y-129.0
X179.303Y-76.303
X179.303Y-79.697
X179.303Y-127.303
X179.303Y-130.697
X181.0Y-75.6
X181.0Y-80.4
X181.0Y-126.6
X181.0Y-131.4
X182.697Y-76.303
X182.697Y-79.697
X182.697Y-127.303
X182.697Y-130.697
X183.4Y-78.0
X183.4Y-129.0
T3
X120.9Y-85.05
X120.9Y-87.55
X120.9Y-90.05
X120.9Y-96.3
X120.9Y-98.8
X120.9Y-101.3
X121.23Y-108.66
X121.23Y-111.16
X121.23Y-113.66
X121.23Y-116.16
X126.0Y-85.05
X126.0Y-87.55
X126.0Y-90.05
X126.0Y-96.3
X126.0Y-98.8
X126.0Y-101.3
X126.8Y-108.0
X127.95Y-113.7
X129.3Y-108.0
X130.45Y-113.7
X131.1Y-85.05
X131.1Y-87.55
X131.1Y-90.05
X131.1Y-96.3
X131.1Y-98.8
X131.1Y-101.3
X131.8Y-108.0
X132.95Y-113.7
X133.05Y-77.0
X135.55Y-77.0
X136.2Y-85.05
X136.2Y-87.55
X136.2Y-90.05
X136.2Y-96.3
X136.2Y-98.8
X136.2Y-101.3
X138.05Y-77.0
X138.05Y-107.0
X139.3Y-112.05
X140.55Y-77.0
X140.55Y-107.0
X141.6Y-83.25
X141.6Y-88.3
X141.8Y-112.05
X143.05Y-77.0
X143.05Y-107.0
X144.1Y-83.25
X144.1Y-88.3
X144.3Y-112.05
X145.55Y-77.0
X146.6Y-83.25
X146.6Y-88.3
X150.55Y-111.55
X152.6Y-82.4
X152.6Y-84.9
X152.6Y-87.4
X153.05Y-111.55
X155.55Y-111.55
X157.65Y-82.4
X157.65Y-84.9
X157.65Y-87.4
X160.95Y-98.75
X160.95Y-101.25
X160.95Y-103.75
X160.95Y-106.25
X160.95Y-108.75
X160.95Y-111.25
X162.8Y-87.45
X162.8Y-89.95
X162.8Y-92.45
X165.95Y-98.75
X165.95Y-101.25
X165.95Y-103.75
X165.95Y-106.25
X165.95Y-108.75
X165.95Y-111.25
X167.9Y-87.45
X167.9Y-89.95
X167.9Y-92.45
X171.6Y-100.85
X171.6Y-103.35
X171.6Y-105.85
X171.88Y-111.73
X174.38Y-111.73
X174.4Y-86.99
X174.4Y-89.49
X174.4Y-91.99
X174.4Y-94.49
X176.65Y-100.85
X176.65Y-103.35
X176.65Y-105.85
X176.88Y-111.73
X179.55Y-116.97
X179.55Y-119.47
X179.55Y-121.97
T4
X144.77Y-118.8
X147.31Y-118.8
X149.85Y-118.8
X157.49Y-120.04
X157.5Y-125.02
X157.5Y-129.92
X159.99Y-120.04
X160.0Y-125.02
X160.0Y-129.92
X166.15Y-125.02
X166.15Y-129.92
X166.17Y-120.04
X168.65Y-125.02
X168.65Y-129.92
X168.67Y-120.04
X173.96Y-127.11
X173.96Y-129.61
X174.0Y-118.37
X174.0Y-120.87
T5
X143.0Y-129.2
X147.7Y-129.2
X152.4Y-129.2
T6
X120.0Y-78.0
X120.0Y-129.0
X181.0Y-78.0
X181.0Y-129.0
T7
X129.1Y-128.05
X136.3Y-128.05
M30
