%TF.GenerationSoftware,KiCad,Pcbnew,9.0.0*%
%TF.CreationDate,2025-03-20T15:50:57+01:00*%
%TF.ProjectId,PCB_Aquarium2,5043425f-4171-4756-9172-69756d322e6b,rev?*%
%TF.SameCoordinates,Original*%
%TF.FileFunction,Soldermask,Bot*%
%TF.FilePolarity,Negative*%
%FSLAX46Y46*%
G04 Gerber Fmt 4.6, Leading zero omitted, Abs format (unit mm)*
G04 Created by KiCad (PCBNEW 9.0.0) date 2025-03-20 15:50:57*
%MOMM*%
%LPD*%
G01*
G04 APERTURE LIST*
G04 Aperture macros list*
%AMRoundRect*
0 Rectangle with rounded corners*
0 $1 Rounding radius*
0 $2 $3 $4 $5 $6 $7 $8 $9 X,Y pos of 4 corners*
0 Add a 4 corners polygon primitive as box body*
4,1,4,$2,$3,$4,$5,$6,$7,$8,$9,$2,$3,0*
0 Add four circle primitives for the rounded corners*
1,1,$1+$1,$2,$3*
1,1,$1+$1,$4,$5*
1,1,$1+$1,$6,$7*
1,1,$1+$1,$8,$9*
0 Add four rect primitives between the rounded corners*
20,1,$1+$1,$2,$3,$4,$5,0*
20,1,$1+$1,$4,$5,$6,$7,0*
20,1,$1+$1,$6,$7,$8,$9,0*
20,1,$1+$1,$8,$9,$2,$3,0*%
G04 Aperture macros list end*
%ADD10RoundRect,0.250000X-0.725000X0.600000X-0.725000X-0.600000X0.725000X-0.600000X0.725000X0.600000X0*%
%ADD11O,1.950000X1.700000*%
%ADD12RoundRect,0.250000X0.750000X-0.600000X0.750000X0.600000X-0.750000X0.600000X-0.750000X-0.600000X0*%
%ADD13O,2.000000X1.700000*%
%ADD14RoundRect,0.250000X-0.600000X-0.725000X0.600000X-0.725000X0.600000X0.725000X-0.600000X0.725000X0*%
%ADD15O,1.700000X1.950000*%
%ADD16RoundRect,0.250000X0.725000X-0.600000X0.725000X0.600000X-0.725000X0.600000X-0.725000X-0.600000X0*%
%ADD17C,0.800000*%
%ADD18C,6.400000*%
%ADD19RoundRect,0.250000X0.600000X0.725000X-0.600000X0.725000X-0.600000X-0.725000X0.600000X-0.725000X0*%
%ADD20RoundRect,0.250000X-0.600000X-0.750000X0.600000X-0.750000X0.600000X0.750000X-0.600000X0.750000X0*%
%ADD21O,1.700000X2.000000*%
%ADD22C,3.000000*%
%ADD23RoundRect,1.500000X-1.500000X-1.500000X1.500000X-1.500000X1.500000X1.500000X-1.500000X1.500000X0*%
%ADD24C,6.000000*%
%ADD25C,1.600000*%
%ADD26RoundRect,0.225000X0.250000X-0.225000X0.250000X0.225000X-0.250000X0.225000X-0.250000X-0.225000X0*%
%ADD27RoundRect,0.225000X-0.250000X0.225000X-0.250000X-0.225000X0.250000X-0.225000X0.250000X0.225000X0*%
%ADD28RoundRect,0.225000X0.225000X0.250000X-0.225000X0.250000X-0.225000X-0.250000X0.225000X-0.250000X0*%
%ADD29RoundRect,0.225000X-0.225000X-0.250000X0.225000X-0.250000X0.225000X0.250000X-0.225000X0.250000X0*%
G04 APERTURE END LIST*
D10*
%TO.C,J38*%
X121230000Y-108660000D03*
D11*
X121230000Y-111160000D03*
X121230000Y-113660000D03*
X121230000Y-116160000D03*
%TD*%
D10*
%TO.C,J11*%
X120900000Y-85050000D03*
D11*
X120900000Y-87550000D03*
X120900000Y-90050000D03*
%TD*%
D12*
%TO.C,J4*%
X174000000Y-120870000D03*
D13*
X174000000Y-118370000D03*
%TD*%
D10*
%TO.C,J25*%
X157650000Y-82400000D03*
D11*
X157650000Y-84900000D03*
X157650000Y-87400000D03*
%TD*%
D10*
%TO.C,J36*%
X171600000Y-100850000D03*
D11*
X171600000Y-103350000D03*
X171600000Y-105850000D03*
%TD*%
D14*
%TO.C,J19*%
X150550000Y-111550000D03*
D15*
X153050000Y-111550000D03*
X155550000Y-111550000D03*
%TD*%
D16*
%TO.C,J2*%
X160950000Y-111250000D03*
D11*
X160950000Y-108750000D03*
X160950000Y-106250000D03*
X160950000Y-103750000D03*
X160950000Y-101250000D03*
X160950000Y-98750000D03*
%TD*%
D14*
%TO.C,J31*%
X126800000Y-108000000D03*
D15*
X129300000Y-108000000D03*
X131800000Y-108000000D03*
%TD*%
D10*
%TO.C,J37*%
X162800000Y-87450000D03*
D11*
X162800000Y-89950000D03*
X162800000Y-92450000D03*
%TD*%
D10*
%TO.C,J29*%
X167900000Y-87450000D03*
D11*
X167900000Y-89950000D03*
X167900000Y-92450000D03*
%TD*%
D17*
%TO.C,H4*%
X117600000Y-129000000D03*
X118302944Y-127302944D03*
X118302944Y-130697056D03*
X120000000Y-126600000D03*
D18*
X120000000Y-129000000D03*
D17*
X120000000Y-131400000D03*
X121697056Y-127302944D03*
X121697056Y-130697056D03*
X122400000Y-129000000D03*
%TD*%
D10*
%TO.C,J30*%
X136200000Y-96300000D03*
D11*
X136200000Y-98800000D03*
X136200000Y-101300000D03*
%TD*%
D10*
%TO.C,J9*%
X131100000Y-85050000D03*
D11*
X131100000Y-87550000D03*
X131100000Y-90050000D03*
%TD*%
D19*
%TO.C,J15*%
X176880000Y-111730000D03*
D15*
X174380000Y-111730000D03*
X171880000Y-111730000D03*
%TD*%
D10*
%TO.C,J13*%
X131100000Y-96300000D03*
D11*
X131100000Y-98800000D03*
X131100000Y-101300000D03*
%TD*%
D19*
%TO.C,J18*%
X132950000Y-113700000D03*
D15*
X130450000Y-113700000D03*
X127950000Y-113700000D03*
%TD*%
D10*
%TO.C,J28*%
X126000000Y-96300000D03*
D11*
X126000000Y-98800000D03*
X126000000Y-101300000D03*
%TD*%
D20*
%TO.C,J22*%
X157500000Y-125020000D03*
D21*
X160000000Y-125020000D03*
%TD*%
D12*
%TO.C,J5*%
X173960000Y-129610000D03*
D13*
X173960000Y-127110000D03*
%TD*%
D17*
%TO.C,H2*%
X117600000Y-78000000D03*
X118302944Y-76302944D03*
X118302944Y-79697056D03*
X120000000Y-75600000D03*
D18*
X120000000Y-78000000D03*
D17*
X120000000Y-80400000D03*
X121697056Y-76302944D03*
X121697056Y-79697056D03*
X122400000Y-78000000D03*
%TD*%
D20*
%TO.C,J20*%
X157490000Y-120040000D03*
D21*
X159990000Y-120040000D03*
%TD*%
D20*
%TO.C,J32*%
X157500000Y-129920000D03*
D21*
X160000000Y-129920000D03*
%TD*%
D22*
%TO.C,SW2*%
X152400000Y-129200000D03*
X147700000Y-129200000D03*
X143000000Y-129200000D03*
%TD*%
D10*
%TO.C,J14*%
X179550000Y-116970000D03*
D11*
X179550000Y-119470000D03*
X179550000Y-121970000D03*
%TD*%
D10*
%TO.C,J10*%
X126000000Y-85050000D03*
D11*
X126000000Y-87550000D03*
X126000000Y-90050000D03*
%TD*%
D14*
%TO.C,J17*%
X139300000Y-112050000D03*
D15*
X141800000Y-112050000D03*
X144300000Y-112050000D03*
%TD*%
D14*
%TO.C,J6*%
X133050000Y-77000000D03*
D15*
X135550000Y-77000000D03*
X138050000Y-77000000D03*
X140550000Y-77000000D03*
X143050000Y-77000000D03*
X145550000Y-77000000D03*
%TD*%
D10*
%TO.C,J34*%
X173000000Y-86950000D03*
D11*
X173000000Y-89450000D03*
X173000000Y-91950000D03*
X173000000Y-94450000D03*
%TD*%
D10*
%TO.C,J24*%
X152600000Y-82400000D03*
D11*
X152600000Y-84900000D03*
X152600000Y-87400000D03*
%TD*%
D17*
%TO.C,H1*%
X178600000Y-78000000D03*
X179302944Y-76302944D03*
X179302944Y-79697056D03*
X181000000Y-75600000D03*
D18*
X181000000Y-78000000D03*
D17*
X181000000Y-80400000D03*
X182697056Y-76302944D03*
X182697056Y-79697056D03*
X183400000Y-78000000D03*
%TD*%
D23*
%TO.C,J33*%
X129100000Y-128050000D03*
D24*
X136300000Y-128050000D03*
%TD*%
D19*
%TO.C,J27*%
X146600000Y-88300000D03*
D15*
X144100000Y-88300000D03*
X141600000Y-88300000D03*
%TD*%
D10*
%TO.C,J12*%
X176650000Y-100850000D03*
D11*
X176650000Y-103350000D03*
X176650000Y-105850000D03*
%TD*%
D25*
%TO.C,U2*%
X149850000Y-118800000D03*
X147310000Y-118800000D03*
X144770000Y-118800000D03*
%TD*%
D20*
%TO.C,J21*%
X166170000Y-120040000D03*
D21*
X168670000Y-120040000D03*
%TD*%
D19*
%TO.C,J26*%
X146600000Y-83250000D03*
D15*
X144100000Y-83250000D03*
X141600000Y-83250000D03*
%TD*%
D10*
%TO.C,J8*%
X120900000Y-96300000D03*
D11*
X120900000Y-98800000D03*
X120900000Y-101300000D03*
%TD*%
D16*
%TO.C,J7*%
X165950000Y-111250000D03*
D11*
X165950000Y-108750000D03*
X165950000Y-106250000D03*
X165950000Y-103750000D03*
X165950000Y-101250000D03*
X165950000Y-98750000D03*
%TD*%
D14*
%TO.C,J16*%
X138050000Y-107000000D03*
D15*
X140550000Y-107000000D03*
X143050000Y-107000000D03*
%TD*%
D20*
%TO.C,J3*%
X166150000Y-129920000D03*
D21*
X168650000Y-129920000D03*
%TD*%
D20*
%TO.C,J23*%
X166150000Y-125020000D03*
D21*
X168650000Y-125020000D03*
%TD*%
D10*
%TO.C,J1*%
X136200000Y-85050000D03*
D11*
X136200000Y-87550000D03*
X136200000Y-90050000D03*
%TD*%
D17*
%TO.C,H3*%
X178600000Y-129000000D03*
X179302944Y-127302944D03*
X179302944Y-130697056D03*
X181000000Y-126600000D03*
D18*
X181000000Y-129000000D03*
D17*
X181000000Y-131400000D03*
X182697056Y-127302944D03*
X182697056Y-130697056D03*
X183400000Y-129000000D03*
%TD*%
D26*
%TO.C,C44*%
X118770000Y-110480000D03*
X118770000Y-108930000D03*
%TD*%
%TO.C,C34*%
X123910000Y-98260000D03*
X123910000Y-96710000D03*
%TD*%
D27*
%TO.C,C13*%
X175830000Y-118950000D03*
X175830000Y-120500000D03*
%TD*%
D26*
%TO.C,C31*%
X155550000Y-84860000D03*
X155550000Y-83310000D03*
%TD*%
D28*
%TO.C,C26*%
X132550000Y-115760000D03*
X131000000Y-115760000D03*
%TD*%
D29*
%TO.C,C25*%
X139910000Y-114040000D03*
X141460000Y-114040000D03*
%TD*%
D26*
%TO.C,C22*%
X181600000Y-119090000D03*
X181600000Y-117540000D03*
%TD*%
%TO.C,C36*%
X134150000Y-97810000D03*
X134150000Y-96260000D03*
%TD*%
%TO.C,C35*%
X165780000Y-89440000D03*
X165780000Y-87890000D03*
%TD*%
%TO.C,C41*%
X170900000Y-88895000D03*
X170900000Y-87345000D03*
%TD*%
D29*
%TO.C,C32*%
X144205000Y-81030000D03*
X145755000Y-81030000D03*
%TD*%
D26*
%TO.C,C43*%
X160620000Y-90390000D03*
X160620000Y-88840000D03*
%TD*%
D28*
%TO.C,C37*%
X128830000Y-105950000D03*
X127280000Y-105950000D03*
%TD*%
D26*
%TO.C,C16*%
X124060000Y-87035000D03*
X124060000Y-85485000D03*
%TD*%
%TO.C,C42*%
X173700000Y-103850000D03*
X173700000Y-102300000D03*
%TD*%
D29*
%TO.C,C29*%
X157965000Y-127060000D03*
X159515000Y-127060000D03*
%TD*%
D28*
%TO.C,C24*%
X140100000Y-104990000D03*
X138550000Y-104990000D03*
%TD*%
%TO.C,C12*%
X168240000Y-131990000D03*
X166690000Y-131990000D03*
%TD*%
D26*
%TO.C,C11*%
X134100000Y-86630000D03*
X134100000Y-85080000D03*
%TD*%
D28*
%TO.C,C33*%
X147920000Y-90220000D03*
X146370000Y-90220000D03*
%TD*%
D26*
%TO.C,C20*%
X178660000Y-102900000D03*
X178660000Y-101350000D03*
%TD*%
%TO.C,C18*%
X129030000Y-87570000D03*
X129030000Y-86020000D03*
%TD*%
%TO.C,C17*%
X118890000Y-98240000D03*
X118890000Y-96690000D03*
%TD*%
D28*
%TO.C,C15*%
X145745000Y-78990000D03*
X144195000Y-78990000D03*
%TD*%
D26*
%TO.C,C21*%
X129060000Y-98000000D03*
X129060000Y-96450000D03*
%TD*%
D28*
%TO.C,C40*%
X159600000Y-131950000D03*
X158050000Y-131950000D03*
%TD*%
%TO.C,C27*%
X152675000Y-113690000D03*
X151125000Y-113690000D03*
%TD*%
D27*
%TO.C,C14*%
X176020000Y-127390000D03*
X176020000Y-128940000D03*
%TD*%
D26*
%TO.C,C19*%
X118820000Y-87050000D03*
X118820000Y-85500000D03*
%TD*%
D29*
%TO.C,C23*%
X174795000Y-109710000D03*
X176345000Y-109710000D03*
%TD*%
D28*
%TO.C,C28*%
X168160000Y-127280000D03*
X166610000Y-127280000D03*
%TD*%
D26*
%TO.C,C30*%
X150710000Y-84800000D03*
X150710000Y-83250000D03*
%TD*%
M02*
