%TF.GenerationSoftware,KiCad,Pcbnew,9.0.0*%
%TF.CreationDate,2025-03-22T22:53:28+01:00*%
%TF.ProjectId,PCB_Aquarium2,5043425f-4171-4756-9172-69756d322e6b,rev?*%
%TF.SameCoordinates,Original*%
%TF.FileFunction,Soldermask,Top*%
%TF.FilePolarity,Negative*%
%FSLAX46Y46*%
G04 Gerber Fmt 4.6, Leading zero omitted, Abs format (unit mm)*
G04 Created by KiCad (PCBNEW 9.0.0) date 2025-03-22 22:53:28*
%MOMM*%
%LPD*%
G01*
G04 APERTURE LIST*
G04 Aperture macros list*
%AMRoundRect*
0 Rectangle with rounded corners*
0 $1 Rounding radius*
0 $2 $3 $4 $5 $6 $7 $8 $9 X,Y pos of 4 corners*
0 Add a 4 corners polygon primitive as box body*
4,1,4,$2,$3,$4,$5,$6,$7,$8,$9,$2,$3,0*
0 Add four circle primitives for the rounded corners*
1,1,$1+$1,$2,$3*
1,1,$1+$1,$4,$5*
1,1,$1+$1,$6,$7*
1,1,$1+$1,$8,$9*
0 Add four rect primitives between the rounded corners*
20,1,$1+$1,$2,$3,$4,$5,0*
20,1,$1+$1,$4,$5,$6,$7,0*
20,1,$1+$1,$6,$7,$8,$9,0*
20,1,$1+$1,$8,$9,$2,$3,0*%
G04 Aperture macros list end*
%ADD10RoundRect,0.250000X-0.725000X0.600000X-0.725000X-0.600000X0.725000X-0.600000X0.725000X0.600000X0*%
%ADD11O,1.950000X1.700000*%
%ADD12RoundRect,0.225000X0.250000X-0.225000X0.250000X0.225000X-0.250000X0.225000X-0.250000X-0.225000X0*%
%ADD13RoundRect,0.250000X0.750000X-0.600000X0.750000X0.600000X-0.750000X0.600000X-0.750000X-0.600000X0*%
%ADD14O,2.000000X1.700000*%
%ADD15RoundRect,0.375000X0.625000X0.375000X-0.625000X0.375000X-0.625000X-0.375000X0.625000X-0.375000X0*%
%ADD16RoundRect,0.500000X0.500000X1.400000X-0.500000X1.400000X-0.500000X-1.400000X0.500000X-1.400000X0*%
%ADD17RoundRect,0.225000X-0.225000X-0.250000X0.225000X-0.250000X0.225000X0.250000X-0.225000X0.250000X0*%
%ADD18RoundRect,0.250000X-0.600000X-0.725000X0.600000X-0.725000X0.600000X0.725000X-0.600000X0.725000X0*%
%ADD19O,1.700000X1.950000*%
%ADD20RoundRect,0.250000X0.725000X-0.600000X0.725000X0.600000X-0.725000X0.600000X-0.725000X-0.600000X0*%
%ADD21RoundRect,0.218750X0.256250X-0.218750X0.256250X0.218750X-0.256250X0.218750X-0.256250X-0.218750X0*%
%ADD22C,0.800000*%
%ADD23C,6.400000*%
%ADD24RoundRect,0.250000X0.600000X0.725000X-0.600000X0.725000X-0.600000X-0.725000X0.600000X-0.725000X0*%
%ADD25R,0.740000X2.400000*%
%ADD26RoundRect,0.140000X0.140000X0.170000X-0.140000X0.170000X-0.140000X-0.170000X0.140000X-0.170000X0*%
%ADD27RoundRect,0.218750X0.381250X-0.218750X0.381250X0.218750X-0.381250X0.218750X-0.381250X-0.218750X0*%
%ADD28RoundRect,0.250000X-0.600000X-0.750000X0.600000X-0.750000X0.600000X0.750000X-0.600000X0.750000X0*%
%ADD29O,1.700000X2.000000*%
%ADD30RoundRect,0.140000X0.170000X-0.140000X0.170000X0.140000X-0.170000X0.140000X-0.170000X-0.140000X0*%
%ADD31RoundRect,0.150000X0.587500X0.150000X-0.587500X0.150000X-0.587500X-0.150000X0.587500X-0.150000X0*%
%ADD32RoundRect,0.135000X-0.185000X0.135000X-0.185000X-0.135000X0.185000X-0.135000X0.185000X0.135000X0*%
%ADD33RoundRect,0.135000X0.135000X0.185000X-0.135000X0.185000X-0.135000X-0.185000X0.135000X-0.185000X0*%
%ADD34R,1.300000X1.550000*%
%ADD35C,3.000000*%
%ADD36RoundRect,0.225000X0.225000X0.250000X-0.225000X0.250000X-0.225000X-0.250000X0.225000X-0.250000X0*%
%ADD37RoundRect,1.500000X-1.500000X-1.500000X1.500000X-1.500000X1.500000X1.500000X-1.500000X1.500000X0*%
%ADD38C,6.000000*%
%ADD39RoundRect,0.135000X-0.135000X-0.185000X0.135000X-0.185000X0.135000X0.185000X-0.135000X0.185000X0*%
%ADD40RoundRect,0.075000X-0.700000X-0.075000X0.700000X-0.075000X0.700000X0.075000X-0.700000X0.075000X0*%
%ADD41RoundRect,0.075000X-0.075000X-0.700000X0.075000X-0.700000X0.075000X0.700000X-0.075000X0.700000X0*%
%ADD42RoundRect,0.250000X1.137500X0.550000X-1.137500X0.550000X-1.137500X-0.550000X1.137500X-0.550000X0*%
%ADD43C,1.600000*%
%ADD44RoundRect,0.225000X-0.250000X0.225000X-0.250000X-0.225000X0.250000X-0.225000X0.250000X0.225000X0*%
%ADD45RoundRect,0.140000X-0.170000X0.140000X-0.170000X-0.140000X0.170000X-0.140000X0.170000X0.140000X0*%
G04 APERTURE END LIST*
D10*
%TO.C,J34*%
X174400000Y-86990000D03*
D11*
X174400000Y-89490000D03*
X174400000Y-91990000D03*
X174400000Y-94490000D03*
%TD*%
D10*
%TO.C,J38*%
X121230000Y-108660000D03*
D11*
X121230000Y-111160000D03*
X121230000Y-113660000D03*
X121230000Y-116160000D03*
%TD*%
D12*
%TO.C,C1*%
X158380000Y-94390000D03*
X158380000Y-92840000D03*
%TD*%
D10*
%TO.C,J11*%
X120900000Y-85050000D03*
D11*
X120900000Y-87550000D03*
X120900000Y-90050000D03*
%TD*%
D13*
%TO.C,J4*%
X174000000Y-120870000D03*
D14*
X174000000Y-118370000D03*
%TD*%
D10*
%TO.C,J25*%
X157650000Y-82400000D03*
D11*
X157650000Y-84900000D03*
X157650000Y-87400000D03*
%TD*%
D15*
%TO.C,U3*%
X139700000Y-122000000D03*
X139700000Y-119700000D03*
D16*
X133400000Y-119700000D03*
D15*
X139700000Y-117400000D03*
%TD*%
D10*
%TO.C,J36*%
X171600000Y-100850000D03*
D11*
X171600000Y-103350000D03*
X171600000Y-105850000D03*
%TD*%
D17*
%TO.C,C38*%
X141800000Y-115700000D03*
X143350000Y-115700000D03*
%TD*%
D18*
%TO.C,J19*%
X150550000Y-111550000D03*
D19*
X153050000Y-111550000D03*
X155550000Y-111550000D03*
%TD*%
D20*
%TO.C,J2*%
X160950000Y-111250000D03*
D11*
X160950000Y-108750000D03*
X160950000Y-106250000D03*
X160950000Y-103750000D03*
X160950000Y-101250000D03*
X160950000Y-98750000D03*
%TD*%
D18*
%TO.C,J31*%
X126800000Y-108000000D03*
D19*
X129300000Y-108000000D03*
X131800000Y-108000000D03*
%TD*%
D21*
%TO.C,D2*%
X122350000Y-124387500D03*
X122350000Y-122812500D03*
%TD*%
D10*
%TO.C,J37*%
X162800000Y-87450000D03*
D11*
X162800000Y-89950000D03*
X162800000Y-92450000D03*
%TD*%
D10*
%TO.C,J29*%
X167900000Y-87450000D03*
D11*
X167900000Y-89950000D03*
X167900000Y-92450000D03*
%TD*%
D22*
%TO.C,H4*%
X117600000Y-129000000D03*
X118302944Y-127302944D03*
X118302944Y-130697056D03*
X120000000Y-126600000D03*
D23*
X120000000Y-129000000D03*
D22*
X120000000Y-131400000D03*
X121697056Y-127302944D03*
X121697056Y-130697056D03*
X122400000Y-129000000D03*
%TD*%
D10*
%TO.C,J30*%
X136200000Y-96300000D03*
D11*
X136200000Y-98800000D03*
X136200000Y-101300000D03*
%TD*%
D10*
%TO.C,J9*%
X131100000Y-85050000D03*
D11*
X131100000Y-87550000D03*
X131100000Y-90050000D03*
%TD*%
D24*
%TO.C,J15*%
X176880000Y-111730000D03*
D19*
X174380000Y-111730000D03*
X171880000Y-111730000D03*
%TD*%
D25*
%TO.C,J35*%
X168860000Y-77800000D03*
X168860000Y-81700000D03*
X167590000Y-77800000D03*
X167590000Y-81700000D03*
X166320000Y-77800000D03*
X166320000Y-81700000D03*
X165050000Y-77800000D03*
X165050000Y-81700000D03*
X163780000Y-77800000D03*
X163780000Y-81700000D03*
X162510000Y-77800000D03*
X162510000Y-81700000D03*
X161240000Y-77800000D03*
X161240000Y-81700000D03*
%TD*%
D26*
%TO.C,C4*%
X155120000Y-105930000D03*
X154160000Y-105930000D03*
%TD*%
D10*
%TO.C,J13*%
X131100000Y-96300000D03*
D11*
X131100000Y-98800000D03*
X131100000Y-101300000D03*
%TD*%
D24*
%TO.C,J18*%
X132950000Y-113700000D03*
D19*
X130450000Y-113700000D03*
X127950000Y-113700000D03*
%TD*%
D27*
%TO.C,L1*%
X140460000Y-103430000D03*
X140460000Y-101305000D03*
%TD*%
D10*
%TO.C,J28*%
X126000000Y-96300000D03*
D11*
X126000000Y-98800000D03*
X126000000Y-101300000D03*
%TD*%
D28*
%TO.C,J22*%
X157500000Y-125020000D03*
D29*
X160000000Y-125020000D03*
%TD*%
D30*
%TO.C,C8*%
X146110000Y-92880000D03*
X146110000Y-91920000D03*
%TD*%
D31*
%TO.C,Q2*%
X166900000Y-117020000D03*
X166900000Y-115120000D03*
X165025000Y-116070000D03*
%TD*%
D26*
%TO.C,C6*%
X153150000Y-105930000D03*
X152190000Y-105930000D03*
%TD*%
D31*
%TO.C,Q1*%
X160940000Y-117020000D03*
X160940000Y-115120000D03*
X159065000Y-116070000D03*
%TD*%
D32*
%TO.C,R5*%
X120700000Y-120592500D03*
X120700000Y-121612500D03*
%TD*%
D13*
%TO.C,J5*%
X173960000Y-129610000D03*
D14*
X173960000Y-127110000D03*
%TD*%
D22*
%TO.C,H2*%
X117600000Y-78000000D03*
X118302944Y-76302944D03*
X118302944Y-79697056D03*
X120000000Y-75600000D03*
D23*
X120000000Y-78000000D03*
D22*
X120000000Y-80400000D03*
X121697056Y-76302944D03*
X121697056Y-79697056D03*
X122400000Y-78000000D03*
%TD*%
D32*
%TO.C,R6*%
X122310000Y-120592500D03*
X122310000Y-121612500D03*
%TD*%
D28*
%TO.C,J20*%
X157490000Y-120040000D03*
D29*
X159990000Y-120040000D03*
%TD*%
D28*
%TO.C,J32*%
X157500000Y-129920000D03*
D29*
X160000000Y-129920000D03*
%TD*%
D33*
%TO.C,R4*%
X169770000Y-117080000D03*
X168750000Y-117080000D03*
%TD*%
D21*
%TO.C,D1*%
X120700000Y-124387500D03*
X120700000Y-122812500D03*
%TD*%
D34*
%TO.C,SW1*%
X183040000Y-86405000D03*
X183040000Y-94355000D03*
X178540000Y-86405000D03*
X178540000Y-94355000D03*
%TD*%
D35*
%TO.C,SW2*%
X152400000Y-129200000D03*
X147700000Y-129200000D03*
X143000000Y-129200000D03*
%TD*%
D10*
%TO.C,J14*%
X179550000Y-116970000D03*
D11*
X179550000Y-119470000D03*
X179550000Y-121970000D03*
%TD*%
D10*
%TO.C,J10*%
X126000000Y-85050000D03*
D11*
X126000000Y-87550000D03*
X126000000Y-90050000D03*
%TD*%
D18*
%TO.C,J17*%
X139300000Y-112050000D03*
D19*
X141800000Y-112050000D03*
X144300000Y-112050000D03*
%TD*%
D36*
%TO.C,C10*%
X154005000Y-107240000D03*
X152455000Y-107240000D03*
%TD*%
D18*
%TO.C,J6*%
X133050000Y-77000000D03*
D19*
X135550000Y-77000000D03*
X138050000Y-77000000D03*
X140550000Y-77000000D03*
X143050000Y-77000000D03*
X145550000Y-77000000D03*
%TD*%
D10*
%TO.C,J24*%
X152600000Y-82400000D03*
D11*
X152600000Y-84900000D03*
X152600000Y-87400000D03*
%TD*%
D22*
%TO.C,H1*%
X178600000Y-78000000D03*
X179302944Y-76302944D03*
X179302944Y-79697056D03*
X181000000Y-75600000D03*
D23*
X181000000Y-78000000D03*
D22*
X181000000Y-80400000D03*
X182697056Y-76302944D03*
X182697056Y-79697056D03*
X183400000Y-78000000D03*
%TD*%
D37*
%TO.C,J33*%
X129100000Y-128050000D03*
D38*
X136300000Y-128050000D03*
%TD*%
D24*
%TO.C,J27*%
X146600000Y-88300000D03*
D19*
X144100000Y-88300000D03*
X141600000Y-88300000D03*
%TD*%
D39*
%TO.C,R1*%
X162440000Y-115070000D03*
X163460000Y-115070000D03*
%TD*%
D30*
%TO.C,C9*%
X143540000Y-102850000D03*
X143540000Y-101890000D03*
%TD*%
D40*
%TO.C,U1*%
X145175000Y-94950000D03*
X145175000Y-95450000D03*
X145175000Y-95950000D03*
X145175000Y-96450000D03*
X145175000Y-96950000D03*
X145175000Y-97450000D03*
X145175000Y-97950000D03*
X145175000Y-98450000D03*
X145175000Y-98950000D03*
X145175000Y-99450000D03*
X145175000Y-99950000D03*
X145175000Y-100450000D03*
X145175000Y-100950000D03*
X145175000Y-101450000D03*
X145175000Y-101950000D03*
X145175000Y-102450000D03*
D41*
X147100000Y-104375000D03*
X147600000Y-104375000D03*
X148100000Y-104375000D03*
X148600000Y-104375000D03*
X149100000Y-104375000D03*
X149600000Y-104375000D03*
X150100000Y-104375000D03*
X150600000Y-104375000D03*
X151100000Y-104375000D03*
X151600000Y-104375000D03*
X152100000Y-104375000D03*
X152600000Y-104375000D03*
X153100000Y-104375000D03*
X153600000Y-104375000D03*
X154100000Y-104375000D03*
X154600000Y-104375000D03*
D40*
X156525000Y-102450000D03*
X156525000Y-101950000D03*
X156525000Y-101450000D03*
X156525000Y-100950000D03*
X156525000Y-100450000D03*
X156525000Y-99950000D03*
X156525000Y-99450000D03*
X156525000Y-98950000D03*
X156525000Y-98450000D03*
X156525000Y-97950000D03*
X156525000Y-97450000D03*
X156525000Y-96950000D03*
X156525000Y-96450000D03*
X156525000Y-95950000D03*
X156525000Y-95450000D03*
X156525000Y-94950000D03*
D41*
X154600000Y-93025000D03*
X154100000Y-93025000D03*
X153600000Y-93025000D03*
X153100000Y-93025000D03*
X152600000Y-93025000D03*
X152100000Y-93025000D03*
X151600000Y-93025000D03*
X151100000Y-93025000D03*
X150600000Y-93025000D03*
X150100000Y-93025000D03*
X149600000Y-93025000D03*
X149100000Y-93025000D03*
X148600000Y-93025000D03*
X148100000Y-93025000D03*
X147600000Y-93025000D03*
X147100000Y-93025000D03*
%TD*%
D42*
%TO.C,C39*%
X130362500Y-119750000D03*
X126237500Y-119750000D03*
%TD*%
D33*
%TO.C,R3*%
X169770000Y-115090000D03*
X168750000Y-115090000D03*
%TD*%
D32*
%TO.C,R7*%
X124000000Y-120580000D03*
X124000000Y-121600000D03*
%TD*%
D10*
%TO.C,J12*%
X176650000Y-100850000D03*
D11*
X176650000Y-103350000D03*
X176650000Y-105850000D03*
%TD*%
D30*
%TO.C,C3*%
X156630000Y-94050000D03*
X156630000Y-93090000D03*
%TD*%
D43*
%TO.C,U2*%
X149850000Y-118800000D03*
X147310000Y-118800000D03*
X144770000Y-118800000D03*
%TD*%
D30*
%TO.C,C2*%
X143600000Y-97800000D03*
X143600000Y-96840000D03*
%TD*%
D28*
%TO.C,J21*%
X166170000Y-120040000D03*
D29*
X168670000Y-120040000D03*
%TD*%
D24*
%TO.C,J26*%
X146600000Y-83250000D03*
D19*
X144100000Y-83250000D03*
X141600000Y-83250000D03*
%TD*%
D44*
%TO.C,C5*%
X142180000Y-101730000D03*
X142180000Y-103280000D03*
%TD*%
D10*
%TO.C,J8*%
X120900000Y-96300000D03*
D11*
X120900000Y-98800000D03*
X120900000Y-101300000D03*
%TD*%
D20*
%TO.C,J7*%
X165950000Y-111250000D03*
D11*
X165950000Y-108750000D03*
X165950000Y-106250000D03*
X165950000Y-103750000D03*
X165950000Y-101250000D03*
X165950000Y-98750000D03*
%TD*%
D21*
%TO.C,D3*%
X124030000Y-124375000D03*
X124030000Y-122800000D03*
%TD*%
D18*
%TO.C,J16*%
X138050000Y-107000000D03*
D19*
X140550000Y-107000000D03*
X143050000Y-107000000D03*
%TD*%
D28*
%TO.C,J3*%
X166150000Y-129920000D03*
D29*
X168650000Y-129920000D03*
%TD*%
D28*
%TO.C,J23*%
X166150000Y-125020000D03*
D29*
X168650000Y-125020000D03*
%TD*%
D10*
%TO.C,J1*%
X136200000Y-85050000D03*
D11*
X136200000Y-87550000D03*
X136200000Y-90050000D03*
%TD*%
D39*
%TO.C,R2*%
X162420000Y-117290000D03*
X163440000Y-117290000D03*
%TD*%
D22*
%TO.C,H3*%
X178600000Y-129000000D03*
X179302944Y-127302944D03*
X179302944Y-130697056D03*
X181000000Y-126600000D03*
D23*
X181000000Y-129000000D03*
D22*
X181000000Y-131400000D03*
X182697056Y-127302944D03*
X182697056Y-130697056D03*
X183400000Y-129000000D03*
%TD*%
D45*
%TO.C,C7*%
X145010000Y-92970000D03*
X145010000Y-93930000D03*
%TD*%
M02*
