%TF.GenerationSoftware,KiCad,Pcbnew,9.0.0*%
%TF.CreationDate,2025-03-20T15:50:57+01:00*%
%TF.ProjectId,PCB_Aquarium2,5043425f-4171-4756-9172-69756d322e6b,rev?*%
%TF.SameCoordinates,Original*%
%TF.FileFunction,Paste,Bot*%
%TF.FilePolarity,Positive*%
%FSLAX46Y46*%
G04 Gerber Fmt 4.6, Leading zero omitted, Abs format (unit mm)*
G04 Created by KiCad (PCBNEW 9.0.0) date 2025-03-20 15:50:57*
%MOMM*%
%LPD*%
G01*
G04 APERTURE LIST*
G04 Aperture macros list*
%AMRoundRect*
0 Rectangle with rounded corners*
0 $1 Rounding radius*
0 $2 $3 $4 $5 $6 $7 $8 $9 X,Y pos of 4 corners*
0 Add a 4 corners polygon primitive as box body*
4,1,4,$2,$3,$4,$5,$6,$7,$8,$9,$2,$3,0*
0 Add four circle primitives for the rounded corners*
1,1,$1+$1,$2,$3*
1,1,$1+$1,$4,$5*
1,1,$1+$1,$6,$7*
1,1,$1+$1,$8,$9*
0 Add four rect primitives between the rounded corners*
20,1,$1+$1,$2,$3,$4,$5,0*
20,1,$1+$1,$4,$5,$6,$7,0*
20,1,$1+$1,$6,$7,$8,$9,0*
20,1,$1+$1,$8,$9,$2,$3,0*%
G04 Aperture macros list end*
%ADD10RoundRect,0.225000X0.250000X-0.225000X0.250000X0.225000X-0.250000X0.225000X-0.250000X-0.225000X0*%
%ADD11RoundRect,0.225000X-0.250000X0.225000X-0.250000X-0.225000X0.250000X-0.225000X0.250000X0.225000X0*%
%ADD12RoundRect,0.225000X0.225000X0.250000X-0.225000X0.250000X-0.225000X-0.250000X0.225000X-0.250000X0*%
%ADD13RoundRect,0.225000X-0.225000X-0.250000X0.225000X-0.250000X0.225000X0.250000X-0.225000X0.250000X0*%
G04 APERTURE END LIST*
D10*
%TO.C,C44*%
X118770000Y-110480000D03*
X118770000Y-108930000D03*
%TD*%
%TO.C,C34*%
X123910000Y-98260000D03*
X123910000Y-96710000D03*
%TD*%
D11*
%TO.C,C13*%
X175830000Y-118950000D03*
X175830000Y-120500000D03*
%TD*%
D10*
%TO.C,C31*%
X155550000Y-84860000D03*
X155550000Y-83310000D03*
%TD*%
D12*
%TO.C,C26*%
X132550000Y-115760000D03*
X131000000Y-115760000D03*
%TD*%
D13*
%TO.C,C25*%
X139910000Y-114040000D03*
X141460000Y-114040000D03*
%TD*%
D10*
%TO.C,C22*%
X181600000Y-119090000D03*
X181600000Y-117540000D03*
%TD*%
%TO.C,C36*%
X134150000Y-97810000D03*
X134150000Y-96260000D03*
%TD*%
%TO.C,C35*%
X165780000Y-89440000D03*
X165780000Y-87890000D03*
%TD*%
%TO.C,C41*%
X170900000Y-88895000D03*
X170900000Y-87345000D03*
%TD*%
D13*
%TO.C,C32*%
X144205000Y-81030000D03*
X145755000Y-81030000D03*
%TD*%
D10*
%TO.C,C43*%
X160620000Y-90390000D03*
X160620000Y-88840000D03*
%TD*%
D12*
%TO.C,C37*%
X128830000Y-105950000D03*
X127280000Y-105950000D03*
%TD*%
D10*
%TO.C,C16*%
X124060000Y-87035000D03*
X124060000Y-85485000D03*
%TD*%
%TO.C,C42*%
X173700000Y-103850000D03*
X173700000Y-102300000D03*
%TD*%
D13*
%TO.C,C29*%
X157965000Y-127060000D03*
X159515000Y-127060000D03*
%TD*%
D12*
%TO.C,C24*%
X140100000Y-104990000D03*
X138550000Y-104990000D03*
%TD*%
%TO.C,C12*%
X168240000Y-131990000D03*
X166690000Y-131990000D03*
%TD*%
D10*
%TO.C,C11*%
X134100000Y-86630000D03*
X134100000Y-85080000D03*
%TD*%
D12*
%TO.C,C33*%
X147920000Y-90220000D03*
X146370000Y-90220000D03*
%TD*%
D10*
%TO.C,C20*%
X178660000Y-102900000D03*
X178660000Y-101350000D03*
%TD*%
%TO.C,C18*%
X129030000Y-87570000D03*
X129030000Y-86020000D03*
%TD*%
%TO.C,C17*%
X118890000Y-98240000D03*
X118890000Y-96690000D03*
%TD*%
D12*
%TO.C,C15*%
X145745000Y-78990000D03*
X144195000Y-78990000D03*
%TD*%
D10*
%TO.C,C21*%
X129060000Y-98000000D03*
X129060000Y-96450000D03*
%TD*%
D12*
%TO.C,C40*%
X159600000Y-131950000D03*
X158050000Y-131950000D03*
%TD*%
%TO.C,C27*%
X152675000Y-113690000D03*
X151125000Y-113690000D03*
%TD*%
D11*
%TO.C,C14*%
X176020000Y-127390000D03*
X176020000Y-128940000D03*
%TD*%
D10*
%TO.C,C19*%
X118820000Y-87050000D03*
X118820000Y-85500000D03*
%TD*%
D13*
%TO.C,C23*%
X174795000Y-109710000D03*
X176345000Y-109710000D03*
%TD*%
D12*
%TO.C,C28*%
X168160000Y-127280000D03*
X166610000Y-127280000D03*
%TD*%
D10*
%TO.C,C30*%
X150710000Y-84800000D03*
X150710000Y-83250000D03*
%TD*%
M02*
